<?xml version="1.0" encoding="utf-8" standalone="no"?>
<!DOCTYPE svg PUBLIC "-//W3C//DTD SVG 1.1//EN"
  "http://www.w3.org/Graphics/SVG/1.1/DTD/svg11.dtd">
<svg height="345.6pt" version="1.1" viewBox="0 0 460.8 345.6" width="460.8pt" xmlns="http://www.w3.org/2000/svg" xmlns:xlink="http://www.w3.org/1999/xlink">
 <metadata>
  <rdf:RDF xmlns:cc="http://creativecommons.org/ns#" xmlns:dc="http://purl.org/dc/elements/1.1/" xmlns:rdf="http://www.w3.org/1999/02/22-rdf-syntax-ns#">
   <cc:Work>
    <dc:type rdf:resource="http://purl.org/dc/dcmitype/StillImage"/>
    <dc:date>2021-10-07T21:52:57.220888</dc:date>
    <dc:format>image/svg+xml</dc:format>
    <dc:creator>
     <cc:Agent>
      <dc:title>Matplotlib v3.4.2, https://matplotlib.org/</dc:title>
     </cc:Agent>
    </dc:creator>
   </cc:Work>
  </rdf:RDF>
 </metadata>
 <defs>
  <style type="text/css">*{stroke-linecap:butt;stroke-linejoin:round;}</style>
 </defs>
 <g id="figure_1">
  <g id="patch_1">
   <path d="M 0 345.6 
L 460.8 345.6 
L 460.8 0 
L 0 0 
z
" style="fill:#ffffff;"/>
  </g>
  <g id="axes_1">
   <g id="patch_2">
    <path d="M 57.6 307.584 
L 414.72 307.584 
L 414.72 41.472 
L 57.6 41.472 
z
" style="fill:#ffffff;"/>
   </g>
   <g id="PathCollection_1">
    <defs>
     <path d="M 0 2.236068 
C 0.593012 2.236068 1.161816 2.000462 1.581139 1.581139 
C 2.000462 1.161816 2.236068 0.593012 2.236068 0 
C 2.236068 -0.593012 2.000462 -1.161816 1.581139 -1.581139 
C 1.161816 -2.000462 0.593012 -2.236068 0 -2.236068 
C -0.593012 -2.236068 -1.161816 -2.000462 -1.581139 -1.581139 
C -2.000462 -1.161816 -2.236068 -0.593012 -2.236068 0 
C -2.236068 0.593012 -2.000462 1.161816 -1.581139 1.581139 
C -1.161816 2.000462 -0.593012 2.236068 0 2.236068 
z
" id="m89d191d533" style="stroke:#0000ff;"/>
    </defs>
    <g clip-path="url(#p4183cca74d)">
     <use style="fill:#0000ff;stroke:#0000ff;" x="73.832727" xlink:href="#m89d191d533" y="165.712147"/>
     <use style="fill:#0000ff;stroke:#0000ff;" x="109.905455" xlink:href="#m89d191d533" y="140.890771"/>
     <use style="fill:#0000ff;stroke:#0000ff;" x="145.978182" xlink:href="#m89d191d533" y="97.022549"/>
     <use style="fill:#0000ff;stroke:#0000ff;" x="182.050909" xlink:href="#m89d191d533" y="64.411612"/>
     <use style="fill:#0000ff;stroke:#0000ff;" x="218.123636" xlink:href="#m89d191d533" y="149.76359"/>
     <use style="fill:#0000ff;stroke:#0000ff;" x="254.196364" xlink:href="#m89d191d533" y="245.857922"/>
     <use style="fill:#0000ff;stroke:#0000ff;" x="290.269091" xlink:href="#m89d191d533" y="247.976571"/>
     <use style="fill:#0000ff;stroke:#0000ff;" x="326.341818" xlink:href="#m89d191d533" y="294.238711"/>
     <use style="fill:#0000ff;stroke:#0000ff;" x="362.414545" xlink:href="#m89d191d533" y="217.031864"/>
     <use style="fill:#0000ff;stroke:#0000ff;" x="398.487273" xlink:href="#m89d191d533" y="207.267987"/>
    </g>
   </g>
   <g id="matplotlib.axis_1">
    <g id="xtick_1">
     <g id="line2d_1">
      <defs>
       <path d="M 0 0 
L 0 3.5 
" id="madcb01afb4" style="stroke:#000000;stroke-width:0.8;"/>
      </defs>
      <g>
       <use style="stroke:#000000;stroke-width:0.8;" x="73.832727" xlink:href="#madcb01afb4" y="307.584"/>
      </g>
     </g>
     <g id="text_1">
      <!-- 0.0 -->
      <g transform="translate(66.332727 321.459)scale(0.1 -0.1)">
       <defs>
        <path d="M 225 2537 
Q 250 3200 412 3587 
Q 575 3975 875 4225 
Q 1175 4475 1612 4475 
Q 2050 4475 2375 4112 
Q 2700 3750 2800 3200 
Q 2900 2650 2862 1937 
Q 2825 1225 2612 775 
Q 2400 325 1975 150 
Q 1550 -25 1125 187 
Q 700 400 525 750 
Q 350 1100 275 1487 
Q 200 1875 225 2537 
z
M 750 2687 
Q 675 2000 800 1462 
Q 925 925 1212 700 
Q 1500 475 1800 612 
Q 2100 750 2237 1162 
Q 2375 1575 2375 2062 
Q 2375 2550 2337 2950 
Q 2300 3350 2112 3675 
Q 1925 4000 1612 4012 
Q 1300 4025 1062 3700 
Q 825 3375 750 2687 
z
" id="SimHei-30" transform="scale(0.015625)"/>
        <path d="M 1075 125 
L 500 125 
L 500 675 
L 1075 675 
L 1075 125 
z
" id="SimHei-2e" transform="scale(0.015625)"/>
       </defs>
       <use xlink:href="#SimHei-30"/>
       <use x="50" xlink:href="#SimHei-2e"/>
       <use x="100" xlink:href="#SimHei-30"/>
      </g>
     </g>
    </g>
    <g id="xtick_2">
     <g id="line2d_2">
      <g>
       <use style="stroke:#000000;stroke-width:0.8;" x="138.763636" xlink:href="#madcb01afb4" y="307.584"/>
      </g>
     </g>
     <g id="text_2">
      <!-- 0.2 -->
      <g transform="translate(131.263636 321.459)scale(0.1 -0.1)">
       <defs>
        <path d="M 300 250 
Q 325 625 650 925 
Q 975 1225 1475 1862 
Q 1975 2500 2125 2850 
Q 2275 3200 2237 3450 
Q 2200 3700 2000 3862 
Q 1800 4025 1537 4000 
Q 1275 3975 1037 3800 
Q 800 3625 675 3275 
L 200 3350 
Q 400 3925 712 4187 
Q 1025 4450 1450 4475 
Q 1700 4500 1900 4462 
Q 2100 4425 2312 4287 
Q 2525 4150 2662 3875 
Q 2800 3600 2762 3212 
Q 2725 2825 2375 2287 
Q 2025 1750 1025 600 
L 2825 600 
L 2825 150 
L 300 150 
L 300 250 
z
" id="SimHei-32" transform="scale(0.015625)"/>
       </defs>
       <use xlink:href="#SimHei-30"/>
       <use x="50" xlink:href="#SimHei-2e"/>
       <use x="100" xlink:href="#SimHei-32"/>
      </g>
     </g>
    </g>
    <g id="xtick_3">
     <g id="line2d_3">
      <g>
       <use style="stroke:#000000;stroke-width:0.8;" x="203.694545" xlink:href="#madcb01afb4" y="307.584"/>
      </g>
     </g>
     <g id="text_3">
      <!-- 0.4 -->
      <g transform="translate(196.194545 321.459)scale(0.1 -0.1)">
       <defs>
        <path d="M 2000 1100 
L 75 1100 
L 75 1525 
L 2100 4450 
L 2475 4450 
L 2475 1525 
L 3075 1525 
L 3075 1100 
L 2475 1100 
L 2475 150 
L 2000 150 
L 2000 1100 
z
M 2000 1525 
L 2000 3500 
L 600 1525 
L 2000 1525 
z
" id="SimHei-34" transform="scale(0.015625)"/>
       </defs>
       <use xlink:href="#SimHei-30"/>
       <use x="50" xlink:href="#SimHei-2e"/>
       <use x="100" xlink:href="#SimHei-34"/>
      </g>
     </g>
    </g>
    <g id="xtick_4">
     <g id="line2d_4">
      <g>
       <use style="stroke:#000000;stroke-width:0.8;" x="268.625455" xlink:href="#madcb01afb4" y="307.584"/>
      </g>
     </g>
     <g id="text_4">
      <!-- 0.6 -->
      <g transform="translate(261.125455 321.459)scale(0.1 -0.1)">
       <defs>
        <path d="M 250 1612 
Q 275 1975 387 2225 
Q 500 2475 725 2850 
L 1750 4450 
L 2325 4450 
L 1275 2800 
Q 1950 2975 2350 2750 
Q 2750 2525 2887 2237 
Q 3025 1950 3037 1612 
Q 3050 1275 2937 950 
Q 2825 625 2537 362 
Q 2250 100 1737 75 
Q 1225 50 862 262 
Q 500 475 362 862 
Q 225 1250 250 1612 
z
M 1025 787 
Q 1250 550 1625 525 
Q 2000 500 2250 775 
Q 2500 1050 2500 1575 
Q 2500 2100 2187 2300 
Q 1875 2500 1487 2450 
Q 1100 2400 925 2075 
Q 750 1750 775 1387 
Q 800 1025 1025 787 
z
" id="SimHei-36" transform="scale(0.015625)"/>
       </defs>
       <use xlink:href="#SimHei-30"/>
       <use x="50" xlink:href="#SimHei-2e"/>
       <use x="100" xlink:href="#SimHei-36"/>
      </g>
     </g>
    </g>
    <g id="xtick_5">
     <g id="line2d_5">
      <g>
       <use style="stroke:#000000;stroke-width:0.8;" x="333.556364" xlink:href="#madcb01afb4" y="307.584"/>
      </g>
     </g>
     <g id="text_5">
      <!-- 0.8 -->
      <g transform="translate(326.056364 321.459)scale(0.1 -0.1)">
       <defs>
        <path d="M 175 1375 
Q 175 1675 325 1962 
Q 475 2250 825 2425 
Q 525 2600 425 2812 
Q 325 3025 312 3300 
Q 300 3575 387 3775 
Q 475 3975 650 4150 
Q 825 4325 1037 4387 
Q 1250 4450 1500 4450 
Q 1750 4450 1950 4400 
Q 2150 4350 2375 4187 
Q 2600 4025 2700 3725 
Q 2800 3425 2687 3025 
Q 2575 2625 2100 2400 
Q 2525 2275 2700 2012 
Q 2875 1750 2875 1375 
Q 2875 1000 2762 775 
Q 2650 550 2512 400 
Q 2375 250 2137 162 
Q 1900 75 1537 75 
Q 1175 75 912 162 
Q 650 250 475 425 
Q 300 600 237 837 
Q 175 1075 175 1375 
z
M 687 1400 
Q 675 1100 787 875 
Q 900 650 1200 587 
Q 1500 525 1825 600 
Q 2150 675 2275 950 
Q 2400 1225 2362 1500 
Q 2325 1775 2050 1962 
Q 1775 2150 1450 2125 
Q 1125 2100 912 1900 
Q 700 1700 687 1400 
z
M 775 3350 
Q 775 3100 950 2875 
Q 1125 2650 1500 2650 
Q 1875 2650 2062 2875 
Q 2250 3100 2237 3412 
Q 2225 3725 2012 3875 
Q 1800 4025 1437 4000 
Q 1075 3975 925 3787 
Q 775 3600 775 3350 
z
" id="SimHei-38" transform="scale(0.015625)"/>
       </defs>
       <use xlink:href="#SimHei-30"/>
       <use x="50" xlink:href="#SimHei-2e"/>
       <use x="100" xlink:href="#SimHei-38"/>
      </g>
     </g>
    </g>
    <g id="xtick_6">
     <g id="line2d_6">
      <g>
       <use style="stroke:#000000;stroke-width:0.8;" x="398.487273" xlink:href="#madcb01afb4" y="307.584"/>
      </g>
     </g>
     <g id="text_6">
      <!-- 1.0 -->
      <g transform="translate(390.987273 321.459)scale(0.1 -0.1)">
       <defs>
        <path d="M 1400 3600 
Q 1075 3275 575 2975 
L 575 3450 
Q 1200 3875 1600 4450 
L 1900 4450 
L 1900 150 
L 1400 150 
L 1400 3600 
z
" id="SimHei-31" transform="scale(0.015625)"/>
       </defs>
       <use xlink:href="#SimHei-31"/>
       <use x="50" xlink:href="#SimHei-2e"/>
       <use x="100" xlink:href="#SimHei-30"/>
      </g>
     </g>
    </g>
    <g id="text_7">
     <!-- x -->
     <g transform="translate(233.66 333.584)scale(0.1 -0.1)">
      <defs>
       <path d="M 2875 125 
L 2275 125 
L 1550 1200 
L 825 125 
L 225 125 
L 1250 1550 
L 300 2925 
L 900 2925 
L 1550 1875 
L 2200 2925 
L 2800 2925 
L 1850 1550 
L 2875 125 
z
" id="SimHei-78" transform="scale(0.015625)"/>
      </defs>
      <use xlink:href="#SimHei-78"/>
     </g>
    </g>
   </g>
   <g id="matplotlib.axis_2">
    <g id="ytick_1">
     <g id="line2d_7">
      <defs>
       <path d="M 0 0 
L -3.5 0 
" id="mfb8746ee04" style="stroke:#000000;stroke-width:0.8;"/>
      </defs>
      <g>
       <use style="stroke:#000000;stroke-width:0.8;" x="57.6" xlink:href="#mfb8746ee04" y="283.558388"/>
      </g>
     </g>
     <g id="text_8">
      <!-- -1.0 -->
      <g transform="translate(30.6 286.995888)scale(0.1 -0.1)">
       <defs>
        <path d="M 2975 2125 
L 125 2125 
L 125 2525 
L 2975 2525 
L 2975 2125 
z
" id="SimHei-2d" transform="scale(0.015625)"/>
       </defs>
       <use xlink:href="#SimHei-2d"/>
       <use x="50" xlink:href="#SimHei-31"/>
       <use x="100" xlink:href="#SimHei-2e"/>
       <use x="150" xlink:href="#SimHei-30"/>
      </g>
     </g>
    </g>
    <g id="ytick_2">
     <g id="line2d_8">
      <g>
       <use style="stroke:#000000;stroke-width:0.8;" x="57.6" xlink:href="#mfb8746ee04" y="229.581661"/>
      </g>
     </g>
     <g id="text_9">
      <!-- -0.5 -->
      <g transform="translate(30.6 233.019161)scale(0.1 -0.1)">
       <defs>
        <path d="M 550 1325 
Q 725 650 1150 575 
Q 1575 500 1837 662 
Q 2100 825 2212 1087 
Q 2325 1350 2312 1675 
Q 2300 2000 2137 2225 
Q 1975 2450 1725 2525 
Q 1475 2600 1162 2525 
Q 850 2450 650 2175 
L 225 2225 
Q 275 2375 700 4375 
L 2675 4375 
L 2675 3925 
L 1075 3925 
Q 950 3250 825 2850 
Q 1200 3025 1525 3012 
Q 1850 3000 2150 2862 
Q 2450 2725 2587 2487 
Q 2725 2250 2787 2012 
Q 2850 1775 2837 1500 
Q 2825 1225 2725 937 
Q 2625 650 2425 462 
Q 2225 275 1937 162 
Q 1650 50 1275 75 
Q 900 100 562 350 
Q 225 600 100 1200 
L 550 1325 
z
" id="SimHei-35" transform="scale(0.015625)"/>
       </defs>
       <use xlink:href="#SimHei-2d"/>
       <use x="50" xlink:href="#SimHei-30"/>
       <use x="100" xlink:href="#SimHei-2e"/>
       <use x="150" xlink:href="#SimHei-35"/>
      </g>
     </g>
    </g>
    <g id="ytick_3">
     <g id="line2d_9">
      <g>
       <use style="stroke:#000000;stroke-width:0.8;" x="57.6" xlink:href="#mfb8746ee04" y="175.604934"/>
      </g>
     </g>
     <g id="text_10">
      <!-- 0.0 -->
      <g transform="translate(35.6 179.042434)scale(0.1 -0.1)">
       <use xlink:href="#SimHei-30"/>
       <use x="50" xlink:href="#SimHei-2e"/>
       <use x="100" xlink:href="#SimHei-30"/>
      </g>
     </g>
    </g>
    <g id="ytick_4">
     <g id="line2d_10">
      <g>
       <use style="stroke:#000000;stroke-width:0.8;" x="57.6" xlink:href="#mfb8746ee04" y="121.628206"/>
      </g>
     </g>
     <g id="text_11">
      <!-- 0.5 -->
      <g transform="translate(35.6 125.065706)scale(0.1 -0.1)">
       <use xlink:href="#SimHei-30"/>
       <use x="50" xlink:href="#SimHei-2e"/>
       <use x="100" xlink:href="#SimHei-35"/>
      </g>
     </g>
    </g>
    <g id="ytick_5">
     <g id="line2d_11">
      <g>
       <use style="stroke:#000000;stroke-width:0.8;" x="57.6" xlink:href="#mfb8746ee04" y="67.651479"/>
      </g>
     </g>
     <g id="text_12">
      <!-- 1.0 -->
      <g transform="translate(35.6 71.088979)scale(0.1 -0.1)">
       <use xlink:href="#SimHei-31"/>
       <use x="50" xlink:href="#SimHei-2e"/>
       <use x="100" xlink:href="#SimHei-30"/>
      </g>
     </g>
    </g>
    <g id="text_13">
     <!-- y -->
     <g transform="translate(25.35 177.028)rotate(-90)scale(0.1 -0.1)">
      <defs>
       <path d="M 2900 2925 
L 1750 -100 
Q 1650 -450 1450 -625 
Q 1250 -800 950 -800 
Q 825 -800 712 -787 
Q 600 -775 500 -725 
L 500 -225 
Q 600 -275 700 -300 
Q 800 -325 875 -325 
Q 1075 -325 1150 -262 
Q 1225 -200 1300 25 
L 200 2925 
L 750 2925 
L 1550 725 
L 1575 725 
L 2350 2925 
L 2900 2925 
z
" id="SimHei-79" transform="scale(0.015625)"/>
      </defs>
      <use xlink:href="#SimHei-79"/>
     </g>
    </g>
   </g>
   <g id="line2d_12">
    <path clip-path="url(#p4183cca74d)" d="M 73.832727 165.776821 
L 75.464157 141.527236 
L 77.095587 122.208495 
L 78.727017 107.225455 
L 80.358447 96.030284 
L 81.989877 88.119899 
L 83.621307 83.03349 
L 85.252736 80.35014 
L 86.884166 79.686537 
L 88.515596 80.694764 
L 90.147026 83.06018 
L 91.778456 86.499388 
L 93.409886 90.758273 
L 95.041316 95.610131 
L 98.304175 106.312266 
L 103.198465 122.527491 
L 104.829895 127.493895 
L 106.461325 132.091901 
L 108.092755 136.255395 
L 109.724185 139.932035 
L 111.355614 143.082064 
L 112.987044 145.677182 
L 114.618474 147.699472 
L 116.249904 149.140393 
L 117.881334 149.99981 
L 119.512764 150.285093 
L 121.144194 150.010254 
L 122.775624 149.195145 
L 124.407053 147.864693 
L 126.038483 146.048187 
L 127.669913 143.778611 
L 129.301343 141.092016 
L 130.932773 138.026937 
L 132.564203 134.623848 
L 135.827063 126.972242 
L 139.089922 118.481523 
L 145.615642 100.361376 
L 150.509931 87.060846 
L 153.772791 78.883503 
L 157.035651 71.551328 
L 158.667081 68.26952 
L 160.298511 65.275016 
L 161.929941 62.58807 
L 163.56137 60.226433 
L 165.1928 58.205348 
L 166.82423 56.537554 
L 168.45566 55.23331 
L 170.08709 54.300423 
L 171.71852 53.7443 
L 173.34995 53.568 
L 174.98138 53.772303 
L 176.61281 54.355787 
L 178.244239 55.314911 
L 179.875669 56.644109 
L 181.507099 58.33589 
L 183.138529 60.380945 
L 184.769959 62.768255 
L 186.401389 65.485208 
L 188.032819 68.517722 
L 189.664249 71.850366 
L 192.927108 79.348329 
L 196.189968 87.833495 
L 199.452828 97.146893 
L 202.715688 107.120335 
L 207.609977 122.938532 
L 220.661416 166.099472 
L 225.555706 181.168466 
L 228.818566 190.530601 
L 232.081425 199.234934 
L 235.344285 207.209305 
L 238.607145 214.402797 
L 241.870005 220.78616 
L 245.132864 226.351792 
L 248.395724 231.113241 
L 250.027154 233.202193 
L 251.658584 235.104269 
L 253.290014 236.826619 
L 254.921444 238.377463 
L 256.552873 239.766018 
L 258.184303 241.002435 
L 261.447163 243.063626 
L 264.710023 244.657736 
L 267.972883 245.890834 
L 271.235742 246.875173 
L 282.655751 250.004025 
L 285.918611 251.245952 
L 289.181471 252.80664 
L 292.444331 254.749728 
L 295.70719 257.117617 
L 298.97005 259.928289 
L 302.23291 263.172509 
L 305.49577 266.811506 
L 308.75863 270.775247 
L 315.284349 279.235111 
L 320.178639 285.437035 
L 323.441498 289.135681 
L 325.072928 290.768028 
L 326.704358 292.21417 
L 328.335788 293.441557 
L 329.967218 294.416783 
L 331.598648 295.105837 
L 333.230078 295.47437 
L 334.861508 295.488 
L 336.492937 295.112644 
L 338.124367 294.314879 
L 339.755797 293.062344 
L 341.387227 291.324166 
L 343.018657 289.071429 
L 344.650087 286.277678 
L 346.281517 282.919461 
L 347.912947 278.976912 
L 349.544376 274.434374 
L 351.175806 269.281063 
L 352.807236 263.511783 
L 354.438666 257.127681 
L 356.070096 250.137048 
L 357.701526 242.556175 
L 360.964386 225.734334 
L 364.227245 206.988087 
L 367.490105 186.834687 
L 374.015825 145.556978 
L 377.278684 126.774882 
L 378.910114 118.526745 
L 380.541544 111.363941 
L 382.172974 105.563281 
L 383.804404 101.431214 
L 385.435834 99.305769 
L 387.067264 99.558572 
L 388.698693 102.596958 
L 390.330123 108.866153 
L 391.961553 118.851557 
L 393.592983 133.0811 
L 395.224413 152.127706 
L 396.855843 176.611831 
L 398.487273 207.204113 
L 398.487273 207.204113 
" style="fill:none;stroke:#000000;stroke-dasharray:3.7,1.6;stroke-dashoffset:0;"/>
   </g>
   <g id="line2d_13">
    <path clip-path="url(#p4183cca74d)" d="M 73.832727 175.604934 
L 85.252736 151.939207 
L 91.778456 138.860676 
L 96.672746 129.424814 
L 101.567035 120.402976 
L 106.461325 111.876049 
L 111.355614 103.920478 
L 114.618474 98.969638 
L 117.881334 94.324288 
L 121.144194 90.002947 
L 124.407053 86.02284 
L 127.669913 82.399835 
L 130.932773 79.148371 
L 134.195633 76.281413 
L 137.458492 73.810386 
L 140.721352 71.745143 
L 143.984212 70.093915 
L 147.247072 68.863285 
L 150.509931 68.058159 
L 153.772791 67.681746 
L 157.035651 67.735546 
L 160.298511 68.219345 
L 163.56137 69.131215 
L 166.82423 70.46752 
L 170.08709 72.222933 
L 173.34995 74.390458 
L 176.61281 76.961453 
L 179.875669 79.92567 
L 183.138529 83.271293 
L 186.401389 86.984985 
L 189.664249 91.051942 
L 192.927108 95.455951 
L 196.189968 100.179459 
L 199.452828 105.203634 
L 204.347117 113.25953 
L 209.241407 121.87438 
L 214.135697 130.970948 
L 220.661416 143.707554 
L 227.187136 156.952262 
L 240.238575 184.117338 
L 250.027154 204.230642 
L 256.552873 217.113667 
L 261.447163 226.352877 
L 266.341453 235.137109 
L 271.235742 243.38761 
L 274.498602 248.55468 
L 277.761462 253.430952 
L 281.024322 257.996986 
L 284.287181 262.234581 
L 287.550041 266.126846 
L 290.812901 269.658263 
L 294.075761 272.814756 
L 297.33862 275.583742 
L 300.60148 277.954184 
L 303.86434 279.916631 
L 307.1272 281.463261 
L 310.390059 282.587909 
L 313.652919 283.286091 
L 316.915779 283.555025 
L 320.178639 283.393638 
L 323.441498 282.802574 
L 326.704358 281.784188 
L 329.967218 280.342541 
L 333.230078 278.483379 
L 336.492937 276.214113 
L 339.755797 273.543789 
L 343.018657 270.483053 
L 346.281517 267.044104 
L 349.544376 263.240652 
L 352.807236 259.087859 
L 356.070096 254.602278 
L 359.332956 249.80179 
L 362.595815 244.705532 
L 367.490105 236.551318 
L 372.384395 227.850692 
L 377.278684 218.681661 
L 383.804404 205.870249 
L 391.961553 189.202719 
L 398.487273 175.604934 
L 398.487273 175.604934 
" style="fill:none;stroke:#008000;stroke-linecap:square;"/>
   </g>
   <g id="patch_3">
    <path d="M 57.6 307.584 
L 57.6 41.472 
" style="fill:none;stroke:#000000;stroke-linecap:square;stroke-linejoin:miter;stroke-width:0.8;"/>
   </g>
   <g id="patch_4">
    <path d="M 414.72 307.584 
L 414.72 41.472 
" style="fill:none;stroke:#000000;stroke-linecap:square;stroke-linejoin:miter;stroke-width:0.8;"/>
   </g>
   <g id="patch_5">
    <path d="M 57.6 307.584 
L 414.72 307.584 
" style="fill:none;stroke:#000000;stroke-linecap:square;stroke-linejoin:miter;stroke-width:0.8;"/>
   </g>
   <g id="patch_6">
    <path d="M 57.6 41.472 
L 414.72 41.472 
" style="fill:none;stroke:#000000;stroke-linecap:square;stroke-linejoin:miter;stroke-width:0.8;"/>
   </g>
   <g id="text_14">
    <!-- analytic, n_train=10, m=8 -->
    <g transform="translate(161.16 35.472)scale(0.12 -0.12)">
     <defs>
      <path d="M 2875 125 
L 2275 125 
Q 2225 175 2200 262 
Q 2175 350 2175 475 
Q 2000 275 1750 175 
Q 1500 75 1225 75 
Q 825 75 550 275 
Q 275 475 275 850 
Q 275 1225 525 1450 
Q 775 1675 1300 1750 
Q 1650 1800 1912 1875 
Q 2175 1950 2175 2075 
Q 2175 2225 2062 2375 
Q 1950 2525 1575 2525 
Q 1275 2525 1137 2412 
Q 1000 2300 950 2100 
L 400 2100 
Q 450 2500 762 2737 
Q 1075 2975 1575 2975 
Q 2125 2975 2400 2725 
Q 2675 2475 2675 2025 
L 2675 650 
Q 2675 500 2725 375 
Q 2775 250 2875 125 
z
M 2175 1050 
L 2175 1550 
Q 2025 1500 1887 1462 
Q 1750 1425 1425 1375 
Q 1050 1325 937 1200 
Q 825 1075 825 900 
Q 825 750 937 637 
Q 1050 525 1275 525 
Q 1500 525 1762 650 
Q 2025 775 2175 1050 
z
" id="SimHei-61" transform="scale(0.015625)"/>
      <path d="M 2800 125 
L 2300 125 
L 2300 1925 
Q 2300 2225 2150 2400 
Q 2000 2575 1750 2575 
Q 1425 2575 1137 2237 
Q 850 1900 850 1400 
L 850 125 
L 350 125 
L 350 2925 
L 850 2925 
L 850 2400 
Q 1050 2675 1287 2825 
Q 1525 2975 1900 2975 
Q 2350 2975 2575 2725 
Q 2800 2475 2800 2100 
L 2800 125 
z
" id="SimHei-6e" transform="scale(0.015625)"/>
      <path d="M 1825 125 
L 1325 125 
L 1325 4400 
L 1825 4400 
L 1825 125 
z
" id="SimHei-6c" transform="scale(0.015625)"/>
      <path d="M 2750 200 
Q 2625 150 2462 112 
Q 2300 75 2025 75 
Q 1575 75 1300 325 
Q 1025 575 1025 1025 
L 1025 2525 
L 175 2525 
L 175 2925 
L 1025 2925 
L 1025 3900 
L 1525 3900 
L 1525 2925 
L 2550 2925 
L 2550 2525 
L 1525 2525 
L 1525 1000 
Q 1525 800 1625 662 
Q 1725 525 2000 525 
Q 2275 525 2450 575 
Q 2625 625 2750 700 
L 2750 200 
z
" id="SimHei-74" transform="scale(0.015625)"/>
      <path d="M 1800 3725 
L 1300 3725 
L 1300 4375 
L 1800 4375 
L 1800 3725 
z
M 1800 125 
L 1300 125 
L 1300 2925 
L 1800 2925 
L 1800 125 
z
" id="SimHei-69" transform="scale(0.015625)"/>
      <path d="M 2850 1250 
Q 2850 725 2487 400 
Q 2125 75 1575 75 
Q 1025 75 625 462 
Q 225 850 225 1525 
Q 225 2200 625 2587 
Q 1025 2975 1575 2975 
Q 2125 2975 2450 2687 
Q 2775 2400 2775 2000 
L 2225 2000 
Q 2200 2300 2012 2412 
Q 1825 2525 1575 2525 
Q 1275 2525 1025 2287 
Q 775 2050 775 1525 
Q 775 1000 1025 762 
Q 1275 525 1575 525 
Q 1900 525 2100 700 
Q 2300 875 2300 1250 
L 2850 1250 
z
" id="SimHei-63" transform="scale(0.015625)"/>
      <path d="M 1100 125 
L 775 -550 
L 525 -550 
L 775 125 
L 525 125 
L 525 675 
L 1100 675 
L 1100 125 
z
" id="SimHei-2c" transform="scale(0.015625)"/>
      <path id="SimHei-20" transform="scale(0.015625)"/>
      <path d="M 3150 -850 
L 0 -850 
L 0 -550 
L 3150 -550 
L 3150 -850 
z
" id="SimHei-5f" transform="scale(0.015625)"/>
      <path d="M 2500 2425 
Q 2025 2500 1700 2287 
Q 1375 2075 1150 1550 
L 1150 125 
L 650 125 
L 650 2925 
L 1150 2925 
L 1150 2200 
Q 1375 2600 1712 2787 
Q 2050 2975 2500 2975 
L 2500 2425 
z
" id="SimHei-72" transform="scale(0.015625)"/>
      <path d="M 2975 2900 
L 125 2900 
L 125 3300 
L 2975 3300 
L 2975 2900 
z
M 2975 1375 
L 125 1375 
L 125 1775 
L 2975 1775 
L 2975 1375 
z
" id="SimHei-3d" transform="scale(0.015625)"/>
      <path d="M 3050 125 
L 2550 125 
L 2550 2150 
Q 2550 2300 2500 2400 
Q 2450 2500 2300 2500 
Q 2125 2500 1975 2312 
Q 1825 2125 1825 1825 
L 1825 125 
L 1325 125 
L 1325 2150 
Q 1325 2300 1275 2400 
Q 1225 2500 1075 2500 
Q 900 2500 750 2312 
Q 600 2125 600 1825 
L 600 125 
L 100 125 
L 100 2925 
L 600 2925 
L 600 2550 
Q 725 2750 900 2862 
Q 1075 2975 1275 2975 
Q 1475 2975 1612 2862 
Q 1750 2750 1800 2550 
Q 1925 2750 2087 2862 
Q 2250 2975 2450 2975 
Q 2750 2975 2900 2812 
Q 3050 2650 3050 2350 
L 3050 125 
z
" id="SimHei-6d" transform="scale(0.015625)"/>
     </defs>
     <use xlink:href="#SimHei-61"/>
     <use x="50" xlink:href="#SimHei-6e"/>
     <use x="100" xlink:href="#SimHei-61"/>
     <use x="150" xlink:href="#SimHei-6c"/>
     <use x="200" xlink:href="#SimHei-79"/>
     <use x="250" xlink:href="#SimHei-74"/>
     <use x="300" xlink:href="#SimHei-69"/>
     <use x="350" xlink:href="#SimHei-63"/>
     <use x="400" xlink:href="#SimHei-2c"/>
     <use x="450" xlink:href="#SimHei-20"/>
     <use x="500" xlink:href="#SimHei-6e"/>
     <use x="550" xlink:href="#SimHei-5f"/>
     <use x="600" xlink:href="#SimHei-74"/>
     <use x="650" xlink:href="#SimHei-72"/>
     <use x="700" xlink:href="#SimHei-61"/>
     <use x="750" xlink:href="#SimHei-69"/>
     <use x="800" xlink:href="#SimHei-6e"/>
     <use x="850" xlink:href="#SimHei-3d"/>
     <use x="900" xlink:href="#SimHei-31"/>
     <use x="950" xlink:href="#SimHei-30"/>
     <use x="1000" xlink:href="#SimHei-2c"/>
     <use x="1050" xlink:href="#SimHei-20"/>
     <use x="1100" xlink:href="#SimHei-6d"/>
     <use x="1150" xlink:href="#SimHei-3d"/>
     <use x="1200" xlink:href="#SimHei-38"/>
    </g>
   </g>
   <g id="legend_1">
    <g id="patch_7">
     <path d="M 265.72 90.0345 
L 407.72 90.0345 
Q 409.72 90.0345 409.72 88.0345 
L 409.72 48.472 
Q 409.72 46.472 407.72 46.472 
L 265.72 46.472 
Q 263.72 46.472 263.72 48.472 
L 263.72 88.0345 
Q 263.72 90.0345 265.72 90.0345 
z
" style="fill:#ffffff;opacity:0.8;stroke:#cccccc;stroke-linejoin:miter;"/>
    </g>
    <g id="line2d_14">
     <path d="M 267.72 54.7845 
L 287.72 54.7845 
" style="fill:none;stroke:#000000;stroke-dasharray:3.7,1.6;stroke-dashoffset:0;"/>
    </g>
    <g id="line2d_15"/>
    <g id="text_15">
     <!-- predict func(analytic) -->
     <g transform="translate(295.72 58.2845)scale(0.1 -0.1)">
      <defs>
       <path d="M 2825 1525 
Q 2825 800 2475 425 
Q 2125 50 1625 50 
Q 1350 50 1150 162 
Q 950 275 800 500 
L 800 -800 
L 300 -800 
L 300 2925 
L 800 2925 
L 800 2550 
Q 950 2775 1150 2875 
Q 1350 2975 1625 2975 
Q 2125 2975 2475 2612 
Q 2825 2250 2825 1525 
z
M 2275 1525 
Q 2275 2000 2087 2262 
Q 1900 2525 1525 2525 
Q 1225 2525 1012 2262 
Q 800 2000 800 1525 
Q 800 1050 1012 775 
Q 1225 500 1525 500 
Q 1900 500 2087 775 
Q 2275 1050 2275 1525 
z
" id="SimHei-70" transform="scale(0.015625)"/>
       <path d="M 2850 1075 
Q 2800 625 2450 350 
Q 2100 75 1625 75 
Q 1025 75 637 462 
Q 250 850 250 1525 
Q 250 2200 637 2587 
Q 1025 2975 1625 2975 
Q 2150 2975 2487 2637 
Q 2825 2300 2825 1525 
L 800 1525 
Q 800 975 1037 750 
Q 1275 525 1625 525 
Q 1900 525 2075 662 
Q 2250 800 2300 1075 
L 2850 1075 
z
M 2250 1925 
Q 2200 2275 2025 2412 
Q 1850 2550 1575 2550 
Q 1325 2550 1125 2412 
Q 925 2275 825 1925 
L 2250 1925 
z
" id="SimHei-65" transform="scale(0.015625)"/>
       <path d="M 2750 125 
L 2250 125 
L 2250 500 
Q 2100 275 1900 175 
Q 1700 75 1425 75 
Q 925 75 575 437 
Q 225 800 225 1525 
Q 225 2250 575 2625 
Q 925 3000 1425 3000 
Q 1700 3000 1900 2887 
Q 2100 2775 2250 2550 
L 2250 4400 
L 2750 4400 
L 2750 125 
z
M 2250 1525 
Q 2250 2000 2037 2275 
Q 1825 2550 1525 2550 
Q 1150 2550 962 2275 
Q 775 2000 775 1525 
Q 775 1050 962 787 
Q 1150 525 1525 525 
Q 1825 525 2037 787 
Q 2250 1050 2250 1525 
z
" id="SimHei-64" transform="scale(0.015625)"/>
       <path d="M 2850 3825 
Q 2725 3900 2550 3950 
Q 2375 4000 2100 4000 
Q 1825 4000 1725 3862 
Q 1625 3725 1625 3525 
L 1625 2925 
L 2650 2925 
L 2650 2525 
L 1625 2525 
L 1625 125 
L 1125 125 
L 1125 2525 
L 275 2525 
L 275 2925 
L 1125 2925 
L 1125 3500 
Q 1125 3950 1400 4200 
Q 1675 4450 2125 4450 
Q 2400 4450 2562 4412 
Q 2725 4375 2850 4325 
L 2850 3825 
z
" id="SimHei-66" transform="scale(0.015625)"/>
       <path d="M 2800 125 
L 2300 125 
L 2300 650 
Q 2100 375 1862 225 
Q 1625 75 1250 75 
Q 800 75 575 325 
Q 350 575 350 950 
L 350 2925 
L 850 2925 
L 850 1125 
Q 850 825 1000 650 
Q 1150 475 1400 475 
Q 1725 475 2012 812 
Q 2300 1150 2300 1650 
L 2300 2925 
L 2800 2925 
L 2800 125 
z
" id="SimHei-75" transform="scale(0.015625)"/>
       <path d="M 2975 -200 
L 2700 -475 
Q 2075 125 1762 775 
Q 1450 1425 1450 2250 
Q 1450 3075 1762 3725 
Q 2075 4375 2700 5000 
L 2975 4725 
Q 2400 4175 2112 3587 
Q 1825 3000 1825 2250 
Q 1825 1500 2112 912 
Q 2400 325 2975 -200 
z
" id="SimHei-28" transform="scale(0.015625)"/>
       <path d="M 1675 2250 
Q 1675 1425 1362 775 
Q 1050 125 425 -475 
L 150 -200 
Q 725 325 1012 912 
Q 1300 1500 1300 2250 
Q 1300 3000 1012 3587 
Q 725 4175 150 4725 
L 425 5000 
Q 1050 4375 1362 3725 
Q 1675 3075 1675 2250 
z
" id="SimHei-29" transform="scale(0.015625)"/>
      </defs>
      <use xlink:href="#SimHei-70"/>
      <use x="50" xlink:href="#SimHei-72"/>
      <use x="100" xlink:href="#SimHei-65"/>
      <use x="150" xlink:href="#SimHei-64"/>
      <use x="200" xlink:href="#SimHei-69"/>
      <use x="250" xlink:href="#SimHei-63"/>
      <use x="300" xlink:href="#SimHei-74"/>
      <use x="350" xlink:href="#SimHei-20"/>
      <use x="400" xlink:href="#SimHei-66"/>
      <use x="450" xlink:href="#SimHei-75"/>
      <use x="500" xlink:href="#SimHei-6e"/>
      <use x="550" xlink:href="#SimHei-63"/>
      <use x="600" xlink:href="#SimHei-28"/>
      <use x="650" xlink:href="#SimHei-61"/>
      <use x="700" xlink:href="#SimHei-6e"/>
      <use x="750" xlink:href="#SimHei-61"/>
      <use x="800" xlink:href="#SimHei-6c"/>
      <use x="850" xlink:href="#SimHei-79"/>
      <use x="900" xlink:href="#SimHei-74"/>
      <use x="950" xlink:href="#SimHei-69"/>
      <use x="1000" xlink:href="#SimHei-63"/>
      <use x="1050" xlink:href="#SimHei-29"/>
     </g>
    </g>
    <g id="line2d_16">
     <path d="M 267.72 68.0345 
L 287.72 68.0345 
" style="fill:none;stroke:#008000;stroke-linecap:square;"/>
    </g>
    <g id="line2d_17"/>
    <g id="text_16">
     <!-- real func -->
     <g transform="translate(295.72 71.5345)scale(0.1 -0.1)">
      <use xlink:href="#SimHei-72"/>
      <use x="50" xlink:href="#SimHei-65"/>
      <use x="100" xlink:href="#SimHei-61"/>
      <use x="150" xlink:href="#SimHei-6c"/>
      <use x="200" xlink:href="#SimHei-20"/>
      <use x="250" xlink:href="#SimHei-66"/>
      <use x="300" xlink:href="#SimHei-75"/>
      <use x="350" xlink:href="#SimHei-6e"/>
      <use x="400" xlink:href="#SimHei-63"/>
     </g>
    </g>
    <g id="PathCollection_2">
     <g>
      <use style="fill:#0000ff;stroke:#0000ff;" x="277.72" xlink:href="#m89d191d533" y="82.1595"/>
     </g>
    </g>
    <g id="text_17">
     <!-- train data -->
     <g transform="translate(295.72 84.7845)scale(0.1 -0.1)">
      <use xlink:href="#SimHei-74"/>
      <use x="50" xlink:href="#SimHei-72"/>
      <use x="100" xlink:href="#SimHei-61"/>
      <use x="150" xlink:href="#SimHei-69"/>
      <use x="200" xlink:href="#SimHei-6e"/>
      <use x="250" xlink:href="#SimHei-20"/>
      <use x="300" xlink:href="#SimHei-64"/>
      <use x="350" xlink:href="#SimHei-61"/>
      <use x="400" xlink:href="#SimHei-74"/>
      <use x="450" xlink:href="#SimHei-61"/>
     </g>
    </g>
   </g>
  </g>
 </g>
 <defs>
  <clipPath id="p4183cca74d">
   <rect height="266.112" width="357.12" x="57.6" y="41.472"/>
  </clipPath>
 </defs>
</svg>
