<?xml version="1.0" encoding="utf-8" standalone="no"?>
<!DOCTYPE svg PUBLIC "-//W3C//DTD SVG 1.1//EN"
  "http://www.w3.org/Graphics/SVG/1.1/DTD/svg11.dtd">
<svg height="345.6pt" version="1.1" viewBox="0 0 460.8 345.6" width="460.8pt" xmlns="http://www.w3.org/2000/svg" xmlns:xlink="http://www.w3.org/1999/xlink">
 <metadata>
  <rdf:RDF xmlns:cc="http://creativecommons.org/ns#" xmlns:dc="http://purl.org/dc/elements/1.1/" xmlns:rdf="http://www.w3.org/1999/02/22-rdf-syntax-ns#">
   <cc:Work>
    <dc:type rdf:resource="http://purl.org/dc/dcmitype/StillImage"/>
    <dc:date>2021-10-07T21:59:34.132995</dc:date>
    <dc:format>image/svg+xml</dc:format>
    <dc:creator>
     <cc:Agent>
      <dc:title>Matplotlib v3.4.2, https://matplotlib.org/</dc:title>
     </cc:Agent>
    </dc:creator>
   </cc:Work>
  </rdf:RDF>
 </metadata>
 <defs>
  <style type="text/css">*{stroke-linecap:butt;stroke-linejoin:round;}</style>
 </defs>
 <g id="figure_1">
  <g id="patch_1">
   <path d="M 0 345.6 
L 460.8 345.6 
L 460.8 0 
L 0 0 
z
" style="fill:#ffffff;"/>
  </g>
  <g id="axes_1">
   <g id="patch_2">
    <path d="M 57.6 307.584 
L 414.72 307.584 
L 414.72 41.472 
L 57.6 41.472 
z
" style="fill:#ffffff;"/>
   </g>
   <g id="PathCollection_1">
    <defs>
     <path d="M 0 2.236068 
C 0.593012 2.236068 1.161816 2.000462 1.581139 1.581139 
C 2.000462 1.161816 2.236068 0.593012 2.236068 0 
C 2.236068 -0.593012 2.000462 -1.161816 1.581139 -1.581139 
C 1.161816 -2.000462 0.593012 -2.236068 0 -2.236068 
C -0.593012 -2.236068 -1.161816 -2.000462 -1.581139 -1.581139 
C -2.000462 -1.161816 -2.236068 -0.593012 -2.236068 0 
C -2.236068 0.593012 -2.000462 1.161816 -1.581139 1.581139 
C -1.161816 2.000462 -0.593012 2.236068 0 2.236068 
z
" id="m798890deb5" style="stroke:#0000ff;"/>
    </defs>
    <g clip-path="url(#p628b55b351)">
     <use style="fill:#0000ff;stroke:#0000ff;" x="73.832727" xlink:href="#m798890deb5" y="169.402118"/>
     <use style="fill:#0000ff;stroke:#0000ff;" x="87.36" xlink:href="#m798890deb5" y="140.181519"/>
     <use style="fill:#0000ff;stroke:#0000ff;" x="100.887273" xlink:href="#m798890deb5" y="125.308926"/>
     <use style="fill:#0000ff;stroke:#0000ff;" x="114.414545" xlink:href="#m798890deb5" y="121.806764"/>
     <use style="fill:#0000ff;stroke:#0000ff;" x="127.941818" xlink:href="#m798890deb5" y="91.919021"/>
     <use style="fill:#0000ff;stroke:#0000ff;" x="141.469091" xlink:href="#m798890deb5" y="101.78479"/>
     <use style="fill:#0000ff;stroke:#0000ff;" x="154.996364" xlink:href="#m798890deb5" y="85.879057"/>
     <use style="fill:#0000ff;stroke:#0000ff;" x="168.523636" xlink:href="#m798890deb5" y="81.719037"/>
     <use style="fill:#0000ff;stroke:#0000ff;" x="182.050909" xlink:href="#m798890deb5" y="53.568"/>
     <use style="fill:#0000ff;stroke:#0000ff;" x="195.578182" xlink:href="#m798890deb5" y="92.821988"/>
     <use style="fill:#0000ff;stroke:#0000ff;" x="209.105455" xlink:href="#m798890deb5" y="111.47529"/>
     <use style="fill:#0000ff;stroke:#0000ff;" x="222.632727" xlink:href="#m798890deb5" y="151.873851"/>
     <use style="fill:#0000ff;stroke:#0000ff;" x="236.16" xlink:href="#m798890deb5" y="153.307889"/>
     <use style="fill:#0000ff;stroke:#0000ff;" x="249.687273" xlink:href="#m798890deb5" y="222.07347"/>
     <use style="fill:#0000ff;stroke:#0000ff;" x="263.214545" xlink:href="#m798890deb5" y="231.942649"/>
     <use style="fill:#0000ff;stroke:#0000ff;" x="276.741818" xlink:href="#m798890deb5" y="258.573246"/>
     <use style="fill:#0000ff;stroke:#0000ff;" x="290.269091" xlink:href="#m798890deb5" y="235.103629"/>
     <use style="fill:#0000ff;stroke:#0000ff;" x="303.796364" xlink:href="#m798890deb5" y="266.677566"/>
     <use style="fill:#0000ff;stroke:#0000ff;" x="317.323636" xlink:href="#m798890deb5" y="273.643798"/>
     <use style="fill:#0000ff;stroke:#0000ff;" x="330.850909" xlink:href="#m798890deb5" y="279.069719"/>
     <use style="fill:#0000ff;stroke:#0000ff;" x="344.378182" xlink:href="#m798890deb5" y="295.488"/>
     <use style="fill:#0000ff;stroke:#0000ff;" x="357.905455" xlink:href="#m798890deb5" y="257.45879"/>
     <use style="fill:#0000ff;stroke:#0000ff;" x="371.432727" xlink:href="#m798890deb5" y="236.580346"/>
     <use style="fill:#0000ff;stroke:#0000ff;" x="384.96" xlink:href="#m798890deb5" y="205.39795"/>
     <use style="fill:#0000ff;stroke:#0000ff;" x="398.487273" xlink:href="#m798890deb5" y="196.557345"/>
    </g>
   </g>
   <g id="matplotlib.axis_1">
    <g id="xtick_1">
     <g id="line2d_1">
      <defs>
       <path d="M 0 0 
L 0 3.5 
" id="m0422d0b605" style="stroke:#000000;stroke-width:0.8;"/>
      </defs>
      <g>
       <use style="stroke:#000000;stroke-width:0.8;" x="73.832727" xlink:href="#m0422d0b605" y="307.584"/>
      </g>
     </g>
     <g id="text_1">
      <!-- 0.0 -->
      <g transform="translate(66.332727 321.459)scale(0.1 -0.1)">
       <defs>
        <path d="M 225 2537 
Q 250 3200 412 3587 
Q 575 3975 875 4225 
Q 1175 4475 1612 4475 
Q 2050 4475 2375 4112 
Q 2700 3750 2800 3200 
Q 2900 2650 2862 1937 
Q 2825 1225 2612 775 
Q 2400 325 1975 150 
Q 1550 -25 1125 187 
Q 700 400 525 750 
Q 350 1100 275 1487 
Q 200 1875 225 2537 
z
M 750 2687 
Q 675 2000 800 1462 
Q 925 925 1212 700 
Q 1500 475 1800 612 
Q 2100 750 2237 1162 
Q 2375 1575 2375 2062 
Q 2375 2550 2337 2950 
Q 2300 3350 2112 3675 
Q 1925 4000 1612 4012 
Q 1300 4025 1062 3700 
Q 825 3375 750 2687 
z
" id="SimHei-30" transform="scale(0.015625)"/>
        <path d="M 1075 125 
L 500 125 
L 500 675 
L 1075 675 
L 1075 125 
z
" id="SimHei-2e" transform="scale(0.015625)"/>
       </defs>
       <use xlink:href="#SimHei-30"/>
       <use x="50" xlink:href="#SimHei-2e"/>
       <use x="100" xlink:href="#SimHei-30"/>
      </g>
     </g>
    </g>
    <g id="xtick_2">
     <g id="line2d_2">
      <g>
       <use style="stroke:#000000;stroke-width:0.8;" x="138.763636" xlink:href="#m0422d0b605" y="307.584"/>
      </g>
     </g>
     <g id="text_2">
      <!-- 0.2 -->
      <g transform="translate(131.263636 321.459)scale(0.1 -0.1)">
       <defs>
        <path d="M 300 250 
Q 325 625 650 925 
Q 975 1225 1475 1862 
Q 1975 2500 2125 2850 
Q 2275 3200 2237 3450 
Q 2200 3700 2000 3862 
Q 1800 4025 1537 4000 
Q 1275 3975 1037 3800 
Q 800 3625 675 3275 
L 200 3350 
Q 400 3925 712 4187 
Q 1025 4450 1450 4475 
Q 1700 4500 1900 4462 
Q 2100 4425 2312 4287 
Q 2525 4150 2662 3875 
Q 2800 3600 2762 3212 
Q 2725 2825 2375 2287 
Q 2025 1750 1025 600 
L 2825 600 
L 2825 150 
L 300 150 
L 300 250 
z
" id="SimHei-32" transform="scale(0.015625)"/>
       </defs>
       <use xlink:href="#SimHei-30"/>
       <use x="50" xlink:href="#SimHei-2e"/>
       <use x="100" xlink:href="#SimHei-32"/>
      </g>
     </g>
    </g>
    <g id="xtick_3">
     <g id="line2d_3">
      <g>
       <use style="stroke:#000000;stroke-width:0.8;" x="203.694545" xlink:href="#m0422d0b605" y="307.584"/>
      </g>
     </g>
     <g id="text_3">
      <!-- 0.4 -->
      <g transform="translate(196.194545 321.459)scale(0.1 -0.1)">
       <defs>
        <path d="M 2000 1100 
L 75 1100 
L 75 1525 
L 2100 4450 
L 2475 4450 
L 2475 1525 
L 3075 1525 
L 3075 1100 
L 2475 1100 
L 2475 150 
L 2000 150 
L 2000 1100 
z
M 2000 1525 
L 2000 3500 
L 600 1525 
L 2000 1525 
z
" id="SimHei-34" transform="scale(0.015625)"/>
       </defs>
       <use xlink:href="#SimHei-30"/>
       <use x="50" xlink:href="#SimHei-2e"/>
       <use x="100" xlink:href="#SimHei-34"/>
      </g>
     </g>
    </g>
    <g id="xtick_4">
     <g id="line2d_4">
      <g>
       <use style="stroke:#000000;stroke-width:0.8;" x="268.625455" xlink:href="#m0422d0b605" y="307.584"/>
      </g>
     </g>
     <g id="text_4">
      <!-- 0.6 -->
      <g transform="translate(261.125455 321.459)scale(0.1 -0.1)">
       <defs>
        <path d="M 250 1612 
Q 275 1975 387 2225 
Q 500 2475 725 2850 
L 1750 4450 
L 2325 4450 
L 1275 2800 
Q 1950 2975 2350 2750 
Q 2750 2525 2887 2237 
Q 3025 1950 3037 1612 
Q 3050 1275 2937 950 
Q 2825 625 2537 362 
Q 2250 100 1737 75 
Q 1225 50 862 262 
Q 500 475 362 862 
Q 225 1250 250 1612 
z
M 1025 787 
Q 1250 550 1625 525 
Q 2000 500 2250 775 
Q 2500 1050 2500 1575 
Q 2500 2100 2187 2300 
Q 1875 2500 1487 2450 
Q 1100 2400 925 2075 
Q 750 1750 775 1387 
Q 800 1025 1025 787 
z
" id="SimHei-36" transform="scale(0.015625)"/>
       </defs>
       <use xlink:href="#SimHei-30"/>
       <use x="50" xlink:href="#SimHei-2e"/>
       <use x="100" xlink:href="#SimHei-36"/>
      </g>
     </g>
    </g>
    <g id="xtick_5">
     <g id="line2d_5">
      <g>
       <use style="stroke:#000000;stroke-width:0.8;" x="333.556364" xlink:href="#m0422d0b605" y="307.584"/>
      </g>
     </g>
     <g id="text_5">
      <!-- 0.8 -->
      <g transform="translate(326.056364 321.459)scale(0.1 -0.1)">
       <defs>
        <path d="M 175 1375 
Q 175 1675 325 1962 
Q 475 2250 825 2425 
Q 525 2600 425 2812 
Q 325 3025 312 3300 
Q 300 3575 387 3775 
Q 475 3975 650 4150 
Q 825 4325 1037 4387 
Q 1250 4450 1500 4450 
Q 1750 4450 1950 4400 
Q 2150 4350 2375 4187 
Q 2600 4025 2700 3725 
Q 2800 3425 2687 3025 
Q 2575 2625 2100 2400 
Q 2525 2275 2700 2012 
Q 2875 1750 2875 1375 
Q 2875 1000 2762 775 
Q 2650 550 2512 400 
Q 2375 250 2137 162 
Q 1900 75 1537 75 
Q 1175 75 912 162 
Q 650 250 475 425 
Q 300 600 237 837 
Q 175 1075 175 1375 
z
M 687 1400 
Q 675 1100 787 875 
Q 900 650 1200 587 
Q 1500 525 1825 600 
Q 2150 675 2275 950 
Q 2400 1225 2362 1500 
Q 2325 1775 2050 1962 
Q 1775 2150 1450 2125 
Q 1125 2100 912 1900 
Q 700 1700 687 1400 
z
M 775 3350 
Q 775 3100 950 2875 
Q 1125 2650 1500 2650 
Q 1875 2650 2062 2875 
Q 2250 3100 2237 3412 
Q 2225 3725 2012 3875 
Q 1800 4025 1437 4000 
Q 1075 3975 925 3787 
Q 775 3600 775 3350 
z
" id="SimHei-38" transform="scale(0.015625)"/>
       </defs>
       <use xlink:href="#SimHei-30"/>
       <use x="50" xlink:href="#SimHei-2e"/>
       <use x="100" xlink:href="#SimHei-38"/>
      </g>
     </g>
    </g>
    <g id="xtick_6">
     <g id="line2d_6">
      <g>
       <use style="stroke:#000000;stroke-width:0.8;" x="398.487273" xlink:href="#m0422d0b605" y="307.584"/>
      </g>
     </g>
     <g id="text_6">
      <!-- 1.0 -->
      <g transform="translate(390.987273 321.459)scale(0.1 -0.1)">
       <defs>
        <path d="M 1400 3600 
Q 1075 3275 575 2975 
L 575 3450 
Q 1200 3875 1600 4450 
L 1900 4450 
L 1900 150 
L 1400 150 
L 1400 3600 
z
" id="SimHei-31" transform="scale(0.015625)"/>
       </defs>
       <use xlink:href="#SimHei-31"/>
       <use x="50" xlink:href="#SimHei-2e"/>
       <use x="100" xlink:href="#SimHei-30"/>
      </g>
     </g>
    </g>
    <g id="text_7">
     <!-- x -->
     <g transform="translate(233.66 333.584)scale(0.1 -0.1)">
      <defs>
       <path d="M 2875 125 
L 2275 125 
L 1550 1200 
L 825 125 
L 225 125 
L 1250 1550 
L 300 2925 
L 900 2925 
L 1550 1875 
L 2200 2925 
L 2800 2925 
L 1850 1550 
L 2875 125 
z
" id="SimHei-78" transform="scale(0.015625)"/>
      </defs>
      <use xlink:href="#SimHei-78"/>
     </g>
    </g>
   </g>
   <g id="matplotlib.axis_2">
    <g id="ytick_1">
     <g id="line2d_7">
      <defs>
       <path d="M 0 0 
L -3.5 0 
" id="m55200a919d" style="stroke:#000000;stroke-width:0.8;"/>
      </defs>
      <g>
       <use style="stroke:#000000;stroke-width:0.8;" x="57.6" xlink:href="#m55200a919d" y="280.819904"/>
      </g>
     </g>
     <g id="text_8">
      <!-- -1.0 -->
      <g transform="translate(30.6 284.257404)scale(0.1 -0.1)">
       <defs>
        <path d="M 2975 2125 
L 125 2125 
L 125 2525 
L 2975 2525 
L 2975 2125 
z
" id="SimHei-2d" transform="scale(0.015625)"/>
       </defs>
       <use xlink:href="#SimHei-2d"/>
       <use x="50" xlink:href="#SimHei-31"/>
       <use x="100" xlink:href="#SimHei-2e"/>
       <use x="150" xlink:href="#SimHei-30"/>
      </g>
     </g>
    </g>
    <g id="ytick_2">
     <g id="line2d_8">
      <g>
       <use style="stroke:#000000;stroke-width:0.8;" x="57.6" xlink:href="#m55200a919d" y="230.612385"/>
      </g>
     </g>
     <g id="text_9">
      <!-- -0.5 -->
      <g transform="translate(30.6 234.049885)scale(0.1 -0.1)">
       <defs>
        <path d="M 550 1325 
Q 725 650 1150 575 
Q 1575 500 1837 662 
Q 2100 825 2212 1087 
Q 2325 1350 2312 1675 
Q 2300 2000 2137 2225 
Q 1975 2450 1725 2525 
Q 1475 2600 1162 2525 
Q 850 2450 650 2175 
L 225 2225 
Q 275 2375 700 4375 
L 2675 4375 
L 2675 3925 
L 1075 3925 
Q 950 3250 825 2850 
Q 1200 3025 1525 3012 
Q 1850 3000 2150 2862 
Q 2450 2725 2587 2487 
Q 2725 2250 2787 2012 
Q 2850 1775 2837 1500 
Q 2825 1225 2725 937 
Q 2625 650 2425 462 
Q 2225 275 1937 162 
Q 1650 50 1275 75 
Q 900 100 562 350 
Q 225 600 100 1200 
L 550 1325 
z
" id="SimHei-35" transform="scale(0.015625)"/>
       </defs>
       <use xlink:href="#SimHei-2d"/>
       <use x="50" xlink:href="#SimHei-30"/>
       <use x="100" xlink:href="#SimHei-2e"/>
       <use x="150" xlink:href="#SimHei-35"/>
      </g>
     </g>
    </g>
    <g id="ytick_3">
     <g id="line2d_9">
      <g>
       <use style="stroke:#000000;stroke-width:0.8;" x="57.6" xlink:href="#m55200a919d" y="180.404867"/>
      </g>
     </g>
     <g id="text_10">
      <!-- 0.0 -->
      <g transform="translate(35.6 183.842367)scale(0.1 -0.1)">
       <use xlink:href="#SimHei-30"/>
       <use x="50" xlink:href="#SimHei-2e"/>
       <use x="100" xlink:href="#SimHei-30"/>
      </g>
     </g>
    </g>
    <g id="ytick_4">
     <g id="line2d_10">
      <g>
       <use style="stroke:#000000;stroke-width:0.8;" x="57.6" xlink:href="#m55200a919d" y="130.197349"/>
      </g>
     </g>
     <g id="text_11">
      <!-- 0.5 -->
      <g transform="translate(35.6 133.634849)scale(0.1 -0.1)">
       <use xlink:href="#SimHei-30"/>
       <use x="50" xlink:href="#SimHei-2e"/>
       <use x="100" xlink:href="#SimHei-35"/>
      </g>
     </g>
    </g>
    <g id="ytick_5">
     <g id="line2d_11">
      <g>
       <use style="stroke:#000000;stroke-width:0.8;" x="57.6" xlink:href="#m55200a919d" y="79.989831"/>
      </g>
     </g>
     <g id="text_12">
      <!-- 1.0 -->
      <g transform="translate(35.6 83.427331)scale(0.1 -0.1)">
       <use xlink:href="#SimHei-31"/>
       <use x="50" xlink:href="#SimHei-2e"/>
       <use x="100" xlink:href="#SimHei-30"/>
      </g>
     </g>
    </g>
    <g id="text_13">
     <!-- y -->
     <g transform="translate(25.35 177.028)rotate(-90)scale(0.1 -0.1)">
      <defs>
       <path d="M 2900 2925 
L 1750 -100 
Q 1650 -450 1450 -625 
Q 1250 -800 950 -800 
Q 825 -800 712 -787 
Q 600 -775 500 -725 
L 500 -225 
Q 600 -275 700 -300 
Q 800 -325 875 -325 
Q 1075 -325 1150 -262 
Q 1225 -200 1300 25 
L 200 2925 
L 750 2925 
L 1550 725 
L 1575 725 
L 2350 2925 
L 2900 2925 
z
" id="SimHei-79" transform="scale(0.015625)"/>
      </defs>
      <use xlink:href="#SimHei-79"/>
     </g>
    </g>
   </g>
   <g id="line2d_12">
    <path clip-path="url(#p628b55b351)" d="M 73.832727 169.62707 
L 77.095587 160.915471 
L 80.358447 153.196468 
L 83.621307 146.496772 
L 85.252736 143.520265 
L 86.884166 140.781761 
L 88.515596 138.270092 
L 90.147026 135.972213 
L 91.778456 133.873591 
L 95.041316 130.210653 
L 98.304175 127.14804 
L 101.567035 124.548401 
L 104.829895 122.27754 
L 109.724185 119.217045 
L 117.881334 114.190451 
L 122.775624 110.82044 
L 126.038483 108.340999 
L 129.301343 105.661274 
L 134.195633 101.288329 
L 139.089922 96.580481 
L 152.141361 83.764546 
L 155.404221 80.876303 
L 158.667081 78.266527 
L 161.929941 76.01098 
L 165.1928 74.18194 
L 166.82423 73.448548 
L 168.45566 72.846401 
L 170.08709 72.382785 
L 171.71852 72.06447 
L 173.34995 71.897667 
L 174.98138 71.888 
L 176.61281 72.040473 
L 178.244239 72.359446 
L 179.875669 72.848612 
L 181.507099 73.510978 
L 183.138529 74.348853 
L 184.769959 75.363836 
L 186.401389 76.55681 
L 188.032819 77.92794 
L 189.664249 79.476671 
L 191.295678 81.201738 
L 192.927108 83.10117 
L 196.189968 87.411795 
L 199.452828 92.379212 
L 202.715688 97.963896 
L 205.978547 104.116952 
L 209.241407 110.781101 
L 212.504267 117.891814 
L 217.398556 129.239619 
L 222.292846 141.17637 
L 240.238575 185.669905 
L 245.132864 196.902703 
L 248.395724 203.969922 
L 251.658584 210.647315 
L 254.921444 216.899984 
L 258.184303 222.70281 
L 261.447163 228.040776 
L 264.710023 232.909047 
L 267.972883 237.312835 
L 271.235742 241.267011 
L 274.498602 244.795482 
L 277.761462 247.93032 
L 281.024322 250.71066 
L 284.287181 253.181371 
L 287.550041 255.39151 
L 292.444331 258.331047 
L 297.33862 260.974403 
L 315.284349 270.360532 
L 328.335788 277.523453 
L 331.598648 279.05134 
L 334.861508 280.305415 
L 338.124367 281.172945 
L 339.755797 281.42293 
L 341.387227 281.52839 
L 343.018657 281.472241 
L 344.650087 281.23714 
L 346.281517 280.805664 
L 347.912947 280.160531 
L 349.544376 279.284835 
L 351.175806 278.162312 
L 352.807236 276.777636 
L 354.438666 275.116737 
L 356.070096 273.167166 
L 357.701526 270.918472 
L 359.332956 268.362633 
L 360.964386 265.494514 
L 362.595815 262.312359 
L 364.227245 258.818338 
L 365.858675 255.019117 
L 369.121535 246.558039 
L 372.384395 237.097326 
L 377.278684 221.694003 
L 382.172974 206.318132 
L 383.804404 201.610719 
L 385.435834 197.306034 
L 387.067264 193.544747 
L 388.698693 190.485703 
L 390.330123 188.307386 
L 391.961553 187.209467 
L 393.592983 187.414428 
L 395.224413 189.169274 
L 396.855843 192.74733 
L 398.487273 198.450127 
L 398.487273 198.450127 
" style="fill:none;stroke:#000000;stroke-dasharray:3.7,1.6;stroke-dashoffset:0;"/>
   </g>
   <g id="line2d_13">
    <path clip-path="url(#p628b55b351)" d="M 73.832727 180.404867 
L 85.252736 158.391724 
L 91.778456 146.22647 
L 96.672746 137.449517 
L 101.567035 129.057677 
L 106.461325 121.126187 
L 111.355614 113.726156 
L 114.618474 109.121034 
L 117.881334 104.80007 
L 121.144194 100.780489 
L 124.407053 97.078315 
L 127.669913 93.708304 
L 130.932773 90.683892 
L 134.195633 88.017133 
L 137.458492 85.71866 
L 140.721352 83.797633 
L 143.984212 82.261711 
L 147.247072 81.117016 
L 150.509931 80.368112 
L 153.772791 80.017984 
L 157.035651 80.068027 
L 160.298511 80.518042 
L 163.56137 81.366236 
L 166.82423 82.609226 
L 170.08709 84.242059 
L 173.34995 86.258225 
L 176.61281 88.649687 
L 179.875669 91.406912 
L 183.138529 94.518909 
L 186.401389 97.973272 
L 189.664249 101.756233 
L 192.927108 105.852709 
L 196.189968 110.246373 
L 199.452828 114.919708 
L 204.347117 122.413059 
L 209.241407 130.426332 
L 214.135697 138.887684 
L 220.661416 150.73489 
L 228.818566 166.185644 
L 251.658584 210.074844 
L 258.184303 221.92205 
L 263.078593 230.383402 
L 267.972883 238.396675 
L 272.867172 245.890026 
L 276.130032 250.563361 
L 279.392892 254.957025 
L 282.655751 259.053502 
L 285.918611 262.836462 
L 289.181471 266.290825 
L 292.444331 269.402822 
L 295.70719 272.160047 
L 298.97005 274.551509 
L 302.23291 276.567675 
L 305.49577 278.200508 
L 308.75863 279.443498 
L 312.021489 280.291692 
L 315.284349 280.741707 
L 318.547209 280.791751 
L 321.810069 280.441622 
L 325.072928 279.692718 
L 328.335788 278.548023 
L 331.598648 277.012101 
L 334.861508 275.091075 
L 338.124367 272.792601 
L 341.387227 270.125842 
L 344.650087 267.10143 
L 347.912947 263.731419 
L 351.175806 260.029245 
L 354.438666 256.009664 
L 357.701526 251.6887 
L 360.964386 247.083578 
L 365.858675 239.683547 
L 370.752965 231.752057 
L 375.647254 223.360217 
L 380.541544 214.583264 
L 387.067264 202.41801 
L 396.855843 183.574824 
L 398.487273 180.404867 
L 398.487273 180.404867 
" style="fill:none;stroke:#008000;stroke-linecap:square;"/>
   </g>
   <g id="patch_3">
    <path d="M 57.6 307.584 
L 57.6 41.472 
" style="fill:none;stroke:#000000;stroke-linecap:square;stroke-linejoin:miter;stroke-width:0.8;"/>
   </g>
   <g id="patch_4">
    <path d="M 414.72 307.584 
L 414.72 41.472 
" style="fill:none;stroke:#000000;stroke-linecap:square;stroke-linejoin:miter;stroke-width:0.8;"/>
   </g>
   <g id="patch_5">
    <path d="M 57.6 307.584 
L 414.72 307.584 
" style="fill:none;stroke:#000000;stroke-linecap:square;stroke-linejoin:miter;stroke-width:0.8;"/>
   </g>
   <g id="patch_6">
    <path d="M 57.6 41.472 
L 414.72 41.472 
" style="fill:none;stroke:#000000;stroke-linecap:square;stroke-linejoin:miter;stroke-width:0.8;"/>
   </g>
   <g id="text_14">
    <!-- analytic, n_train=25, m=9 -->
    <g transform="translate(161.16 35.472)scale(0.12 -0.12)">
     <defs>
      <path d="M 2875 125 
L 2275 125 
Q 2225 175 2200 262 
Q 2175 350 2175 475 
Q 2000 275 1750 175 
Q 1500 75 1225 75 
Q 825 75 550 275 
Q 275 475 275 850 
Q 275 1225 525 1450 
Q 775 1675 1300 1750 
Q 1650 1800 1912 1875 
Q 2175 1950 2175 2075 
Q 2175 2225 2062 2375 
Q 1950 2525 1575 2525 
Q 1275 2525 1137 2412 
Q 1000 2300 950 2100 
L 400 2100 
Q 450 2500 762 2737 
Q 1075 2975 1575 2975 
Q 2125 2975 2400 2725 
Q 2675 2475 2675 2025 
L 2675 650 
Q 2675 500 2725 375 
Q 2775 250 2875 125 
z
M 2175 1050 
L 2175 1550 
Q 2025 1500 1887 1462 
Q 1750 1425 1425 1375 
Q 1050 1325 937 1200 
Q 825 1075 825 900 
Q 825 750 937 637 
Q 1050 525 1275 525 
Q 1500 525 1762 650 
Q 2025 775 2175 1050 
z
" id="SimHei-61" transform="scale(0.015625)"/>
      <path d="M 2800 125 
L 2300 125 
L 2300 1925 
Q 2300 2225 2150 2400 
Q 2000 2575 1750 2575 
Q 1425 2575 1137 2237 
Q 850 1900 850 1400 
L 850 125 
L 350 125 
L 350 2925 
L 850 2925 
L 850 2400 
Q 1050 2675 1287 2825 
Q 1525 2975 1900 2975 
Q 2350 2975 2575 2725 
Q 2800 2475 2800 2100 
L 2800 125 
z
" id="SimHei-6e" transform="scale(0.015625)"/>
      <path d="M 1825 125 
L 1325 125 
L 1325 4400 
L 1825 4400 
L 1825 125 
z
" id="SimHei-6c" transform="scale(0.015625)"/>
      <path d="M 2750 200 
Q 2625 150 2462 112 
Q 2300 75 2025 75 
Q 1575 75 1300 325 
Q 1025 575 1025 1025 
L 1025 2525 
L 175 2525 
L 175 2925 
L 1025 2925 
L 1025 3900 
L 1525 3900 
L 1525 2925 
L 2550 2925 
L 2550 2525 
L 1525 2525 
L 1525 1000 
Q 1525 800 1625 662 
Q 1725 525 2000 525 
Q 2275 525 2450 575 
Q 2625 625 2750 700 
L 2750 200 
z
" id="SimHei-74" transform="scale(0.015625)"/>
      <path d="M 1800 3725 
L 1300 3725 
L 1300 4375 
L 1800 4375 
L 1800 3725 
z
M 1800 125 
L 1300 125 
L 1300 2925 
L 1800 2925 
L 1800 125 
z
" id="SimHei-69" transform="scale(0.015625)"/>
      <path d="M 2850 1250 
Q 2850 725 2487 400 
Q 2125 75 1575 75 
Q 1025 75 625 462 
Q 225 850 225 1525 
Q 225 2200 625 2587 
Q 1025 2975 1575 2975 
Q 2125 2975 2450 2687 
Q 2775 2400 2775 2000 
L 2225 2000 
Q 2200 2300 2012 2412 
Q 1825 2525 1575 2525 
Q 1275 2525 1025 2287 
Q 775 2050 775 1525 
Q 775 1000 1025 762 
Q 1275 525 1575 525 
Q 1900 525 2100 700 
Q 2300 875 2300 1250 
L 2850 1250 
z
" id="SimHei-63" transform="scale(0.015625)"/>
      <path d="M 1100 125 
L 775 -550 
L 525 -550 
L 775 125 
L 525 125 
L 525 675 
L 1100 675 
L 1100 125 
z
" id="SimHei-2c" transform="scale(0.015625)"/>
      <path id="SimHei-20" transform="scale(0.015625)"/>
      <path d="M 3150 -850 
L 0 -850 
L 0 -550 
L 3150 -550 
L 3150 -850 
z
" id="SimHei-5f" transform="scale(0.015625)"/>
      <path d="M 2500 2425 
Q 2025 2500 1700 2287 
Q 1375 2075 1150 1550 
L 1150 125 
L 650 125 
L 650 2925 
L 1150 2925 
L 1150 2200 
Q 1375 2600 1712 2787 
Q 2050 2975 2500 2975 
L 2500 2425 
z
" id="SimHei-72" transform="scale(0.015625)"/>
      <path d="M 2975 2900 
L 125 2900 
L 125 3300 
L 2975 3300 
L 2975 2900 
z
M 2975 1375 
L 125 1375 
L 125 1775 
L 2975 1775 
L 2975 1375 
z
" id="SimHei-3d" transform="scale(0.015625)"/>
      <path d="M 3050 125 
L 2550 125 
L 2550 2150 
Q 2550 2300 2500 2400 
Q 2450 2500 2300 2500 
Q 2125 2500 1975 2312 
Q 1825 2125 1825 1825 
L 1825 125 
L 1325 125 
L 1325 2150 
Q 1325 2300 1275 2400 
Q 1225 2500 1075 2500 
Q 900 2500 750 2312 
Q 600 2125 600 1825 
L 600 125 
L 100 125 
L 100 2925 
L 600 2925 
L 600 2550 
Q 725 2750 900 2862 
Q 1075 2975 1275 2975 
Q 1475 2975 1612 2862 
Q 1750 2750 1800 2550 
Q 1925 2750 2087 2862 
Q 2250 2975 2450 2975 
Q 2750 2975 2900 2812 
Q 3050 2650 3050 2350 
L 3050 125 
z
" id="SimHei-6d" transform="scale(0.015625)"/>
      <path d="M 800 75 
Q 1350 1000 1700 1750 
Q 1075 1650 662 1912 
Q 250 2175 162 2625 
Q 75 3075 175 3437 
Q 275 3800 487 4037 
Q 700 4275 1000 4375 
Q 1300 4475 1537 4475 
Q 1775 4475 2025 4375 
Q 2275 4275 2475 4075 
Q 2675 3875 2750 3662 
Q 2825 3450 2825 3112 
Q 2825 2775 2575 2250 
Q 2325 1725 1350 75 
L 800 75 
z
M 662 2875 
Q 700 2550 937 2337 
Q 1175 2125 1450 2150 
Q 1725 2175 1887 2300 
Q 2050 2425 2200 2725 
Q 2300 3100 2250 3362 
Q 2200 3625 1987 3800 
Q 1775 3975 1525 3975 
Q 1375 4000 1137 3900 
Q 900 3800 762 3500 
Q 625 3200 662 2875 
z
" id="SimHei-39" transform="scale(0.015625)"/>
     </defs>
     <use xlink:href="#SimHei-61"/>
     <use x="50" xlink:href="#SimHei-6e"/>
     <use x="100" xlink:href="#SimHei-61"/>
     <use x="150" xlink:href="#SimHei-6c"/>
     <use x="200" xlink:href="#SimHei-79"/>
     <use x="250" xlink:href="#SimHei-74"/>
     <use x="300" xlink:href="#SimHei-69"/>
     <use x="350" xlink:href="#SimHei-63"/>
     <use x="400" xlink:href="#SimHei-2c"/>
     <use x="450" xlink:href="#SimHei-20"/>
     <use x="500" xlink:href="#SimHei-6e"/>
     <use x="550" xlink:href="#SimHei-5f"/>
     <use x="600" xlink:href="#SimHei-74"/>
     <use x="650" xlink:href="#SimHei-72"/>
     <use x="700" xlink:href="#SimHei-61"/>
     <use x="750" xlink:href="#SimHei-69"/>
     <use x="800" xlink:href="#SimHei-6e"/>
     <use x="850" xlink:href="#SimHei-3d"/>
     <use x="900" xlink:href="#SimHei-32"/>
     <use x="950" xlink:href="#SimHei-35"/>
     <use x="1000" xlink:href="#SimHei-2c"/>
     <use x="1050" xlink:href="#SimHei-20"/>
     <use x="1100" xlink:href="#SimHei-6d"/>
     <use x="1150" xlink:href="#SimHei-3d"/>
     <use x="1200" xlink:href="#SimHei-39"/>
    </g>
   </g>
   <g id="legend_1">
    <g id="patch_7">
     <path d="M 265.72 90.0345 
L 407.72 90.0345 
Q 409.72 90.0345 409.72 88.0345 
L 409.72 48.472 
Q 409.72 46.472 407.72 46.472 
L 265.72 46.472 
Q 263.72 46.472 263.72 48.472 
L 263.72 88.0345 
Q 263.72 90.0345 265.72 90.0345 
z
" style="fill:#ffffff;opacity:0.8;stroke:#cccccc;stroke-linejoin:miter;"/>
    </g>
    <g id="line2d_14">
     <path d="M 267.72 54.7845 
L 287.72 54.7845 
" style="fill:none;stroke:#000000;stroke-dasharray:3.7,1.6;stroke-dashoffset:0;"/>
    </g>
    <g id="line2d_15"/>
    <g id="text_15">
     <!-- predict func(analytic) -->
     <g transform="translate(295.72 58.2845)scale(0.1 -0.1)">
      <defs>
       <path d="M 2825 1525 
Q 2825 800 2475 425 
Q 2125 50 1625 50 
Q 1350 50 1150 162 
Q 950 275 800 500 
L 800 -800 
L 300 -800 
L 300 2925 
L 800 2925 
L 800 2550 
Q 950 2775 1150 2875 
Q 1350 2975 1625 2975 
Q 2125 2975 2475 2612 
Q 2825 2250 2825 1525 
z
M 2275 1525 
Q 2275 2000 2087 2262 
Q 1900 2525 1525 2525 
Q 1225 2525 1012 2262 
Q 800 2000 800 1525 
Q 800 1050 1012 775 
Q 1225 500 1525 500 
Q 1900 500 2087 775 
Q 2275 1050 2275 1525 
z
" id="SimHei-70" transform="scale(0.015625)"/>
       <path d="M 2850 1075 
Q 2800 625 2450 350 
Q 2100 75 1625 75 
Q 1025 75 637 462 
Q 250 850 250 1525 
Q 250 2200 637 2587 
Q 1025 2975 1625 2975 
Q 2150 2975 2487 2637 
Q 2825 2300 2825 1525 
L 800 1525 
Q 800 975 1037 750 
Q 1275 525 1625 525 
Q 1900 525 2075 662 
Q 2250 800 2300 1075 
L 2850 1075 
z
M 2250 1925 
Q 2200 2275 2025 2412 
Q 1850 2550 1575 2550 
Q 1325 2550 1125 2412 
Q 925 2275 825 1925 
L 2250 1925 
z
" id="SimHei-65" transform="scale(0.015625)"/>
       <path d="M 2750 125 
L 2250 125 
L 2250 500 
Q 2100 275 1900 175 
Q 1700 75 1425 75 
Q 925 75 575 437 
Q 225 800 225 1525 
Q 225 2250 575 2625 
Q 925 3000 1425 3000 
Q 1700 3000 1900 2887 
Q 2100 2775 2250 2550 
L 2250 4400 
L 2750 4400 
L 2750 125 
z
M 2250 1525 
Q 2250 2000 2037 2275 
Q 1825 2550 1525 2550 
Q 1150 2550 962 2275 
Q 775 2000 775 1525 
Q 775 1050 962 787 
Q 1150 525 1525 525 
Q 1825 525 2037 787 
Q 2250 1050 2250 1525 
z
" id="SimHei-64" transform="scale(0.015625)"/>
       <path d="M 2850 3825 
Q 2725 3900 2550 3950 
Q 2375 4000 2100 4000 
Q 1825 4000 1725 3862 
Q 1625 3725 1625 3525 
L 1625 2925 
L 2650 2925 
L 2650 2525 
L 1625 2525 
L 1625 125 
L 1125 125 
L 1125 2525 
L 275 2525 
L 275 2925 
L 1125 2925 
L 1125 3500 
Q 1125 3950 1400 4200 
Q 1675 4450 2125 4450 
Q 2400 4450 2562 4412 
Q 2725 4375 2850 4325 
L 2850 3825 
z
" id="SimHei-66" transform="scale(0.015625)"/>
       <path d="M 2800 125 
L 2300 125 
L 2300 650 
Q 2100 375 1862 225 
Q 1625 75 1250 75 
Q 800 75 575 325 
Q 350 575 350 950 
L 350 2925 
L 850 2925 
L 850 1125 
Q 850 825 1000 650 
Q 1150 475 1400 475 
Q 1725 475 2012 812 
Q 2300 1150 2300 1650 
L 2300 2925 
L 2800 2925 
L 2800 125 
z
" id="SimHei-75" transform="scale(0.015625)"/>
       <path d="M 2975 -200 
L 2700 -475 
Q 2075 125 1762 775 
Q 1450 1425 1450 2250 
Q 1450 3075 1762 3725 
Q 2075 4375 2700 5000 
L 2975 4725 
Q 2400 4175 2112 3587 
Q 1825 3000 1825 2250 
Q 1825 1500 2112 912 
Q 2400 325 2975 -200 
z
" id="SimHei-28" transform="scale(0.015625)"/>
       <path d="M 1675 2250 
Q 1675 1425 1362 775 
Q 1050 125 425 -475 
L 150 -200 
Q 725 325 1012 912 
Q 1300 1500 1300 2250 
Q 1300 3000 1012 3587 
Q 725 4175 150 4725 
L 425 5000 
Q 1050 4375 1362 3725 
Q 1675 3075 1675 2250 
z
" id="SimHei-29" transform="scale(0.015625)"/>
      </defs>
      <use xlink:href="#SimHei-70"/>
      <use x="50" xlink:href="#SimHei-72"/>
      <use x="100" xlink:href="#SimHei-65"/>
      <use x="150" xlink:href="#SimHei-64"/>
      <use x="200" xlink:href="#SimHei-69"/>
      <use x="250" xlink:href="#SimHei-63"/>
      <use x="300" xlink:href="#SimHei-74"/>
      <use x="350" xlink:href="#SimHei-20"/>
      <use x="400" xlink:href="#SimHei-66"/>
      <use x="450" xlink:href="#SimHei-75"/>
      <use x="500" xlink:href="#SimHei-6e"/>
      <use x="550" xlink:href="#SimHei-63"/>
      <use x="600" xlink:href="#SimHei-28"/>
      <use x="650" xlink:href="#SimHei-61"/>
      <use x="700" xlink:href="#SimHei-6e"/>
      <use x="750" xlink:href="#SimHei-61"/>
      <use x="800" xlink:href="#SimHei-6c"/>
      <use x="850" xlink:href="#SimHei-79"/>
      <use x="900" xlink:href="#SimHei-74"/>
      <use x="950" xlink:href="#SimHei-69"/>
      <use x="1000" xlink:href="#SimHei-63"/>
      <use x="1050" xlink:href="#SimHei-29"/>
     </g>
    </g>
    <g id="line2d_16">
     <path d="M 267.72 68.0345 
L 287.72 68.0345 
" style="fill:none;stroke:#008000;stroke-linecap:square;"/>
    </g>
    <g id="line2d_17"/>
    <g id="text_16">
     <!-- real func -->
     <g transform="translate(295.72 71.5345)scale(0.1 -0.1)">
      <use xlink:href="#SimHei-72"/>
      <use x="50" xlink:href="#SimHei-65"/>
      <use x="100" xlink:href="#SimHei-61"/>
      <use x="150" xlink:href="#SimHei-6c"/>
      <use x="200" xlink:href="#SimHei-20"/>
      <use x="250" xlink:href="#SimHei-66"/>
      <use x="300" xlink:href="#SimHei-75"/>
      <use x="350" xlink:href="#SimHei-6e"/>
      <use x="400" xlink:href="#SimHei-63"/>
     </g>
    </g>
    <g id="PathCollection_2">
     <g>
      <use style="fill:#0000ff;stroke:#0000ff;" x="277.72" xlink:href="#m798890deb5" y="82.1595"/>
     </g>
    </g>
    <g id="text_17">
     <!-- train data -->
     <g transform="translate(295.72 84.7845)scale(0.1 -0.1)">
      <use xlink:href="#SimHei-74"/>
      <use x="50" xlink:href="#SimHei-72"/>
      <use x="100" xlink:href="#SimHei-61"/>
      <use x="150" xlink:href="#SimHei-69"/>
      <use x="200" xlink:href="#SimHei-6e"/>
      <use x="250" xlink:href="#SimHei-20"/>
      <use x="300" xlink:href="#SimHei-64"/>
      <use x="350" xlink:href="#SimHei-61"/>
      <use x="400" xlink:href="#SimHei-74"/>
      <use x="450" xlink:href="#SimHei-61"/>
     </g>
    </g>
   </g>
  </g>
 </g>
 <defs>
  <clipPath id="p628b55b351">
   <rect height="266.112" width="357.12" x="57.6" y="41.472"/>
  </clipPath>
 </defs>
</svg>
