<?xml version="1.0" encoding="utf-8" standalone="no"?>
<!DOCTYPE svg PUBLIC "-//W3C//DTD SVG 1.1//EN"
  "http://www.w3.org/Graphics/SVG/1.1/DTD/svg11.dtd">
<svg height="345.6pt" version="1.1" viewBox="0 0 460.8 345.6" width="460.8pt" xmlns="http://www.w3.org/2000/svg" xmlns:xlink="http://www.w3.org/1999/xlink">
 <metadata>
  <rdf:RDF xmlns:cc="http://creativecommons.org/ns#" xmlns:dc="http://purl.org/dc/elements/1.1/" xmlns:rdf="http://www.w3.org/1999/02/22-rdf-syntax-ns#">
   <cc:Work>
    <dc:type rdf:resource="http://purl.org/dc/dcmitype/StillImage"/>
    <dc:date>2021-10-07T21:59:39.115213</dc:date>
    <dc:format>image/svg+xml</dc:format>
    <dc:creator>
     <cc:Agent>
      <dc:title>Matplotlib v3.4.2, https://matplotlib.org/</dc:title>
     </cc:Agent>
    </dc:creator>
   </cc:Work>
  </rdf:RDF>
 </metadata>
 <defs>
  <style type="text/css">*{stroke-linecap:butt;stroke-linejoin:round;}</style>
 </defs>
 <g id="figure_1">
  <g id="patch_1">
   <path d="M 0 345.6 
L 460.8 345.6 
L 460.8 0 
L 0 0 
z
" style="fill:#ffffff;"/>
  </g>
  <g id="axes_1">
   <g id="patch_2">
    <path d="M 57.6 307.584 
L 414.72 307.584 
L 414.72 41.472 
L 57.6 41.472 
z
" style="fill:#ffffff;"/>
   </g>
   <g id="PathCollection_1">
    <defs>
     <path d="M 0 2.236068 
C 0.593012 2.236068 1.161816 2.000462 1.581139 1.581139 
C 2.000462 1.161816 2.236068 0.593012 2.236068 0 
C 2.236068 -0.593012 2.000462 -1.161816 1.581139 -1.581139 
C 1.161816 -2.000462 0.593012 -2.236068 0 -2.236068 
C -0.593012 -2.236068 -1.161816 -2.000462 -1.581139 -1.581139 
C -2.000462 -1.161816 -2.236068 -0.593012 -2.236068 0 
C -2.236068 0.593012 -2.000462 1.161816 -1.581139 1.581139 
C -1.161816 2.000462 -0.593012 2.236068 0 2.236068 
z
" id="m61febd979d" style="stroke:#0000ff;"/>
    </defs>
    <g clip-path="url(#p3fd6d1d3de)">
     <use style="fill:#0000ff;stroke:#0000ff;" x="73.832727" xlink:href="#m61febd979d" y="169.363036"/>
     <use style="fill:#0000ff;stroke:#0000ff;" x="77.112066" xlink:href="#m61febd979d" y="145.482264"/>
     <use style="fill:#0000ff;stroke:#0000ff;" x="80.391405" xlink:href="#m61febd979d" y="160.441026"/>
     <use style="fill:#0000ff;stroke:#0000ff;" x="83.670744" xlink:href="#m61febd979d" y="161.166464"/>
     <use style="fill:#0000ff;stroke:#0000ff;" x="86.950083" xlink:href="#m61febd979d" y="145.355608"/>
     <use style="fill:#0000ff;stroke:#0000ff;" x="90.229421" xlink:href="#m61febd979d" y="153.231456"/>
     <use style="fill:#0000ff;stroke:#0000ff;" x="93.50876" xlink:href="#m61febd979d" y="136.198461"/>
     <use style="fill:#0000ff;stroke:#0000ff;" x="96.788099" xlink:href="#m61febd979d" y="139.077433"/>
     <use style="fill:#0000ff;stroke:#0000ff;" x="100.067438" xlink:href="#m61febd979d" y="124.109246"/>
     <use style="fill:#0000ff;stroke:#0000ff;" x="103.346777" xlink:href="#m61febd979d" y="72.267671"/>
     <use style="fill:#0000ff;stroke:#0000ff;" x="106.626116" xlink:href="#m61febd979d" y="137.449856"/>
     <use style="fill:#0000ff;stroke:#0000ff;" x="109.905455" xlink:href="#m61febd979d" y="115.941964"/>
     <use style="fill:#0000ff;stroke:#0000ff;" x="113.184793" xlink:href="#m61febd979d" y="136.275616"/>
     <use style="fill:#0000ff;stroke:#0000ff;" x="116.464132" xlink:href="#m61febd979d" y="112.180431"/>
     <use style="fill:#0000ff;stroke:#0000ff;" x="119.743471" xlink:href="#m61febd979d" y="116.022544"/>
     <use style="fill:#0000ff;stroke:#0000ff;" x="123.02281" xlink:href="#m61febd979d" y="99.572832"/>
     <use style="fill:#0000ff;stroke:#0000ff;" x="126.302149" xlink:href="#m61febd979d" y="119.482843"/>
     <use style="fill:#0000ff;stroke:#0000ff;" x="129.581488" xlink:href="#m61febd979d" y="64.441645"/>
     <use style="fill:#0000ff;stroke:#0000ff;" x="132.860826" xlink:href="#m61febd979d" y="81.704115"/>
     <use style="fill:#0000ff;stroke:#0000ff;" x="136.140165" xlink:href="#m61febd979d" y="102.664068"/>
     <use style="fill:#0000ff;stroke:#0000ff;" x="139.419504" xlink:href="#m61febd979d" y="72.556029"/>
     <use style="fill:#0000ff;stroke:#0000ff;" x="142.698843" xlink:href="#m61febd979d" y="126.838517"/>
     <use style="fill:#0000ff;stroke:#0000ff;" x="145.978182" xlink:href="#m61febd979d" y="76.324223"/>
     <use style="fill:#0000ff;stroke:#0000ff;" x="149.257521" xlink:href="#m61febd979d" y="100.62776"/>
     <use style="fill:#0000ff;stroke:#0000ff;" x="152.53686" xlink:href="#m61febd979d" y="56.364741"/>
     <use style="fill:#0000ff;stroke:#0000ff;" x="155.816198" xlink:href="#m61febd979d" y="63.205613"/>
     <use style="fill:#0000ff;stroke:#0000ff;" x="159.095537" xlink:href="#m61febd979d" y="83.848151"/>
     <use style="fill:#0000ff;stroke:#0000ff;" x="162.374876" xlink:href="#m61febd979d" y="53.568"/>
     <use style="fill:#0000ff;stroke:#0000ff;" x="165.654215" xlink:href="#m61febd979d" y="68.408456"/>
     <use style="fill:#0000ff;stroke:#0000ff;" x="168.933554" xlink:href="#m61febd979d" y="84.212902"/>
     <use style="fill:#0000ff;stroke:#0000ff;" x="172.212893" xlink:href="#m61febd979d" y="98.45058"/>
     <use style="fill:#0000ff;stroke:#0000ff;" x="175.492231" xlink:href="#m61febd979d" y="80.709398"/>
     <use style="fill:#0000ff;stroke:#0000ff;" x="178.77157" xlink:href="#m61febd979d" y="95.732392"/>
     <use style="fill:#0000ff;stroke:#0000ff;" x="182.050909" xlink:href="#m61febd979d" y="84.38705"/>
     <use style="fill:#0000ff;stroke:#0000ff;" x="185.330248" xlink:href="#m61febd979d" y="106.650269"/>
     <use style="fill:#0000ff;stroke:#0000ff;" x="188.609587" xlink:href="#m61febd979d" y="100.854804"/>
     <use style="fill:#0000ff;stroke:#0000ff;" x="191.888926" xlink:href="#m61febd979d" y="85.253166"/>
     <use style="fill:#0000ff;stroke:#0000ff;" x="195.168264" xlink:href="#m61febd979d" y="79.755911"/>
     <use style="fill:#0000ff;stroke:#0000ff;" x="198.447603" xlink:href="#m61febd979d" y="118.815678"/>
     <use style="fill:#0000ff;stroke:#0000ff;" x="201.726942" xlink:href="#m61febd979d" y="114.210796"/>
     <use style="fill:#0000ff;stroke:#0000ff;" x="205.006281" xlink:href="#m61febd979d" y="152.107698"/>
     <use style="fill:#0000ff;stroke:#0000ff;" x="208.28562" xlink:href="#m61febd979d" y="110.427349"/>
     <use style="fill:#0000ff;stroke:#0000ff;" x="211.564959" xlink:href="#m61febd979d" y="122.930837"/>
     <use style="fill:#0000ff;stroke:#0000ff;" x="214.844298" xlink:href="#m61febd979d" y="126.973862"/>
     <use style="fill:#0000ff;stroke:#0000ff;" x="218.123636" xlink:href="#m61febd979d" y="104.477255"/>
     <use style="fill:#0000ff;stroke:#0000ff;" x="221.402975" xlink:href="#m61febd979d" y="129.274774"/>
     <use style="fill:#0000ff;stroke:#0000ff;" x="224.682314" xlink:href="#m61febd979d" y="139.680605"/>
     <use style="fill:#0000ff;stroke:#0000ff;" x="227.961653" xlink:href="#m61febd979d" y="145.291973"/>
     <use style="fill:#0000ff;stroke:#0000ff;" x="231.240992" xlink:href="#m61febd979d" y="177.803228"/>
     <use style="fill:#0000ff;stroke:#0000ff;" x="234.520331" xlink:href="#m61febd979d" y="196.99198"/>
     <use style="fill:#0000ff;stroke:#0000ff;" x="237.799669" xlink:href="#m61febd979d" y="161.983103"/>
     <use style="fill:#0000ff;stroke:#0000ff;" x="241.079008" xlink:href="#m61febd979d" y="193.894836"/>
     <use style="fill:#0000ff;stroke:#0000ff;" x="244.358347" xlink:href="#m61febd979d" y="184.532503"/>
     <use style="fill:#0000ff;stroke:#0000ff;" x="247.637686" xlink:href="#m61febd979d" y="192.493187"/>
     <use style="fill:#0000ff;stroke:#0000ff;" x="250.917025" xlink:href="#m61febd979d" y="204.327293"/>
     <use style="fill:#0000ff;stroke:#0000ff;" x="254.196364" xlink:href="#m61febd979d" y="222.313739"/>
     <use style="fill:#0000ff;stroke:#0000ff;" x="257.475702" xlink:href="#m61febd979d" y="182.885575"/>
     <use style="fill:#0000ff;stroke:#0000ff;" x="260.755041" xlink:href="#m61febd979d" y="198.396922"/>
     <use style="fill:#0000ff;stroke:#0000ff;" x="264.03438" xlink:href="#m61febd979d" y="227.837944"/>
     <use style="fill:#0000ff;stroke:#0000ff;" x="267.313719" xlink:href="#m61febd979d" y="212.487847"/>
     <use style="fill:#0000ff;stroke:#0000ff;" x="270.593058" xlink:href="#m61febd979d" y="229.394197"/>
     <use style="fill:#0000ff;stroke:#0000ff;" x="273.872397" xlink:href="#m61febd979d" y="233.547456"/>
     <use style="fill:#0000ff;stroke:#0000ff;" x="277.151736" xlink:href="#m61febd979d" y="261.443031"/>
     <use style="fill:#0000ff;stroke:#0000ff;" x="280.431074" xlink:href="#m61febd979d" y="247.081848"/>
     <use style="fill:#0000ff;stroke:#0000ff;" x="283.710413" xlink:href="#m61febd979d" y="238.574199"/>
     <use style="fill:#0000ff;stroke:#0000ff;" x="286.989752" xlink:href="#m61febd979d" y="255.386023"/>
     <use style="fill:#0000ff;stroke:#0000ff;" x="290.269091" xlink:href="#m61febd979d" y="275.509305"/>
     <use style="fill:#0000ff;stroke:#0000ff;" x="293.54843" xlink:href="#m61febd979d" y="253.792053"/>
     <use style="fill:#0000ff;stroke:#0000ff;" x="296.827769" xlink:href="#m61febd979d" y="271.752329"/>
     <use style="fill:#0000ff;stroke:#0000ff;" x="300.107107" xlink:href="#m61febd979d" y="270.664889"/>
     <use style="fill:#0000ff;stroke:#0000ff;" x="303.386446" xlink:href="#m61febd979d" y="283.15562"/>
     <use style="fill:#0000ff;stroke:#0000ff;" x="306.665785" xlink:href="#m61febd979d" y="286.126025"/>
     <use style="fill:#0000ff;stroke:#0000ff;" x="309.945124" xlink:href="#m61febd979d" y="281.033303"/>
     <use style="fill:#0000ff;stroke:#0000ff;" x="313.224463" xlink:href="#m61febd979d" y="295.488"/>
     <use style="fill:#0000ff;stroke:#0000ff;" x="316.503802" xlink:href="#m61febd979d" y="251.14521"/>
     <use style="fill:#0000ff;stroke:#0000ff;" x="319.78314" xlink:href="#m61febd979d" y="270.31069"/>
     <use style="fill:#0000ff;stroke:#0000ff;" x="323.062479" xlink:href="#m61febd979d" y="236.13078"/>
     <use style="fill:#0000ff;stroke:#0000ff;" x="326.341818" xlink:href="#m61febd979d" y="255.108379"/>
     <use style="fill:#0000ff;stroke:#0000ff;" x="329.621157" xlink:href="#m61febd979d" y="293.926667"/>
     <use style="fill:#0000ff;stroke:#0000ff;" x="332.900496" xlink:href="#m61febd979d" y="267.889585"/>
     <use style="fill:#0000ff;stroke:#0000ff;" x="336.179835" xlink:href="#m61febd979d" y="277.804991"/>
     <use style="fill:#0000ff;stroke:#0000ff;" x="339.459174" xlink:href="#m61febd979d" y="286.380425"/>
     <use style="fill:#0000ff;stroke:#0000ff;" x="342.738512" xlink:href="#m61febd979d" y="279.396504"/>
     <use style="fill:#0000ff;stroke:#0000ff;" x="346.017851" xlink:href="#m61febd979d" y="265.638435"/>
     <use style="fill:#0000ff;stroke:#0000ff;" x="349.29719" xlink:href="#m61febd979d" y="276.88305"/>
     <use style="fill:#0000ff;stroke:#0000ff;" x="352.576529" xlink:href="#m61febd979d" y="260.621569"/>
     <use style="fill:#0000ff;stroke:#0000ff;" x="355.855868" xlink:href="#m61febd979d" y="268.933739"/>
     <use style="fill:#0000ff;stroke:#0000ff;" x="359.135207" xlink:href="#m61febd979d" y="240.935781"/>
     <use style="fill:#0000ff;stroke:#0000ff;" x="362.414545" xlink:href="#m61febd979d" y="244.07205"/>
     <use style="fill:#0000ff;stroke:#0000ff;" x="365.693884" xlink:href="#m61febd979d" y="263.331163"/>
     <use style="fill:#0000ff;stroke:#0000ff;" x="368.973223" xlink:href="#m61febd979d" y="231.23331"/>
     <use style="fill:#0000ff;stroke:#0000ff;" x="372.252562" xlink:href="#m61febd979d" y="206.417704"/>
     <use style="fill:#0000ff;stroke:#0000ff;" x="375.531901" xlink:href="#m61febd979d" y="186.743153"/>
     <use style="fill:#0000ff;stroke:#0000ff;" x="378.81124" xlink:href="#m61febd979d" y="244.66261"/>
     <use style="fill:#0000ff;stroke:#0000ff;" x="382.090579" xlink:href="#m61febd979d" y="218.162206"/>
     <use style="fill:#0000ff;stroke:#0000ff;" x="385.369917" xlink:href="#m61febd979d" y="220.350518"/>
     <use style="fill:#0000ff;stroke:#0000ff;" x="388.649256" xlink:href="#m61febd979d" y="184.060257"/>
     <use style="fill:#0000ff;stroke:#0000ff;" x="391.928595" xlink:href="#m61febd979d" y="188.753658"/>
     <use style="fill:#0000ff;stroke:#0000ff;" x="395.207934" xlink:href="#m61febd979d" y="169.421115"/>
     <use style="fill:#0000ff;stroke:#0000ff;" x="398.487273" xlink:href="#m61febd979d" y="154.418186"/>
    </g>
   </g>
   <g id="matplotlib.axis_1">
    <g id="xtick_1">
     <g id="line2d_1">
      <defs>
       <path d="M 0 0 
L 0 3.5 
" id="mf9c56f8867" style="stroke:#000000;stroke-width:0.8;"/>
      </defs>
      <g>
       <use style="stroke:#000000;stroke-width:0.8;" x="73.832727" xlink:href="#mf9c56f8867" y="307.584"/>
      </g>
     </g>
     <g id="text_1">
      <!-- 0.0 -->
      <g transform="translate(66.332727 321.459)scale(0.1 -0.1)">
       <defs>
        <path d="M 225 2537 
Q 250 3200 412 3587 
Q 575 3975 875 4225 
Q 1175 4475 1612 4475 
Q 2050 4475 2375 4112 
Q 2700 3750 2800 3200 
Q 2900 2650 2862 1937 
Q 2825 1225 2612 775 
Q 2400 325 1975 150 
Q 1550 -25 1125 187 
Q 700 400 525 750 
Q 350 1100 275 1487 
Q 200 1875 225 2537 
z
M 750 2687 
Q 675 2000 800 1462 
Q 925 925 1212 700 
Q 1500 475 1800 612 
Q 2100 750 2237 1162 
Q 2375 1575 2375 2062 
Q 2375 2550 2337 2950 
Q 2300 3350 2112 3675 
Q 1925 4000 1612 4012 
Q 1300 4025 1062 3700 
Q 825 3375 750 2687 
z
" id="SimHei-30" transform="scale(0.015625)"/>
        <path d="M 1075 125 
L 500 125 
L 500 675 
L 1075 675 
L 1075 125 
z
" id="SimHei-2e" transform="scale(0.015625)"/>
       </defs>
       <use xlink:href="#SimHei-30"/>
       <use x="50" xlink:href="#SimHei-2e"/>
       <use x="100" xlink:href="#SimHei-30"/>
      </g>
     </g>
    </g>
    <g id="xtick_2">
     <g id="line2d_2">
      <g>
       <use style="stroke:#000000;stroke-width:0.8;" x="138.763636" xlink:href="#mf9c56f8867" y="307.584"/>
      </g>
     </g>
     <g id="text_2">
      <!-- 0.2 -->
      <g transform="translate(131.263636 321.459)scale(0.1 -0.1)">
       <defs>
        <path d="M 300 250 
Q 325 625 650 925 
Q 975 1225 1475 1862 
Q 1975 2500 2125 2850 
Q 2275 3200 2237 3450 
Q 2200 3700 2000 3862 
Q 1800 4025 1537 4000 
Q 1275 3975 1037 3800 
Q 800 3625 675 3275 
L 200 3350 
Q 400 3925 712 4187 
Q 1025 4450 1450 4475 
Q 1700 4500 1900 4462 
Q 2100 4425 2312 4287 
Q 2525 4150 2662 3875 
Q 2800 3600 2762 3212 
Q 2725 2825 2375 2287 
Q 2025 1750 1025 600 
L 2825 600 
L 2825 150 
L 300 150 
L 300 250 
z
" id="SimHei-32" transform="scale(0.015625)"/>
       </defs>
       <use xlink:href="#SimHei-30"/>
       <use x="50" xlink:href="#SimHei-2e"/>
       <use x="100" xlink:href="#SimHei-32"/>
      </g>
     </g>
    </g>
    <g id="xtick_3">
     <g id="line2d_3">
      <g>
       <use style="stroke:#000000;stroke-width:0.8;" x="203.694545" xlink:href="#mf9c56f8867" y="307.584"/>
      </g>
     </g>
     <g id="text_3">
      <!-- 0.4 -->
      <g transform="translate(196.194545 321.459)scale(0.1 -0.1)">
       <defs>
        <path d="M 2000 1100 
L 75 1100 
L 75 1525 
L 2100 4450 
L 2475 4450 
L 2475 1525 
L 3075 1525 
L 3075 1100 
L 2475 1100 
L 2475 150 
L 2000 150 
L 2000 1100 
z
M 2000 1525 
L 2000 3500 
L 600 1525 
L 2000 1525 
z
" id="SimHei-34" transform="scale(0.015625)"/>
       </defs>
       <use xlink:href="#SimHei-30"/>
       <use x="50" xlink:href="#SimHei-2e"/>
       <use x="100" xlink:href="#SimHei-34"/>
      </g>
     </g>
    </g>
    <g id="xtick_4">
     <g id="line2d_4">
      <g>
       <use style="stroke:#000000;stroke-width:0.8;" x="268.625455" xlink:href="#mf9c56f8867" y="307.584"/>
      </g>
     </g>
     <g id="text_4">
      <!-- 0.6 -->
      <g transform="translate(261.125455 321.459)scale(0.1 -0.1)">
       <defs>
        <path d="M 250 1612 
Q 275 1975 387 2225 
Q 500 2475 725 2850 
L 1750 4450 
L 2325 4450 
L 1275 2800 
Q 1950 2975 2350 2750 
Q 2750 2525 2887 2237 
Q 3025 1950 3037 1612 
Q 3050 1275 2937 950 
Q 2825 625 2537 362 
Q 2250 100 1737 75 
Q 1225 50 862 262 
Q 500 475 362 862 
Q 225 1250 250 1612 
z
M 1025 787 
Q 1250 550 1625 525 
Q 2000 500 2250 775 
Q 2500 1050 2500 1575 
Q 2500 2100 2187 2300 
Q 1875 2500 1487 2450 
Q 1100 2400 925 2075 
Q 750 1750 775 1387 
Q 800 1025 1025 787 
z
" id="SimHei-36" transform="scale(0.015625)"/>
       </defs>
       <use xlink:href="#SimHei-30"/>
       <use x="50" xlink:href="#SimHei-2e"/>
       <use x="100" xlink:href="#SimHei-36"/>
      </g>
     </g>
    </g>
    <g id="xtick_5">
     <g id="line2d_5">
      <g>
       <use style="stroke:#000000;stroke-width:0.8;" x="333.556364" xlink:href="#mf9c56f8867" y="307.584"/>
      </g>
     </g>
     <g id="text_5">
      <!-- 0.8 -->
      <g transform="translate(326.056364 321.459)scale(0.1 -0.1)">
       <defs>
        <path d="M 175 1375 
Q 175 1675 325 1962 
Q 475 2250 825 2425 
Q 525 2600 425 2812 
Q 325 3025 312 3300 
Q 300 3575 387 3775 
Q 475 3975 650 4150 
Q 825 4325 1037 4387 
Q 1250 4450 1500 4450 
Q 1750 4450 1950 4400 
Q 2150 4350 2375 4187 
Q 2600 4025 2700 3725 
Q 2800 3425 2687 3025 
Q 2575 2625 2100 2400 
Q 2525 2275 2700 2012 
Q 2875 1750 2875 1375 
Q 2875 1000 2762 775 
Q 2650 550 2512 400 
Q 2375 250 2137 162 
Q 1900 75 1537 75 
Q 1175 75 912 162 
Q 650 250 475 425 
Q 300 600 237 837 
Q 175 1075 175 1375 
z
M 687 1400 
Q 675 1100 787 875 
Q 900 650 1200 587 
Q 1500 525 1825 600 
Q 2150 675 2275 950 
Q 2400 1225 2362 1500 
Q 2325 1775 2050 1962 
Q 1775 2150 1450 2125 
Q 1125 2100 912 1900 
Q 700 1700 687 1400 
z
M 775 3350 
Q 775 3100 950 2875 
Q 1125 2650 1500 2650 
Q 1875 2650 2062 2875 
Q 2250 3100 2237 3412 
Q 2225 3725 2012 3875 
Q 1800 4025 1437 4000 
Q 1075 3975 925 3787 
Q 775 3600 775 3350 
z
" id="SimHei-38" transform="scale(0.015625)"/>
       </defs>
       <use xlink:href="#SimHei-30"/>
       <use x="50" xlink:href="#SimHei-2e"/>
       <use x="100" xlink:href="#SimHei-38"/>
      </g>
     </g>
    </g>
    <g id="xtick_6">
     <g id="line2d_6">
      <g>
       <use style="stroke:#000000;stroke-width:0.8;" x="398.487273" xlink:href="#mf9c56f8867" y="307.584"/>
      </g>
     </g>
     <g id="text_6">
      <!-- 1.0 -->
      <g transform="translate(390.987273 321.459)scale(0.1 -0.1)">
       <defs>
        <path d="M 1400 3600 
Q 1075 3275 575 2975 
L 575 3450 
Q 1200 3875 1600 4450 
L 1900 4450 
L 1900 150 
L 1400 150 
L 1400 3600 
z
" id="SimHei-31" transform="scale(0.015625)"/>
       </defs>
       <use xlink:href="#SimHei-31"/>
       <use x="50" xlink:href="#SimHei-2e"/>
       <use x="100" xlink:href="#SimHei-30"/>
      </g>
     </g>
    </g>
    <g id="text_7">
     <!-- x -->
     <g transform="translate(233.66 333.584)scale(0.1 -0.1)">
      <defs>
       <path d="M 2875 125 
L 2275 125 
L 1550 1200 
L 825 125 
L 225 125 
L 1250 1550 
L 300 2925 
L 900 2925 
L 1550 1875 
L 2200 2925 
L 2800 2925 
L 1850 1550 
L 2875 125 
z
" id="SimHei-78" transform="scale(0.015625)"/>
      </defs>
      <use xlink:href="#SimHei-78"/>
     </g>
    </g>
   </g>
   <g id="matplotlib.axis_2">
    <g id="ytick_1">
     <g id="line2d_7">
      <defs>
       <path d="M 0 0 
L -3.5 0 
" id="m3ac3e0cde6" style="stroke:#000000;stroke-width:0.8;"/>
      </defs>
      <g>
       <use style="stroke:#000000;stroke-width:0.8;" x="57.6" xlink:href="#m3ac3e0cde6" y="267.573881"/>
      </g>
     </g>
     <g id="text_8">
      <!-- -1.0 -->
      <g transform="translate(30.6 271.011381)scale(0.1 -0.1)">
       <defs>
        <path d="M 2975 2125 
L 125 2125 
L 125 2525 
L 2975 2525 
L 2975 2125 
z
" id="SimHei-2d" transform="scale(0.015625)"/>
       </defs>
       <use xlink:href="#SimHei-2d"/>
       <use x="50" xlink:href="#SimHei-31"/>
       <use x="100" xlink:href="#SimHei-2e"/>
       <use x="150" xlink:href="#SimHei-30"/>
      </g>
     </g>
    </g>
    <g id="ytick_2">
     <g id="line2d_8">
      <g>
       <use style="stroke:#000000;stroke-width:0.8;" x="57.6" xlink:href="#m3ac3e0cde6" y="220.186511"/>
      </g>
     </g>
     <g id="text_9">
      <!-- -0.5 -->
      <g transform="translate(30.6 223.624011)scale(0.1 -0.1)">
       <defs>
        <path d="M 550 1325 
Q 725 650 1150 575 
Q 1575 500 1837 662 
Q 2100 825 2212 1087 
Q 2325 1350 2312 1675 
Q 2300 2000 2137 2225 
Q 1975 2450 1725 2525 
Q 1475 2600 1162 2525 
Q 850 2450 650 2175 
L 225 2225 
Q 275 2375 700 4375 
L 2675 4375 
L 2675 3925 
L 1075 3925 
Q 950 3250 825 2850 
Q 1200 3025 1525 3012 
Q 1850 3000 2150 2862 
Q 2450 2725 2587 2487 
Q 2725 2250 2787 2012 
Q 2850 1775 2837 1500 
Q 2825 1225 2725 937 
Q 2625 650 2425 462 
Q 2225 275 1937 162 
Q 1650 50 1275 75 
Q 900 100 562 350 
Q 225 600 100 1200 
L 550 1325 
z
" id="SimHei-35" transform="scale(0.015625)"/>
       </defs>
       <use xlink:href="#SimHei-2d"/>
       <use x="50" xlink:href="#SimHei-30"/>
       <use x="100" xlink:href="#SimHei-2e"/>
       <use x="150" xlink:href="#SimHei-35"/>
      </g>
     </g>
    </g>
    <g id="ytick_3">
     <g id="line2d_9">
      <g>
       <use style="stroke:#000000;stroke-width:0.8;" x="57.6" xlink:href="#m3ac3e0cde6" y="172.799141"/>
      </g>
     </g>
     <g id="text_10">
      <!-- 0.0 -->
      <g transform="translate(35.6 176.236641)scale(0.1 -0.1)">
       <use xlink:href="#SimHei-30"/>
       <use x="50" xlink:href="#SimHei-2e"/>
       <use x="100" xlink:href="#SimHei-30"/>
      </g>
     </g>
    </g>
    <g id="ytick_4">
     <g id="line2d_10">
      <g>
       <use style="stroke:#000000;stroke-width:0.8;" x="57.6" xlink:href="#m3ac3e0cde6" y="125.411771"/>
      </g>
     </g>
     <g id="text_11">
      <!-- 0.5 -->
      <g transform="translate(35.6 128.849271)scale(0.1 -0.1)">
       <use xlink:href="#SimHei-30"/>
       <use x="50" xlink:href="#SimHei-2e"/>
       <use x="100" xlink:href="#SimHei-35"/>
      </g>
     </g>
    </g>
    <g id="ytick_5">
     <g id="line2d_11">
      <g>
       <use style="stroke:#000000;stroke-width:0.8;" x="57.6" xlink:href="#m3ac3e0cde6" y="78.024401"/>
      </g>
     </g>
     <g id="text_12">
      <!-- 1.0 -->
      <g transform="translate(35.6 81.461901)scale(0.1 -0.1)">
       <use xlink:href="#SimHei-31"/>
       <use x="50" xlink:href="#SimHei-2e"/>
       <use x="100" xlink:href="#SimHei-30"/>
      </g>
     </g>
    </g>
    <g id="text_13">
     <!-- y -->
     <g transform="translate(25.35 177.028)rotate(-90)scale(0.1 -0.1)">
      <defs>
       <path d="M 2900 2925 
L 1750 -100 
Q 1650 -450 1450 -625 
Q 1250 -800 950 -800 
Q 825 -800 712 -787 
Q 600 -775 500 -725 
L 500 -225 
Q 600 -275 700 -300 
Q 800 -325 875 -325 
Q 1075 -325 1150 -262 
Q 1225 -200 1300 25 
L 200 2925 
L 750 2925 
L 1550 725 
L 1575 725 
L 2350 2925 
L 2900 2925 
z
" id="SimHei-79" transform="scale(0.015625)"/>
      </defs>
      <use xlink:href="#SimHei-79"/>
     </g>
    </g>
   </g>
   <g id="line2d_12">
    <path clip-path="url(#p3fd6d1d3de)" d="M 73.832727 166.274714 
L 77.095587 160.355392 
L 80.358447 155.132267 
L 83.621307 150.403018 
L 88.515596 143.898857 
L 95.041316 135.776556 
L 112.987044 114.042942 
L 119.512764 106.382767 
L 124.407053 100.919395 
L 129.301343 95.826129 
L 132.564203 92.69396 
L 135.827063 89.81122 
L 139.089922 87.208869 
L 142.352782 84.915259 
L 145.615642 82.955738 
L 148.878502 81.352369 
L 152.141361 80.123752 
L 155.404221 79.284938 
L 158.667081 78.847416 
L 161.929941 78.819162 
L 165.1928 79.204738 
L 168.45566 80.005442 
L 171.71852 81.219477 
L 174.98138 82.842156 
L 178.244239 84.866114 
L 181.507099 87.281543 
L 184.769959 90.076419 
L 188.032819 93.236736 
L 191.295678 96.746737 
L 194.558538 100.589129 
L 197.821398 104.745299 
L 201.084258 109.195509 
L 204.347117 113.919075 
L 209.241407 121.469856 
L 214.135697 129.512348 
L 219.029986 137.969443 
L 225.555706 149.754711 
L 233.712855 165.040067 
L 254.921444 205.146399 
L 261.447163 216.8734 
L 266.341453 225.282656 
L 271.235742 233.280037 
L 276.130032 240.795031 
L 281.024322 247.759972 
L 284.287181 252.065853 
L 287.550041 256.080738 
L 290.812901 259.78766 
L 294.075761 263.170762 
L 297.33862 266.215426 
L 300.60148 268.908398 
L 303.86434 271.237921 
L 307.1272 273.193851 
L 310.390059 274.767762 
L 313.652919 275.953041 
L 316.915779 276.744942 
L 320.178639 277.140624 
L 323.441498 277.139136 
L 326.704358 276.741355 
L 329.967218 275.949866 
L 333.230078 274.768759 
L 336.492937 273.203357 
L 339.755797 271.259825 
L 343.018657 268.944688 
L 346.281517 266.264197 
L 349.544376 263.223564 
L 352.807236 259.826027 
L 356.070096 256.071727 
L 359.332956 251.956383 
L 362.595815 247.469737 
L 365.858675 242.593747 
L 369.121535 237.300502 
L 372.384395 231.549832 
L 375.647254 225.286588 
L 378.910114 218.437553 
L 382.172974 210.907966 
L 385.435834 202.577613 
L 388.698693 193.296457 
L 391.961553 182.879768 
L 395.224413 171.102719 
L 398.487273 157.694395 
L 398.487273 157.694395 
" style="fill:none;stroke:#000000;stroke-dasharray:3.7,1.6;stroke-dashoffset:0;"/>
   </g>
   <g id="line2d_13">
    <path clip-path="url(#p3fd6d1d3de)" d="M 73.832727 172.799141 
L 85.252736 152.022473 
L 91.778456 140.540539 
L 96.672746 132.256586 
L 101.567035 124.336114 
L 106.461325 116.850135 
L 111.355614 109.865762 
L 114.618474 105.519309 
L 117.881334 101.441054 
L 121.144194 97.647252 
L 124.407053 94.153028 
L 127.669913 90.97231 
L 130.932773 88.117779 
L 134.195633 85.600812 
L 137.458492 83.431443 
L 140.721352 81.61832 
L 143.984212 80.16867 
L 147.247072 79.088273 
L 150.509931 78.381434 
L 153.772791 78.050973 
L 157.035651 78.098205 
L 160.298511 78.522943 
L 163.56137 79.323494 
L 166.82423 80.496666 
L 170.08709 82.037783 
L 173.34995 83.940701 
L 176.61281 86.197835 
L 179.875669 88.800187 
L 183.138529 91.737383 
L 186.401389 94.997716 
L 189.664249 98.568188 
L 192.927108 102.434566 
L 196.189968 106.581438 
L 199.452828 110.992273 
L 204.347117 118.064724 
L 209.241407 125.627893 
L 214.135697 133.613972 
L 220.661416 144.795722 
L 228.818566 159.37861 
L 251.658584 200.802561 
L 258.184303 211.98431 
L 263.078593 219.97039 
L 267.972883 227.533558 
L 272.867172 234.606009 
L 276.130032 239.016844 
L 279.392892 243.163716 
L 282.655751 247.030095 
L 285.918611 250.600566 
L 289.181471 253.860899 
L 292.444331 256.798096 
L 295.70719 259.400448 
L 298.97005 261.657582 
L 302.23291 263.5605 
L 305.49577 265.101617 
L 308.75863 266.274789 
L 312.021489 267.075339 
L 315.284349 267.500077 
L 318.547209 267.54731 
L 321.810069 267.216848 
L 325.072928 266.51001 
L 328.335788 265.429612 
L 331.598648 263.979963 
L 334.861508 262.16684 
L 338.124367 259.997471 
L 341.387227 257.480504 
L 344.650087 254.625972 
L 347.912947 251.445254 
L 351.175806 247.95103 
L 354.438666 244.157229 
L 357.701526 240.078973 
L 360.964386 235.73252 
L 365.858675 228.748148 
L 370.752965 221.262168 
L 375.647254 213.341696 
L 382.172974 202.228407 
L 388.698693 190.64633 
L 398.487273 172.799141 
L 398.487273 172.799141 
" style="fill:none;stroke:#008000;stroke-linecap:square;"/>
   </g>
   <g id="patch_3">
    <path d="M 57.6 307.584 
L 57.6 41.472 
" style="fill:none;stroke:#000000;stroke-linecap:square;stroke-linejoin:miter;stroke-width:0.8;"/>
   </g>
   <g id="patch_4">
    <path d="M 414.72 307.584 
L 414.72 41.472 
" style="fill:none;stroke:#000000;stroke-linecap:square;stroke-linejoin:miter;stroke-width:0.8;"/>
   </g>
   <g id="patch_5">
    <path d="M 57.6 307.584 
L 414.72 307.584 
" style="fill:none;stroke:#000000;stroke-linecap:square;stroke-linejoin:miter;stroke-width:0.8;"/>
   </g>
   <g id="patch_6">
    <path d="M 57.6 41.472 
L 414.72 41.472 
" style="fill:none;stroke:#000000;stroke-linecap:square;stroke-linejoin:miter;stroke-width:0.8;"/>
   </g>
   <g id="text_14">
    <!-- analytic, n_train=100, m=9 -->
    <g transform="translate(158.16 35.472)scale(0.12 -0.12)">
     <defs>
      <path d="M 2875 125 
L 2275 125 
Q 2225 175 2200 262 
Q 2175 350 2175 475 
Q 2000 275 1750 175 
Q 1500 75 1225 75 
Q 825 75 550 275 
Q 275 475 275 850 
Q 275 1225 525 1450 
Q 775 1675 1300 1750 
Q 1650 1800 1912 1875 
Q 2175 1950 2175 2075 
Q 2175 2225 2062 2375 
Q 1950 2525 1575 2525 
Q 1275 2525 1137 2412 
Q 1000 2300 950 2100 
L 400 2100 
Q 450 2500 762 2737 
Q 1075 2975 1575 2975 
Q 2125 2975 2400 2725 
Q 2675 2475 2675 2025 
L 2675 650 
Q 2675 500 2725 375 
Q 2775 250 2875 125 
z
M 2175 1050 
L 2175 1550 
Q 2025 1500 1887 1462 
Q 1750 1425 1425 1375 
Q 1050 1325 937 1200 
Q 825 1075 825 900 
Q 825 750 937 637 
Q 1050 525 1275 525 
Q 1500 525 1762 650 
Q 2025 775 2175 1050 
z
" id="SimHei-61" transform="scale(0.015625)"/>
      <path d="M 2800 125 
L 2300 125 
L 2300 1925 
Q 2300 2225 2150 2400 
Q 2000 2575 1750 2575 
Q 1425 2575 1137 2237 
Q 850 1900 850 1400 
L 850 125 
L 350 125 
L 350 2925 
L 850 2925 
L 850 2400 
Q 1050 2675 1287 2825 
Q 1525 2975 1900 2975 
Q 2350 2975 2575 2725 
Q 2800 2475 2800 2100 
L 2800 125 
z
" id="SimHei-6e" transform="scale(0.015625)"/>
      <path d="M 1825 125 
L 1325 125 
L 1325 4400 
L 1825 4400 
L 1825 125 
z
" id="SimHei-6c" transform="scale(0.015625)"/>
      <path d="M 2750 200 
Q 2625 150 2462 112 
Q 2300 75 2025 75 
Q 1575 75 1300 325 
Q 1025 575 1025 1025 
L 1025 2525 
L 175 2525 
L 175 2925 
L 1025 2925 
L 1025 3900 
L 1525 3900 
L 1525 2925 
L 2550 2925 
L 2550 2525 
L 1525 2525 
L 1525 1000 
Q 1525 800 1625 662 
Q 1725 525 2000 525 
Q 2275 525 2450 575 
Q 2625 625 2750 700 
L 2750 200 
z
" id="SimHei-74" transform="scale(0.015625)"/>
      <path d="M 1800 3725 
L 1300 3725 
L 1300 4375 
L 1800 4375 
L 1800 3725 
z
M 1800 125 
L 1300 125 
L 1300 2925 
L 1800 2925 
L 1800 125 
z
" id="SimHei-69" transform="scale(0.015625)"/>
      <path d="M 2850 1250 
Q 2850 725 2487 400 
Q 2125 75 1575 75 
Q 1025 75 625 462 
Q 225 850 225 1525 
Q 225 2200 625 2587 
Q 1025 2975 1575 2975 
Q 2125 2975 2450 2687 
Q 2775 2400 2775 2000 
L 2225 2000 
Q 2200 2300 2012 2412 
Q 1825 2525 1575 2525 
Q 1275 2525 1025 2287 
Q 775 2050 775 1525 
Q 775 1000 1025 762 
Q 1275 525 1575 525 
Q 1900 525 2100 700 
Q 2300 875 2300 1250 
L 2850 1250 
z
" id="SimHei-63" transform="scale(0.015625)"/>
      <path d="M 1100 125 
L 775 -550 
L 525 -550 
L 775 125 
L 525 125 
L 525 675 
L 1100 675 
L 1100 125 
z
" id="SimHei-2c" transform="scale(0.015625)"/>
      <path id="SimHei-20" transform="scale(0.015625)"/>
      <path d="M 3150 -850 
L 0 -850 
L 0 -550 
L 3150 -550 
L 3150 -850 
z
" id="SimHei-5f" transform="scale(0.015625)"/>
      <path d="M 2500 2425 
Q 2025 2500 1700 2287 
Q 1375 2075 1150 1550 
L 1150 125 
L 650 125 
L 650 2925 
L 1150 2925 
L 1150 2200 
Q 1375 2600 1712 2787 
Q 2050 2975 2500 2975 
L 2500 2425 
z
" id="SimHei-72" transform="scale(0.015625)"/>
      <path d="M 2975 2900 
L 125 2900 
L 125 3300 
L 2975 3300 
L 2975 2900 
z
M 2975 1375 
L 125 1375 
L 125 1775 
L 2975 1775 
L 2975 1375 
z
" id="SimHei-3d" transform="scale(0.015625)"/>
      <path d="M 3050 125 
L 2550 125 
L 2550 2150 
Q 2550 2300 2500 2400 
Q 2450 2500 2300 2500 
Q 2125 2500 1975 2312 
Q 1825 2125 1825 1825 
L 1825 125 
L 1325 125 
L 1325 2150 
Q 1325 2300 1275 2400 
Q 1225 2500 1075 2500 
Q 900 2500 750 2312 
Q 600 2125 600 1825 
L 600 125 
L 100 125 
L 100 2925 
L 600 2925 
L 600 2550 
Q 725 2750 900 2862 
Q 1075 2975 1275 2975 
Q 1475 2975 1612 2862 
Q 1750 2750 1800 2550 
Q 1925 2750 2087 2862 
Q 2250 2975 2450 2975 
Q 2750 2975 2900 2812 
Q 3050 2650 3050 2350 
L 3050 125 
z
" id="SimHei-6d" transform="scale(0.015625)"/>
      <path d="M 800 75 
Q 1350 1000 1700 1750 
Q 1075 1650 662 1912 
Q 250 2175 162 2625 
Q 75 3075 175 3437 
Q 275 3800 487 4037 
Q 700 4275 1000 4375 
Q 1300 4475 1537 4475 
Q 1775 4475 2025 4375 
Q 2275 4275 2475 4075 
Q 2675 3875 2750 3662 
Q 2825 3450 2825 3112 
Q 2825 2775 2575 2250 
Q 2325 1725 1350 75 
L 800 75 
z
M 662 2875 
Q 700 2550 937 2337 
Q 1175 2125 1450 2150 
Q 1725 2175 1887 2300 
Q 2050 2425 2200 2725 
Q 2300 3100 2250 3362 
Q 2200 3625 1987 3800 
Q 1775 3975 1525 3975 
Q 1375 4000 1137 3900 
Q 900 3800 762 3500 
Q 625 3200 662 2875 
z
" id="SimHei-39" transform="scale(0.015625)"/>
     </defs>
     <use xlink:href="#SimHei-61"/>
     <use x="50" xlink:href="#SimHei-6e"/>
     <use x="100" xlink:href="#SimHei-61"/>
     <use x="150" xlink:href="#SimHei-6c"/>
     <use x="200" xlink:href="#SimHei-79"/>
     <use x="250" xlink:href="#SimHei-74"/>
     <use x="300" xlink:href="#SimHei-69"/>
     <use x="350" xlink:href="#SimHei-63"/>
     <use x="400" xlink:href="#SimHei-2c"/>
     <use x="450" xlink:href="#SimHei-20"/>
     <use x="500" xlink:href="#SimHei-6e"/>
     <use x="550" xlink:href="#SimHei-5f"/>
     <use x="600" xlink:href="#SimHei-74"/>
     <use x="650" xlink:href="#SimHei-72"/>
     <use x="700" xlink:href="#SimHei-61"/>
     <use x="750" xlink:href="#SimHei-69"/>
     <use x="800" xlink:href="#SimHei-6e"/>
     <use x="850" xlink:href="#SimHei-3d"/>
     <use x="900" xlink:href="#SimHei-31"/>
     <use x="950" xlink:href="#SimHei-30"/>
     <use x="1000" xlink:href="#SimHei-30"/>
     <use x="1050" xlink:href="#SimHei-2c"/>
     <use x="1100" xlink:href="#SimHei-20"/>
     <use x="1150" xlink:href="#SimHei-6d"/>
     <use x="1200" xlink:href="#SimHei-3d"/>
     <use x="1250" xlink:href="#SimHei-39"/>
    </g>
   </g>
   <g id="legend_1">
    <g id="patch_7">
     <path d="M 265.72 90.0345 
L 407.72 90.0345 
Q 409.72 90.0345 409.72 88.0345 
L 409.72 48.472 
Q 409.72 46.472 407.72 46.472 
L 265.72 46.472 
Q 263.72 46.472 263.72 48.472 
L 263.72 88.0345 
Q 263.72 90.0345 265.72 90.0345 
z
" style="fill:#ffffff;opacity:0.8;stroke:#cccccc;stroke-linejoin:miter;"/>
    </g>
    <g id="line2d_14">
     <path d="M 267.72 54.7845 
L 287.72 54.7845 
" style="fill:none;stroke:#000000;stroke-dasharray:3.7,1.6;stroke-dashoffset:0;"/>
    </g>
    <g id="line2d_15"/>
    <g id="text_15">
     <!-- predict func(analytic) -->
     <g transform="translate(295.72 58.2845)scale(0.1 -0.1)">
      <defs>
       <path d="M 2825 1525 
Q 2825 800 2475 425 
Q 2125 50 1625 50 
Q 1350 50 1150 162 
Q 950 275 800 500 
L 800 -800 
L 300 -800 
L 300 2925 
L 800 2925 
L 800 2550 
Q 950 2775 1150 2875 
Q 1350 2975 1625 2975 
Q 2125 2975 2475 2612 
Q 2825 2250 2825 1525 
z
M 2275 1525 
Q 2275 2000 2087 2262 
Q 1900 2525 1525 2525 
Q 1225 2525 1012 2262 
Q 800 2000 800 1525 
Q 800 1050 1012 775 
Q 1225 500 1525 500 
Q 1900 500 2087 775 
Q 2275 1050 2275 1525 
z
" id="SimHei-70" transform="scale(0.015625)"/>
       <path d="M 2850 1075 
Q 2800 625 2450 350 
Q 2100 75 1625 75 
Q 1025 75 637 462 
Q 250 850 250 1525 
Q 250 2200 637 2587 
Q 1025 2975 1625 2975 
Q 2150 2975 2487 2637 
Q 2825 2300 2825 1525 
L 800 1525 
Q 800 975 1037 750 
Q 1275 525 1625 525 
Q 1900 525 2075 662 
Q 2250 800 2300 1075 
L 2850 1075 
z
M 2250 1925 
Q 2200 2275 2025 2412 
Q 1850 2550 1575 2550 
Q 1325 2550 1125 2412 
Q 925 2275 825 1925 
L 2250 1925 
z
" id="SimHei-65" transform="scale(0.015625)"/>
       <path d="M 2750 125 
L 2250 125 
L 2250 500 
Q 2100 275 1900 175 
Q 1700 75 1425 75 
Q 925 75 575 437 
Q 225 800 225 1525 
Q 225 2250 575 2625 
Q 925 3000 1425 3000 
Q 1700 3000 1900 2887 
Q 2100 2775 2250 2550 
L 2250 4400 
L 2750 4400 
L 2750 125 
z
M 2250 1525 
Q 2250 2000 2037 2275 
Q 1825 2550 1525 2550 
Q 1150 2550 962 2275 
Q 775 2000 775 1525 
Q 775 1050 962 787 
Q 1150 525 1525 525 
Q 1825 525 2037 787 
Q 2250 1050 2250 1525 
z
" id="SimHei-64" transform="scale(0.015625)"/>
       <path d="M 2850 3825 
Q 2725 3900 2550 3950 
Q 2375 4000 2100 4000 
Q 1825 4000 1725 3862 
Q 1625 3725 1625 3525 
L 1625 2925 
L 2650 2925 
L 2650 2525 
L 1625 2525 
L 1625 125 
L 1125 125 
L 1125 2525 
L 275 2525 
L 275 2925 
L 1125 2925 
L 1125 3500 
Q 1125 3950 1400 4200 
Q 1675 4450 2125 4450 
Q 2400 4450 2562 4412 
Q 2725 4375 2850 4325 
L 2850 3825 
z
" id="SimHei-66" transform="scale(0.015625)"/>
       <path d="M 2800 125 
L 2300 125 
L 2300 650 
Q 2100 375 1862 225 
Q 1625 75 1250 75 
Q 800 75 575 325 
Q 350 575 350 950 
L 350 2925 
L 850 2925 
L 850 1125 
Q 850 825 1000 650 
Q 1150 475 1400 475 
Q 1725 475 2012 812 
Q 2300 1150 2300 1650 
L 2300 2925 
L 2800 2925 
L 2800 125 
z
" id="SimHei-75" transform="scale(0.015625)"/>
       <path d="M 2975 -200 
L 2700 -475 
Q 2075 125 1762 775 
Q 1450 1425 1450 2250 
Q 1450 3075 1762 3725 
Q 2075 4375 2700 5000 
L 2975 4725 
Q 2400 4175 2112 3587 
Q 1825 3000 1825 2250 
Q 1825 1500 2112 912 
Q 2400 325 2975 -200 
z
" id="SimHei-28" transform="scale(0.015625)"/>
       <path d="M 1675 2250 
Q 1675 1425 1362 775 
Q 1050 125 425 -475 
L 150 -200 
Q 725 325 1012 912 
Q 1300 1500 1300 2250 
Q 1300 3000 1012 3587 
Q 725 4175 150 4725 
L 425 5000 
Q 1050 4375 1362 3725 
Q 1675 3075 1675 2250 
z
" id="SimHei-29" transform="scale(0.015625)"/>
      </defs>
      <use xlink:href="#SimHei-70"/>
      <use x="50" xlink:href="#SimHei-72"/>
      <use x="100" xlink:href="#SimHei-65"/>
      <use x="150" xlink:href="#SimHei-64"/>
      <use x="200" xlink:href="#SimHei-69"/>
      <use x="250" xlink:href="#SimHei-63"/>
      <use x="300" xlink:href="#SimHei-74"/>
      <use x="350" xlink:href="#SimHei-20"/>
      <use x="400" xlink:href="#SimHei-66"/>
      <use x="450" xlink:href="#SimHei-75"/>
      <use x="500" xlink:href="#SimHei-6e"/>
      <use x="550" xlink:href="#SimHei-63"/>
      <use x="600" xlink:href="#SimHei-28"/>
      <use x="650" xlink:href="#SimHei-61"/>
      <use x="700" xlink:href="#SimHei-6e"/>
      <use x="750" xlink:href="#SimHei-61"/>
      <use x="800" xlink:href="#SimHei-6c"/>
      <use x="850" xlink:href="#SimHei-79"/>
      <use x="900" xlink:href="#SimHei-74"/>
      <use x="950" xlink:href="#SimHei-69"/>
      <use x="1000" xlink:href="#SimHei-63"/>
      <use x="1050" xlink:href="#SimHei-29"/>
     </g>
    </g>
    <g id="line2d_16">
     <path d="M 267.72 68.0345 
L 287.72 68.0345 
" style="fill:none;stroke:#008000;stroke-linecap:square;"/>
    </g>
    <g id="line2d_17"/>
    <g id="text_16">
     <!-- real func -->
     <g transform="translate(295.72 71.5345)scale(0.1 -0.1)">
      <use xlink:href="#SimHei-72"/>
      <use x="50" xlink:href="#SimHei-65"/>
      <use x="100" xlink:href="#SimHei-61"/>
      <use x="150" xlink:href="#SimHei-6c"/>
      <use x="200" xlink:href="#SimHei-20"/>
      <use x="250" xlink:href="#SimHei-66"/>
      <use x="300" xlink:href="#SimHei-75"/>
      <use x="350" xlink:href="#SimHei-6e"/>
      <use x="400" xlink:href="#SimHei-63"/>
     </g>
    </g>
    <g id="PathCollection_2">
     <g>
      <use style="fill:#0000ff;stroke:#0000ff;" x="277.72" xlink:href="#m61febd979d" y="82.1595"/>
     </g>
    </g>
    <g id="text_17">
     <!-- train data -->
     <g transform="translate(295.72 84.7845)scale(0.1 -0.1)">
      <use xlink:href="#SimHei-74"/>
      <use x="50" xlink:href="#SimHei-72"/>
      <use x="100" xlink:href="#SimHei-61"/>
      <use x="150" xlink:href="#SimHei-69"/>
      <use x="200" xlink:href="#SimHei-6e"/>
      <use x="250" xlink:href="#SimHei-20"/>
      <use x="300" xlink:href="#SimHei-64"/>
      <use x="350" xlink:href="#SimHei-61"/>
      <use x="400" xlink:href="#SimHei-74"/>
      <use x="450" xlink:href="#SimHei-61"/>
     </g>
    </g>
   </g>
  </g>
 </g>
 <defs>
  <clipPath id="p3fd6d1d3de">
   <rect height="266.112" width="357.12" x="57.6" y="41.472"/>
  </clipPath>
 </defs>
</svg>
