<?xml version="1.0" encoding="utf-8" standalone="no"?>
<!DOCTYPE svg PUBLIC "-//W3C//DTD SVG 1.1//EN"
  "http://www.w3.org/Graphics/SVG/1.1/DTD/svg11.dtd">
<svg height="345.6pt" version="1.1" viewBox="0 0 460.8 345.6" width="460.8pt" xmlns="http://www.w3.org/2000/svg" xmlns:xlink="http://www.w3.org/1999/xlink">
 <metadata>
  <rdf:RDF xmlns:cc="http://creativecommons.org/ns#" xmlns:dc="http://purl.org/dc/elements/1.1/" xmlns:rdf="http://www.w3.org/1999/02/22-rdf-syntax-ns#">
   <cc:Work>
    <dc:type rdf:resource="http://purl.org/dc/dcmitype/StillImage"/>
    <dc:date>2021-10-07T21:07:33.329206</dc:date>
    <dc:format>image/svg+xml</dc:format>
    <dc:creator>
     <cc:Agent>
      <dc:title>Matplotlib v3.4.2, https://matplotlib.org/</dc:title>
     </cc:Agent>
    </dc:creator>
   </cc:Work>
  </rdf:RDF>
 </metadata>
 <defs>
  <style type="text/css">*{stroke-linecap:butt;stroke-linejoin:round;}</style>
 </defs>
 <g id="figure_1">
  <g id="patch_1">
   <path d="M 0 345.6 
L 460.8 345.6 
L 460.8 0 
L 0 0 
z
" style="fill:#ffffff;"/>
  </g>
  <g id="axes_1">
   <g id="patch_2">
    <path d="M 57.6 307.584 
L 414.72 307.584 
L 414.72 41.472 
L 57.6 41.472 
z
" style="fill:#ffffff;"/>
   </g>
   <g id="PathCollection_1">
    <defs>
     <path d="M 0 1.581139 
C 0.419323 1.581139 0.821528 1.41454 1.118034 1.118034 
C 1.41454 0.821528 1.581139 0.419323 1.581139 0 
C 1.581139 -0.419323 1.41454 -0.821528 1.118034 -1.118034 
C 0.821528 -1.41454 0.419323 -1.581139 0 -1.581139 
C -0.419323 -1.581139 -0.821528 -1.41454 -1.118034 -1.118034 
C -1.41454 -0.821528 -1.581139 -0.419323 -1.581139 0 
C -1.581139 0.419323 -1.41454 0.821528 -1.118034 1.118034 
C -0.821528 1.41454 -0.419323 1.581139 0 1.581139 
z
" id="mc7a0cd2f9b" style="stroke:#008000;"/>
    </defs>
    <g clip-path="url(#p0c29e374a7)">
     <use style="fill:#008000;stroke:#008000;" x="73.832727" xlink:href="#mc7a0cd2f9b" y="154.806327"/>
     <use style="fill:#008000;stroke:#008000;" x="109.905455" xlink:href="#mc7a0cd2f9b" y="130.058821"/>
     <use style="fill:#008000;stroke:#008000;" x="145.978182" xlink:href="#mc7a0cd2f9b" y="53.568"/>
     <use style="fill:#008000;stroke:#008000;" x="182.050909" xlink:href="#mc7a0cd2f9b" y="75.770821"/>
     <use style="fill:#008000;stroke:#008000;" x="218.123636" xlink:href="#mc7a0cd2f9b" y="140.875331"/>
     <use style="fill:#008000;stroke:#008000;" x="254.196364" xlink:href="#mc7a0cd2f9b" y="269.418284"/>
     <use style="fill:#008000;stroke:#008000;" x="290.269091" xlink:href="#mc7a0cd2f9b" y="293.512077"/>
     <use style="fill:#008000;stroke:#008000;" x="326.341818" xlink:href="#mc7a0cd2f9b" y="261.990582"/>
     <use style="fill:#008000;stroke:#008000;" x="362.414545" xlink:href="#mc7a0cd2f9b" y="240.541161"/>
     <use style="fill:#008000;stroke:#008000;" x="398.487273" xlink:href="#mc7a0cd2f9b" y="160.954114"/>
    </g>
   </g>
   <g id="matplotlib.axis_1">
    <g id="xtick_1">
     <g id="line2d_1">
      <defs>
       <path d="M 0 0 
L 0 3.5 
" id="m4a64810d78" style="stroke:#000000;stroke-width:0.8;"/>
      </defs>
      <g>
       <use style="stroke:#000000;stroke-width:0.8;" x="73.832727" xlink:href="#m4a64810d78" y="307.584"/>
      </g>
     </g>
     <g id="text_1">
      <!-- 0.0 -->
      <g transform="translate(66.332727 321.459)scale(0.1 -0.1)">
       <defs>
        <path d="M 225 2537 
Q 250 3200 412 3587 
Q 575 3975 875 4225 
Q 1175 4475 1612 4475 
Q 2050 4475 2375 4112 
Q 2700 3750 2800 3200 
Q 2900 2650 2862 1937 
Q 2825 1225 2612 775 
Q 2400 325 1975 150 
Q 1550 -25 1125 187 
Q 700 400 525 750 
Q 350 1100 275 1487 
Q 200 1875 225 2537 
z
M 750 2687 
Q 675 2000 800 1462 
Q 925 925 1212 700 
Q 1500 475 1800 612 
Q 2100 750 2237 1162 
Q 2375 1575 2375 2062 
Q 2375 2550 2337 2950 
Q 2300 3350 2112 3675 
Q 1925 4000 1612 4012 
Q 1300 4025 1062 3700 
Q 825 3375 750 2687 
z
" id="SimHei-30" transform="scale(0.015625)"/>
        <path d="M 1075 125 
L 500 125 
L 500 675 
L 1075 675 
L 1075 125 
z
" id="SimHei-2e" transform="scale(0.015625)"/>
       </defs>
       <use xlink:href="#SimHei-30"/>
       <use x="50" xlink:href="#SimHei-2e"/>
       <use x="100" xlink:href="#SimHei-30"/>
      </g>
     </g>
    </g>
    <g id="xtick_2">
     <g id="line2d_2">
      <g>
       <use style="stroke:#000000;stroke-width:0.8;" x="138.763636" xlink:href="#m4a64810d78" y="307.584"/>
      </g>
     </g>
     <g id="text_2">
      <!-- 0.2 -->
      <g transform="translate(131.263636 321.459)scale(0.1 -0.1)">
       <defs>
        <path d="M 300 250 
Q 325 625 650 925 
Q 975 1225 1475 1862 
Q 1975 2500 2125 2850 
Q 2275 3200 2237 3450 
Q 2200 3700 2000 3862 
Q 1800 4025 1537 4000 
Q 1275 3975 1037 3800 
Q 800 3625 675 3275 
L 200 3350 
Q 400 3925 712 4187 
Q 1025 4450 1450 4475 
Q 1700 4500 1900 4462 
Q 2100 4425 2312 4287 
Q 2525 4150 2662 3875 
Q 2800 3600 2762 3212 
Q 2725 2825 2375 2287 
Q 2025 1750 1025 600 
L 2825 600 
L 2825 150 
L 300 150 
L 300 250 
z
" id="SimHei-32" transform="scale(0.015625)"/>
       </defs>
       <use xlink:href="#SimHei-30"/>
       <use x="50" xlink:href="#SimHei-2e"/>
       <use x="100" xlink:href="#SimHei-32"/>
      </g>
     </g>
    </g>
    <g id="xtick_3">
     <g id="line2d_3">
      <g>
       <use style="stroke:#000000;stroke-width:0.8;" x="203.694545" xlink:href="#m4a64810d78" y="307.584"/>
      </g>
     </g>
     <g id="text_3">
      <!-- 0.4 -->
      <g transform="translate(196.194545 321.459)scale(0.1 -0.1)">
       <defs>
        <path d="M 2000 1100 
L 75 1100 
L 75 1525 
L 2100 4450 
L 2475 4450 
L 2475 1525 
L 3075 1525 
L 3075 1100 
L 2475 1100 
L 2475 150 
L 2000 150 
L 2000 1100 
z
M 2000 1525 
L 2000 3500 
L 600 1525 
L 2000 1525 
z
" id="SimHei-34" transform="scale(0.015625)"/>
       </defs>
       <use xlink:href="#SimHei-30"/>
       <use x="50" xlink:href="#SimHei-2e"/>
       <use x="100" xlink:href="#SimHei-34"/>
      </g>
     </g>
    </g>
    <g id="xtick_4">
     <g id="line2d_4">
      <g>
       <use style="stroke:#000000;stroke-width:0.8;" x="268.625455" xlink:href="#m4a64810d78" y="307.584"/>
      </g>
     </g>
     <g id="text_4">
      <!-- 0.6 -->
      <g transform="translate(261.125455 321.459)scale(0.1 -0.1)">
       <defs>
        <path d="M 250 1612 
Q 275 1975 387 2225 
Q 500 2475 725 2850 
L 1750 4450 
L 2325 4450 
L 1275 2800 
Q 1950 2975 2350 2750 
Q 2750 2525 2887 2237 
Q 3025 1950 3037 1612 
Q 3050 1275 2937 950 
Q 2825 625 2537 362 
Q 2250 100 1737 75 
Q 1225 50 862 262 
Q 500 475 362 862 
Q 225 1250 250 1612 
z
M 1025 787 
Q 1250 550 1625 525 
Q 2000 500 2250 775 
Q 2500 1050 2500 1575 
Q 2500 2100 2187 2300 
Q 1875 2500 1487 2450 
Q 1100 2400 925 2075 
Q 750 1750 775 1387 
Q 800 1025 1025 787 
z
" id="SimHei-36" transform="scale(0.015625)"/>
       </defs>
       <use xlink:href="#SimHei-30"/>
       <use x="50" xlink:href="#SimHei-2e"/>
       <use x="100" xlink:href="#SimHei-36"/>
      </g>
     </g>
    </g>
    <g id="xtick_5">
     <g id="line2d_5">
      <g>
       <use style="stroke:#000000;stroke-width:0.8;" x="333.556364" xlink:href="#m4a64810d78" y="307.584"/>
      </g>
     </g>
     <g id="text_5">
      <!-- 0.8 -->
      <g transform="translate(326.056364 321.459)scale(0.1 -0.1)">
       <defs>
        <path d="M 175 1375 
Q 175 1675 325 1962 
Q 475 2250 825 2425 
Q 525 2600 425 2812 
Q 325 3025 312 3300 
Q 300 3575 387 3775 
Q 475 3975 650 4150 
Q 825 4325 1037 4387 
Q 1250 4450 1500 4450 
Q 1750 4450 1950 4400 
Q 2150 4350 2375 4187 
Q 2600 4025 2700 3725 
Q 2800 3425 2687 3025 
Q 2575 2625 2100 2400 
Q 2525 2275 2700 2012 
Q 2875 1750 2875 1375 
Q 2875 1000 2762 775 
Q 2650 550 2512 400 
Q 2375 250 2137 162 
Q 1900 75 1537 75 
Q 1175 75 912 162 
Q 650 250 475 425 
Q 300 600 237 837 
Q 175 1075 175 1375 
z
M 687 1400 
Q 675 1100 787 875 
Q 900 650 1200 587 
Q 1500 525 1825 600 
Q 2150 675 2275 950 
Q 2400 1225 2362 1500 
Q 2325 1775 2050 1962 
Q 1775 2150 1450 2125 
Q 1125 2100 912 1900 
Q 700 1700 687 1400 
z
M 775 3350 
Q 775 3100 950 2875 
Q 1125 2650 1500 2650 
Q 1875 2650 2062 2875 
Q 2250 3100 2237 3412 
Q 2225 3725 2012 3875 
Q 1800 4025 1437 4000 
Q 1075 3975 925 3787 
Q 775 3600 775 3350 
z
" id="SimHei-38" transform="scale(0.015625)"/>
       </defs>
       <use xlink:href="#SimHei-30"/>
       <use x="50" xlink:href="#SimHei-2e"/>
       <use x="100" xlink:href="#SimHei-38"/>
      </g>
     </g>
    </g>
    <g id="xtick_6">
     <g id="line2d_6">
      <g>
       <use style="stroke:#000000;stroke-width:0.8;" x="398.487273" xlink:href="#m4a64810d78" y="307.584"/>
      </g>
     </g>
     <g id="text_6">
      <!-- 1.0 -->
      <g transform="translate(390.987273 321.459)scale(0.1 -0.1)">
       <defs>
        <path d="M 1400 3600 
Q 1075 3275 575 2975 
L 575 3450 
Q 1200 3875 1600 4450 
L 1900 4450 
L 1900 150 
L 1400 150 
L 1400 3600 
z
" id="SimHei-31" transform="scale(0.015625)"/>
       </defs>
       <use xlink:href="#SimHei-31"/>
       <use x="50" xlink:href="#SimHei-2e"/>
       <use x="100" xlink:href="#SimHei-30"/>
      </g>
     </g>
    </g>
    <g id="text_7">
     <!-- x -->
     <g transform="translate(233.66 333.584)scale(0.1 -0.1)">
      <defs>
       <path d="M 2875 125 
L 2275 125 
L 1550 1200 
L 825 125 
L 225 125 
L 1250 1550 
L 300 2925 
L 900 2925 
L 1550 1875 
L 2200 2925 
L 2800 2925 
L 1850 1550 
L 2875 125 
z
" id="SimHei-78" transform="scale(0.015625)"/>
      </defs>
      <use xlink:href="#SimHei-78"/>
     </g>
    </g>
   </g>
   <g id="matplotlib.axis_2">
    <g id="ytick_1">
     <g id="line2d_7">
      <defs>
       <path d="M 0 0 
L -3.5 0 
" id="m24d1b87526" style="stroke:#000000;stroke-width:0.8;"/>
      </defs>
      <g>
       <use style="stroke:#000000;stroke-width:0.8;" x="57.6" xlink:href="#m24d1b87526" y="295.491695"/>
      </g>
     </g>
     <g id="text_8">
      <!-- -1.00 -->
      <g transform="translate(25.6 298.929195)scale(0.1 -0.1)">
       <defs>
        <path d="M 2975 2125 
L 125 2125 
L 125 2525 
L 2975 2525 
L 2975 2125 
z
" id="SimHei-2d" transform="scale(0.015625)"/>
       </defs>
       <use xlink:href="#SimHei-2d"/>
       <use x="50" xlink:href="#SimHei-31"/>
       <use x="100" xlink:href="#SimHei-2e"/>
       <use x="150" xlink:href="#SimHei-30"/>
       <use x="200" xlink:href="#SimHei-30"/>
      </g>
     </g>
    </g>
    <g id="ytick_2">
     <g id="line2d_8">
      <g>
       <use style="stroke:#000000;stroke-width:0.8;" x="57.6" xlink:href="#m24d1b87526" y="265.838027"/>
      </g>
     </g>
     <g id="text_9">
      <!-- -0.75 -->
      <g transform="translate(25.6 269.275527)scale(0.1 -0.1)">
       <defs>
        <path d="M 850 150 
Q 1300 2050 2425 3925 
L 275 3925 
L 275 4375 
L 2950 4375 
L 2950 3950 
Q 1775 2050 1400 150 
L 850 150 
z
" id="SimHei-37" transform="scale(0.015625)"/>
        <path d="M 550 1325 
Q 725 650 1150 575 
Q 1575 500 1837 662 
Q 2100 825 2212 1087 
Q 2325 1350 2312 1675 
Q 2300 2000 2137 2225 
Q 1975 2450 1725 2525 
Q 1475 2600 1162 2525 
Q 850 2450 650 2175 
L 225 2225 
Q 275 2375 700 4375 
L 2675 4375 
L 2675 3925 
L 1075 3925 
Q 950 3250 825 2850 
Q 1200 3025 1525 3012 
Q 1850 3000 2150 2862 
Q 2450 2725 2587 2487 
Q 2725 2250 2787 2012 
Q 2850 1775 2837 1500 
Q 2825 1225 2725 937 
Q 2625 650 2425 462 
Q 2225 275 1937 162 
Q 1650 50 1275 75 
Q 900 100 562 350 
Q 225 600 100 1200 
L 550 1325 
z
" id="SimHei-35" transform="scale(0.015625)"/>
       </defs>
       <use xlink:href="#SimHei-2d"/>
       <use x="50" xlink:href="#SimHei-30"/>
       <use x="100" xlink:href="#SimHei-2e"/>
       <use x="150" xlink:href="#SimHei-37"/>
       <use x="200" xlink:href="#SimHei-35"/>
      </g>
     </g>
    </g>
    <g id="ytick_3">
     <g id="line2d_9">
      <g>
       <use style="stroke:#000000;stroke-width:0.8;" x="57.6" xlink:href="#m24d1b87526" y="236.184359"/>
      </g>
     </g>
     <g id="text_10">
      <!-- -0.50 -->
      <g transform="translate(25.6 239.621859)scale(0.1 -0.1)">
       <use xlink:href="#SimHei-2d"/>
       <use x="50" xlink:href="#SimHei-30"/>
       <use x="100" xlink:href="#SimHei-2e"/>
       <use x="150" xlink:href="#SimHei-35"/>
       <use x="200" xlink:href="#SimHei-30"/>
      </g>
     </g>
    </g>
    <g id="ytick_4">
     <g id="line2d_10">
      <g>
       <use style="stroke:#000000;stroke-width:0.8;" x="57.6" xlink:href="#m24d1b87526" y="206.53069"/>
      </g>
     </g>
     <g id="text_11">
      <!-- -0.25 -->
      <g transform="translate(25.6 209.96819)scale(0.1 -0.1)">
       <use xlink:href="#SimHei-2d"/>
       <use x="50" xlink:href="#SimHei-30"/>
       <use x="100" xlink:href="#SimHei-2e"/>
       <use x="150" xlink:href="#SimHei-32"/>
       <use x="200" xlink:href="#SimHei-35"/>
      </g>
     </g>
    </g>
    <g id="ytick_5">
     <g id="line2d_11">
      <g>
       <use style="stroke:#000000;stroke-width:0.8;" x="57.6" xlink:href="#m24d1b87526" y="176.877022"/>
      </g>
     </g>
     <g id="text_12">
      <!-- 0.00 -->
      <g transform="translate(30.6 180.314522)scale(0.1 -0.1)">
       <use xlink:href="#SimHei-30"/>
       <use x="50" xlink:href="#SimHei-2e"/>
       <use x="100" xlink:href="#SimHei-30"/>
       <use x="150" xlink:href="#SimHei-30"/>
      </g>
     </g>
    </g>
    <g id="ytick_6">
     <g id="line2d_12">
      <g>
       <use style="stroke:#000000;stroke-width:0.8;" x="57.6" xlink:href="#m24d1b87526" y="147.223354"/>
      </g>
     </g>
     <g id="text_13">
      <!-- 0.25 -->
      <g transform="translate(30.6 150.660854)scale(0.1 -0.1)">
       <use xlink:href="#SimHei-30"/>
       <use x="50" xlink:href="#SimHei-2e"/>
       <use x="100" xlink:href="#SimHei-32"/>
       <use x="150" xlink:href="#SimHei-35"/>
      </g>
     </g>
    </g>
    <g id="ytick_7">
     <g id="line2d_13">
      <g>
       <use style="stroke:#000000;stroke-width:0.8;" x="57.6" xlink:href="#m24d1b87526" y="117.569685"/>
      </g>
     </g>
     <g id="text_14">
      <!-- 0.50 -->
      <g transform="translate(30.6 121.007185)scale(0.1 -0.1)">
       <use xlink:href="#SimHei-30"/>
       <use x="50" xlink:href="#SimHei-2e"/>
       <use x="100" xlink:href="#SimHei-35"/>
       <use x="150" xlink:href="#SimHei-30"/>
      </g>
     </g>
    </g>
    <g id="ytick_8">
     <g id="line2d_14">
      <g>
       <use style="stroke:#000000;stroke-width:0.8;" x="57.6" xlink:href="#m24d1b87526" y="87.916017"/>
      </g>
     </g>
     <g id="text_15">
      <!-- 0.75 -->
      <g transform="translate(30.6 91.353517)scale(0.1 -0.1)">
       <use xlink:href="#SimHei-30"/>
       <use x="50" xlink:href="#SimHei-2e"/>
       <use x="100" xlink:href="#SimHei-37"/>
       <use x="150" xlink:href="#SimHei-35"/>
      </g>
     </g>
    </g>
    <g id="ytick_9">
     <g id="line2d_15">
      <g>
       <use style="stroke:#000000;stroke-width:0.8;" x="57.6" xlink:href="#m24d1b87526" y="58.262348"/>
      </g>
     </g>
     <g id="text_16">
      <!-- 1.00 -->
      <g transform="translate(30.6 61.699848)scale(0.1 -0.1)">
       <use xlink:href="#SimHei-31"/>
       <use x="50" xlink:href="#SimHei-2e"/>
       <use x="100" xlink:href="#SimHei-30"/>
       <use x="150" xlink:href="#SimHei-30"/>
      </g>
     </g>
    </g>
    <g id="text_17">
     <!-- y -->
     <g transform="translate(20.35 177.028)rotate(-90)scale(0.1 -0.1)">
      <defs>
       <path d="M 2900 2925 
L 1750 -100 
Q 1650 -450 1450 -625 
Q 1250 -800 950 -800 
Q 825 -800 712 -787 
Q 600 -775 500 -725 
L 500 -225 
Q 600 -275 700 -300 
Q 800 -325 875 -325 
Q 1075 -325 1150 -262 
Q 1225 -200 1300 25 
L 200 2925 
L 750 2925 
L 1550 725 
L 1575 725 
L 2350 2925 
L 2900 2925 
z
" id="SimHei-79" transform="scale(0.015625)"/>
      </defs>
      <use xlink:href="#SimHei-79"/>
     </g>
    </g>
   </g>
   <g id="line2d_16">
    <path clip-path="url(#p0c29e374a7)" d="M 73.832727 162.839547 
L 77.095587 153.87175 
L 80.358447 145.418944 
L 83.621307 137.477686 
L 86.884166 130.04408 
L 90.147026 123.113791 
L 93.409886 116.68205 
L 96.672746 110.743663 
L 99.935605 105.293019 
L 103.198465 100.324103 
L 106.461325 95.830498 
L 109.724185 91.805401 
L 112.987044 88.241624 
L 116.249904 85.131609 
L 119.512764 82.467433 
L 122.775624 80.240818 
L 126.038483 78.443141 
L 129.301343 77.06544 
L 132.564203 76.098423 
L 135.827063 75.532479 
L 139.089922 75.357684 
L 142.352782 75.563811 
L 145.615642 76.140341 
L 148.878502 77.076465 
L 152.141361 78.361101 
L 155.404221 79.982895 
L 158.667081 81.930235 
L 161.929941 84.191258 
L 165.1928 86.753858 
L 168.45566 89.605696 
L 171.71852 92.734206 
L 174.98138 96.126608 
L 178.244239 99.769912 
L 181.507099 103.650931 
L 186.401389 109.888857 
L 191.295678 116.585586 
L 196.189968 123.694351 
L 201.084258 131.167599 
L 207.609977 141.615367 
L 214.135697 152.508984 
L 222.292846 166.573035 
L 251.658584 217.804665 
L 258.184303 228.56103 
L 264.710023 238.822691 
L 269.604312 246.120541 
L 274.498602 253.019681 
L 279.392892 259.468891 
L 284.287181 265.417281 
L 287.550041 269.079686 
L 290.812901 272.482202 
L 294.075761 275.610079 
L 297.33862 278.448675 
L 300.60148 280.983466 
L 303.86434 283.200054 
L 307.1272 285.084174 
L 310.390059 286.621706 
L 313.652919 287.79868 
L 316.915779 288.60129 
L 320.178639 289.015896 
L 323.441498 289.029036 
L 326.704358 288.627437 
L 329.967218 287.79802 
L 333.230078 286.527908 
L 336.492937 284.80444 
L 339.755797 282.615174 
L 343.018657 279.947899 
L 346.281517 276.790641 
L 349.544376 273.131675 
L 352.807236 268.959532 
L 356.070096 264.263005 
L 359.332956 259.031164 
L 362.595815 253.253358 
L 365.858675 246.919228 
L 369.121535 240.018714 
L 372.384395 232.542064 
L 375.647254 224.479842 
L 378.910114 215.822938 
L 382.172974 206.562575 
L 385.435834 196.69032 
L 388.698693 186.198091 
L 391.961553 175.078164 
L 395.224413 163.323186 
L 398.487273 150.92618 
L 398.487273 150.92618 
" style="fill:none;stroke:#0000ff;stroke-linecap:square;"/>
   </g>
   <g id="line2d_17">
    <path clip-path="url(#p0c29e374a7)" d="M 73.832727 153.913889 
L 77.095587 147.082128 
L 80.358447 140.614588 
L 83.621307 134.510386 
L 86.884166 128.768408 
L 90.147026 123.387303 
L 93.409886 118.365484 
L 96.672746 113.701126 
L 99.935605 109.392166 
L 103.198465 105.436304 
L 106.461325 101.830996 
L 109.724185 98.573458 
L 112.987044 95.660666 
L 116.249904 93.08935 
L 119.512764 90.855997 
L 122.775624 88.956848 
L 126.038483 87.387898 
L 129.301343 86.144896 
L 132.564203 85.223341 
L 135.827063 84.618483 
L 139.089922 84.325324 
L 142.352782 84.338611 
L 145.615642 84.652843 
L 148.878502 85.262262 
L 152.141361 86.160859 
L 155.404221 87.342367 
L 158.667081 88.800266 
L 161.929941 90.527775 
L 165.1928 92.517858 
L 168.45566 94.763219 
L 171.71852 97.256301 
L 174.98138 99.989287 
L 178.244239 102.954097 
L 181.507099 106.142388 
L 186.401389 111.324954 
L 191.295678 116.960757 
L 196.189968 123.018282 
L 201.084258 129.464654 
L 205.978547 136.265633 
L 210.872837 143.38561 
L 217.398556 153.310995 
L 223.924276 163.646043 
L 232.081425 176.994361 
L 245.132864 198.874381 
L 258.184303 220.634013 
L 266.341453 233.75853 
L 272.867172 243.797803 
L 277.761462 250.973749 
L 282.655751 257.783933 
L 287.550041 264.17026 
L 292.444331 270.073141 
L 295.70719 273.709705 
L 298.97005 277.085804 
L 302.23291 280.182664 
L 305.49577 282.981207 
L 308.75863 285.462056 
L 312.021489 287.605529 
L 315.284349 289.391641 
L 318.547209 290.800102 
L 321.810069 291.810317 
L 325.072928 292.401383 
L 326.704358 292.533119 
L 328.335788 292.55209 
L 329.967218 292.455596 
L 331.598648 292.240919 
L 333.230078 291.90532 
L 334.861508 291.446041 
L 336.492937 290.860306 
L 338.124367 290.145317 
L 339.755797 289.298259 
L 341.387227 288.316296 
L 343.018657 287.196572 
L 344.650087 285.936213 
L 347.912947 282.981991 
L 351.175806 279.430238 
L 354.438666 275.257245 
L 357.701526 270.438987 
L 360.964386 264.951121 
L 364.227245 258.768987 
L 367.490105 251.867604 
L 370.752965 244.221669 
L 374.015825 235.805559 
L 377.278684 226.593329 
L 380.541544 216.558709 
L 383.804404 205.675103 
L 387.067264 193.915593 
L 390.330123 181.252932 
L 393.592983 167.659545 
L 396.855843 153.107529 
L 398.487273 145.463226 
L 398.487273 145.463226 
" style="fill:none;stroke:#ff0000;stroke-linecap:square;"/>
   </g>
   <g id="line2d_18">
    <path clip-path="url(#p0c29e374a7)" d="M 73.832727 176.877022 
L 85.252736 150.874126 
L 91.778456 136.503991 
L 96.672746 126.136266 
L 101.567035 116.223454 
L 106.461325 106.854428 
L 111.355614 98.113185 
L 114.618474 92.673411 
L 117.881334 87.569299 
L 121.144194 82.821192 
L 124.407053 78.44802 
L 127.669913 74.467215 
L 130.932773 70.894646 
L 134.195633 67.744553 
L 137.458492 65.029494 
L 140.721352 62.760292 
L 143.984212 60.945994 
L 147.247072 59.59383 
L 148.878502 59.092805 
L 150.509931 58.709191 
L 152.141361 58.443369 
L 153.772791 58.295604 
L 155.404221 58.266044 
L 157.035651 58.354717 
L 158.667081 58.561537 
L 160.298511 58.886295 
L 161.929941 59.32867 
L 165.1928 60.564385 
L 168.45566 62.263757 
L 171.71852 64.420011 
L 174.98138 67.024551 
L 178.244239 70.066996 
L 181.507099 73.535216 
L 184.769959 77.415388 
L 188.032819 81.692042 
L 191.295678 86.348132 
L 194.558538 91.365097 
L 197.821398 96.722937 
L 201.084258 102.400295 
L 205.978547 111.465595 
L 210.872837 121.117336 
L 215.767127 131.268988 
L 222.292846 145.424308 
L 230.449995 163.795781 
L 250.027154 208.329735 
L 256.552873 222.485056 
L 261.447163 232.636707 
L 266.341453 242.288449 
L 271.235742 251.353749 
L 274.498602 257.031107 
L 277.761462 262.388947 
L 281.024322 267.405912 
L 284.287181 272.062001 
L 287.550041 276.338656 
L 290.812901 280.218827 
L 294.075761 283.687048 
L 297.33862 286.729493 
L 300.60148 289.334033 
L 303.86434 291.490287 
L 307.1272 293.189659 
L 310.390059 294.425374 
L 312.021489 294.867748 
L 313.652919 295.192507 
L 315.284349 295.399326 
L 316.915779 295.488 
L 318.547209 295.45844 
L 320.178639 295.310675 
L 321.810069 295.044853 
L 323.441498 294.661238 
L 325.072928 294.160214 
L 328.335788 292.80805 
L 331.598648 290.993751 
L 334.861508 288.72455 
L 338.124367 286.009491 
L 341.387227 282.859398 
L 344.650087 279.286828 
L 347.912947 275.306023 
L 351.175806 270.932851 
L 354.438666 266.184745 
L 357.701526 261.080632 
L 360.964386 255.640859 
L 364.227245 249.88711 
L 369.121535 240.718275 
L 374.015825 230.977075 
L 378.910114 220.750844 
L 385.435834 206.520366 
L 393.592983 188.095575 
L 398.487273 176.877022 
L 398.487273 176.877022 
" style="fill:none;stroke:#000000;stroke-dasharray:3.7,1.6;stroke-dashoffset:0;"/>
   </g>
   <g id="patch_3">
    <path d="M 57.6 307.584 
L 57.6 41.472 
" style="fill:none;stroke:#000000;stroke-linecap:square;stroke-linejoin:miter;stroke-width:0.8;"/>
   </g>
   <g id="patch_4">
    <path d="M 414.72 307.584 
L 414.72 41.472 
" style="fill:none;stroke:#000000;stroke-linecap:square;stroke-linejoin:miter;stroke-width:0.8;"/>
   </g>
   <g id="patch_5">
    <path d="M 57.6 307.584 
L 414.72 307.584 
" style="fill:none;stroke:#000000;stroke-linecap:square;stroke-linejoin:miter;stroke-width:0.8;"/>
   </g>
   <g id="patch_6">
    <path d="M 57.6 41.472 
L 414.72 41.472 
" style="fill:none;stroke:#000000;stroke-linecap:square;stroke-linejoin:miter;stroke-width:0.8;"/>
   </g>
   <g id="text_18">
    <!-- predict func of different method,m=5,l2_coef=0.0001 -->
    <g transform="translate(83.16 35.472)scale(0.12 -0.12)">
     <defs>
      <path d="M 2825 1525 
Q 2825 800 2475 425 
Q 2125 50 1625 50 
Q 1350 50 1150 162 
Q 950 275 800 500 
L 800 -800 
L 300 -800 
L 300 2925 
L 800 2925 
L 800 2550 
Q 950 2775 1150 2875 
Q 1350 2975 1625 2975 
Q 2125 2975 2475 2612 
Q 2825 2250 2825 1525 
z
M 2275 1525 
Q 2275 2000 2087 2262 
Q 1900 2525 1525 2525 
Q 1225 2525 1012 2262 
Q 800 2000 800 1525 
Q 800 1050 1012 775 
Q 1225 500 1525 500 
Q 1900 500 2087 775 
Q 2275 1050 2275 1525 
z
" id="SimHei-70" transform="scale(0.015625)"/>
      <path d="M 2500 2425 
Q 2025 2500 1700 2287 
Q 1375 2075 1150 1550 
L 1150 125 
L 650 125 
L 650 2925 
L 1150 2925 
L 1150 2200 
Q 1375 2600 1712 2787 
Q 2050 2975 2500 2975 
L 2500 2425 
z
" id="SimHei-72" transform="scale(0.015625)"/>
      <path d="M 2850 1075 
Q 2800 625 2450 350 
Q 2100 75 1625 75 
Q 1025 75 637 462 
Q 250 850 250 1525 
Q 250 2200 637 2587 
Q 1025 2975 1625 2975 
Q 2150 2975 2487 2637 
Q 2825 2300 2825 1525 
L 800 1525 
Q 800 975 1037 750 
Q 1275 525 1625 525 
Q 1900 525 2075 662 
Q 2250 800 2300 1075 
L 2850 1075 
z
M 2250 1925 
Q 2200 2275 2025 2412 
Q 1850 2550 1575 2550 
Q 1325 2550 1125 2412 
Q 925 2275 825 1925 
L 2250 1925 
z
" id="SimHei-65" transform="scale(0.015625)"/>
      <path d="M 2750 125 
L 2250 125 
L 2250 500 
Q 2100 275 1900 175 
Q 1700 75 1425 75 
Q 925 75 575 437 
Q 225 800 225 1525 
Q 225 2250 575 2625 
Q 925 3000 1425 3000 
Q 1700 3000 1900 2887 
Q 2100 2775 2250 2550 
L 2250 4400 
L 2750 4400 
L 2750 125 
z
M 2250 1525 
Q 2250 2000 2037 2275 
Q 1825 2550 1525 2550 
Q 1150 2550 962 2275 
Q 775 2000 775 1525 
Q 775 1050 962 787 
Q 1150 525 1525 525 
Q 1825 525 2037 787 
Q 2250 1050 2250 1525 
z
" id="SimHei-64" transform="scale(0.015625)"/>
      <path d="M 1800 3725 
L 1300 3725 
L 1300 4375 
L 1800 4375 
L 1800 3725 
z
M 1800 125 
L 1300 125 
L 1300 2925 
L 1800 2925 
L 1800 125 
z
" id="SimHei-69" transform="scale(0.015625)"/>
      <path d="M 2850 1250 
Q 2850 725 2487 400 
Q 2125 75 1575 75 
Q 1025 75 625 462 
Q 225 850 225 1525 
Q 225 2200 625 2587 
Q 1025 2975 1575 2975 
Q 2125 2975 2450 2687 
Q 2775 2400 2775 2000 
L 2225 2000 
Q 2200 2300 2012 2412 
Q 1825 2525 1575 2525 
Q 1275 2525 1025 2287 
Q 775 2050 775 1525 
Q 775 1000 1025 762 
Q 1275 525 1575 525 
Q 1900 525 2100 700 
Q 2300 875 2300 1250 
L 2850 1250 
z
" id="SimHei-63" transform="scale(0.015625)"/>
      <path d="M 2750 200 
Q 2625 150 2462 112 
Q 2300 75 2025 75 
Q 1575 75 1300 325 
Q 1025 575 1025 1025 
L 1025 2525 
L 175 2525 
L 175 2925 
L 1025 2925 
L 1025 3900 
L 1525 3900 
L 1525 2925 
L 2550 2925 
L 2550 2525 
L 1525 2525 
L 1525 1000 
Q 1525 800 1625 662 
Q 1725 525 2000 525 
Q 2275 525 2450 575 
Q 2625 625 2750 700 
L 2750 200 
z
" id="SimHei-74" transform="scale(0.015625)"/>
      <path id="SimHei-20" transform="scale(0.015625)"/>
      <path d="M 2850 3825 
Q 2725 3900 2550 3950 
Q 2375 4000 2100 4000 
Q 1825 4000 1725 3862 
Q 1625 3725 1625 3525 
L 1625 2925 
L 2650 2925 
L 2650 2525 
L 1625 2525 
L 1625 125 
L 1125 125 
L 1125 2525 
L 275 2525 
L 275 2925 
L 1125 2925 
L 1125 3500 
Q 1125 3950 1400 4200 
Q 1675 4450 2125 4450 
Q 2400 4450 2562 4412 
Q 2725 4375 2850 4325 
L 2850 3825 
z
" id="SimHei-66" transform="scale(0.015625)"/>
      <path d="M 2800 125 
L 2300 125 
L 2300 650 
Q 2100 375 1862 225 
Q 1625 75 1250 75 
Q 800 75 575 325 
Q 350 575 350 950 
L 350 2925 
L 850 2925 
L 850 1125 
Q 850 825 1000 650 
Q 1150 475 1400 475 
Q 1725 475 2012 812 
Q 2300 1150 2300 1650 
L 2300 2925 
L 2800 2925 
L 2800 125 
z
" id="SimHei-75" transform="scale(0.015625)"/>
      <path d="M 2800 125 
L 2300 125 
L 2300 1925 
Q 2300 2225 2150 2400 
Q 2000 2575 1750 2575 
Q 1425 2575 1137 2237 
Q 850 1900 850 1400 
L 850 125 
L 350 125 
L 350 2925 
L 850 2925 
L 850 2400 
Q 1050 2675 1287 2825 
Q 1525 2975 1900 2975 
Q 2350 2975 2575 2725 
Q 2800 2475 2800 2100 
L 2800 125 
z
" id="SimHei-6e" transform="scale(0.015625)"/>
      <path d="M 2925 1525 
Q 2925 875 2525 475 
Q 2125 75 1575 75 
Q 1025 75 625 475 
Q 225 875 225 1525 
Q 225 2175 625 2575 
Q 1025 2975 1575 2975 
Q 2125 2975 2525 2575 
Q 2925 2175 2925 1525 
z
M 2375 1525 
Q 2375 2025 2125 2275 
Q 1875 2525 1575 2525 
Q 1275 2525 1025 2275 
Q 775 2025 775 1525 
Q 775 1025 1025 775 
Q 1275 525 1575 525 
Q 1875 525 2125 775 
Q 2375 1025 2375 1525 
z
" id="SimHei-6f" transform="scale(0.015625)"/>
      <path d="M 3050 125 
L 2550 125 
L 2550 2150 
Q 2550 2300 2500 2400 
Q 2450 2500 2300 2500 
Q 2125 2500 1975 2312 
Q 1825 2125 1825 1825 
L 1825 125 
L 1325 125 
L 1325 2150 
Q 1325 2300 1275 2400 
Q 1225 2500 1075 2500 
Q 900 2500 750 2312 
Q 600 2125 600 1825 
L 600 125 
L 100 125 
L 100 2925 
L 600 2925 
L 600 2550 
Q 725 2750 900 2862 
Q 1075 2975 1275 2975 
Q 1475 2975 1612 2862 
Q 1750 2750 1800 2550 
Q 1925 2750 2087 2862 
Q 2250 2975 2450 2975 
Q 2750 2975 2900 2812 
Q 3050 2650 3050 2350 
L 3050 125 
z
" id="SimHei-6d" transform="scale(0.015625)"/>
      <path d="M 2800 125 
L 2300 125 
L 2300 1925 
Q 2300 2225 2150 2400 
Q 2000 2575 1750 2575 
Q 1425 2575 1137 2237 
Q 850 1900 850 1400 
L 850 125 
L 350 125 
L 350 4400 
L 850 4400 
L 850 2400 
Q 1050 2675 1287 2825 
Q 1525 2975 1900 2975 
Q 2350 2975 2575 2725 
Q 2800 2475 2800 2100 
L 2800 125 
z
" id="SimHei-68" transform="scale(0.015625)"/>
      <path d="M 1100 125 
L 775 -550 
L 525 -550 
L 775 125 
L 525 125 
L 525 675 
L 1100 675 
L 1100 125 
z
" id="SimHei-2c" transform="scale(0.015625)"/>
      <path d="M 2975 2900 
L 125 2900 
L 125 3300 
L 2975 3300 
L 2975 2900 
z
M 2975 1375 
L 125 1375 
L 125 1775 
L 2975 1775 
L 2975 1375 
z
" id="SimHei-3d" transform="scale(0.015625)"/>
      <path d="M 1825 125 
L 1325 125 
L 1325 4400 
L 1825 4400 
L 1825 125 
z
" id="SimHei-6c" transform="scale(0.015625)"/>
      <path d="M 3150 -850 
L 0 -850 
L 0 -550 
L 3150 -550 
L 3150 -850 
z
" id="SimHei-5f" transform="scale(0.015625)"/>
     </defs>
     <use xlink:href="#SimHei-70"/>
     <use x="50" xlink:href="#SimHei-72"/>
     <use x="100" xlink:href="#SimHei-65"/>
     <use x="150" xlink:href="#SimHei-64"/>
     <use x="200" xlink:href="#SimHei-69"/>
     <use x="250" xlink:href="#SimHei-63"/>
     <use x="300" xlink:href="#SimHei-74"/>
     <use x="350" xlink:href="#SimHei-20"/>
     <use x="400" xlink:href="#SimHei-66"/>
     <use x="450" xlink:href="#SimHei-75"/>
     <use x="500" xlink:href="#SimHei-6e"/>
     <use x="550" xlink:href="#SimHei-63"/>
     <use x="600" xlink:href="#SimHei-20"/>
     <use x="650" xlink:href="#SimHei-6f"/>
     <use x="700" xlink:href="#SimHei-66"/>
     <use x="750" xlink:href="#SimHei-20"/>
     <use x="800" xlink:href="#SimHei-64"/>
     <use x="850" xlink:href="#SimHei-69"/>
     <use x="900" xlink:href="#SimHei-66"/>
     <use x="950" xlink:href="#SimHei-66"/>
     <use x="1000" xlink:href="#SimHei-65"/>
     <use x="1050" xlink:href="#SimHei-72"/>
     <use x="1100" xlink:href="#SimHei-65"/>
     <use x="1150" xlink:href="#SimHei-6e"/>
     <use x="1200" xlink:href="#SimHei-74"/>
     <use x="1250" xlink:href="#SimHei-20"/>
     <use x="1300" xlink:href="#SimHei-6d"/>
     <use x="1350" xlink:href="#SimHei-65"/>
     <use x="1400" xlink:href="#SimHei-74"/>
     <use x="1450" xlink:href="#SimHei-68"/>
     <use x="1500" xlink:href="#SimHei-6f"/>
     <use x="1550" xlink:href="#SimHei-64"/>
     <use x="1600" xlink:href="#SimHei-2c"/>
     <use x="1650" xlink:href="#SimHei-6d"/>
     <use x="1700" xlink:href="#SimHei-3d"/>
     <use x="1750" xlink:href="#SimHei-35"/>
     <use x="1800" xlink:href="#SimHei-2c"/>
     <use x="1850" xlink:href="#SimHei-6c"/>
     <use x="1900" xlink:href="#SimHei-32"/>
     <use x="1950" xlink:href="#SimHei-5f"/>
     <use x="2000" xlink:href="#SimHei-63"/>
     <use x="2050" xlink:href="#SimHei-6f"/>
     <use x="2100" xlink:href="#SimHei-65"/>
     <use x="2150" xlink:href="#SimHei-66"/>
     <use x="2200" xlink:href="#SimHei-3d"/>
     <use x="2250" xlink:href="#SimHei-30"/>
     <use x="2300" xlink:href="#SimHei-2e"/>
     <use x="2350" xlink:href="#SimHei-30"/>
     <use x="2400" xlink:href="#SimHei-30"/>
     <use x="2450" xlink:href="#SimHei-30"/>
     <use x="2500" xlink:href="#SimHei-31"/>
    </g>
   </g>
   <g id="legend_1">
    <g id="patch_7">
     <path d="M 225.72 104.097 
L 407.72 104.097 
Q 409.72 104.097 409.72 102.097 
L 409.72 48.472 
Q 409.72 46.472 407.72 46.472 
L 225.72 46.472 
Q 223.72 46.472 223.72 48.472 
L 223.72 102.097 
Q 223.72 104.097 225.72 104.097 
z
" style="fill:#ffffff;opacity:0.8;stroke:#cccccc;stroke-linejoin:miter;"/>
    </g>
    <g id="line2d_19">
     <path d="M 227.72 54.7845 
L 247.72 54.7845 
" style="fill:none;stroke:#0000ff;stroke-linecap:square;"/>
    </g>
    <g id="line2d_20"/>
    <g id="text_19">
     <!-- predict func(analytic) -->
     <g transform="translate(255.72 58.2845)scale(0.1 -0.1)">
      <defs>
       <path d="M 2975 -200 
L 2700 -475 
Q 2075 125 1762 775 
Q 1450 1425 1450 2250 
Q 1450 3075 1762 3725 
Q 2075 4375 2700 5000 
L 2975 4725 
Q 2400 4175 2112 3587 
Q 1825 3000 1825 2250 
Q 1825 1500 2112 912 
Q 2400 325 2975 -200 
z
" id="SimHei-28" transform="scale(0.015625)"/>
       <path d="M 2875 125 
L 2275 125 
Q 2225 175 2200 262 
Q 2175 350 2175 475 
Q 2000 275 1750 175 
Q 1500 75 1225 75 
Q 825 75 550 275 
Q 275 475 275 850 
Q 275 1225 525 1450 
Q 775 1675 1300 1750 
Q 1650 1800 1912 1875 
Q 2175 1950 2175 2075 
Q 2175 2225 2062 2375 
Q 1950 2525 1575 2525 
Q 1275 2525 1137 2412 
Q 1000 2300 950 2100 
L 400 2100 
Q 450 2500 762 2737 
Q 1075 2975 1575 2975 
Q 2125 2975 2400 2725 
Q 2675 2475 2675 2025 
L 2675 650 
Q 2675 500 2725 375 
Q 2775 250 2875 125 
z
M 2175 1050 
L 2175 1550 
Q 2025 1500 1887 1462 
Q 1750 1425 1425 1375 
Q 1050 1325 937 1200 
Q 825 1075 825 900 
Q 825 750 937 637 
Q 1050 525 1275 525 
Q 1500 525 1762 650 
Q 2025 775 2175 1050 
z
" id="SimHei-61" transform="scale(0.015625)"/>
       <path d="M 1675 2250 
Q 1675 1425 1362 775 
Q 1050 125 425 -475 
L 150 -200 
Q 725 325 1012 912 
Q 1300 1500 1300 2250 
Q 1300 3000 1012 3587 
Q 725 4175 150 4725 
L 425 5000 
Q 1050 4375 1362 3725 
Q 1675 3075 1675 2250 
z
" id="SimHei-29" transform="scale(0.015625)"/>
      </defs>
      <use xlink:href="#SimHei-70"/>
      <use x="50" xlink:href="#SimHei-72"/>
      <use x="100" xlink:href="#SimHei-65"/>
      <use x="150" xlink:href="#SimHei-64"/>
      <use x="200" xlink:href="#SimHei-69"/>
      <use x="250" xlink:href="#SimHei-63"/>
      <use x="300" xlink:href="#SimHei-74"/>
      <use x="350" xlink:href="#SimHei-20"/>
      <use x="400" xlink:href="#SimHei-66"/>
      <use x="450" xlink:href="#SimHei-75"/>
      <use x="500" xlink:href="#SimHei-6e"/>
      <use x="550" xlink:href="#SimHei-63"/>
      <use x="600" xlink:href="#SimHei-28"/>
      <use x="650" xlink:href="#SimHei-61"/>
      <use x="700" xlink:href="#SimHei-6e"/>
      <use x="750" xlink:href="#SimHei-61"/>
      <use x="800" xlink:href="#SimHei-6c"/>
      <use x="850" xlink:href="#SimHei-79"/>
      <use x="900" xlink:href="#SimHei-74"/>
      <use x="950" xlink:href="#SimHei-69"/>
      <use x="1000" xlink:href="#SimHei-63"/>
      <use x="1050" xlink:href="#SimHei-29"/>
     </g>
    </g>
    <g id="line2d_21">
     <path d="M 227.72 68.847 
L 247.72 68.847 
" style="fill:none;stroke:#ff0000;stroke-linecap:square;"/>
    </g>
    <g id="line2d_22"/>
    <g id="text_20">
     <!-- predict func(gradient descent) -->
     <g transform="translate(255.72 72.347)scale(0.1 -0.1)">
      <defs>
       <path d="M 2975 2500 
Q 2800 2550 2637 2562 
Q 2475 2575 2300 2525 
Q 2375 2450 2425 2337 
Q 2475 2225 2475 2000 
Q 2475 1575 2187 1300 
Q 1900 1025 1475 1025 
Q 1375 1025 1212 1062 
Q 1050 1100 950 1150 
Q 875 1100 850 1050 
Q 825 1000 825 925 
Q 825 800 1000 737 
Q 1175 675 1625 675 
Q 2350 675 2612 475 
Q 2875 275 2875 -25 
Q 2875 -425 2487 -612 
Q 2100 -800 1575 -800 
Q 900 -800 575 -625 
Q 250 -450 250 -150 
Q 250 0 375 150 
Q 500 300 700 400 
Q 550 475 462 587 
Q 375 700 375 875 
Q 375 1025 487 1137 
Q 600 1250 750 1325 
Q 625 1450 550 1625 
Q 475 1800 475 2000 
Q 475 2425 762 2700 
Q 1050 2975 1475 2975 
Q 1700 2975 1862 2912 
Q 2025 2850 2150 2725 
Q 2350 2875 2550 2937 
Q 2750 3000 2975 2975 
L 2975 2500 
z
M 1975 2000 
Q 1975 2250 1850 2400 
Q 1725 2550 1475 2550 
Q 1225 2550 1100 2400 
Q 975 2250 975 2000 
Q 975 1750 1100 1600 
Q 1225 1450 1475 1450 
Q 1725 1450 1850 1600 
Q 1975 1750 1975 2000 
z
M 2400 -75 
Q 2400 25 2287 125 
Q 2175 225 1725 225 
Q 1625 225 1450 237 
Q 1275 250 1050 275 
Q 850 200 775 100 
Q 700 0 700 -100 
Q 700 -250 900 -350 
Q 1100 -450 1600 -450 
Q 2025 -450 2212 -337 
Q 2400 -225 2400 -75 
z
" id="SimHei-67" transform="scale(0.015625)"/>
       <path d="M 2750 900 
Q 2750 500 2437 287 
Q 2125 75 1650 75 
Q 1050 75 725 312 
Q 400 550 400 1000 
L 900 1000 
Q 900 700 1112 600 
Q 1325 500 1625 500 
Q 1925 500 2075 612 
Q 2225 725 2225 900 
Q 2225 1025 2100 1150 
Q 1975 1275 1475 1350 
Q 900 1425 687 1637 
Q 475 1850 475 2200 
Q 475 2500 762 2737 
Q 1050 2975 1600 2975 
Q 2100 2975 2387 2750 
Q 2675 2525 2675 2150 
L 2175 2150 
Q 2175 2375 2012 2462 
Q 1850 2550 1600 2550 
Q 1275 2550 1137 2437 
Q 1000 2325 1000 2175 
Q 1000 2000 1125 1900 
Q 1250 1800 1650 1750 
Q 2300 1650 2525 1437 
Q 2750 1225 2750 900 
z
" id="SimHei-73" transform="scale(0.015625)"/>
      </defs>
      <use xlink:href="#SimHei-70"/>
      <use x="50" xlink:href="#SimHei-72"/>
      <use x="100" xlink:href="#SimHei-65"/>
      <use x="150" xlink:href="#SimHei-64"/>
      <use x="200" xlink:href="#SimHei-69"/>
      <use x="250" xlink:href="#SimHei-63"/>
      <use x="300" xlink:href="#SimHei-74"/>
      <use x="350" xlink:href="#SimHei-20"/>
      <use x="400" xlink:href="#SimHei-66"/>
      <use x="450" xlink:href="#SimHei-75"/>
      <use x="500" xlink:href="#SimHei-6e"/>
      <use x="550" xlink:href="#SimHei-63"/>
      <use x="600" xlink:href="#SimHei-28"/>
      <use x="650" xlink:href="#SimHei-67"/>
      <use x="700" xlink:href="#SimHei-72"/>
      <use x="750" xlink:href="#SimHei-61"/>
      <use x="800" xlink:href="#SimHei-64"/>
      <use x="850" xlink:href="#SimHei-69"/>
      <use x="900" xlink:href="#SimHei-65"/>
      <use x="950" xlink:href="#SimHei-6e"/>
      <use x="1000" xlink:href="#SimHei-74"/>
      <use x="1050" xlink:href="#SimHei-20"/>
      <use x="1100" xlink:href="#SimHei-64"/>
      <use x="1150" xlink:href="#SimHei-65"/>
      <use x="1200" xlink:href="#SimHei-73"/>
      <use x="1250" xlink:href="#SimHei-63"/>
      <use x="1300" xlink:href="#SimHei-65"/>
      <use x="1350" xlink:href="#SimHei-6e"/>
      <use x="1400" xlink:href="#SimHei-74"/>
      <use x="1450" xlink:href="#SimHei-29"/>
     </g>
    </g>
    <g id="line2d_23">
     <path d="M 227.72 82.097 
L 247.72 82.097 
" style="fill:none;stroke:#000000;stroke-dasharray:3.7,1.6;stroke-dashoffset:0;"/>
    </g>
    <g id="line2d_24"/>
    <g id="text_21">
     <!-- real func -->
     <g transform="translate(255.72 85.597)scale(0.1 -0.1)">
      <use xlink:href="#SimHei-72"/>
      <use x="50" xlink:href="#SimHei-65"/>
      <use x="100" xlink:href="#SimHei-61"/>
      <use x="150" xlink:href="#SimHei-6c"/>
      <use x="200" xlink:href="#SimHei-20"/>
      <use x="250" xlink:href="#SimHei-66"/>
      <use x="300" xlink:href="#SimHei-75"/>
      <use x="350" xlink:href="#SimHei-6e"/>
      <use x="400" xlink:href="#SimHei-63"/>
     </g>
    </g>
    <g id="PathCollection_2">
     <g>
      <use style="fill:#008000;stroke:#008000;" x="237.72" xlink:href="#mc7a0cd2f9b" y="96.222"/>
     </g>
    </g>
    <g id="text_22">
     <!-- train data -->
     <g transform="translate(255.72 98.847)scale(0.1 -0.1)">
      <use xlink:href="#SimHei-74"/>
      <use x="50" xlink:href="#SimHei-72"/>
      <use x="100" xlink:href="#SimHei-61"/>
      <use x="150" xlink:href="#SimHei-69"/>
      <use x="200" xlink:href="#SimHei-6e"/>
      <use x="250" xlink:href="#SimHei-20"/>
      <use x="300" xlink:href="#SimHei-64"/>
      <use x="350" xlink:href="#SimHei-61"/>
      <use x="400" xlink:href="#SimHei-74"/>
      <use x="450" xlink:href="#SimHei-61"/>
     </g>
    </g>
   </g>
  </g>
 </g>
 <defs>
  <clipPath id="p0c29e374a7">
   <rect height="266.112" width="357.12" x="57.6" y="41.472"/>
  </clipPath>
 </defs>
</svg>
