<?xml version="1.0" encoding="utf-8" standalone="no"?>
<!DOCTYPE svg PUBLIC "-//W3C//DTD SVG 1.1//EN"
  "http://www.w3.org/Graphics/SVG/1.1/DTD/svg11.dtd">
<svg height="345.6pt" version="1.1" viewBox="0 0 460.8 345.6" width="460.8pt" xmlns="http://www.w3.org/2000/svg" xmlns:xlink="http://www.w3.org/1999/xlink">
 <metadata>
  <rdf:RDF xmlns:cc="http://creativecommons.org/ns#" xmlns:dc="http://purl.org/dc/elements/1.1/" xmlns:rdf="http://www.w3.org/1999/02/22-rdf-syntax-ns#">
   <cc:Work>
    <dc:type rdf:resource="http://purl.org/dc/dcmitype/StillImage"/>
    <dc:date>2021-10-02T22:00:31.626857</dc:date>
    <dc:format>image/svg+xml</dc:format>
    <dc:creator>
     <cc:Agent>
      <dc:title>Matplotlib v3.4.2, https://matplotlib.org/</dc:title>
     </cc:Agent>
    </dc:creator>
   </cc:Work>
  </rdf:RDF>
 </metadata>
 <defs>
  <style type="text/css">*{stroke-linecap:butt;stroke-linejoin:round;}</style>
 </defs>
 <g id="figure_1">
  <g id="patch_1">
   <path d="M 0 345.6 
L 460.8 345.6 
L 460.8 0 
L 0 0 
z
" style="fill:#ffffff;"/>
  </g>
  <g id="axes_1">
   <g id="patch_2">
    <path d="M 57.6 307.584 
L 414.72 307.584 
L 414.72 41.472 
L 57.6 41.472 
z
" style="fill:#ffffff;"/>
   </g>
   <g id="PathCollection_1">
    <defs>
     <path d="M 0 1.581139 
C 0.419323 1.581139 0.821528 1.41454 1.118034 1.118034 
C 1.41454 0.821528 1.581139 0.419323 1.581139 0 
C 1.581139 -0.419323 1.41454 -0.821528 1.118034 -1.118034 
C 0.821528 -1.41454 0.419323 -1.581139 0 -1.581139 
C -0.419323 -1.581139 -0.821528 -1.41454 -1.118034 -1.118034 
C -1.41454 -0.821528 -1.581139 -0.419323 -1.581139 0 
C -1.581139 0.419323 -1.41454 0.821528 -1.118034 1.118034 
C -0.821528 1.41454 -0.419323 1.581139 0 1.581139 
z
" id="m42ff402434" style="stroke:#008000;"/>
    </defs>
    <g clip-path="url(#p15808674be)">
     <use style="fill:#008000;stroke:#008000;" x="73.832727" xlink:href="#m42ff402434" y="179.55847"/>
     <use style="fill:#008000;stroke:#008000;" x="109.905455" xlink:href="#m42ff402434" y="125.093201"/>
     <use style="fill:#008000;stroke:#008000;" x="145.978182" xlink:href="#m42ff402434" y="53.568"/>
     <use style="fill:#008000;stroke:#008000;" x="182.050909" xlink:href="#m42ff402434" y="124.722215"/>
     <use style="fill:#008000;stroke:#008000;" x="218.123636" xlink:href="#m42ff402434" y="168.768763"/>
     <use style="fill:#008000;stroke:#008000;" x="254.196364" xlink:href="#m42ff402434" y="195.426952"/>
     <use style="fill:#008000;stroke:#008000;" x="290.269091" xlink:href="#m42ff402434" y="295.488"/>
     <use style="fill:#008000;stroke:#008000;" x="326.341818" xlink:href="#m42ff402434" y="291.459081"/>
     <use style="fill:#008000;stroke:#008000;" x="362.414545" xlink:href="#m42ff402434" y="220.282406"/>
     <use style="fill:#008000;stroke:#008000;" x="398.487273" xlink:href="#m42ff402434" y="178.943514"/>
    </g>
   </g>
   <g id="matplotlib.axis_1">
    <g id="xtick_1">
     <g id="line2d_1">
      <defs>
       <path d="M 0 0 
L 0 3.5 
" id="ma4b452436f" style="stroke:#000000;stroke-width:0.8;"/>
      </defs>
      <g>
       <use style="stroke:#000000;stroke-width:0.8;" x="73.832727" xlink:href="#ma4b452436f" y="307.584"/>
      </g>
     </g>
     <g id="text_1">
      <!-- 0.0 -->
      <g transform="translate(66.332727 321.459)scale(0.1 -0.1)">
       <defs>
        <path d="M 225 2537 
Q 250 3200 412 3587 
Q 575 3975 875 4225 
Q 1175 4475 1612 4475 
Q 2050 4475 2375 4112 
Q 2700 3750 2800 3200 
Q 2900 2650 2862 1937 
Q 2825 1225 2612 775 
Q 2400 325 1975 150 
Q 1550 -25 1125 187 
Q 700 400 525 750 
Q 350 1100 275 1487 
Q 200 1875 225 2537 
z
M 750 2687 
Q 675 2000 800 1462 
Q 925 925 1212 700 
Q 1500 475 1800 612 
Q 2100 750 2237 1162 
Q 2375 1575 2375 2062 
Q 2375 2550 2337 2950 
Q 2300 3350 2112 3675 
Q 1925 4000 1612 4012 
Q 1300 4025 1062 3700 
Q 825 3375 750 2687 
z
" id="SimHei-30" transform="scale(0.015625)"/>
        <path d="M 1075 125 
L 500 125 
L 500 675 
L 1075 675 
L 1075 125 
z
" id="SimHei-2e" transform="scale(0.015625)"/>
       </defs>
       <use xlink:href="#SimHei-30"/>
       <use x="50" xlink:href="#SimHei-2e"/>
       <use x="100" xlink:href="#SimHei-30"/>
      </g>
     </g>
    </g>
    <g id="xtick_2">
     <g id="line2d_2">
      <g>
       <use style="stroke:#000000;stroke-width:0.8;" x="138.763636" xlink:href="#ma4b452436f" y="307.584"/>
      </g>
     </g>
     <g id="text_2">
      <!-- 0.2 -->
      <g transform="translate(131.263636 321.459)scale(0.1 -0.1)">
       <defs>
        <path d="M 300 250 
Q 325 625 650 925 
Q 975 1225 1475 1862 
Q 1975 2500 2125 2850 
Q 2275 3200 2237 3450 
Q 2200 3700 2000 3862 
Q 1800 4025 1537 4000 
Q 1275 3975 1037 3800 
Q 800 3625 675 3275 
L 200 3350 
Q 400 3925 712 4187 
Q 1025 4450 1450 4475 
Q 1700 4500 1900 4462 
Q 2100 4425 2312 4287 
Q 2525 4150 2662 3875 
Q 2800 3600 2762 3212 
Q 2725 2825 2375 2287 
Q 2025 1750 1025 600 
L 2825 600 
L 2825 150 
L 300 150 
L 300 250 
z
" id="SimHei-32" transform="scale(0.015625)"/>
       </defs>
       <use xlink:href="#SimHei-30"/>
       <use x="50" xlink:href="#SimHei-2e"/>
       <use x="100" xlink:href="#SimHei-32"/>
      </g>
     </g>
    </g>
    <g id="xtick_3">
     <g id="line2d_3">
      <g>
       <use style="stroke:#000000;stroke-width:0.8;" x="203.694545" xlink:href="#ma4b452436f" y="307.584"/>
      </g>
     </g>
     <g id="text_3">
      <!-- 0.4 -->
      <g transform="translate(196.194545 321.459)scale(0.1 -0.1)">
       <defs>
        <path d="M 2000 1100 
L 75 1100 
L 75 1525 
L 2100 4450 
L 2475 4450 
L 2475 1525 
L 3075 1525 
L 3075 1100 
L 2475 1100 
L 2475 150 
L 2000 150 
L 2000 1100 
z
M 2000 1525 
L 2000 3500 
L 600 1525 
L 2000 1525 
z
" id="SimHei-34" transform="scale(0.015625)"/>
       </defs>
       <use xlink:href="#SimHei-30"/>
       <use x="50" xlink:href="#SimHei-2e"/>
       <use x="100" xlink:href="#SimHei-34"/>
      </g>
     </g>
    </g>
    <g id="xtick_4">
     <g id="line2d_4">
      <g>
       <use style="stroke:#000000;stroke-width:0.8;" x="268.625455" xlink:href="#ma4b452436f" y="307.584"/>
      </g>
     </g>
     <g id="text_4">
      <!-- 0.6 -->
      <g transform="translate(261.125455 321.459)scale(0.1 -0.1)">
       <defs>
        <path d="M 250 1612 
Q 275 1975 387 2225 
Q 500 2475 725 2850 
L 1750 4450 
L 2325 4450 
L 1275 2800 
Q 1950 2975 2350 2750 
Q 2750 2525 2887 2237 
Q 3025 1950 3037 1612 
Q 3050 1275 2937 950 
Q 2825 625 2537 362 
Q 2250 100 1737 75 
Q 1225 50 862 262 
Q 500 475 362 862 
Q 225 1250 250 1612 
z
M 1025 787 
Q 1250 550 1625 525 
Q 2000 500 2250 775 
Q 2500 1050 2500 1575 
Q 2500 2100 2187 2300 
Q 1875 2500 1487 2450 
Q 1100 2400 925 2075 
Q 750 1750 775 1387 
Q 800 1025 1025 787 
z
" id="SimHei-36" transform="scale(0.015625)"/>
       </defs>
       <use xlink:href="#SimHei-30"/>
       <use x="50" xlink:href="#SimHei-2e"/>
       <use x="100" xlink:href="#SimHei-36"/>
      </g>
     </g>
    </g>
    <g id="xtick_5">
     <g id="line2d_5">
      <g>
       <use style="stroke:#000000;stroke-width:0.8;" x="333.556364" xlink:href="#ma4b452436f" y="307.584"/>
      </g>
     </g>
     <g id="text_5">
      <!-- 0.8 -->
      <g transform="translate(326.056364 321.459)scale(0.1 -0.1)">
       <defs>
        <path d="M 175 1375 
Q 175 1675 325 1962 
Q 475 2250 825 2425 
Q 525 2600 425 2812 
Q 325 3025 312 3300 
Q 300 3575 387 3775 
Q 475 3975 650 4150 
Q 825 4325 1037 4387 
Q 1250 4450 1500 4450 
Q 1750 4450 1950 4400 
Q 2150 4350 2375 4187 
Q 2600 4025 2700 3725 
Q 2800 3425 2687 3025 
Q 2575 2625 2100 2400 
Q 2525 2275 2700 2012 
Q 2875 1750 2875 1375 
Q 2875 1000 2762 775 
Q 2650 550 2512 400 
Q 2375 250 2137 162 
Q 1900 75 1537 75 
Q 1175 75 912 162 
Q 650 250 475 425 
Q 300 600 237 837 
Q 175 1075 175 1375 
z
M 687 1400 
Q 675 1100 787 875 
Q 900 650 1200 587 
Q 1500 525 1825 600 
Q 2150 675 2275 950 
Q 2400 1225 2362 1500 
Q 2325 1775 2050 1962 
Q 1775 2150 1450 2125 
Q 1125 2100 912 1900 
Q 700 1700 687 1400 
z
M 775 3350 
Q 775 3100 950 2875 
Q 1125 2650 1500 2650 
Q 1875 2650 2062 2875 
Q 2250 3100 2237 3412 
Q 2225 3725 2012 3875 
Q 1800 4025 1437 4000 
Q 1075 3975 925 3787 
Q 775 3600 775 3350 
z
" id="SimHei-38" transform="scale(0.015625)"/>
       </defs>
       <use xlink:href="#SimHei-30"/>
       <use x="50" xlink:href="#SimHei-2e"/>
       <use x="100" xlink:href="#SimHei-38"/>
      </g>
     </g>
    </g>
    <g id="xtick_6">
     <g id="line2d_6">
      <g>
       <use style="stroke:#000000;stroke-width:0.8;" x="398.487273" xlink:href="#ma4b452436f" y="307.584"/>
      </g>
     </g>
     <g id="text_6">
      <!-- 1.0 -->
      <g transform="translate(390.987273 321.459)scale(0.1 -0.1)">
       <defs>
        <path d="M 1400 3600 
Q 1075 3275 575 2975 
L 575 3450 
Q 1200 3875 1600 4450 
L 1900 4450 
L 1900 150 
L 1400 150 
L 1400 3600 
z
" id="SimHei-31" transform="scale(0.015625)"/>
       </defs>
       <use xlink:href="#SimHei-31"/>
       <use x="50" xlink:href="#SimHei-2e"/>
       <use x="100" xlink:href="#SimHei-30"/>
      </g>
     </g>
    </g>
    <g id="text_7">
     <!-- x -->
     <g transform="translate(233.66 333.584)scale(0.1 -0.1)">
      <defs>
       <path d="M 2875 125 
L 2275 125 
L 1550 1200 
L 825 125 
L 225 125 
L 1250 1550 
L 300 2925 
L 900 2925 
L 1550 1875 
L 2200 2925 
L 2800 2925 
L 1850 1550 
L 2875 125 
z
" id="SimHei-78" transform="scale(0.015625)"/>
      </defs>
      <use xlink:href="#SimHei-78"/>
     </g>
    </g>
   </g>
   <g id="matplotlib.axis_2">
    <g id="ytick_1">
     <g id="line2d_7">
      <defs>
       <path d="M 0 0 
L -3.5 0 
" id="m98c1f63bdb" style="stroke:#000000;stroke-width:0.8;"/>
      </defs>
      <g>
       <use style="stroke:#000000;stroke-width:0.8;" x="57.6" xlink:href="#m98c1f63bdb" y="271.958027"/>
      </g>
     </g>
     <g id="text_8">
      <!-- -1.0 -->
      <g transform="translate(30.6 275.395527)scale(0.1 -0.1)">
       <defs>
        <path d="M 2975 2125 
L 125 2125 
L 125 2525 
L 2975 2525 
L 2975 2125 
z
" id="SimHei-2d" transform="scale(0.015625)"/>
       </defs>
       <use xlink:href="#SimHei-2d"/>
       <use x="50" xlink:href="#SimHei-31"/>
       <use x="100" xlink:href="#SimHei-2e"/>
       <use x="150" xlink:href="#SimHei-30"/>
      </g>
     </g>
    </g>
    <g id="ytick_2">
     <g id="line2d_8">
      <g>
       <use style="stroke:#000000;stroke-width:0.8;" x="57.6" xlink:href="#m98c1f63bdb" y="222.522085"/>
      </g>
     </g>
     <g id="text_9">
      <!-- -0.5 -->
      <g transform="translate(30.6 225.959585)scale(0.1 -0.1)">
       <defs>
        <path d="M 550 1325 
Q 725 650 1150 575 
Q 1575 500 1837 662 
Q 2100 825 2212 1087 
Q 2325 1350 2312 1675 
Q 2300 2000 2137 2225 
Q 1975 2450 1725 2525 
Q 1475 2600 1162 2525 
Q 850 2450 650 2175 
L 225 2225 
Q 275 2375 700 4375 
L 2675 4375 
L 2675 3925 
L 1075 3925 
Q 950 3250 825 2850 
Q 1200 3025 1525 3012 
Q 1850 3000 2150 2862 
Q 2450 2725 2587 2487 
Q 2725 2250 2787 2012 
Q 2850 1775 2837 1500 
Q 2825 1225 2725 937 
Q 2625 650 2425 462 
Q 2225 275 1937 162 
Q 1650 50 1275 75 
Q 900 100 562 350 
Q 225 600 100 1200 
L 550 1325 
z
" id="SimHei-35" transform="scale(0.015625)"/>
       </defs>
       <use xlink:href="#SimHei-2d"/>
       <use x="50" xlink:href="#SimHei-30"/>
       <use x="100" xlink:href="#SimHei-2e"/>
       <use x="150" xlink:href="#SimHei-35"/>
      </g>
     </g>
    </g>
    <g id="ytick_3">
     <g id="line2d_9">
      <g>
       <use style="stroke:#000000;stroke-width:0.8;" x="57.6" xlink:href="#m98c1f63bdb" y="173.086142"/>
      </g>
     </g>
     <g id="text_10">
      <!-- 0.0 -->
      <g transform="translate(35.6 176.523642)scale(0.1 -0.1)">
       <use xlink:href="#SimHei-30"/>
       <use x="50" xlink:href="#SimHei-2e"/>
       <use x="100" xlink:href="#SimHei-30"/>
      </g>
     </g>
    </g>
    <g id="ytick_4">
     <g id="line2d_10">
      <g>
       <use style="stroke:#000000;stroke-width:0.8;" x="57.6" xlink:href="#m98c1f63bdb" y="123.650199"/>
      </g>
     </g>
     <g id="text_11">
      <!-- 0.5 -->
      <g transform="translate(35.6 127.087699)scale(0.1 -0.1)">
       <use xlink:href="#SimHei-30"/>
       <use x="50" xlink:href="#SimHei-2e"/>
       <use x="100" xlink:href="#SimHei-35"/>
      </g>
     </g>
    </g>
    <g id="ytick_5">
     <g id="line2d_11">
      <g>
       <use style="stroke:#000000;stroke-width:0.8;" x="57.6" xlink:href="#m98c1f63bdb" y="74.214256"/>
      </g>
     </g>
     <g id="text_12">
      <!-- 1.0 -->
      <g transform="translate(35.6 77.651756)scale(0.1 -0.1)">
       <use xlink:href="#SimHei-31"/>
       <use x="50" xlink:href="#SimHei-2e"/>
       <use x="100" xlink:href="#SimHei-30"/>
      </g>
     </g>
    </g>
    <g id="text_13">
     <!-- y -->
     <g transform="translate(25.35 177.028)rotate(-90)scale(0.1 -0.1)">
      <defs>
       <path d="M 2900 2925 
L 1750 -100 
Q 1650 -450 1450 -625 
Q 1250 -800 950 -800 
Q 825 -800 712 -787 
Q 600 -775 500 -725 
L 500 -225 
Q 600 -275 700 -300 
Q 800 -325 875 -325 
Q 1075 -325 1150 -262 
Q 1225 -200 1300 25 
L 200 2925 
L 750 2925 
L 1550 725 
L 1575 725 
L 2350 2925 
L 2900 2925 
z
" id="SimHei-79" transform="scale(0.015625)"/>
      </defs>
      <use xlink:href="#SimHei-79"/>
     </g>
    </g>
   </g>
   <g id="line2d_12">
    <path clip-path="url(#p15808674be)" d="M 73.832727 176.956573 
L 77.095587 167.761206 
L 80.358447 159.150172 
L 83.621307 151.111181 
L 86.884166 143.631941 
L 90.147026 136.70016 
L 93.409886 130.303546 
L 96.672746 124.429807 
L 99.935605 119.066653 
L 103.198465 114.201791 
L 106.461325 109.822929 
L 109.724185 105.917776 
L 112.987044 102.474041 
L 116.249904 99.479431 
L 119.512764 96.921655 
L 122.775624 94.788421 
L 126.038483 93.067437 
L 129.301343 91.746412 
L 132.564203 90.813054 
L 135.827063 90.255072 
L 139.089922 90.060173 
L 142.352782 90.216067 
L 145.615642 90.71046 
L 148.878502 91.531062 
L 152.141361 92.665582 
L 155.404221 94.101726 
L 158.667081 95.827204 
L 161.929941 97.829724 
L 165.1928 100.096994 
L 168.45566 102.616723 
L 171.71852 105.376618 
L 174.98138 108.364389 
L 178.244239 111.567743 
L 183.138529 116.750105 
L 188.032819 122.348389 
L 192.927108 128.32111 
L 197.821398 134.626785 
L 204.347117 143.480577 
L 210.872837 152.754202 
L 219.029986 164.786818 
L 230.449995 182.110739 
L 246.764294 206.869376 
L 254.921444 218.830657 
L 261.447163 228.023868 
L 267.972883 236.776493 
L 272.867172 242.992675 
L 277.761462 248.86423 
L 282.655751 254.349675 
L 287.550041 259.407525 
L 290.812901 262.521386 
L 294.075761 265.414476 
L 297.33862 268.074502 
L 300.60148 270.489173 
L 303.86434 272.646198 
L 307.1272 274.533285 
L 310.390059 276.138142 
L 313.652919 277.448477 
L 316.915779 278.452 
L 320.178639 279.136417 
L 323.441498 279.489437 
L 326.704358 279.498769 
L 329.967218 279.152121 
L 333.230078 278.437202 
L 336.492937 277.341719 
L 339.755797 275.853381 
L 343.018657 273.959896 
L 346.281517 271.648973 
L 349.544376 268.90832 
L 352.807236 265.725644 
L 356.070096 262.088656 
L 359.332956 257.985062 
L 362.595815 253.402571 
L 365.858675 248.328892 
L 369.121535 242.751732 
L 372.384395 236.6588 
L 375.647254 230.037805 
L 378.910114 222.876455 
L 382.172974 215.162457 
L 385.435834 206.883521 
L 388.698693 198.027354 
L 391.961553 188.581666 
L 395.224413 178.534163 
L 398.487273 167.872555 
L 398.487273 167.872555 
" style="fill:none;stroke:#0000ff;stroke-linecap:square;"/>
   </g>
   <g id="line2d_13">
    <path clip-path="url(#p15808674be)" d="M 73.832727 175.722039 
L 77.095587 166.705775 
L 80.358447 158.26473 
L 83.621307 150.386794 
L 86.884166 143.059856 
L 90.147026 136.271806 
L 93.409886 130.010536 
L 96.672746 124.263934 
L 99.935605 119.01989 
L 103.198465 114.266295 
L 106.461325 109.99104 
L 109.724185 106.182012 
L 112.987044 102.827104 
L 116.249904 99.914205 
L 119.512764 97.431204 
L 122.775624 95.365992 
L 126.038483 93.706459 
L 129.301343 92.440495 
L 132.564203 91.555991 
L 135.827063 91.040835 
L 139.089922 90.882918 
L 142.352782 91.07013 
L 145.615642 91.590362 
L 148.878502 92.431503 
L 152.141361 93.581442 
L 155.404221 95.028071 
L 158.667081 96.75928 
L 161.929941 98.762957 
L 165.1928 101.026994 
L 168.45566 103.53928 
L 171.71852 106.287706 
L 174.98138 109.260161 
L 179.875669 114.112408 
L 184.769959 119.400603 
L 189.664249 125.083874 
L 194.558538 131.121351 
L 199.452828 137.472161 
L 205.978547 146.356676 
L 212.504267 155.62869 
L 220.661416 167.616037 
L 233.712855 187.268016 
L 246.764294 206.823036 
L 254.921444 218.651309 
L 261.447163 227.741523 
L 267.972883 236.395758 
L 272.867172 242.542044 
L 277.761462 248.347725 
L 282.655751 253.771932 
L 287.550041 258.773792 
L 290.812901 261.853545 
L 294.075761 264.715314 
L 297.33862 267.346989 
L 300.60148 269.736459 
L 303.86434 271.871614 
L 307.1272 273.740346 
L 310.390059 275.330543 
L 313.652919 276.630096 
L 316.915779 277.626894 
L 320.178639 278.308829 
L 323.441498 278.663789 
L 326.704358 278.679665 
L 329.967218 278.344347 
L 333.230078 277.645725 
L 336.492937 276.571689 
L 339.755797 275.110129 
L 343.018657 273.248935 
L 346.281517 270.975997 
L 349.544376 268.279205 
L 352.807236 265.14645 
L 356.070096 261.56562 
L 359.332956 257.524607 
L 362.595815 253.0113 
L 365.858675 248.013589 
L 369.121535 242.519364 
L 372.384395 236.516516 
L 375.647254 229.992934 
L 378.910114 222.936508 
L 382.172974 215.335129 
L 385.435834 207.176687 
L 388.698693 198.44907 
L 391.961553 189.140171 
L 395.224413 179.237878 
L 398.487273 168.730081 
L 398.487273 168.730081 
" style="fill:none;stroke:#ff0000;stroke-linecap:square;"/>
   </g>
   <g id="line2d_14">
    <path clip-path="url(#p15808674be)" d="M 73.832727 175.215515 
L 77.095587 166.396041 
L 80.358447 158.136829 
L 83.621307 150.426146 
L 86.884166 143.252259 
L 90.147026 136.603438 
L 93.409886 130.46795 
L 96.672746 124.834064 
L 99.935605 119.690046 
L 103.198465 115.024166 
L 106.461325 110.824692 
L 109.724185 107.079891 
L 112.987044 103.778031 
L 116.249904 100.907381 
L 119.512764 98.456209 
L 122.775624 96.412782 
L 126.038483 94.765369 
L 129.301343 93.502238 
L 132.564203 92.611656 
L 135.827063 92.081893 
L 139.089922 91.901215 
L 142.352782 92.057892 
L 145.615642 92.54019 
L 148.878502 93.336379 
L 152.141361 94.434726 
L 155.404221 95.823499 
L 158.667081 97.490966 
L 161.929941 99.425396 
L 165.1928 101.615055 
L 168.45566 104.048214 
L 171.71852 106.713139 
L 174.98138 109.598098 
L 179.875669 114.312438 
L 184.769959 119.455863 
L 189.664249 124.988779 
L 194.558538 130.87159 
L 199.452828 137.0647 
L 205.978547 145.736431 
L 212.504267 154.795559 
L 220.661416 166.521262 
L 233.712855 185.778848 
L 246.764294 204.990475 
L 254.921444 216.640775 
L 261.447163 225.613729 
L 267.972883 234.176306 
L 272.867172 240.27247 
L 277.761462 246.045408 
L 282.655751 251.455525 
L 287.550041 256.463226 
L 292.444331 261.028915 
L 295.70719 263.807593 
L 298.97005 266.360491 
L 302.23291 268.675878 
L 305.49577 270.742021 
L 308.75863 272.547189 
L 312.021489 274.07965 
L 315.284349 275.327671 
L 318.547209 276.279521 
L 321.810069 276.923469 
L 325.072928 277.247781 
L 328.335788 277.240726 
L 331.598648 276.890572 
L 334.861508 276.185587 
L 338.124367 275.11404 
L 341.387227 273.664198 
L 344.650087 271.824329 
L 347.912947 269.582701 
L 351.175806 266.927582 
L 354.438666 263.847241 
L 357.701526 260.329946 
L 360.964386 256.363964 
L 364.227245 251.937563 
L 367.490105 247.039013 
L 370.752965 241.656579 
L 374.015825 235.778532 
L 377.278684 229.393138 
L 380.541544 222.488667 
L 383.804404 215.053385 
L 387.067264 207.075561 
L 390.330123 198.543463 
L 393.592983 189.445359 
L 396.855843 179.769517 
L 398.487273 174.711278 
L 398.487273 174.711278 
" style="fill:none;stroke:#008000;stroke-linecap:square;"/>
   </g>
   <g id="line2d_15">
    <path clip-path="url(#p15808674be)" d="M 73.832727 178.258718 
L 77.095587 168.904805 
L 80.358447 160.142493 
L 83.621307 151.959355 
L 86.884166 144.342962 
L 90.147026 137.280889 
L 93.409886 130.760707 
L 96.672746 124.769988 
L 99.935605 119.296305 
L 103.198465 114.32723 
L 106.461325 109.850337 
L 109.724185 105.853197 
L 112.987044 102.323383 
L 116.249904 99.248467 
L 119.512764 96.616022 
L 122.775624 94.41362 
L 126.038483 92.628833 
L 129.301343 91.249235 
L 132.564203 90.262398 
L 135.827063 89.655893 
L 139.089922 89.417295 
L 142.352782 89.534174 
L 145.615642 89.994103 
L 148.878502 90.784656 
L 152.141361 91.893404 
L 155.404221 93.307919 
L 158.667081 95.015775 
L 161.929941 97.004544 
L 165.1928 99.261798 
L 168.45566 101.775109 
L 171.71852 104.532051 
L 174.98138 107.520195 
L 178.244239 110.727115 
L 183.138529 115.920512 
L 188.032819 121.536248 
L 192.927108 127.53238 
L 197.821398 133.866965 
L 204.347117 142.767067 
L 210.872837 152.094877 
L 219.029986 164.204645 
L 230.449995 181.650359 
L 246.764294 206.600284 
L 254.921444 218.660173 
L 261.447163 227.931757 
L 267.972883 236.761121 
L 272.867172 243.03313 
L 277.761462 248.958525 
L 282.655751 254.495361 
L 287.550041 259.601696 
L 290.812901 262.74604 
L 294.075761 265.667981 
L 297.33862 268.355092 
L 300.60148 270.794945 
L 303.86434 272.975113 
L 307.1272 274.883169 
L 310.390059 276.506684 
L 313.652919 277.833231 
L 316.915779 278.850382 
L 320.178639 279.545711 
L 323.441498 279.906789 
L 326.704358 279.92119 
L 329.967218 279.576484 
L 333.230078 278.860246 
L 336.492937 277.760047 
L 339.755797 276.26346 
L 343.018657 274.358057 
L 346.281517 272.03141 
L 349.544376 269.271093 
L 352.807236 266.064678 
L 356.070096 262.399737 
L 359.332956 258.263842 
L 362.595815 253.644566 
L 365.858675 248.529482 
L 369.121535 242.906162 
L 372.384395 236.762178 
L 375.647254 230.085103 
L 378.910114 222.86251 
L 382.172974 215.08197 
L 385.435834 206.731057 
L 388.698693 197.797342 
L 391.961553 188.268398 
L 395.224413 178.131798 
L 398.487273 167.375115 
L 398.487273 167.375115 
" style="fill:none;stroke:#800080;stroke-linecap:square;"/>
   </g>
   <g id="line2d_16">
    <path clip-path="url(#p15808674be)" d="M 0 0 
" style="fill:none;stroke:#ffff00;stroke-linecap:square;"/>
   </g>
   <g id="line2d_17">
    <path clip-path="url(#p15808674be)" d="M 73.832727 173.086142 
L 85.252736 151.411291 
L 91.778456 139.432989 
L 96.672746 130.790917 
L 101.567035 122.528041 
L 106.461325 114.71844 
L 111.355614 107.43213 
L 114.618474 102.897779 
L 117.881334 98.643218 
L 121.144194 94.68541 
L 124.407053 91.040129 
L 127.669913 87.721908 
L 130.932773 84.743974 
L 134.195633 82.118197 
L 137.458492 79.855046 
L 140.721352 77.963541 
L 143.984212 76.451222 
L 147.247072 75.324119 
L 150.509931 74.586724 
L 153.772791 74.241976 
L 157.035651 74.29125 
L 160.298511 74.73435 
L 163.56137 75.569509 
L 166.82423 76.793397 
L 170.08709 78.401137 
L 173.34995 80.386319 
L 176.61281 82.74103 
L 179.875669 85.455882 
L 183.138529 88.520055 
L 186.401389 91.921333 
L 189.664249 95.646158 
L 192.927108 99.679681 
L 196.189968 104.005824 
L 199.452828 108.607341 
L 204.347117 115.985536 
L 209.241407 123.875663 
L 214.135697 132.206984 
L 220.661416 143.872124 
L 228.818566 159.085436 
L 251.658584 202.300159 
L 258.184303 213.9653 
L 263.078593 222.29662 
L 267.972883 230.186747 
L 272.867172 237.564942 
L 276.130032 242.16646 
L 279.392892 246.492602 
L 282.655751 250.526126 
L 285.918611 254.25095 
L 289.181471 257.652228 
L 292.444331 260.716401 
L 295.70719 263.431254 
L 298.97005 265.785964 
L 302.23291 267.771146 
L 305.49577 269.378886 
L 308.75863 270.602775 
L 312.021489 271.437933 
L 315.284349 271.881033 
L 318.547209 271.930307 
L 321.810069 271.58556 
L 325.072928 270.848164 
L 328.335788 269.721061 
L 331.598648 268.208743 
L 334.861508 266.317238 
L 338.124367 264.054086 
L 341.387227 261.42831 
L 344.650087 258.450375 
L 347.912947 255.132154 
L 351.175806 251.486874 
L 354.438666 247.529065 
L 357.701526 243.274505 
L 360.964386 238.740153 
L 365.858675 231.453844 
L 370.752965 223.644242 
L 375.647254 215.381366 
L 380.541544 206.739294 
L 387.067264 194.760992 
L 396.855843 176.207384 
L 398.487273 173.086142 
L 398.487273 173.086142 
" style="fill:none;stroke:#000000;stroke-dasharray:3.7,1.6;stroke-dashoffset:0;"/>
   </g>
   <g id="patch_3">
    <path d="M 57.6 307.584 
L 57.6 41.472 
" style="fill:none;stroke:#000000;stroke-linecap:square;stroke-linejoin:miter;stroke-width:0.8;"/>
   </g>
   <g id="patch_4">
    <path d="M 414.72 307.584 
L 414.72 41.472 
" style="fill:none;stroke:#000000;stroke-linecap:square;stroke-linejoin:miter;stroke-width:0.8;"/>
   </g>
   <g id="patch_5">
    <path d="M 57.6 307.584 
L 414.72 307.584 
" style="fill:none;stroke:#000000;stroke-linecap:square;stroke-linejoin:miter;stroke-width:0.8;"/>
   </g>
   <g id="patch_6">
    <path d="M 57.6 41.472 
L 414.72 41.472 
" style="fill:none;stroke:#000000;stroke-linecap:square;stroke-linejoin:miter;stroke-width:0.8;"/>
   </g>
   <g id="text_14">
    <!-- predict func of different method,m=3,l2_coef=0.0001 -->
    <g transform="translate(83.16 35.472)scale(0.12 -0.12)">
     <defs>
      <path d="M 2825 1525 
Q 2825 800 2475 425 
Q 2125 50 1625 50 
Q 1350 50 1150 162 
Q 950 275 800 500 
L 800 -800 
L 300 -800 
L 300 2925 
L 800 2925 
L 800 2550 
Q 950 2775 1150 2875 
Q 1350 2975 1625 2975 
Q 2125 2975 2475 2612 
Q 2825 2250 2825 1525 
z
M 2275 1525 
Q 2275 2000 2087 2262 
Q 1900 2525 1525 2525 
Q 1225 2525 1012 2262 
Q 800 2000 800 1525 
Q 800 1050 1012 775 
Q 1225 500 1525 500 
Q 1900 500 2087 775 
Q 2275 1050 2275 1525 
z
" id="SimHei-70" transform="scale(0.015625)"/>
      <path d="M 2500 2425 
Q 2025 2500 1700 2287 
Q 1375 2075 1150 1550 
L 1150 125 
L 650 125 
L 650 2925 
L 1150 2925 
L 1150 2200 
Q 1375 2600 1712 2787 
Q 2050 2975 2500 2975 
L 2500 2425 
z
" id="SimHei-72" transform="scale(0.015625)"/>
      <path d="M 2850 1075 
Q 2800 625 2450 350 
Q 2100 75 1625 75 
Q 1025 75 637 462 
Q 250 850 250 1525 
Q 250 2200 637 2587 
Q 1025 2975 1625 2975 
Q 2150 2975 2487 2637 
Q 2825 2300 2825 1525 
L 800 1525 
Q 800 975 1037 750 
Q 1275 525 1625 525 
Q 1900 525 2075 662 
Q 2250 800 2300 1075 
L 2850 1075 
z
M 2250 1925 
Q 2200 2275 2025 2412 
Q 1850 2550 1575 2550 
Q 1325 2550 1125 2412 
Q 925 2275 825 1925 
L 2250 1925 
z
" id="SimHei-65" transform="scale(0.015625)"/>
      <path d="M 2750 125 
L 2250 125 
L 2250 500 
Q 2100 275 1900 175 
Q 1700 75 1425 75 
Q 925 75 575 437 
Q 225 800 225 1525 
Q 225 2250 575 2625 
Q 925 3000 1425 3000 
Q 1700 3000 1900 2887 
Q 2100 2775 2250 2550 
L 2250 4400 
L 2750 4400 
L 2750 125 
z
M 2250 1525 
Q 2250 2000 2037 2275 
Q 1825 2550 1525 2550 
Q 1150 2550 962 2275 
Q 775 2000 775 1525 
Q 775 1050 962 787 
Q 1150 525 1525 525 
Q 1825 525 2037 787 
Q 2250 1050 2250 1525 
z
" id="SimHei-64" transform="scale(0.015625)"/>
      <path d="M 1800 3725 
L 1300 3725 
L 1300 4375 
L 1800 4375 
L 1800 3725 
z
M 1800 125 
L 1300 125 
L 1300 2925 
L 1800 2925 
L 1800 125 
z
" id="SimHei-69" transform="scale(0.015625)"/>
      <path d="M 2850 1250 
Q 2850 725 2487 400 
Q 2125 75 1575 75 
Q 1025 75 625 462 
Q 225 850 225 1525 
Q 225 2200 625 2587 
Q 1025 2975 1575 2975 
Q 2125 2975 2450 2687 
Q 2775 2400 2775 2000 
L 2225 2000 
Q 2200 2300 2012 2412 
Q 1825 2525 1575 2525 
Q 1275 2525 1025 2287 
Q 775 2050 775 1525 
Q 775 1000 1025 762 
Q 1275 525 1575 525 
Q 1900 525 2100 700 
Q 2300 875 2300 1250 
L 2850 1250 
z
" id="SimHei-63" transform="scale(0.015625)"/>
      <path d="M 2750 200 
Q 2625 150 2462 112 
Q 2300 75 2025 75 
Q 1575 75 1300 325 
Q 1025 575 1025 1025 
L 1025 2525 
L 175 2525 
L 175 2925 
L 1025 2925 
L 1025 3900 
L 1525 3900 
L 1525 2925 
L 2550 2925 
L 2550 2525 
L 1525 2525 
L 1525 1000 
Q 1525 800 1625 662 
Q 1725 525 2000 525 
Q 2275 525 2450 575 
Q 2625 625 2750 700 
L 2750 200 
z
" id="SimHei-74" transform="scale(0.015625)"/>
      <path id="SimHei-20" transform="scale(0.015625)"/>
      <path d="M 2850 3825 
Q 2725 3900 2550 3950 
Q 2375 4000 2100 4000 
Q 1825 4000 1725 3862 
Q 1625 3725 1625 3525 
L 1625 2925 
L 2650 2925 
L 2650 2525 
L 1625 2525 
L 1625 125 
L 1125 125 
L 1125 2525 
L 275 2525 
L 275 2925 
L 1125 2925 
L 1125 3500 
Q 1125 3950 1400 4200 
Q 1675 4450 2125 4450 
Q 2400 4450 2562 4412 
Q 2725 4375 2850 4325 
L 2850 3825 
z
" id="SimHei-66" transform="scale(0.015625)"/>
      <path d="M 2800 125 
L 2300 125 
L 2300 650 
Q 2100 375 1862 225 
Q 1625 75 1250 75 
Q 800 75 575 325 
Q 350 575 350 950 
L 350 2925 
L 850 2925 
L 850 1125 
Q 850 825 1000 650 
Q 1150 475 1400 475 
Q 1725 475 2012 812 
Q 2300 1150 2300 1650 
L 2300 2925 
L 2800 2925 
L 2800 125 
z
" id="SimHei-75" transform="scale(0.015625)"/>
      <path d="M 2800 125 
L 2300 125 
L 2300 1925 
Q 2300 2225 2150 2400 
Q 2000 2575 1750 2575 
Q 1425 2575 1137 2237 
Q 850 1900 850 1400 
L 850 125 
L 350 125 
L 350 2925 
L 850 2925 
L 850 2400 
Q 1050 2675 1287 2825 
Q 1525 2975 1900 2975 
Q 2350 2975 2575 2725 
Q 2800 2475 2800 2100 
L 2800 125 
z
" id="SimHei-6e" transform="scale(0.015625)"/>
      <path d="M 2925 1525 
Q 2925 875 2525 475 
Q 2125 75 1575 75 
Q 1025 75 625 475 
Q 225 875 225 1525 
Q 225 2175 625 2575 
Q 1025 2975 1575 2975 
Q 2125 2975 2525 2575 
Q 2925 2175 2925 1525 
z
M 2375 1525 
Q 2375 2025 2125 2275 
Q 1875 2525 1575 2525 
Q 1275 2525 1025 2275 
Q 775 2025 775 1525 
Q 775 1025 1025 775 
Q 1275 525 1575 525 
Q 1875 525 2125 775 
Q 2375 1025 2375 1525 
z
" id="SimHei-6f" transform="scale(0.015625)"/>
      <path d="M 3050 125 
L 2550 125 
L 2550 2150 
Q 2550 2300 2500 2400 
Q 2450 2500 2300 2500 
Q 2125 2500 1975 2312 
Q 1825 2125 1825 1825 
L 1825 125 
L 1325 125 
L 1325 2150 
Q 1325 2300 1275 2400 
Q 1225 2500 1075 2500 
Q 900 2500 750 2312 
Q 600 2125 600 1825 
L 600 125 
L 100 125 
L 100 2925 
L 600 2925 
L 600 2550 
Q 725 2750 900 2862 
Q 1075 2975 1275 2975 
Q 1475 2975 1612 2862 
Q 1750 2750 1800 2550 
Q 1925 2750 2087 2862 
Q 2250 2975 2450 2975 
Q 2750 2975 2900 2812 
Q 3050 2650 3050 2350 
L 3050 125 
z
" id="SimHei-6d" transform="scale(0.015625)"/>
      <path d="M 2800 125 
L 2300 125 
L 2300 1925 
Q 2300 2225 2150 2400 
Q 2000 2575 1750 2575 
Q 1425 2575 1137 2237 
Q 850 1900 850 1400 
L 850 125 
L 350 125 
L 350 4400 
L 850 4400 
L 850 2400 
Q 1050 2675 1287 2825 
Q 1525 2975 1900 2975 
Q 2350 2975 2575 2725 
Q 2800 2475 2800 2100 
L 2800 125 
z
" id="SimHei-68" transform="scale(0.015625)"/>
      <path d="M 1100 125 
L 775 -550 
L 525 -550 
L 775 125 
L 525 125 
L 525 675 
L 1100 675 
L 1100 125 
z
" id="SimHei-2c" transform="scale(0.015625)"/>
      <path d="M 2975 2900 
L 125 2900 
L 125 3300 
L 2975 3300 
L 2975 2900 
z
M 2975 1375 
L 125 1375 
L 125 1775 
L 2975 1775 
L 2975 1375 
z
" id="SimHei-3d" transform="scale(0.015625)"/>
      <path d="M 250 1225 
L 700 1300 
Q 800 975 1025 762 
Q 1250 550 1587 562 
Q 1925 575 2125 837 
Q 2325 1100 2300 1437 
Q 2275 1775 2037 1962 
Q 1800 2150 1275 2225 
L 1275 2550 
Q 1800 2600 2037 2825 
Q 2275 3050 2250 3412 
Q 2225 3775 1925 3937 
Q 1625 4100 1287 3975 
Q 950 3850 750 3275 
L 300 3350 
Q 450 3800 712 4100 
Q 975 4400 1425 4450 
Q 1875 4500 2212 4337 
Q 2550 4175 2687 3837 
Q 2825 3500 2725 3100 
Q 2625 2700 2150 2400 
Q 2500 2250 2687 1950 
Q 2875 1650 2812 1162 
Q 2750 675 2375 375 
Q 2000 75 1525 87 
Q 1050 100 700 387 
Q 350 675 250 1225 
z
" id="SimHei-33" transform="scale(0.015625)"/>
      <path d="M 1825 125 
L 1325 125 
L 1325 4400 
L 1825 4400 
L 1825 125 
z
" id="SimHei-6c" transform="scale(0.015625)"/>
      <path d="M 3150 -850 
L 0 -850 
L 0 -550 
L 3150 -550 
L 3150 -850 
z
" id="SimHei-5f" transform="scale(0.015625)"/>
     </defs>
     <use xlink:href="#SimHei-70"/>
     <use x="50" xlink:href="#SimHei-72"/>
     <use x="100" xlink:href="#SimHei-65"/>
     <use x="150" xlink:href="#SimHei-64"/>
     <use x="200" xlink:href="#SimHei-69"/>
     <use x="250" xlink:href="#SimHei-63"/>
     <use x="300" xlink:href="#SimHei-74"/>
     <use x="350" xlink:href="#SimHei-20"/>
     <use x="400" xlink:href="#SimHei-66"/>
     <use x="450" xlink:href="#SimHei-75"/>
     <use x="500" xlink:href="#SimHei-6e"/>
     <use x="550" xlink:href="#SimHei-63"/>
     <use x="600" xlink:href="#SimHei-20"/>
     <use x="650" xlink:href="#SimHei-6f"/>
     <use x="700" xlink:href="#SimHei-66"/>
     <use x="750" xlink:href="#SimHei-20"/>
     <use x="800" xlink:href="#SimHei-64"/>
     <use x="850" xlink:href="#SimHei-69"/>
     <use x="900" xlink:href="#SimHei-66"/>
     <use x="950" xlink:href="#SimHei-66"/>
     <use x="1000" xlink:href="#SimHei-65"/>
     <use x="1050" xlink:href="#SimHei-72"/>
     <use x="1100" xlink:href="#SimHei-65"/>
     <use x="1150" xlink:href="#SimHei-6e"/>
     <use x="1200" xlink:href="#SimHei-74"/>
     <use x="1250" xlink:href="#SimHei-20"/>
     <use x="1300" xlink:href="#SimHei-6d"/>
     <use x="1350" xlink:href="#SimHei-65"/>
     <use x="1400" xlink:href="#SimHei-74"/>
     <use x="1450" xlink:href="#SimHei-68"/>
     <use x="1500" xlink:href="#SimHei-6f"/>
     <use x="1550" xlink:href="#SimHei-64"/>
     <use x="1600" xlink:href="#SimHei-2c"/>
     <use x="1650" xlink:href="#SimHei-6d"/>
     <use x="1700" xlink:href="#SimHei-3d"/>
     <use x="1750" xlink:href="#SimHei-33"/>
     <use x="1800" xlink:href="#SimHei-2c"/>
     <use x="1850" xlink:href="#SimHei-6c"/>
     <use x="1900" xlink:href="#SimHei-32"/>
     <use x="1950" xlink:href="#SimHei-5f"/>
     <use x="2000" xlink:href="#SimHei-63"/>
     <use x="2050" xlink:href="#SimHei-6f"/>
     <use x="2100" xlink:href="#SimHei-65"/>
     <use x="2150" xlink:href="#SimHei-66"/>
     <use x="2200" xlink:href="#SimHei-3d"/>
     <use x="2250" xlink:href="#SimHei-30"/>
     <use x="2300" xlink:href="#SimHei-2e"/>
     <use x="2350" xlink:href="#SimHei-30"/>
     <use x="2400" xlink:href="#SimHei-30"/>
     <use x="2450" xlink:href="#SimHei-30"/>
     <use x="2500" xlink:href="#SimHei-31"/>
    </g>
   </g>
   <g id="legend_1">
    <g id="patch_7">
     <path d="M 170.72 146.2845 
L 407.72 146.2845 
Q 409.72 146.2845 409.72 144.2845 
L 409.72 48.472 
Q 409.72 46.472 407.72 46.472 
L 170.72 46.472 
Q 168.72 46.472 168.72 48.472 
L 168.72 144.2845 
Q 168.72 146.2845 170.72 146.2845 
z
" style="fill:#ffffff;opacity:0.8;stroke:#cccccc;stroke-linejoin:miter;"/>
    </g>
    <g id="line2d_18">
     <path d="M 172.72 54.7845 
L 192.72 54.7845 
" style="fill:none;stroke:#0000ff;stroke-linecap:square;"/>
    </g>
    <g id="line2d_19"/>
    <g id="text_15">
     <!-- predict func(analytic) -->
     <g transform="translate(200.72 58.2845)scale(0.1 -0.1)">
      <defs>
       <path d="M 2975 -200 
L 2700 -475 
Q 2075 125 1762 775 
Q 1450 1425 1450 2250 
Q 1450 3075 1762 3725 
Q 2075 4375 2700 5000 
L 2975 4725 
Q 2400 4175 2112 3587 
Q 1825 3000 1825 2250 
Q 1825 1500 2112 912 
Q 2400 325 2975 -200 
z
" id="SimHei-28" transform="scale(0.015625)"/>
       <path d="M 2875 125 
L 2275 125 
Q 2225 175 2200 262 
Q 2175 350 2175 475 
Q 2000 275 1750 175 
Q 1500 75 1225 75 
Q 825 75 550 275 
Q 275 475 275 850 
Q 275 1225 525 1450 
Q 775 1675 1300 1750 
Q 1650 1800 1912 1875 
Q 2175 1950 2175 2075 
Q 2175 2225 2062 2375 
Q 1950 2525 1575 2525 
Q 1275 2525 1137 2412 
Q 1000 2300 950 2100 
L 400 2100 
Q 450 2500 762 2737 
Q 1075 2975 1575 2975 
Q 2125 2975 2400 2725 
Q 2675 2475 2675 2025 
L 2675 650 
Q 2675 500 2725 375 
Q 2775 250 2875 125 
z
M 2175 1050 
L 2175 1550 
Q 2025 1500 1887 1462 
Q 1750 1425 1425 1375 
Q 1050 1325 937 1200 
Q 825 1075 825 900 
Q 825 750 937 637 
Q 1050 525 1275 525 
Q 1500 525 1762 650 
Q 2025 775 2175 1050 
z
" id="SimHei-61" transform="scale(0.015625)"/>
       <path d="M 1675 2250 
Q 1675 1425 1362 775 
Q 1050 125 425 -475 
L 150 -200 
Q 725 325 1012 912 
Q 1300 1500 1300 2250 
Q 1300 3000 1012 3587 
Q 725 4175 150 4725 
L 425 5000 
Q 1050 4375 1362 3725 
Q 1675 3075 1675 2250 
z
" id="SimHei-29" transform="scale(0.015625)"/>
      </defs>
      <use xlink:href="#SimHei-70"/>
      <use x="50" xlink:href="#SimHei-72"/>
      <use x="100" xlink:href="#SimHei-65"/>
      <use x="150" xlink:href="#SimHei-64"/>
      <use x="200" xlink:href="#SimHei-69"/>
      <use x="250" xlink:href="#SimHei-63"/>
      <use x="300" xlink:href="#SimHei-74"/>
      <use x="350" xlink:href="#SimHei-20"/>
      <use x="400" xlink:href="#SimHei-66"/>
      <use x="450" xlink:href="#SimHei-75"/>
      <use x="500" xlink:href="#SimHei-6e"/>
      <use x="550" xlink:href="#SimHei-63"/>
      <use x="600" xlink:href="#SimHei-28"/>
      <use x="650" xlink:href="#SimHei-61"/>
      <use x="700" xlink:href="#SimHei-6e"/>
      <use x="750" xlink:href="#SimHei-61"/>
      <use x="800" xlink:href="#SimHei-6c"/>
      <use x="850" xlink:href="#SimHei-79"/>
      <use x="900" xlink:href="#SimHei-74"/>
      <use x="950" xlink:href="#SimHei-69"/>
      <use x="1000" xlink:href="#SimHei-63"/>
      <use x="1050" xlink:href="#SimHei-29"/>
     </g>
    </g>
    <g id="line2d_20">
     <path d="M 172.72 68.847 
L 192.72 68.847 
" style="fill:none;stroke:#ff0000;stroke-linecap:square;"/>
    </g>
    <g id="line2d_21"/>
    <g id="text_16">
     <!-- predict func(gradient descent) -->
     <g transform="translate(200.72 72.347)scale(0.1 -0.1)">
      <defs>
       <path d="M 2975 2500 
Q 2800 2550 2637 2562 
Q 2475 2575 2300 2525 
Q 2375 2450 2425 2337 
Q 2475 2225 2475 2000 
Q 2475 1575 2187 1300 
Q 1900 1025 1475 1025 
Q 1375 1025 1212 1062 
Q 1050 1100 950 1150 
Q 875 1100 850 1050 
Q 825 1000 825 925 
Q 825 800 1000 737 
Q 1175 675 1625 675 
Q 2350 675 2612 475 
Q 2875 275 2875 -25 
Q 2875 -425 2487 -612 
Q 2100 -800 1575 -800 
Q 900 -800 575 -625 
Q 250 -450 250 -150 
Q 250 0 375 150 
Q 500 300 700 400 
Q 550 475 462 587 
Q 375 700 375 875 
Q 375 1025 487 1137 
Q 600 1250 750 1325 
Q 625 1450 550 1625 
Q 475 1800 475 2000 
Q 475 2425 762 2700 
Q 1050 2975 1475 2975 
Q 1700 2975 1862 2912 
Q 2025 2850 2150 2725 
Q 2350 2875 2550 2937 
Q 2750 3000 2975 2975 
L 2975 2500 
z
M 1975 2000 
Q 1975 2250 1850 2400 
Q 1725 2550 1475 2550 
Q 1225 2550 1100 2400 
Q 975 2250 975 2000 
Q 975 1750 1100 1600 
Q 1225 1450 1475 1450 
Q 1725 1450 1850 1600 
Q 1975 1750 1975 2000 
z
M 2400 -75 
Q 2400 25 2287 125 
Q 2175 225 1725 225 
Q 1625 225 1450 237 
Q 1275 250 1050 275 
Q 850 200 775 100 
Q 700 0 700 -100 
Q 700 -250 900 -350 
Q 1100 -450 1600 -450 
Q 2025 -450 2212 -337 
Q 2400 -225 2400 -75 
z
" id="SimHei-67" transform="scale(0.015625)"/>
       <path d="M 2750 900 
Q 2750 500 2437 287 
Q 2125 75 1650 75 
Q 1050 75 725 312 
Q 400 550 400 1000 
L 900 1000 
Q 900 700 1112 600 
Q 1325 500 1625 500 
Q 1925 500 2075 612 
Q 2225 725 2225 900 
Q 2225 1025 2100 1150 
Q 1975 1275 1475 1350 
Q 900 1425 687 1637 
Q 475 1850 475 2200 
Q 475 2500 762 2737 
Q 1050 2975 1600 2975 
Q 2100 2975 2387 2750 
Q 2675 2525 2675 2150 
L 2175 2150 
Q 2175 2375 2012 2462 
Q 1850 2550 1600 2550 
Q 1275 2550 1137 2437 
Q 1000 2325 1000 2175 
Q 1000 2000 1125 1900 
Q 1250 1800 1650 1750 
Q 2300 1650 2525 1437 
Q 2750 1225 2750 900 
z
" id="SimHei-73" transform="scale(0.015625)"/>
      </defs>
      <use xlink:href="#SimHei-70"/>
      <use x="50" xlink:href="#SimHei-72"/>
      <use x="100" xlink:href="#SimHei-65"/>
      <use x="150" xlink:href="#SimHei-64"/>
      <use x="200" xlink:href="#SimHei-69"/>
      <use x="250" xlink:href="#SimHei-63"/>
      <use x="300" xlink:href="#SimHei-74"/>
      <use x="350" xlink:href="#SimHei-20"/>
      <use x="400" xlink:href="#SimHei-66"/>
      <use x="450" xlink:href="#SimHei-75"/>
      <use x="500" xlink:href="#SimHei-6e"/>
      <use x="550" xlink:href="#SimHei-63"/>
      <use x="600" xlink:href="#SimHei-28"/>
      <use x="650" xlink:href="#SimHei-67"/>
      <use x="700" xlink:href="#SimHei-72"/>
      <use x="750" xlink:href="#SimHei-61"/>
      <use x="800" xlink:href="#SimHei-64"/>
      <use x="850" xlink:href="#SimHei-69"/>
      <use x="900" xlink:href="#SimHei-65"/>
      <use x="950" xlink:href="#SimHei-6e"/>
      <use x="1000" xlink:href="#SimHei-74"/>
      <use x="1050" xlink:href="#SimHei-20"/>
      <use x="1100" xlink:href="#SimHei-64"/>
      <use x="1150" xlink:href="#SimHei-65"/>
      <use x="1200" xlink:href="#SimHei-73"/>
      <use x="1250" xlink:href="#SimHei-63"/>
      <use x="1300" xlink:href="#SimHei-65"/>
      <use x="1350" xlink:href="#SimHei-6e"/>
      <use x="1400" xlink:href="#SimHei-74"/>
      <use x="1450" xlink:href="#SimHei-29"/>
     </g>
    </g>
    <g id="line2d_22">
     <path d="M 172.72 82.9095 
L 192.72 82.9095 
" style="fill:none;stroke:#008000;stroke-linecap:square;"/>
    </g>
    <g id="line2d_23"/>
    <g id="text_17">
     <!-- predict func(stochastic gradient descent) -->
     <g transform="translate(200.72 86.4095)scale(0.1 -0.1)">
      <use xlink:href="#SimHei-70"/>
      <use x="50" xlink:href="#SimHei-72"/>
      <use x="100" xlink:href="#SimHei-65"/>
      <use x="150" xlink:href="#SimHei-64"/>
      <use x="200" xlink:href="#SimHei-69"/>
      <use x="250" xlink:href="#SimHei-63"/>
      <use x="300" xlink:href="#SimHei-74"/>
      <use x="350" xlink:href="#SimHei-20"/>
      <use x="400" xlink:href="#SimHei-66"/>
      <use x="450" xlink:href="#SimHei-75"/>
      <use x="500" xlink:href="#SimHei-6e"/>
      <use x="550" xlink:href="#SimHei-63"/>
      <use x="600" xlink:href="#SimHei-28"/>
      <use x="650" xlink:href="#SimHei-73"/>
      <use x="700" xlink:href="#SimHei-74"/>
      <use x="750" xlink:href="#SimHei-6f"/>
      <use x="800" xlink:href="#SimHei-63"/>
      <use x="850" xlink:href="#SimHei-68"/>
      <use x="900" xlink:href="#SimHei-61"/>
      <use x="950" xlink:href="#SimHei-73"/>
      <use x="1000" xlink:href="#SimHei-74"/>
      <use x="1050" xlink:href="#SimHei-69"/>
      <use x="1100" xlink:href="#SimHei-63"/>
      <use x="1150" xlink:href="#SimHei-20"/>
      <use x="1200" xlink:href="#SimHei-67"/>
      <use x="1250" xlink:href="#SimHei-72"/>
      <use x="1300" xlink:href="#SimHei-61"/>
      <use x="1350" xlink:href="#SimHei-64"/>
      <use x="1400" xlink:href="#SimHei-69"/>
      <use x="1450" xlink:href="#SimHei-65"/>
      <use x="1500" xlink:href="#SimHei-6e"/>
      <use x="1550" xlink:href="#SimHei-74"/>
      <use x="1600" xlink:href="#SimHei-20"/>
      <use x="1650" xlink:href="#SimHei-64"/>
      <use x="1700" xlink:href="#SimHei-65"/>
      <use x="1750" xlink:href="#SimHei-73"/>
      <use x="1800" xlink:href="#SimHei-63"/>
      <use x="1850" xlink:href="#SimHei-65"/>
      <use x="1900" xlink:href="#SimHei-6e"/>
      <use x="1950" xlink:href="#SimHei-74"/>
      <use x="2000" xlink:href="#SimHei-29"/>
     </g>
    </g>
    <g id="line2d_24">
     <path d="M 172.72 96.972 
L 192.72 96.972 
" style="fill:none;stroke:#800080;stroke-linecap:square;"/>
    </g>
    <g id="line2d_25"/>
    <g id="text_18">
     <!-- predict func(els gradient descent) -->
     <g transform="translate(200.72 100.472)scale(0.1 -0.1)">
      <use xlink:href="#SimHei-70"/>
      <use x="50" xlink:href="#SimHei-72"/>
      <use x="100" xlink:href="#SimHei-65"/>
      <use x="150" xlink:href="#SimHei-64"/>
      <use x="200" xlink:href="#SimHei-69"/>
      <use x="250" xlink:href="#SimHei-63"/>
      <use x="300" xlink:href="#SimHei-74"/>
      <use x="350" xlink:href="#SimHei-20"/>
      <use x="400" xlink:href="#SimHei-66"/>
      <use x="450" xlink:href="#SimHei-75"/>
      <use x="500" xlink:href="#SimHei-6e"/>
      <use x="550" xlink:href="#SimHei-63"/>
      <use x="600" xlink:href="#SimHei-28"/>
      <use x="650" xlink:href="#SimHei-65"/>
      <use x="700" xlink:href="#SimHei-6c"/>
      <use x="750" xlink:href="#SimHei-73"/>
      <use x="800" xlink:href="#SimHei-20"/>
      <use x="850" xlink:href="#SimHei-67"/>
      <use x="900" xlink:href="#SimHei-72"/>
      <use x="950" xlink:href="#SimHei-61"/>
      <use x="1000" xlink:href="#SimHei-64"/>
      <use x="1050" xlink:href="#SimHei-69"/>
      <use x="1100" xlink:href="#SimHei-65"/>
      <use x="1150" xlink:href="#SimHei-6e"/>
      <use x="1200" xlink:href="#SimHei-74"/>
      <use x="1250" xlink:href="#SimHei-20"/>
      <use x="1300" xlink:href="#SimHei-64"/>
      <use x="1350" xlink:href="#SimHei-65"/>
      <use x="1400" xlink:href="#SimHei-73"/>
      <use x="1450" xlink:href="#SimHei-63"/>
      <use x="1500" xlink:href="#SimHei-65"/>
      <use x="1550" xlink:href="#SimHei-6e"/>
      <use x="1600" xlink:href="#SimHei-74"/>
      <use x="1650" xlink:href="#SimHei-29"/>
     </g>
    </g>
    <g id="line2d_26">
     <path d="M 172.72 111.0345 
L 192.72 111.0345 
" style="fill:none;stroke:#ffff00;stroke-linecap:square;"/>
    </g>
    <g id="line2d_27"/>
    <g id="text_19">
     <!-- predict func(conjugate gradient descent) -->
     <g transform="translate(200.72 114.5345)scale(0.1 -0.1)">
      <defs>
       <path d="M 2300 3725 
L 1800 3725 
L 1800 4375 
L 2300 4375 
L 2300 3725 
z
M 2300 150 
Q 2300 -300 2025 -550 
Q 1750 -800 1300 -800 
Q 1025 -800 862 -762 
Q 700 -725 575 -675 
L 575 -175 
Q 700 -250 875 -300 
Q 1050 -350 1325 -350 
Q 1600 -350 1700 -212 
Q 1800 -75 1800 125 
L 1800 2925 
L 2300 2925 
L 2300 150 
z
" id="SimHei-6a" transform="scale(0.015625)"/>
      </defs>
      <use xlink:href="#SimHei-70"/>
      <use x="50" xlink:href="#SimHei-72"/>
      <use x="100" xlink:href="#SimHei-65"/>
      <use x="150" xlink:href="#SimHei-64"/>
      <use x="200" xlink:href="#SimHei-69"/>
      <use x="250" xlink:href="#SimHei-63"/>
      <use x="300" xlink:href="#SimHei-74"/>
      <use x="350" xlink:href="#SimHei-20"/>
      <use x="400" xlink:href="#SimHei-66"/>
      <use x="450" xlink:href="#SimHei-75"/>
      <use x="500" xlink:href="#SimHei-6e"/>
      <use x="550" xlink:href="#SimHei-63"/>
      <use x="600" xlink:href="#SimHei-28"/>
      <use x="650" xlink:href="#SimHei-63"/>
      <use x="700" xlink:href="#SimHei-6f"/>
      <use x="750" xlink:href="#SimHei-6e"/>
      <use x="800" xlink:href="#SimHei-6a"/>
      <use x="850" xlink:href="#SimHei-75"/>
      <use x="900" xlink:href="#SimHei-67"/>
      <use x="950" xlink:href="#SimHei-61"/>
      <use x="1000" xlink:href="#SimHei-74"/>
      <use x="1050" xlink:href="#SimHei-65"/>
      <use x="1100" xlink:href="#SimHei-20"/>
      <use x="1150" xlink:href="#SimHei-67"/>
      <use x="1200" xlink:href="#SimHei-72"/>
      <use x="1250" xlink:href="#SimHei-61"/>
      <use x="1300" xlink:href="#SimHei-64"/>
      <use x="1350" xlink:href="#SimHei-69"/>
      <use x="1400" xlink:href="#SimHei-65"/>
      <use x="1450" xlink:href="#SimHei-6e"/>
      <use x="1500" xlink:href="#SimHei-74"/>
      <use x="1550" xlink:href="#SimHei-20"/>
      <use x="1600" xlink:href="#SimHei-64"/>
      <use x="1650" xlink:href="#SimHei-65"/>
      <use x="1700" xlink:href="#SimHei-73"/>
      <use x="1750" xlink:href="#SimHei-63"/>
      <use x="1800" xlink:href="#SimHei-65"/>
      <use x="1850" xlink:href="#SimHei-6e"/>
      <use x="1900" xlink:href="#SimHei-74"/>
      <use x="1950" xlink:href="#SimHei-29"/>
     </g>
    </g>
    <g id="line2d_28">
     <path d="M 172.72 124.2845 
L 192.72 124.2845 
" style="fill:none;stroke:#000000;stroke-dasharray:3.7,1.6;stroke-dashoffset:0;"/>
    </g>
    <g id="line2d_29"/>
    <g id="text_20">
     <!-- real func -->
     <g transform="translate(200.72 127.7845)scale(0.1 -0.1)">
      <use xlink:href="#SimHei-72"/>
      <use x="50" xlink:href="#SimHei-65"/>
      <use x="100" xlink:href="#SimHei-61"/>
      <use x="150" xlink:href="#SimHei-6c"/>
      <use x="200" xlink:href="#SimHei-20"/>
      <use x="250" xlink:href="#SimHei-66"/>
      <use x="300" xlink:href="#SimHei-75"/>
      <use x="350" xlink:href="#SimHei-6e"/>
      <use x="400" xlink:href="#SimHei-63"/>
     </g>
    </g>
    <g id="PathCollection_2">
     <g>
      <use style="fill:#008000;stroke:#008000;" x="182.72" xlink:href="#m42ff402434" y="138.4095"/>
     </g>
    </g>
    <g id="text_21">
     <!-- train data -->
     <g transform="translate(200.72 141.0345)scale(0.1 -0.1)">
      <use xlink:href="#SimHei-74"/>
      <use x="50" xlink:href="#SimHei-72"/>
      <use x="100" xlink:href="#SimHei-61"/>
      <use x="150" xlink:href="#SimHei-69"/>
      <use x="200" xlink:href="#SimHei-6e"/>
      <use x="250" xlink:href="#SimHei-20"/>
      <use x="300" xlink:href="#SimHei-64"/>
      <use x="350" xlink:href="#SimHei-61"/>
      <use x="400" xlink:href="#SimHei-74"/>
      <use x="450" xlink:href="#SimHei-61"/>
     </g>
    </g>
   </g>
  </g>
 </g>
 <defs>
  <clipPath id="p15808674be">
   <rect height="266.112" width="357.12" x="57.6" y="41.472"/>
  </clipPath>
 </defs>
</svg>
