<?xml version="1.0" encoding="utf-8" standalone="no"?>
<!DOCTYPE svg PUBLIC "-//W3C//DTD SVG 1.1//EN"
  "http://www.w3.org/Graphics/SVG/1.1/DTD/svg11.dtd">
<svg height="345.6pt" version="1.1" viewBox="0 0 460.8 345.6" width="460.8pt" xmlns="http://www.w3.org/2000/svg" xmlns:xlink="http://www.w3.org/1999/xlink">
 <metadata>
  <rdf:RDF xmlns:cc="http://creativecommons.org/ns#" xmlns:dc="http://purl.org/dc/elements/1.1/" xmlns:rdf="http://www.w3.org/1999/02/22-rdf-syntax-ns#">
   <cc:Work>
    <dc:type rdf:resource="http://purl.org/dc/dcmitype/StillImage"/>
    <dc:date>2021-10-02T22:00:52.546865</dc:date>
    <dc:format>image/svg+xml</dc:format>
    <dc:creator>
     <cc:Agent>
      <dc:title>Matplotlib v3.4.2, https://matplotlib.org/</dc:title>
     </cc:Agent>
    </dc:creator>
   </cc:Work>
  </rdf:RDF>
 </metadata>
 <defs>
  <style type="text/css">*{stroke-linecap:butt;stroke-linejoin:round;}</style>
 </defs>
 <g id="figure_1">
  <g id="patch_1">
   <path d="M 0 345.6 
L 460.8 345.6 
L 460.8 0 
L 0 0 
z
" style="fill:#ffffff;"/>
  </g>
  <g id="axes_1">
   <g id="patch_2">
    <path d="M 57.6 307.584 
L 414.72 307.584 
L 414.72 41.472 
L 57.6 41.472 
z
" style="fill:#ffffff;"/>
   </g>
   <g id="PathCollection_1">
    <defs>
     <path d="M 0 1.581139 
C 0.419323 1.581139 0.821528 1.41454 1.118034 1.118034 
C 1.41454 0.821528 1.581139 0.419323 1.581139 0 
C 1.581139 -0.419323 1.41454 -0.821528 1.118034 -1.118034 
C 0.821528 -1.41454 0.419323 -1.581139 0 -1.581139 
C -0.419323 -1.581139 -0.821528 -1.41454 -1.118034 -1.118034 
C -1.41454 -0.821528 -1.581139 -0.419323 -1.581139 0 
C -1.581139 0.419323 -1.41454 0.821528 -1.118034 1.118034 
C -0.821528 1.41454 -0.419323 1.581139 0 1.581139 
z
" id="me2590f343d" style="stroke:#008000;"/>
    </defs>
    <g clip-path="url(#p7cbe709402)">
     <use style="fill:#008000;stroke:#008000;" x="73.832727" xlink:href="#me2590f343d" y="124.581887"/>
     <use style="fill:#008000;stroke:#008000;" x="109.905455" xlink:href="#me2590f343d" y="113.897502"/>
     <use style="fill:#008000;stroke:#008000;" x="145.978182" xlink:href="#me2590f343d" y="53.568"/>
     <use style="fill:#008000;stroke:#008000;" x="182.050909" xlink:href="#me2590f343d" y="72.260167"/>
     <use style="fill:#008000;stroke:#008000;" x="218.123636" xlink:href="#me2590f343d" y="114.668544"/>
     <use style="fill:#008000;stroke:#008000;" x="254.196364" xlink:href="#me2590f343d" y="198.407642"/>
     <use style="fill:#008000;stroke:#008000;" x="290.269091" xlink:href="#me2590f343d" y="295.488"/>
     <use style="fill:#008000;stroke:#008000;" x="326.341818" xlink:href="#me2590f343d" y="251.642609"/>
     <use style="fill:#008000;stroke:#008000;" x="362.414545" xlink:href="#me2590f343d" y="226.323063"/>
     <use style="fill:#008000;stroke:#008000;" x="398.487273" xlink:href="#me2590f343d" y="171.521997"/>
    </g>
   </g>
   <g id="matplotlib.axis_1">
    <g id="xtick_1">
     <g id="line2d_1">
      <defs>
       <path d="M 0 0 
L 0 3.5 
" id="m1f1882ff5f" style="stroke:#000000;stroke-width:0.8;"/>
      </defs>
      <g>
       <use style="stroke:#000000;stroke-width:0.8;" x="73.832727" xlink:href="#m1f1882ff5f" y="307.584"/>
      </g>
     </g>
     <g id="text_1">
      <!-- 0.0 -->
      <g transform="translate(66.332727 321.459)scale(0.1 -0.1)">
       <defs>
        <path d="M 225 2537 
Q 250 3200 412 3587 
Q 575 3975 875 4225 
Q 1175 4475 1612 4475 
Q 2050 4475 2375 4112 
Q 2700 3750 2800 3200 
Q 2900 2650 2862 1937 
Q 2825 1225 2612 775 
Q 2400 325 1975 150 
Q 1550 -25 1125 187 
Q 700 400 525 750 
Q 350 1100 275 1487 
Q 200 1875 225 2537 
z
M 750 2687 
Q 675 2000 800 1462 
Q 925 925 1212 700 
Q 1500 475 1800 612 
Q 2100 750 2237 1162 
Q 2375 1575 2375 2062 
Q 2375 2550 2337 2950 
Q 2300 3350 2112 3675 
Q 1925 4000 1612 4012 
Q 1300 4025 1062 3700 
Q 825 3375 750 2687 
z
" id="SimHei-30" transform="scale(0.015625)"/>
        <path d="M 1075 125 
L 500 125 
L 500 675 
L 1075 675 
L 1075 125 
z
" id="SimHei-2e" transform="scale(0.015625)"/>
       </defs>
       <use xlink:href="#SimHei-30"/>
       <use x="50" xlink:href="#SimHei-2e"/>
       <use x="100" xlink:href="#SimHei-30"/>
      </g>
     </g>
    </g>
    <g id="xtick_2">
     <g id="line2d_2">
      <g>
       <use style="stroke:#000000;stroke-width:0.8;" x="138.763636" xlink:href="#m1f1882ff5f" y="307.584"/>
      </g>
     </g>
     <g id="text_2">
      <!-- 0.2 -->
      <g transform="translate(131.263636 321.459)scale(0.1 -0.1)">
       <defs>
        <path d="M 300 250 
Q 325 625 650 925 
Q 975 1225 1475 1862 
Q 1975 2500 2125 2850 
Q 2275 3200 2237 3450 
Q 2200 3700 2000 3862 
Q 1800 4025 1537 4000 
Q 1275 3975 1037 3800 
Q 800 3625 675 3275 
L 200 3350 
Q 400 3925 712 4187 
Q 1025 4450 1450 4475 
Q 1700 4500 1900 4462 
Q 2100 4425 2312 4287 
Q 2525 4150 2662 3875 
Q 2800 3600 2762 3212 
Q 2725 2825 2375 2287 
Q 2025 1750 1025 600 
L 2825 600 
L 2825 150 
L 300 150 
L 300 250 
z
" id="SimHei-32" transform="scale(0.015625)"/>
       </defs>
       <use xlink:href="#SimHei-30"/>
       <use x="50" xlink:href="#SimHei-2e"/>
       <use x="100" xlink:href="#SimHei-32"/>
      </g>
     </g>
    </g>
    <g id="xtick_3">
     <g id="line2d_3">
      <g>
       <use style="stroke:#000000;stroke-width:0.8;" x="203.694545" xlink:href="#m1f1882ff5f" y="307.584"/>
      </g>
     </g>
     <g id="text_3">
      <!-- 0.4 -->
      <g transform="translate(196.194545 321.459)scale(0.1 -0.1)">
       <defs>
        <path d="M 2000 1100 
L 75 1100 
L 75 1525 
L 2100 4450 
L 2475 4450 
L 2475 1525 
L 3075 1525 
L 3075 1100 
L 2475 1100 
L 2475 150 
L 2000 150 
L 2000 1100 
z
M 2000 1525 
L 2000 3500 
L 600 1525 
L 2000 1525 
z
" id="SimHei-34" transform="scale(0.015625)"/>
       </defs>
       <use xlink:href="#SimHei-30"/>
       <use x="50" xlink:href="#SimHei-2e"/>
       <use x="100" xlink:href="#SimHei-34"/>
      </g>
     </g>
    </g>
    <g id="xtick_4">
     <g id="line2d_4">
      <g>
       <use style="stroke:#000000;stroke-width:0.8;" x="268.625455" xlink:href="#m1f1882ff5f" y="307.584"/>
      </g>
     </g>
     <g id="text_4">
      <!-- 0.6 -->
      <g transform="translate(261.125455 321.459)scale(0.1 -0.1)">
       <defs>
        <path d="M 250 1612 
Q 275 1975 387 2225 
Q 500 2475 725 2850 
L 1750 4450 
L 2325 4450 
L 1275 2800 
Q 1950 2975 2350 2750 
Q 2750 2525 2887 2237 
Q 3025 1950 3037 1612 
Q 3050 1275 2937 950 
Q 2825 625 2537 362 
Q 2250 100 1737 75 
Q 1225 50 862 262 
Q 500 475 362 862 
Q 225 1250 250 1612 
z
M 1025 787 
Q 1250 550 1625 525 
Q 2000 500 2250 775 
Q 2500 1050 2500 1575 
Q 2500 2100 2187 2300 
Q 1875 2500 1487 2450 
Q 1100 2400 925 2075 
Q 750 1750 775 1387 
Q 800 1025 1025 787 
z
" id="SimHei-36" transform="scale(0.015625)"/>
       </defs>
       <use xlink:href="#SimHei-30"/>
       <use x="50" xlink:href="#SimHei-2e"/>
       <use x="100" xlink:href="#SimHei-36"/>
      </g>
     </g>
    </g>
    <g id="xtick_5">
     <g id="line2d_5">
      <g>
       <use style="stroke:#000000;stroke-width:0.8;" x="333.556364" xlink:href="#m1f1882ff5f" y="307.584"/>
      </g>
     </g>
     <g id="text_5">
      <!-- 0.8 -->
      <g transform="translate(326.056364 321.459)scale(0.1 -0.1)">
       <defs>
        <path d="M 175 1375 
Q 175 1675 325 1962 
Q 475 2250 825 2425 
Q 525 2600 425 2812 
Q 325 3025 312 3300 
Q 300 3575 387 3775 
Q 475 3975 650 4150 
Q 825 4325 1037 4387 
Q 1250 4450 1500 4450 
Q 1750 4450 1950 4400 
Q 2150 4350 2375 4187 
Q 2600 4025 2700 3725 
Q 2800 3425 2687 3025 
Q 2575 2625 2100 2400 
Q 2525 2275 2700 2012 
Q 2875 1750 2875 1375 
Q 2875 1000 2762 775 
Q 2650 550 2512 400 
Q 2375 250 2137 162 
Q 1900 75 1537 75 
Q 1175 75 912 162 
Q 650 250 475 425 
Q 300 600 237 837 
Q 175 1075 175 1375 
z
M 687 1400 
Q 675 1100 787 875 
Q 900 650 1200 587 
Q 1500 525 1825 600 
Q 2150 675 2275 950 
Q 2400 1225 2362 1500 
Q 2325 1775 2050 1962 
Q 1775 2150 1450 2125 
Q 1125 2100 912 1900 
Q 700 1700 687 1400 
z
M 775 3350 
Q 775 3100 950 2875 
Q 1125 2650 1500 2650 
Q 1875 2650 2062 2875 
Q 2250 3100 2237 3412 
Q 2225 3725 2012 3875 
Q 1800 4025 1437 4000 
Q 1075 3975 925 3787 
Q 775 3600 775 3350 
z
" id="SimHei-38" transform="scale(0.015625)"/>
       </defs>
       <use xlink:href="#SimHei-30"/>
       <use x="50" xlink:href="#SimHei-2e"/>
       <use x="100" xlink:href="#SimHei-38"/>
      </g>
     </g>
    </g>
    <g id="xtick_6">
     <g id="line2d_6">
      <g>
       <use style="stroke:#000000;stroke-width:0.8;" x="398.487273" xlink:href="#m1f1882ff5f" y="307.584"/>
      </g>
     </g>
     <g id="text_6">
      <!-- 1.0 -->
      <g transform="translate(390.987273 321.459)scale(0.1 -0.1)">
       <defs>
        <path d="M 1400 3600 
Q 1075 3275 575 2975 
L 575 3450 
Q 1200 3875 1600 4450 
L 1900 4450 
L 1900 150 
L 1400 150 
L 1400 3600 
z
" id="SimHei-31" transform="scale(0.015625)"/>
       </defs>
       <use xlink:href="#SimHei-31"/>
       <use x="50" xlink:href="#SimHei-2e"/>
       <use x="100" xlink:href="#SimHei-30"/>
      </g>
     </g>
    </g>
    <g id="text_7">
     <!-- x -->
     <g transform="translate(233.66 333.584)scale(0.1 -0.1)">
      <defs>
       <path d="M 2875 125 
L 2275 125 
L 1550 1200 
L 825 125 
L 225 125 
L 1250 1550 
L 300 2925 
L 900 2925 
L 1550 1875 
L 2200 2925 
L 2800 2925 
L 1850 1550 
L 2875 125 
z
" id="SimHei-78" transform="scale(0.015625)"/>
      </defs>
      <use xlink:href="#SimHei-78"/>
     </g>
    </g>
   </g>
   <g id="matplotlib.axis_2">
    <g id="ytick_1">
     <g id="line2d_7">
      <defs>
       <path d="M 0 0 
L -3.5 0 
" id="mde7d1a284d" style="stroke:#000000;stroke-width:0.8;"/>
      </defs>
      <g>
       <use style="stroke:#000000;stroke-width:0.8;" x="57.6" xlink:href="#mde7d1a284d" y="306.862904"/>
      </g>
     </g>
     <g id="text_8">
      <!-- -1.5 -->
      <g transform="translate(30.6 310.300404)scale(0.1 -0.1)">
       <defs>
        <path d="M 2975 2125 
L 125 2125 
L 125 2525 
L 2975 2525 
L 2975 2125 
z
" id="SimHei-2d" transform="scale(0.015625)"/>
        <path d="M 550 1325 
Q 725 650 1150 575 
Q 1575 500 1837 662 
Q 2100 825 2212 1087 
Q 2325 1350 2312 1675 
Q 2300 2000 2137 2225 
Q 1975 2450 1725 2525 
Q 1475 2600 1162 2525 
Q 850 2450 650 2175 
L 225 2225 
Q 275 2375 700 4375 
L 2675 4375 
L 2675 3925 
L 1075 3925 
Q 950 3250 825 2850 
Q 1200 3025 1525 3012 
Q 1850 3000 2150 2862 
Q 2450 2725 2587 2487 
Q 2725 2250 2787 2012 
Q 2850 1775 2837 1500 
Q 2825 1225 2725 937 
Q 2625 650 2425 462 
Q 2225 275 1937 162 
Q 1650 50 1275 75 
Q 900 100 562 350 
Q 225 600 100 1200 
L 550 1325 
z
" id="SimHei-35" transform="scale(0.015625)"/>
       </defs>
       <use xlink:href="#SimHei-2d"/>
       <use x="50" xlink:href="#SimHei-31"/>
       <use x="100" xlink:href="#SimHei-2e"/>
       <use x="150" xlink:href="#SimHei-35"/>
      </g>
     </g>
    </g>
    <g id="ytick_2">
     <g id="line2d_8">
      <g>
       <use style="stroke:#000000;stroke-width:0.8;" x="57.6" xlink:href="#mde7d1a284d" y="257.910814"/>
      </g>
     </g>
     <g id="text_9">
      <!-- -1.0 -->
      <g transform="translate(30.6 261.348314)scale(0.1 -0.1)">
       <use xlink:href="#SimHei-2d"/>
       <use x="50" xlink:href="#SimHei-31"/>
       <use x="100" xlink:href="#SimHei-2e"/>
       <use x="150" xlink:href="#SimHei-30"/>
      </g>
     </g>
    </g>
    <g id="ytick_3">
     <g id="line2d_9">
      <g>
       <use style="stroke:#000000;stroke-width:0.8;" x="57.6" xlink:href="#mde7d1a284d" y="208.958724"/>
      </g>
     </g>
     <g id="text_10">
      <!-- -0.5 -->
      <g transform="translate(30.6 212.396224)scale(0.1 -0.1)">
       <use xlink:href="#SimHei-2d"/>
       <use x="50" xlink:href="#SimHei-30"/>
       <use x="100" xlink:href="#SimHei-2e"/>
       <use x="150" xlink:href="#SimHei-35"/>
      </g>
     </g>
    </g>
    <g id="ytick_4">
     <g id="line2d_10">
      <g>
       <use style="stroke:#000000;stroke-width:0.8;" x="57.6" xlink:href="#mde7d1a284d" y="160.006633"/>
      </g>
     </g>
     <g id="text_11">
      <!-- 0.0 -->
      <g transform="translate(35.6 163.444133)scale(0.1 -0.1)">
       <use xlink:href="#SimHei-30"/>
       <use x="50" xlink:href="#SimHei-2e"/>
       <use x="100" xlink:href="#SimHei-30"/>
      </g>
     </g>
    </g>
    <g id="ytick_5">
     <g id="line2d_11">
      <g>
       <use style="stroke:#000000;stroke-width:0.8;" x="57.6" xlink:href="#mde7d1a284d" y="111.054543"/>
      </g>
     </g>
     <g id="text_12">
      <!-- 0.5 -->
      <g transform="translate(35.6 114.492043)scale(0.1 -0.1)">
       <use xlink:href="#SimHei-30"/>
       <use x="50" xlink:href="#SimHei-2e"/>
       <use x="100" xlink:href="#SimHei-35"/>
      </g>
     </g>
    </g>
    <g id="ytick_6">
     <g id="line2d_12">
      <g>
       <use style="stroke:#000000;stroke-width:0.8;" x="57.6" xlink:href="#mde7d1a284d" y="62.102453"/>
      </g>
     </g>
     <g id="text_13">
      <!-- 1.0 -->
      <g transform="translate(35.6 65.539953)scale(0.1 -0.1)">
       <use xlink:href="#SimHei-31"/>
       <use x="50" xlink:href="#SimHei-2e"/>
       <use x="100" xlink:href="#SimHei-30"/>
      </g>
     </g>
    </g>
    <g id="text_14">
     <!-- y -->
     <g transform="translate(25.35 177.028)rotate(-90)scale(0.1 -0.1)">
      <defs>
       <path d="M 2900 2925 
L 1750 -100 
Q 1650 -450 1450 -625 
Q 1250 -800 950 -800 
Q 825 -800 712 -787 
Q 600 -775 500 -725 
L 500 -225 
Q 600 -275 700 -300 
Q 800 -325 875 -325 
Q 1075 -325 1150 -262 
Q 1225 -200 1300 25 
L 200 2925 
L 750 2925 
L 1550 725 
L 1575 725 
L 2350 2925 
L 2900 2925 
z
" id="SimHei-79" transform="scale(0.015625)"/>
      </defs>
      <use xlink:href="#SimHei-79"/>
     </g>
    </g>
   </g>
   <g id="line2d_13">
    <path clip-path="url(#p7cbe709402)" d="M 73.832727 137.836195 
L 78.727017 128.193936 
L 83.621307 119.131058 
L 88.515596 110.670526 
L 93.409886 102.834079 
L 96.672746 97.966612 
L 99.935605 93.391252 
L 103.198465 89.113329 
L 106.461325 85.137824 
L 109.724185 81.469347 
L 112.987044 78.112115 
L 116.249904 75.069932 
L 119.512764 72.346167 
L 122.775624 69.943732 
L 126.038483 67.865063 
L 129.301343 66.112099 
L 132.564203 64.686263 
L 135.827063 63.58844 
L 139.089922 62.818962 
L 142.352782 62.377589 
L 145.615642 62.263491 
L 148.878502 62.475234 
L 152.141361 63.01076 
L 155.404221 63.86738 
L 158.667081 65.041755 
L 161.929941 66.529884 
L 165.1928 68.327098 
L 168.45566 70.428046 
L 171.71852 72.826686 
L 174.98138 75.516285 
L 178.244239 78.489403 
L 181.507099 81.7379 
L 184.769959 85.252926 
L 188.032819 89.024925 
L 191.295678 93.043635 
L 196.189968 99.510102 
L 201.084258 106.466885 
L 205.978547 113.870564 
L 210.872837 121.674329 
L 215.767127 129.828084 
L 222.292846 141.151716 
L 230.449995 155.842029 
L 258.184303 206.452702 
L 264.710023 217.597513 
L 269.604312 225.546801 
L 274.498602 233.066936 
L 279.392892 240.088406 
L 282.655751 244.458691 
L 285.918611 248.557436 
L 289.181471 252.365506 
L 292.444331 255.864366 
L 295.70719 259.036177 
L 298.97005 261.863897 
L 302.23291 264.331383 
L 305.49577 266.423499 
L 308.75863 268.126233 
L 312.021489 269.426805 
L 315.284349 270.313798 
L 318.547209 270.777275 
L 321.810069 270.808915 
L 325.072928 270.402146 
L 328.335788 269.552286 
L 331.598648 268.256686 
L 334.861508 266.51488 
L 338.124367 264.328739 
L 341.387227 261.702633 
L 344.650087 258.643593 
L 347.912947 255.16148 
L 351.175806 251.269164 
L 354.438666 246.982699 
L 357.701526 242.321515 
L 360.964386 237.308602 
L 364.227245 231.970714 
L 369.121535 223.422875 
L 374.015825 214.33541 
L 380.541544 201.632161 
L 393.592983 175.851555 
L 398.487273 166.74557 
L 398.487273 166.74557 
" style="fill:none;stroke:#0000ff;stroke-linecap:square;"/>
   </g>
   <g id="line2d_14">
    <path clip-path="url(#p7cbe709402)" d="M 73.832727 138.718637 
L 78.727017 128.435858 
L 83.621307 118.848472 
L 86.884166 112.850237 
L 90.147026 107.17126 
L 93.409886 101.815175 
L 96.672746 96.78534 
L 99.935605 92.084824 
L 103.198465 87.716385 
L 106.461325 83.682457 
L 109.724185 79.985129 
L 112.987044 76.62613 
L 116.249904 73.606812 
L 119.512764 70.928133 
L 122.775624 68.59064 
L 126.038483 66.594452 
L 129.301343 64.939246 
L 132.564203 63.624243 
L 135.827063 62.648187 
L 139.089922 62.009339 
L 142.352782 61.705457 
L 145.615642 61.733785 
L 148.878502 62.091042 
L 152.141361 62.773408 
L 155.404221 63.776516 
L 158.667081 65.095442 
L 161.929941 66.724692 
L 165.1928 68.6582 
L 168.45566 70.889318 
L 171.71852 73.410812 
L 174.98138 76.214856 
L 178.244239 79.29303 
L 181.507099 82.636318 
L 184.769959 86.235106 
L 188.032819 90.079185 
L 192.927108 96.281436 
L 197.821398 102.972212 
L 202.715688 110.109638 
L 207.609977 117.648965 
L 212.504267 125.542653 
L 219.029986 136.531621 
L 227.187136 150.835005 
L 238.607145 171.44398 
L 251.658584 194.927929 
L 258.184303 206.282616 
L 264.710023 217.171922 
L 269.604312 224.939426 
L 274.498602 232.291646 
L 279.392892 239.163902 
L 282.655751 243.447417 
L 285.918611 247.471112 
L 289.181471 251.217109 
L 292.444331 254.668051 
L 295.70719 257.807181 
L 298.97005 260.618423 
L 302.23291 263.08647 
L 305.49577 265.196872 
L 308.75863 266.936133 
L 312.021489 268.291803 
L 315.284349 269.252581 
L 318.547209 269.808417 
L 321.810069 269.950624 
L 325.072928 269.671986 
L 328.335788 268.966875 
L 331.598648 267.831368 
L 334.861508 266.263375 
L 338.124367 264.262762 
L 341.387227 261.831486 
L 344.650087 258.973728 
L 347.912947 255.696034 
L 351.175806 252.007458 
L 354.438666 247.919714 
L 357.701526 243.447323 
L 360.964386 238.607777 
L 364.227245 233.421694 
L 367.490105 227.91299 
L 372.384395 219.105907 
L 377.278684 209.743354 
L 383.804404 196.619788 
L 398.487273 166.317211 
L 398.487273 166.317211 
" style="fill:none;stroke:#ff0000;stroke-linecap:square;"/>
   </g>
   <g id="line2d_15">
    <path clip-path="url(#p7cbe709402)" d="M 73.832727 138.868798 
L 78.727017 127.939589 
L 81.989877 121.104767 
L 85.252736 114.633443 
L 88.515596 108.527432 
L 91.778456 102.788279 
L 95.041316 97.417252 
L 98.304175 92.415319 
L 101.567035 87.783141 
L 104.829895 83.521054 
L 108.092755 79.629056 
L 111.355614 76.106791 
L 114.618474 72.953539 
L 117.881334 70.168198 
L 121.144194 67.749273 
L 124.407053 65.694865 
L 127.669913 64.002653 
L 130.932773 62.669888 
L 134.195633 61.693377 
L 137.458492 61.069474 
L 140.721352 60.794071 
L 143.984212 60.862583 
L 147.247072 61.269946 
L 150.509931 62.010604 
L 153.772791 63.078503 
L 157.035651 64.467082 
L 160.298511 66.169274 
L 163.56137 68.177494 
L 166.82423 70.483638 
L 170.08709 73.079082 
L 173.34995 75.954677 
L 176.61281 79.100754 
L 179.875669 82.507119 
L 183.138529 86.163059 
L 186.401389 90.057343 
L 191.295678 96.319841 
L 196.189968 103.050321 
L 201.084258 110.204533 
L 205.978547 117.735807 
L 212.504267 128.279058 
L 219.029986 139.28315 
L 227.187136 153.490004 
L 251.658584 196.539515 
L 258.184303 207.444697 
L 263.078593 215.288334 
L 267.972883 222.776192 
L 272.867172 229.847618 
L 277.761462 236.443281 
L 281.024322 240.547575 
L 284.287181 244.398292 
L 287.550041 247.97945 
L 290.812901 251.275659 
L 294.075761 254.272197 
L 297.33862 256.955092 
L 300.60148 259.311197 
L 303.86434 261.328284 
L 307.1272 262.995122 
L 310.390059 264.301575 
L 313.652919 265.238694 
L 316.915779 265.798814 
L 320.178639 265.975657 
L 323.441498 265.764435 
L 326.704358 265.161959 
L 329.967218 264.166749 
L 333.230078 262.779153 
L 336.492937 261.001461 
L 339.755797 258.83803 
L 343.018657 256.295413 
L 346.281517 253.382483 
L 349.544376 250.110573 
L 352.807236 246.493609 
L 356.070096 242.548257 
L 359.332956 238.294062 
L 362.595815 233.753605 
L 367.490105 226.463452 
L 372.384395 218.689213 
L 378.910114 207.779727 
L 395.224413 180.061529 
L 398.487273 174.892434 
L 398.487273 174.892434 
" style="fill:none;stroke:#008000;stroke-linecap:square;"/>
   </g>
   <g id="line2d_16">
    <path clip-path="url(#p7cbe709402)" d="M 73.832727 137.779487 
L 78.727017 128.142966 
L 83.621307 119.085726 
L 88.515596 110.630723 
L 93.409886 102.799689 
L 96.672746 97.93576 
L 99.935605 93.36388 
L 103.198465 89.089377 
L 106.461325 85.117226 
L 109.724185 81.452037 
L 112.987044 78.098022 
L 116.249904 75.058984 
L 119.512764 72.338288 
L 122.775624 69.938844 
L 126.038483 67.863084 
L 129.301343 66.112945 
L 132.564203 64.689845 
L 135.827063 63.594668 
L 139.089922 62.827743 
L 142.352782 62.388826 
L 145.615642 62.277084 
L 148.878502 62.49108 
L 152.141361 63.028754 
L 155.404221 63.887413 
L 158.667081 65.063714 
L 161.929941 66.553656 
L 165.1928 68.352565 
L 168.45566 70.455088 
L 171.71852 72.85518 
L 174.98138 75.546104 
L 178.244239 78.520421 
L 181.507099 81.769984 
L 184.769959 85.285944 
L 188.032819 89.058741 
L 191.295678 93.078111 
L 196.189968 99.545307 
L 201.084258 106.502498 
L 205.978547 113.906261 
L 210.872837 121.70978 
L 217.398556 132.649269 
L 223.924276 144.082615 
L 232.081425 158.8598 
L 256.552873 203.603906 
L 263.078593 214.877182 
L 267.972883 222.950061 
L 272.867172 230.616969 
L 277.761462 237.80805 
L 281.024322 242.303838 
L 284.287181 246.537789 
L 287.550041 250.490514 
L 290.812901 254.143176 
L 294.075761 257.477589 
L 297.33862 260.476316 
L 300.60148 263.122764 
L 303.86434 265.401297 
L 307.1272 267.297345 
L 310.390059 268.797514 
L 313.652919 269.88971 
L 316.915779 270.563262 
L 320.178639 270.809045 
L 323.441498 270.619621 
L 326.704358 269.989369 
L 329.967218 268.914631 
L 333.230078 267.39386 
L 336.492937 265.427768 
L 339.755797 263.019486 
L 343.018657 260.174728 
L 346.281517 256.901951 
L 349.544376 253.212536 
L 352.807236 249.120961 
L 356.070096 244.644985 
L 359.332956 239.805834 
L 362.595815 234.628402 
L 365.858675 229.141443 
L 370.752965 220.403603 
L 375.647254 211.17324 
L 382.172974 198.366894 
L 393.592983 175.853693 
L 398.487273 166.764105 
L 398.487273 166.764105 
" style="fill:none;stroke:#800080;stroke-linecap:square;"/>
   </g>
   <g id="line2d_17">
    <path clip-path="url(#p7cbe709402)" d="M 73.832727 107.372157 
L 81.989877 104.036121 
L 88.515596 101.595633 
L 95.041316 99.376862 
L 101.567035 97.398959 
L 108.092755 95.682624 
L 114.618474 94.249908 
L 119.512764 93.375417 
L 124.407053 92.683641 
L 129.301343 92.184974 
L 134.195633 91.889996 
L 139.089922 91.809417 
L 143.984212 91.954011 
L 148.878502 92.334545 
L 153.772791 92.96171 
L 158.667081 93.846032 
L 163.56137 94.997795 
L 168.45566 96.42694 
L 173.34995 98.142972 
L 178.244239 100.154844 
L 183.138529 102.470847 
L 188.032819 105.098484 
L 192.927108 108.044332 
L 197.821398 111.313904 
L 202.715688 114.91149 
L 207.609977 118.839994 
L 212.504267 123.100761 
L 217.398556 127.693385 
L 222.292846 132.615512 
L 227.187136 137.862628 
L 232.081425 143.427831 
L 236.975715 149.301596 
L 241.870005 155.471518 
L 248.395724 164.131403 
L 254.921444 173.243268 
L 261.447163 182.748517 
L 269.604312 195.072084 
L 281.024322 212.827676 
L 294.075761 233.097175 
L 300.60148 242.870115 
L 305.49577 249.894213 
L 310.390059 256.558934 
L 315.284349 262.767197 
L 318.547209 266.600337 
L 321.810069 270.14964 
L 325.072928 273.379181 
L 328.335788 276.250937 
L 331.598648 278.724708 
L 334.861508 280.75803 
L 336.492937 281.595613 
L 338.124367 282.306093 
L 339.755797 282.883485 
L 341.387227 283.321649 
L 343.018657 283.614284 
L 344.650087 283.754926 
L 346.281517 283.736943 
L 347.912947 283.553533 
L 349.544376 283.197723 
L 351.175806 282.662365 
L 352.807236 281.940129 
L 354.438666 281.023506 
L 356.070096 279.904802 
L 357.701526 278.576134 
L 359.332956 277.029428 
L 360.964386 275.256414 
L 362.595815 273.248625 
L 364.227245 270.997394 
L 365.858675 268.493848 
L 367.490105 265.728905 
L 369.121535 262.693274 
L 370.752965 259.377445 
L 372.384395 255.771694 
L 374.015825 251.866072 
L 375.647254 247.650405 
L 377.278684 243.114289 
L 380.541544 233.037926 
L 383.804404 221.549025 
L 387.067264 208.555717 
L 390.330123 193.962096 
L 393.592983 177.668095 
L 396.855843 159.569355 
L 398.487273 149.809391 
L 398.487273 149.809391 
" style="fill:none;stroke:#ffff00;stroke-linecap:square;"/>
   </g>
   <g id="line2d_18">
    <path clip-path="url(#p7cbe709402)" d="M 73.832727 160.006633 
L 85.252736 138.543925 
L 91.778456 126.68286 
L 96.672746 118.125372 
L 101.567035 109.943368 
L 106.461325 102.210203 
L 111.355614 94.995209 
L 114.618474 90.505237 
L 117.881334 86.292318 
L 121.144194 82.373246 
L 124.407053 78.763644 
L 127.669913 75.477899 
L 130.932773 72.529112 
L 134.195633 69.929035 
L 137.458492 67.688034 
L 140.721352 65.815042 
L 143.984212 64.317525 
L 147.247072 63.201453 
L 150.509931 62.471276 
L 153.772791 62.129902 
L 157.035651 62.178694 
L 160.298511 62.617457 
L 163.56137 63.444442 
L 166.82423 64.656351 
L 170.08709 66.248355 
L 173.34995 68.214107 
L 176.61281 70.545771 
L 179.875669 73.234053 
L 183.138529 76.268235 
L 186.401389 79.636223 
L 189.664249 83.324591 
L 192.927108 87.318636 
L 196.189968 91.602437 
L 199.452828 96.158917 
L 204.347117 103.464898 
L 209.241407 111.277801 
L 214.135697 119.527579 
L 220.661416 131.078548 
L 228.818566 146.142959 
L 251.658584 188.934719 
L 258.184303 200.485688 
L 263.078593 208.735466 
L 267.972883 216.548368 
L 272.867172 223.85435 
L 276.130032 228.41083 
L 279.392892 232.694631 
L 282.655751 236.688676 
L 285.918611 240.377044 
L 289.181471 243.745032 
L 292.444331 246.779214 
L 295.70719 249.467495 
L 298.97005 251.799159 
L 302.23291 253.764911 
L 305.49577 255.356915 
L 308.75863 256.568825 
L 312.021489 257.39581 
L 315.284349 257.834573 
L 318.547209 257.883365 
L 321.810069 257.541991 
L 325.072928 256.811813 
L 328.335788 255.695742 
L 331.598648 254.198225 
L 334.861508 252.325233 
L 338.124367 250.084232 
L 341.387227 247.484155 
L 344.650087 244.535367 
L 347.912947 241.249623 
L 351.175806 237.640021 
L 354.438666 233.720949 
L 357.701526 229.50803 
L 360.964386 225.018058 
L 365.858675 217.803063 
L 370.752965 210.069898 
L 375.647254 201.887895 
L 380.541544 193.330407 
L 387.067264 181.469342 
L 396.855843 163.097326 
L 398.487273 160.006633 
L 398.487273 160.006633 
" style="fill:none;stroke:#000000;stroke-dasharray:3.7,1.6;stroke-dashoffset:0;"/>
   </g>
   <g id="patch_3">
    <path d="M 57.6 307.584 
L 57.6 41.472 
" style="fill:none;stroke:#000000;stroke-linecap:square;stroke-linejoin:miter;stroke-width:0.8;"/>
   </g>
   <g id="patch_4">
    <path d="M 414.72 307.584 
L 414.72 41.472 
" style="fill:none;stroke:#000000;stroke-linecap:square;stroke-linejoin:miter;stroke-width:0.8;"/>
   </g>
   <g id="patch_5">
    <path d="M 57.6 307.584 
L 414.72 307.584 
" style="fill:none;stroke:#000000;stroke-linecap:square;stroke-linejoin:miter;stroke-width:0.8;"/>
   </g>
   <g id="patch_6">
    <path d="M 57.6 41.472 
L 414.72 41.472 
" style="fill:none;stroke:#000000;stroke-linecap:square;stroke-linejoin:miter;stroke-width:0.8;"/>
   </g>
   <g id="text_15">
    <!-- predict func of different method,m=7,l2_coef=0.0001 -->
    <g transform="translate(83.16 35.472)scale(0.12 -0.12)">
     <defs>
      <path d="M 2825 1525 
Q 2825 800 2475 425 
Q 2125 50 1625 50 
Q 1350 50 1150 162 
Q 950 275 800 500 
L 800 -800 
L 300 -800 
L 300 2925 
L 800 2925 
L 800 2550 
Q 950 2775 1150 2875 
Q 1350 2975 1625 2975 
Q 2125 2975 2475 2612 
Q 2825 2250 2825 1525 
z
M 2275 1525 
Q 2275 2000 2087 2262 
Q 1900 2525 1525 2525 
Q 1225 2525 1012 2262 
Q 800 2000 800 1525 
Q 800 1050 1012 775 
Q 1225 500 1525 500 
Q 1900 500 2087 775 
Q 2275 1050 2275 1525 
z
" id="SimHei-70" transform="scale(0.015625)"/>
      <path d="M 2500 2425 
Q 2025 2500 1700 2287 
Q 1375 2075 1150 1550 
L 1150 125 
L 650 125 
L 650 2925 
L 1150 2925 
L 1150 2200 
Q 1375 2600 1712 2787 
Q 2050 2975 2500 2975 
L 2500 2425 
z
" id="SimHei-72" transform="scale(0.015625)"/>
      <path d="M 2850 1075 
Q 2800 625 2450 350 
Q 2100 75 1625 75 
Q 1025 75 637 462 
Q 250 850 250 1525 
Q 250 2200 637 2587 
Q 1025 2975 1625 2975 
Q 2150 2975 2487 2637 
Q 2825 2300 2825 1525 
L 800 1525 
Q 800 975 1037 750 
Q 1275 525 1625 525 
Q 1900 525 2075 662 
Q 2250 800 2300 1075 
L 2850 1075 
z
M 2250 1925 
Q 2200 2275 2025 2412 
Q 1850 2550 1575 2550 
Q 1325 2550 1125 2412 
Q 925 2275 825 1925 
L 2250 1925 
z
" id="SimHei-65" transform="scale(0.015625)"/>
      <path d="M 2750 125 
L 2250 125 
L 2250 500 
Q 2100 275 1900 175 
Q 1700 75 1425 75 
Q 925 75 575 437 
Q 225 800 225 1525 
Q 225 2250 575 2625 
Q 925 3000 1425 3000 
Q 1700 3000 1900 2887 
Q 2100 2775 2250 2550 
L 2250 4400 
L 2750 4400 
L 2750 125 
z
M 2250 1525 
Q 2250 2000 2037 2275 
Q 1825 2550 1525 2550 
Q 1150 2550 962 2275 
Q 775 2000 775 1525 
Q 775 1050 962 787 
Q 1150 525 1525 525 
Q 1825 525 2037 787 
Q 2250 1050 2250 1525 
z
" id="SimHei-64" transform="scale(0.015625)"/>
      <path d="M 1800 3725 
L 1300 3725 
L 1300 4375 
L 1800 4375 
L 1800 3725 
z
M 1800 125 
L 1300 125 
L 1300 2925 
L 1800 2925 
L 1800 125 
z
" id="SimHei-69" transform="scale(0.015625)"/>
      <path d="M 2850 1250 
Q 2850 725 2487 400 
Q 2125 75 1575 75 
Q 1025 75 625 462 
Q 225 850 225 1525 
Q 225 2200 625 2587 
Q 1025 2975 1575 2975 
Q 2125 2975 2450 2687 
Q 2775 2400 2775 2000 
L 2225 2000 
Q 2200 2300 2012 2412 
Q 1825 2525 1575 2525 
Q 1275 2525 1025 2287 
Q 775 2050 775 1525 
Q 775 1000 1025 762 
Q 1275 525 1575 525 
Q 1900 525 2100 700 
Q 2300 875 2300 1250 
L 2850 1250 
z
" id="SimHei-63" transform="scale(0.015625)"/>
      <path d="M 2750 200 
Q 2625 150 2462 112 
Q 2300 75 2025 75 
Q 1575 75 1300 325 
Q 1025 575 1025 1025 
L 1025 2525 
L 175 2525 
L 175 2925 
L 1025 2925 
L 1025 3900 
L 1525 3900 
L 1525 2925 
L 2550 2925 
L 2550 2525 
L 1525 2525 
L 1525 1000 
Q 1525 800 1625 662 
Q 1725 525 2000 525 
Q 2275 525 2450 575 
Q 2625 625 2750 700 
L 2750 200 
z
" id="SimHei-74" transform="scale(0.015625)"/>
      <path id="SimHei-20" transform="scale(0.015625)"/>
      <path d="M 2850 3825 
Q 2725 3900 2550 3950 
Q 2375 4000 2100 4000 
Q 1825 4000 1725 3862 
Q 1625 3725 1625 3525 
L 1625 2925 
L 2650 2925 
L 2650 2525 
L 1625 2525 
L 1625 125 
L 1125 125 
L 1125 2525 
L 275 2525 
L 275 2925 
L 1125 2925 
L 1125 3500 
Q 1125 3950 1400 4200 
Q 1675 4450 2125 4450 
Q 2400 4450 2562 4412 
Q 2725 4375 2850 4325 
L 2850 3825 
z
" id="SimHei-66" transform="scale(0.015625)"/>
      <path d="M 2800 125 
L 2300 125 
L 2300 650 
Q 2100 375 1862 225 
Q 1625 75 1250 75 
Q 800 75 575 325 
Q 350 575 350 950 
L 350 2925 
L 850 2925 
L 850 1125 
Q 850 825 1000 650 
Q 1150 475 1400 475 
Q 1725 475 2012 812 
Q 2300 1150 2300 1650 
L 2300 2925 
L 2800 2925 
L 2800 125 
z
" id="SimHei-75" transform="scale(0.015625)"/>
      <path d="M 2800 125 
L 2300 125 
L 2300 1925 
Q 2300 2225 2150 2400 
Q 2000 2575 1750 2575 
Q 1425 2575 1137 2237 
Q 850 1900 850 1400 
L 850 125 
L 350 125 
L 350 2925 
L 850 2925 
L 850 2400 
Q 1050 2675 1287 2825 
Q 1525 2975 1900 2975 
Q 2350 2975 2575 2725 
Q 2800 2475 2800 2100 
L 2800 125 
z
" id="SimHei-6e" transform="scale(0.015625)"/>
      <path d="M 2925 1525 
Q 2925 875 2525 475 
Q 2125 75 1575 75 
Q 1025 75 625 475 
Q 225 875 225 1525 
Q 225 2175 625 2575 
Q 1025 2975 1575 2975 
Q 2125 2975 2525 2575 
Q 2925 2175 2925 1525 
z
M 2375 1525 
Q 2375 2025 2125 2275 
Q 1875 2525 1575 2525 
Q 1275 2525 1025 2275 
Q 775 2025 775 1525 
Q 775 1025 1025 775 
Q 1275 525 1575 525 
Q 1875 525 2125 775 
Q 2375 1025 2375 1525 
z
" id="SimHei-6f" transform="scale(0.015625)"/>
      <path d="M 3050 125 
L 2550 125 
L 2550 2150 
Q 2550 2300 2500 2400 
Q 2450 2500 2300 2500 
Q 2125 2500 1975 2312 
Q 1825 2125 1825 1825 
L 1825 125 
L 1325 125 
L 1325 2150 
Q 1325 2300 1275 2400 
Q 1225 2500 1075 2500 
Q 900 2500 750 2312 
Q 600 2125 600 1825 
L 600 125 
L 100 125 
L 100 2925 
L 600 2925 
L 600 2550 
Q 725 2750 900 2862 
Q 1075 2975 1275 2975 
Q 1475 2975 1612 2862 
Q 1750 2750 1800 2550 
Q 1925 2750 2087 2862 
Q 2250 2975 2450 2975 
Q 2750 2975 2900 2812 
Q 3050 2650 3050 2350 
L 3050 125 
z
" id="SimHei-6d" transform="scale(0.015625)"/>
      <path d="M 2800 125 
L 2300 125 
L 2300 1925 
Q 2300 2225 2150 2400 
Q 2000 2575 1750 2575 
Q 1425 2575 1137 2237 
Q 850 1900 850 1400 
L 850 125 
L 350 125 
L 350 4400 
L 850 4400 
L 850 2400 
Q 1050 2675 1287 2825 
Q 1525 2975 1900 2975 
Q 2350 2975 2575 2725 
Q 2800 2475 2800 2100 
L 2800 125 
z
" id="SimHei-68" transform="scale(0.015625)"/>
      <path d="M 1100 125 
L 775 -550 
L 525 -550 
L 775 125 
L 525 125 
L 525 675 
L 1100 675 
L 1100 125 
z
" id="SimHei-2c" transform="scale(0.015625)"/>
      <path d="M 2975 2900 
L 125 2900 
L 125 3300 
L 2975 3300 
L 2975 2900 
z
M 2975 1375 
L 125 1375 
L 125 1775 
L 2975 1775 
L 2975 1375 
z
" id="SimHei-3d" transform="scale(0.015625)"/>
      <path d="M 850 150 
Q 1300 2050 2425 3925 
L 275 3925 
L 275 4375 
L 2950 4375 
L 2950 3950 
Q 1775 2050 1400 150 
L 850 150 
z
" id="SimHei-37" transform="scale(0.015625)"/>
      <path d="M 1825 125 
L 1325 125 
L 1325 4400 
L 1825 4400 
L 1825 125 
z
" id="SimHei-6c" transform="scale(0.015625)"/>
      <path d="M 3150 -850 
L 0 -850 
L 0 -550 
L 3150 -550 
L 3150 -850 
z
" id="SimHei-5f" transform="scale(0.015625)"/>
     </defs>
     <use xlink:href="#SimHei-70"/>
     <use x="50" xlink:href="#SimHei-72"/>
     <use x="100" xlink:href="#SimHei-65"/>
     <use x="150" xlink:href="#SimHei-64"/>
     <use x="200" xlink:href="#SimHei-69"/>
     <use x="250" xlink:href="#SimHei-63"/>
     <use x="300" xlink:href="#SimHei-74"/>
     <use x="350" xlink:href="#SimHei-20"/>
     <use x="400" xlink:href="#SimHei-66"/>
     <use x="450" xlink:href="#SimHei-75"/>
     <use x="500" xlink:href="#SimHei-6e"/>
     <use x="550" xlink:href="#SimHei-63"/>
     <use x="600" xlink:href="#SimHei-20"/>
     <use x="650" xlink:href="#SimHei-6f"/>
     <use x="700" xlink:href="#SimHei-66"/>
     <use x="750" xlink:href="#SimHei-20"/>
     <use x="800" xlink:href="#SimHei-64"/>
     <use x="850" xlink:href="#SimHei-69"/>
     <use x="900" xlink:href="#SimHei-66"/>
     <use x="950" xlink:href="#SimHei-66"/>
     <use x="1000" xlink:href="#SimHei-65"/>
     <use x="1050" xlink:href="#SimHei-72"/>
     <use x="1100" xlink:href="#SimHei-65"/>
     <use x="1150" xlink:href="#SimHei-6e"/>
     <use x="1200" xlink:href="#SimHei-74"/>
     <use x="1250" xlink:href="#SimHei-20"/>
     <use x="1300" xlink:href="#SimHei-6d"/>
     <use x="1350" xlink:href="#SimHei-65"/>
     <use x="1400" xlink:href="#SimHei-74"/>
     <use x="1450" xlink:href="#SimHei-68"/>
     <use x="1500" xlink:href="#SimHei-6f"/>
     <use x="1550" xlink:href="#SimHei-64"/>
     <use x="1600" xlink:href="#SimHei-2c"/>
     <use x="1650" xlink:href="#SimHei-6d"/>
     <use x="1700" xlink:href="#SimHei-3d"/>
     <use x="1750" xlink:href="#SimHei-37"/>
     <use x="1800" xlink:href="#SimHei-2c"/>
     <use x="1850" xlink:href="#SimHei-6c"/>
     <use x="1900" xlink:href="#SimHei-32"/>
     <use x="1950" xlink:href="#SimHei-5f"/>
     <use x="2000" xlink:href="#SimHei-63"/>
     <use x="2050" xlink:href="#SimHei-6f"/>
     <use x="2100" xlink:href="#SimHei-65"/>
     <use x="2150" xlink:href="#SimHei-66"/>
     <use x="2200" xlink:href="#SimHei-3d"/>
     <use x="2250" xlink:href="#SimHei-30"/>
     <use x="2300" xlink:href="#SimHei-2e"/>
     <use x="2350" xlink:href="#SimHei-30"/>
     <use x="2400" xlink:href="#SimHei-30"/>
     <use x="2450" xlink:href="#SimHei-30"/>
     <use x="2500" xlink:href="#SimHei-31"/>
    </g>
   </g>
   <g id="legend_1">
    <g id="patch_7">
     <path d="M 64.6 302.584 
L 301.6 302.584 
Q 303.6 302.584 303.6 300.584 
L 303.6 204.7715 
Q 303.6 202.7715 301.6 202.7715 
L 64.6 202.7715 
Q 62.6 202.7715 62.6 204.7715 
L 62.6 300.584 
Q 62.6 302.584 64.6 302.584 
z
" style="fill:#ffffff;opacity:0.8;stroke:#cccccc;stroke-linejoin:miter;"/>
    </g>
    <g id="line2d_19">
     <path d="M 66.6 211.084 
L 86.6 211.084 
" style="fill:none;stroke:#0000ff;stroke-linecap:square;"/>
    </g>
    <g id="line2d_20"/>
    <g id="text_16">
     <!-- predict func(analytic) -->
     <g transform="translate(94.6 214.584)scale(0.1 -0.1)">
      <defs>
       <path d="M 2975 -200 
L 2700 -475 
Q 2075 125 1762 775 
Q 1450 1425 1450 2250 
Q 1450 3075 1762 3725 
Q 2075 4375 2700 5000 
L 2975 4725 
Q 2400 4175 2112 3587 
Q 1825 3000 1825 2250 
Q 1825 1500 2112 912 
Q 2400 325 2975 -200 
z
" id="SimHei-28" transform="scale(0.015625)"/>
       <path d="M 2875 125 
L 2275 125 
Q 2225 175 2200 262 
Q 2175 350 2175 475 
Q 2000 275 1750 175 
Q 1500 75 1225 75 
Q 825 75 550 275 
Q 275 475 275 850 
Q 275 1225 525 1450 
Q 775 1675 1300 1750 
Q 1650 1800 1912 1875 
Q 2175 1950 2175 2075 
Q 2175 2225 2062 2375 
Q 1950 2525 1575 2525 
Q 1275 2525 1137 2412 
Q 1000 2300 950 2100 
L 400 2100 
Q 450 2500 762 2737 
Q 1075 2975 1575 2975 
Q 2125 2975 2400 2725 
Q 2675 2475 2675 2025 
L 2675 650 
Q 2675 500 2725 375 
Q 2775 250 2875 125 
z
M 2175 1050 
L 2175 1550 
Q 2025 1500 1887 1462 
Q 1750 1425 1425 1375 
Q 1050 1325 937 1200 
Q 825 1075 825 900 
Q 825 750 937 637 
Q 1050 525 1275 525 
Q 1500 525 1762 650 
Q 2025 775 2175 1050 
z
" id="SimHei-61" transform="scale(0.015625)"/>
       <path d="M 1675 2250 
Q 1675 1425 1362 775 
Q 1050 125 425 -475 
L 150 -200 
Q 725 325 1012 912 
Q 1300 1500 1300 2250 
Q 1300 3000 1012 3587 
Q 725 4175 150 4725 
L 425 5000 
Q 1050 4375 1362 3725 
Q 1675 3075 1675 2250 
z
" id="SimHei-29" transform="scale(0.015625)"/>
      </defs>
      <use xlink:href="#SimHei-70"/>
      <use x="50" xlink:href="#SimHei-72"/>
      <use x="100" xlink:href="#SimHei-65"/>
      <use x="150" xlink:href="#SimHei-64"/>
      <use x="200" xlink:href="#SimHei-69"/>
      <use x="250" xlink:href="#SimHei-63"/>
      <use x="300" xlink:href="#SimHei-74"/>
      <use x="350" xlink:href="#SimHei-20"/>
      <use x="400" xlink:href="#SimHei-66"/>
      <use x="450" xlink:href="#SimHei-75"/>
      <use x="500" xlink:href="#SimHei-6e"/>
      <use x="550" xlink:href="#SimHei-63"/>
      <use x="600" xlink:href="#SimHei-28"/>
      <use x="650" xlink:href="#SimHei-61"/>
      <use x="700" xlink:href="#SimHei-6e"/>
      <use x="750" xlink:href="#SimHei-61"/>
      <use x="800" xlink:href="#SimHei-6c"/>
      <use x="850" xlink:href="#SimHei-79"/>
      <use x="900" xlink:href="#SimHei-74"/>
      <use x="950" xlink:href="#SimHei-69"/>
      <use x="1000" xlink:href="#SimHei-63"/>
      <use x="1050" xlink:href="#SimHei-29"/>
     </g>
    </g>
    <g id="line2d_21">
     <path d="M 66.6 225.1465 
L 86.6 225.1465 
" style="fill:none;stroke:#ff0000;stroke-linecap:square;"/>
    </g>
    <g id="line2d_22"/>
    <g id="text_17">
     <!-- predict func(gradient descent) -->
     <g transform="translate(94.6 228.6465)scale(0.1 -0.1)">
      <defs>
       <path d="M 2975 2500 
Q 2800 2550 2637 2562 
Q 2475 2575 2300 2525 
Q 2375 2450 2425 2337 
Q 2475 2225 2475 2000 
Q 2475 1575 2187 1300 
Q 1900 1025 1475 1025 
Q 1375 1025 1212 1062 
Q 1050 1100 950 1150 
Q 875 1100 850 1050 
Q 825 1000 825 925 
Q 825 800 1000 737 
Q 1175 675 1625 675 
Q 2350 675 2612 475 
Q 2875 275 2875 -25 
Q 2875 -425 2487 -612 
Q 2100 -800 1575 -800 
Q 900 -800 575 -625 
Q 250 -450 250 -150 
Q 250 0 375 150 
Q 500 300 700 400 
Q 550 475 462 587 
Q 375 700 375 875 
Q 375 1025 487 1137 
Q 600 1250 750 1325 
Q 625 1450 550 1625 
Q 475 1800 475 2000 
Q 475 2425 762 2700 
Q 1050 2975 1475 2975 
Q 1700 2975 1862 2912 
Q 2025 2850 2150 2725 
Q 2350 2875 2550 2937 
Q 2750 3000 2975 2975 
L 2975 2500 
z
M 1975 2000 
Q 1975 2250 1850 2400 
Q 1725 2550 1475 2550 
Q 1225 2550 1100 2400 
Q 975 2250 975 2000 
Q 975 1750 1100 1600 
Q 1225 1450 1475 1450 
Q 1725 1450 1850 1600 
Q 1975 1750 1975 2000 
z
M 2400 -75 
Q 2400 25 2287 125 
Q 2175 225 1725 225 
Q 1625 225 1450 237 
Q 1275 250 1050 275 
Q 850 200 775 100 
Q 700 0 700 -100 
Q 700 -250 900 -350 
Q 1100 -450 1600 -450 
Q 2025 -450 2212 -337 
Q 2400 -225 2400 -75 
z
" id="SimHei-67" transform="scale(0.015625)"/>
       <path d="M 2750 900 
Q 2750 500 2437 287 
Q 2125 75 1650 75 
Q 1050 75 725 312 
Q 400 550 400 1000 
L 900 1000 
Q 900 700 1112 600 
Q 1325 500 1625 500 
Q 1925 500 2075 612 
Q 2225 725 2225 900 
Q 2225 1025 2100 1150 
Q 1975 1275 1475 1350 
Q 900 1425 687 1637 
Q 475 1850 475 2200 
Q 475 2500 762 2737 
Q 1050 2975 1600 2975 
Q 2100 2975 2387 2750 
Q 2675 2525 2675 2150 
L 2175 2150 
Q 2175 2375 2012 2462 
Q 1850 2550 1600 2550 
Q 1275 2550 1137 2437 
Q 1000 2325 1000 2175 
Q 1000 2000 1125 1900 
Q 1250 1800 1650 1750 
Q 2300 1650 2525 1437 
Q 2750 1225 2750 900 
z
" id="SimHei-73" transform="scale(0.015625)"/>
      </defs>
      <use xlink:href="#SimHei-70"/>
      <use x="50" xlink:href="#SimHei-72"/>
      <use x="100" xlink:href="#SimHei-65"/>
      <use x="150" xlink:href="#SimHei-64"/>
      <use x="200" xlink:href="#SimHei-69"/>
      <use x="250" xlink:href="#SimHei-63"/>
      <use x="300" xlink:href="#SimHei-74"/>
      <use x="350" xlink:href="#SimHei-20"/>
      <use x="400" xlink:href="#SimHei-66"/>
      <use x="450" xlink:href="#SimHei-75"/>
      <use x="500" xlink:href="#SimHei-6e"/>
      <use x="550" xlink:href="#SimHei-63"/>
      <use x="600" xlink:href="#SimHei-28"/>
      <use x="650" xlink:href="#SimHei-67"/>
      <use x="700" xlink:href="#SimHei-72"/>
      <use x="750" xlink:href="#SimHei-61"/>
      <use x="800" xlink:href="#SimHei-64"/>
      <use x="850" xlink:href="#SimHei-69"/>
      <use x="900" xlink:href="#SimHei-65"/>
      <use x="950" xlink:href="#SimHei-6e"/>
      <use x="1000" xlink:href="#SimHei-74"/>
      <use x="1050" xlink:href="#SimHei-20"/>
      <use x="1100" xlink:href="#SimHei-64"/>
      <use x="1150" xlink:href="#SimHei-65"/>
      <use x="1200" xlink:href="#SimHei-73"/>
      <use x="1250" xlink:href="#SimHei-63"/>
      <use x="1300" xlink:href="#SimHei-65"/>
      <use x="1350" xlink:href="#SimHei-6e"/>
      <use x="1400" xlink:href="#SimHei-74"/>
      <use x="1450" xlink:href="#SimHei-29"/>
     </g>
    </g>
    <g id="line2d_23">
     <path d="M 66.6 239.209 
L 86.6 239.209 
" style="fill:none;stroke:#008000;stroke-linecap:square;"/>
    </g>
    <g id="line2d_24"/>
    <g id="text_18">
     <!-- predict func(stochastic gradient descent) -->
     <g transform="translate(94.6 242.709)scale(0.1 -0.1)">
      <use xlink:href="#SimHei-70"/>
      <use x="50" xlink:href="#SimHei-72"/>
      <use x="100" xlink:href="#SimHei-65"/>
      <use x="150" xlink:href="#SimHei-64"/>
      <use x="200" xlink:href="#SimHei-69"/>
      <use x="250" xlink:href="#SimHei-63"/>
      <use x="300" xlink:href="#SimHei-74"/>
      <use x="350" xlink:href="#SimHei-20"/>
      <use x="400" xlink:href="#SimHei-66"/>
      <use x="450" xlink:href="#SimHei-75"/>
      <use x="500" xlink:href="#SimHei-6e"/>
      <use x="550" xlink:href="#SimHei-63"/>
      <use x="600" xlink:href="#SimHei-28"/>
      <use x="650" xlink:href="#SimHei-73"/>
      <use x="700" xlink:href="#SimHei-74"/>
      <use x="750" xlink:href="#SimHei-6f"/>
      <use x="800" xlink:href="#SimHei-63"/>
      <use x="850" xlink:href="#SimHei-68"/>
      <use x="900" xlink:href="#SimHei-61"/>
      <use x="950" xlink:href="#SimHei-73"/>
      <use x="1000" xlink:href="#SimHei-74"/>
      <use x="1050" xlink:href="#SimHei-69"/>
      <use x="1100" xlink:href="#SimHei-63"/>
      <use x="1150" xlink:href="#SimHei-20"/>
      <use x="1200" xlink:href="#SimHei-67"/>
      <use x="1250" xlink:href="#SimHei-72"/>
      <use x="1300" xlink:href="#SimHei-61"/>
      <use x="1350" xlink:href="#SimHei-64"/>
      <use x="1400" xlink:href="#SimHei-69"/>
      <use x="1450" xlink:href="#SimHei-65"/>
      <use x="1500" xlink:href="#SimHei-6e"/>
      <use x="1550" xlink:href="#SimHei-74"/>
      <use x="1600" xlink:href="#SimHei-20"/>
      <use x="1650" xlink:href="#SimHei-64"/>
      <use x="1700" xlink:href="#SimHei-65"/>
      <use x="1750" xlink:href="#SimHei-73"/>
      <use x="1800" xlink:href="#SimHei-63"/>
      <use x="1850" xlink:href="#SimHei-65"/>
      <use x="1900" xlink:href="#SimHei-6e"/>
      <use x="1950" xlink:href="#SimHei-74"/>
      <use x="2000" xlink:href="#SimHei-29"/>
     </g>
    </g>
    <g id="line2d_25">
     <path d="M 66.6 253.2715 
L 86.6 253.2715 
" style="fill:none;stroke:#800080;stroke-linecap:square;"/>
    </g>
    <g id="line2d_26"/>
    <g id="text_19">
     <!-- predict func(els gradient descent) -->
     <g transform="translate(94.6 256.7715)scale(0.1 -0.1)">
      <use xlink:href="#SimHei-70"/>
      <use x="50" xlink:href="#SimHei-72"/>
      <use x="100" xlink:href="#SimHei-65"/>
      <use x="150" xlink:href="#SimHei-64"/>
      <use x="200" xlink:href="#SimHei-69"/>
      <use x="250" xlink:href="#SimHei-63"/>
      <use x="300" xlink:href="#SimHei-74"/>
      <use x="350" xlink:href="#SimHei-20"/>
      <use x="400" xlink:href="#SimHei-66"/>
      <use x="450" xlink:href="#SimHei-75"/>
      <use x="500" xlink:href="#SimHei-6e"/>
      <use x="550" xlink:href="#SimHei-63"/>
      <use x="600" xlink:href="#SimHei-28"/>
      <use x="650" xlink:href="#SimHei-65"/>
      <use x="700" xlink:href="#SimHei-6c"/>
      <use x="750" xlink:href="#SimHei-73"/>
      <use x="800" xlink:href="#SimHei-20"/>
      <use x="850" xlink:href="#SimHei-67"/>
      <use x="900" xlink:href="#SimHei-72"/>
      <use x="950" xlink:href="#SimHei-61"/>
      <use x="1000" xlink:href="#SimHei-64"/>
      <use x="1050" xlink:href="#SimHei-69"/>
      <use x="1100" xlink:href="#SimHei-65"/>
      <use x="1150" xlink:href="#SimHei-6e"/>
      <use x="1200" xlink:href="#SimHei-74"/>
      <use x="1250" xlink:href="#SimHei-20"/>
      <use x="1300" xlink:href="#SimHei-64"/>
      <use x="1350" xlink:href="#SimHei-65"/>
      <use x="1400" xlink:href="#SimHei-73"/>
      <use x="1450" xlink:href="#SimHei-63"/>
      <use x="1500" xlink:href="#SimHei-65"/>
      <use x="1550" xlink:href="#SimHei-6e"/>
      <use x="1600" xlink:href="#SimHei-74"/>
      <use x="1650" xlink:href="#SimHei-29"/>
     </g>
    </g>
    <g id="line2d_27">
     <path d="M 66.6 267.334 
L 86.6 267.334 
" style="fill:none;stroke:#ffff00;stroke-linecap:square;"/>
    </g>
    <g id="line2d_28"/>
    <g id="text_20">
     <!-- predict func(conjugate gradient descent) -->
     <g transform="translate(94.6 270.834)scale(0.1 -0.1)">
      <defs>
       <path d="M 2300 3725 
L 1800 3725 
L 1800 4375 
L 2300 4375 
L 2300 3725 
z
M 2300 150 
Q 2300 -300 2025 -550 
Q 1750 -800 1300 -800 
Q 1025 -800 862 -762 
Q 700 -725 575 -675 
L 575 -175 
Q 700 -250 875 -300 
Q 1050 -350 1325 -350 
Q 1600 -350 1700 -212 
Q 1800 -75 1800 125 
L 1800 2925 
L 2300 2925 
L 2300 150 
z
" id="SimHei-6a" transform="scale(0.015625)"/>
      </defs>
      <use xlink:href="#SimHei-70"/>
      <use x="50" xlink:href="#SimHei-72"/>
      <use x="100" xlink:href="#SimHei-65"/>
      <use x="150" xlink:href="#SimHei-64"/>
      <use x="200" xlink:href="#SimHei-69"/>
      <use x="250" xlink:href="#SimHei-63"/>
      <use x="300" xlink:href="#SimHei-74"/>
      <use x="350" xlink:href="#SimHei-20"/>
      <use x="400" xlink:href="#SimHei-66"/>
      <use x="450" xlink:href="#SimHei-75"/>
      <use x="500" xlink:href="#SimHei-6e"/>
      <use x="550" xlink:href="#SimHei-63"/>
      <use x="600" xlink:href="#SimHei-28"/>
      <use x="650" xlink:href="#SimHei-63"/>
      <use x="700" xlink:href="#SimHei-6f"/>
      <use x="750" xlink:href="#SimHei-6e"/>
      <use x="800" xlink:href="#SimHei-6a"/>
      <use x="850" xlink:href="#SimHei-75"/>
      <use x="900" xlink:href="#SimHei-67"/>
      <use x="950" xlink:href="#SimHei-61"/>
      <use x="1000" xlink:href="#SimHei-74"/>
      <use x="1050" xlink:href="#SimHei-65"/>
      <use x="1100" xlink:href="#SimHei-20"/>
      <use x="1150" xlink:href="#SimHei-67"/>
      <use x="1200" xlink:href="#SimHei-72"/>
      <use x="1250" xlink:href="#SimHei-61"/>
      <use x="1300" xlink:href="#SimHei-64"/>
      <use x="1350" xlink:href="#SimHei-69"/>
      <use x="1400" xlink:href="#SimHei-65"/>
      <use x="1450" xlink:href="#SimHei-6e"/>
      <use x="1500" xlink:href="#SimHei-74"/>
      <use x="1550" xlink:href="#SimHei-20"/>
      <use x="1600" xlink:href="#SimHei-64"/>
      <use x="1650" xlink:href="#SimHei-65"/>
      <use x="1700" xlink:href="#SimHei-73"/>
      <use x="1750" xlink:href="#SimHei-63"/>
      <use x="1800" xlink:href="#SimHei-65"/>
      <use x="1850" xlink:href="#SimHei-6e"/>
      <use x="1900" xlink:href="#SimHei-74"/>
      <use x="1950" xlink:href="#SimHei-29"/>
     </g>
    </g>
    <g id="line2d_29">
     <path d="M 66.6 280.584 
L 86.6 280.584 
" style="fill:none;stroke:#000000;stroke-dasharray:3.7,1.6;stroke-dashoffset:0;"/>
    </g>
    <g id="line2d_30"/>
    <g id="text_21">
     <!-- real func -->
     <g transform="translate(94.6 284.084)scale(0.1 -0.1)">
      <use xlink:href="#SimHei-72"/>
      <use x="50" xlink:href="#SimHei-65"/>
      <use x="100" xlink:href="#SimHei-61"/>
      <use x="150" xlink:href="#SimHei-6c"/>
      <use x="200" xlink:href="#SimHei-20"/>
      <use x="250" xlink:href="#SimHei-66"/>
      <use x="300" xlink:href="#SimHei-75"/>
      <use x="350" xlink:href="#SimHei-6e"/>
      <use x="400" xlink:href="#SimHei-63"/>
     </g>
    </g>
    <g id="PathCollection_2">
     <g>
      <use style="fill:#008000;stroke:#008000;" x="76.6" xlink:href="#me2590f343d" y="294.709"/>
     </g>
    </g>
    <g id="text_22">
     <!-- train data -->
     <g transform="translate(94.6 297.334)scale(0.1 -0.1)">
      <use xlink:href="#SimHei-74"/>
      <use x="50" xlink:href="#SimHei-72"/>
      <use x="100" xlink:href="#SimHei-61"/>
      <use x="150" xlink:href="#SimHei-69"/>
      <use x="200" xlink:href="#SimHei-6e"/>
      <use x="250" xlink:href="#SimHei-20"/>
      <use x="300" xlink:href="#SimHei-64"/>
      <use x="350" xlink:href="#SimHei-61"/>
      <use x="400" xlink:href="#SimHei-74"/>
      <use x="450" xlink:href="#SimHei-61"/>
     </g>
    </g>
   </g>
  </g>
 </g>
 <defs>
  <clipPath id="p7cbe709402">
   <rect height="266.112" width="357.12" x="57.6" y="41.472"/>
  </clipPath>
 </defs>
</svg>
