<?xml version="1.0" encoding="utf-8" standalone="no"?>
<!DOCTYPE svg PUBLIC "-//W3C//DTD SVG 1.1//EN"
  "http://www.w3.org/Graphics/SVG/1.1/DTD/svg11.dtd">
<svg height="345.6pt" version="1.1" viewBox="0 0 460.8 345.6" width="460.8pt" xmlns="http://www.w3.org/2000/svg" xmlns:xlink="http://www.w3.org/1999/xlink">
 <metadata>
  <rdf:RDF xmlns:cc="http://creativecommons.org/ns#" xmlns:dc="http://purl.org/dc/elements/1.1/" xmlns:rdf="http://www.w3.org/1999/02/22-rdf-syntax-ns#">
   <cc:Work>
    <dc:type rdf:resource="http://purl.org/dc/dcmitype/StillImage"/>
    <dc:date>2021-10-07T21:07:21.802550</dc:date>
    <dc:format>image/svg+xml</dc:format>
    <dc:creator>
     <cc:Agent>
      <dc:title>Matplotlib v3.4.2, https://matplotlib.org/</dc:title>
     </cc:Agent>
    </dc:creator>
   </cc:Work>
  </rdf:RDF>
 </metadata>
 <defs>
  <style type="text/css">*{stroke-linecap:butt;stroke-linejoin:round;}</style>
 </defs>
 <g id="figure_1">
  <g id="patch_1">
   <path d="M 0 345.6 
L 460.8 345.6 
L 460.8 0 
L 0 0 
z
" style="fill:#ffffff;"/>
  </g>
  <g id="axes_1">
   <g id="patch_2">
    <path d="M 57.6 307.584 
L 414.72 307.584 
L 414.72 41.472 
L 57.6 41.472 
z
" style="fill:#ffffff;"/>
   </g>
   <g id="PathCollection_1">
    <defs>
     <path d="M 0 1.581139 
C 0.419323 1.581139 0.821528 1.41454 1.118034 1.118034 
C 1.41454 0.821528 1.581139 0.419323 1.581139 0 
C 1.581139 -0.419323 1.41454 -0.821528 1.118034 -1.118034 
C 0.821528 -1.41454 0.419323 -1.581139 0 -1.581139 
C -0.419323 -1.581139 -0.821528 -1.41454 -1.118034 -1.118034 
C -1.41454 -0.821528 -1.581139 -0.419323 -1.581139 0 
C -1.581139 0.419323 -1.41454 0.821528 -1.118034 1.118034 
C -0.821528 1.41454 -0.419323 1.581139 0 1.581139 
z
" id="ma73dfd4db8" style="stroke:#008000;"/>
    </defs>
    <g clip-path="url(#pc82357608a)">
     <use style="fill:#008000;stroke:#008000;" x="73.832727" xlink:href="#ma73dfd4db8" y="131.665898"/>
     <use style="fill:#008000;stroke:#008000;" x="109.905455" xlink:href="#ma73dfd4db8" y="80.463287"/>
     <use style="fill:#008000;stroke:#008000;" x="145.978182" xlink:href="#ma73dfd4db8" y="83.497159"/>
     <use style="fill:#008000;stroke:#008000;" x="182.050909" xlink:href="#ma73dfd4db8" y="68.723039"/>
     <use style="fill:#008000;stroke:#008000;" x="218.123636" xlink:href="#ma73dfd4db8" y="108.939482"/>
     <use style="fill:#008000;stroke:#008000;" x="254.196364" xlink:href="#ma73dfd4db8" y="199.15886"/>
     <use style="fill:#008000;stroke:#008000;" x="290.269091" xlink:href="#ma73dfd4db8" y="268.504837"/>
     <use style="fill:#008000;stroke:#008000;" x="326.341818" xlink:href="#ma73dfd4db8" y="293.030141"/>
     <use style="fill:#008000;stroke:#008000;" x="362.414545" xlink:href="#ma73dfd4db8" y="255.038826"/>
     <use style="fill:#008000;stroke:#008000;" x="398.487273" xlink:href="#ma73dfd4db8" y="134.000843"/>
    </g>
   </g>
   <g id="matplotlib.axis_1">
    <g id="xtick_1">
     <g id="line2d_1">
      <defs>
       <path d="M 0 0 
L 0 3.5 
" id="m549d8f2dec" style="stroke:#000000;stroke-width:0.8;"/>
      </defs>
      <g>
       <use style="stroke:#000000;stroke-width:0.8;" x="73.832727" xlink:href="#m549d8f2dec" y="307.584"/>
      </g>
     </g>
     <g id="text_1">
      <!-- 0.0 -->
      <g transform="translate(66.332727 321.459)scale(0.1 -0.1)">
       <defs>
        <path d="M 225 2537 
Q 250 3200 412 3587 
Q 575 3975 875 4225 
Q 1175 4475 1612 4475 
Q 2050 4475 2375 4112 
Q 2700 3750 2800 3200 
Q 2900 2650 2862 1937 
Q 2825 1225 2612 775 
Q 2400 325 1975 150 
Q 1550 -25 1125 187 
Q 700 400 525 750 
Q 350 1100 275 1487 
Q 200 1875 225 2537 
z
M 750 2687 
Q 675 2000 800 1462 
Q 925 925 1212 700 
Q 1500 475 1800 612 
Q 2100 750 2237 1162 
Q 2375 1575 2375 2062 
Q 2375 2550 2337 2950 
Q 2300 3350 2112 3675 
Q 1925 4000 1612 4012 
Q 1300 4025 1062 3700 
Q 825 3375 750 2687 
z
" id="SimHei-30" transform="scale(0.015625)"/>
        <path d="M 1075 125 
L 500 125 
L 500 675 
L 1075 675 
L 1075 125 
z
" id="SimHei-2e" transform="scale(0.015625)"/>
       </defs>
       <use xlink:href="#SimHei-30"/>
       <use x="50" xlink:href="#SimHei-2e"/>
       <use x="100" xlink:href="#SimHei-30"/>
      </g>
     </g>
    </g>
    <g id="xtick_2">
     <g id="line2d_2">
      <g>
       <use style="stroke:#000000;stroke-width:0.8;" x="138.763636" xlink:href="#m549d8f2dec" y="307.584"/>
      </g>
     </g>
     <g id="text_2">
      <!-- 0.2 -->
      <g transform="translate(131.263636 321.459)scale(0.1 -0.1)">
       <defs>
        <path d="M 300 250 
Q 325 625 650 925 
Q 975 1225 1475 1862 
Q 1975 2500 2125 2850 
Q 2275 3200 2237 3450 
Q 2200 3700 2000 3862 
Q 1800 4025 1537 4000 
Q 1275 3975 1037 3800 
Q 800 3625 675 3275 
L 200 3350 
Q 400 3925 712 4187 
Q 1025 4450 1450 4475 
Q 1700 4500 1900 4462 
Q 2100 4425 2312 4287 
Q 2525 4150 2662 3875 
Q 2800 3600 2762 3212 
Q 2725 2825 2375 2287 
Q 2025 1750 1025 600 
L 2825 600 
L 2825 150 
L 300 150 
L 300 250 
z
" id="SimHei-32" transform="scale(0.015625)"/>
       </defs>
       <use xlink:href="#SimHei-30"/>
       <use x="50" xlink:href="#SimHei-2e"/>
       <use x="100" xlink:href="#SimHei-32"/>
      </g>
     </g>
    </g>
    <g id="xtick_3">
     <g id="line2d_3">
      <g>
       <use style="stroke:#000000;stroke-width:0.8;" x="203.694545" xlink:href="#m549d8f2dec" y="307.584"/>
      </g>
     </g>
     <g id="text_3">
      <!-- 0.4 -->
      <g transform="translate(196.194545 321.459)scale(0.1 -0.1)">
       <defs>
        <path d="M 2000 1100 
L 75 1100 
L 75 1525 
L 2100 4450 
L 2475 4450 
L 2475 1525 
L 3075 1525 
L 3075 1100 
L 2475 1100 
L 2475 150 
L 2000 150 
L 2000 1100 
z
M 2000 1525 
L 2000 3500 
L 600 1525 
L 2000 1525 
z
" id="SimHei-34" transform="scale(0.015625)"/>
       </defs>
       <use xlink:href="#SimHei-30"/>
       <use x="50" xlink:href="#SimHei-2e"/>
       <use x="100" xlink:href="#SimHei-34"/>
      </g>
     </g>
    </g>
    <g id="xtick_4">
     <g id="line2d_4">
      <g>
       <use style="stroke:#000000;stroke-width:0.8;" x="268.625455" xlink:href="#m549d8f2dec" y="307.584"/>
      </g>
     </g>
     <g id="text_4">
      <!-- 0.6 -->
      <g transform="translate(261.125455 321.459)scale(0.1 -0.1)">
       <defs>
        <path d="M 250 1612 
Q 275 1975 387 2225 
Q 500 2475 725 2850 
L 1750 4450 
L 2325 4450 
L 1275 2800 
Q 1950 2975 2350 2750 
Q 2750 2525 2887 2237 
Q 3025 1950 3037 1612 
Q 3050 1275 2937 950 
Q 2825 625 2537 362 
Q 2250 100 1737 75 
Q 1225 50 862 262 
Q 500 475 362 862 
Q 225 1250 250 1612 
z
M 1025 787 
Q 1250 550 1625 525 
Q 2000 500 2250 775 
Q 2500 1050 2500 1575 
Q 2500 2100 2187 2300 
Q 1875 2500 1487 2450 
Q 1100 2400 925 2075 
Q 750 1750 775 1387 
Q 800 1025 1025 787 
z
" id="SimHei-36" transform="scale(0.015625)"/>
       </defs>
       <use xlink:href="#SimHei-30"/>
       <use x="50" xlink:href="#SimHei-2e"/>
       <use x="100" xlink:href="#SimHei-36"/>
      </g>
     </g>
    </g>
    <g id="xtick_5">
     <g id="line2d_5">
      <g>
       <use style="stroke:#000000;stroke-width:0.8;" x="333.556364" xlink:href="#m549d8f2dec" y="307.584"/>
      </g>
     </g>
     <g id="text_5">
      <!-- 0.8 -->
      <g transform="translate(326.056364 321.459)scale(0.1 -0.1)">
       <defs>
        <path d="M 175 1375 
Q 175 1675 325 1962 
Q 475 2250 825 2425 
Q 525 2600 425 2812 
Q 325 3025 312 3300 
Q 300 3575 387 3775 
Q 475 3975 650 4150 
Q 825 4325 1037 4387 
Q 1250 4450 1500 4450 
Q 1750 4450 1950 4400 
Q 2150 4350 2375 4187 
Q 2600 4025 2700 3725 
Q 2800 3425 2687 3025 
Q 2575 2625 2100 2400 
Q 2525 2275 2700 2012 
Q 2875 1750 2875 1375 
Q 2875 1000 2762 775 
Q 2650 550 2512 400 
Q 2375 250 2137 162 
Q 1900 75 1537 75 
Q 1175 75 912 162 
Q 650 250 475 425 
Q 300 600 237 837 
Q 175 1075 175 1375 
z
M 687 1400 
Q 675 1100 787 875 
Q 900 650 1200 587 
Q 1500 525 1825 600 
Q 2150 675 2275 950 
Q 2400 1225 2362 1500 
Q 2325 1775 2050 1962 
Q 1775 2150 1450 2125 
Q 1125 2100 912 1900 
Q 700 1700 687 1400 
z
M 775 3350 
Q 775 3100 950 2875 
Q 1125 2650 1500 2650 
Q 1875 2650 2062 2875 
Q 2250 3100 2237 3412 
Q 2225 3725 2012 3875 
Q 1800 4025 1437 4000 
Q 1075 3975 925 3787 
Q 775 3600 775 3350 
z
" id="SimHei-38" transform="scale(0.015625)"/>
       </defs>
       <use xlink:href="#SimHei-30"/>
       <use x="50" xlink:href="#SimHei-2e"/>
       <use x="100" xlink:href="#SimHei-38"/>
      </g>
     </g>
    </g>
    <g id="xtick_6">
     <g id="line2d_6">
      <g>
       <use style="stroke:#000000;stroke-width:0.8;" x="398.487273" xlink:href="#m549d8f2dec" y="307.584"/>
      </g>
     </g>
     <g id="text_6">
      <!-- 1.0 -->
      <g transform="translate(390.987273 321.459)scale(0.1 -0.1)">
       <defs>
        <path d="M 1400 3600 
Q 1075 3275 575 2975 
L 575 3450 
Q 1200 3875 1600 4450 
L 1900 4450 
L 1900 150 
L 1400 150 
L 1400 3600 
z
" id="SimHei-31" transform="scale(0.015625)"/>
       </defs>
       <use xlink:href="#SimHei-31"/>
       <use x="50" xlink:href="#SimHei-2e"/>
       <use x="100" xlink:href="#SimHei-30"/>
      </g>
     </g>
    </g>
    <g id="text_7">
     <!-- x -->
     <g transform="translate(233.66 333.584)scale(0.1 -0.1)">
      <defs>
       <path d="M 2875 125 
L 2275 125 
L 1550 1200 
L 825 125 
L 225 125 
L 1250 1550 
L 300 2925 
L 900 2925 
L 1550 1875 
L 2200 2925 
L 2800 2925 
L 1850 1550 
L 2875 125 
z
" id="SimHei-78" transform="scale(0.015625)"/>
      </defs>
      <use xlink:href="#SimHei-78"/>
     </g>
    </g>
   </g>
   <g id="matplotlib.axis_2">
    <g id="ytick_1">
     <g id="line2d_7">
      <defs>
       <path d="M 0 0 
L -3.5 0 
" id="mc1c913b4d5" style="stroke:#000000;stroke-width:0.8;"/>
      </defs>
      <g>
       <use style="stroke:#000000;stroke-width:0.8;" x="57.6" xlink:href="#mc1c913b4d5" y="282.052212"/>
      </g>
     </g>
     <g id="text_8">
      <!-- -1.0 -->
      <g transform="translate(30.6 285.489712)scale(0.1 -0.1)">
       <defs>
        <path d="M 2975 2125 
L 125 2125 
L 125 2525 
L 2975 2525 
L 2975 2125 
z
" id="SimHei-2d" transform="scale(0.015625)"/>
       </defs>
       <use xlink:href="#SimHei-2d"/>
       <use x="50" xlink:href="#SimHei-31"/>
       <use x="100" xlink:href="#SimHei-2e"/>
       <use x="150" xlink:href="#SimHei-30"/>
      </g>
     </g>
    </g>
    <g id="ytick_2">
     <g id="line2d_8">
      <g>
       <use style="stroke:#000000;stroke-width:0.8;" x="57.6" xlink:href="#mc1c913b4d5" y="224.930269"/>
      </g>
     </g>
     <g id="text_9">
      <!-- -0.5 -->
      <g transform="translate(30.6 228.367769)scale(0.1 -0.1)">
       <defs>
        <path d="M 550 1325 
Q 725 650 1150 575 
Q 1575 500 1837 662 
Q 2100 825 2212 1087 
Q 2325 1350 2312 1675 
Q 2300 2000 2137 2225 
Q 1975 2450 1725 2525 
Q 1475 2600 1162 2525 
Q 850 2450 650 2175 
L 225 2225 
Q 275 2375 700 4375 
L 2675 4375 
L 2675 3925 
L 1075 3925 
Q 950 3250 825 2850 
Q 1200 3025 1525 3012 
Q 1850 3000 2150 2862 
Q 2450 2725 2587 2487 
Q 2725 2250 2787 2012 
Q 2850 1775 2837 1500 
Q 2825 1225 2725 937 
Q 2625 650 2425 462 
Q 2225 275 1937 162 
Q 1650 50 1275 75 
Q 900 100 562 350 
Q 225 600 100 1200 
L 550 1325 
z
" id="SimHei-35" transform="scale(0.015625)"/>
       </defs>
       <use xlink:href="#SimHei-2d"/>
       <use x="50" xlink:href="#SimHei-30"/>
       <use x="100" xlink:href="#SimHei-2e"/>
       <use x="150" xlink:href="#SimHei-35"/>
      </g>
     </g>
    </g>
    <g id="ytick_3">
     <g id="line2d_9">
      <g>
       <use style="stroke:#000000;stroke-width:0.8;" x="57.6" xlink:href="#mc1c913b4d5" y="167.808326"/>
      </g>
     </g>
     <g id="text_10">
      <!-- 0.0 -->
      <g transform="translate(35.6 171.245826)scale(0.1 -0.1)">
       <use xlink:href="#SimHei-30"/>
       <use x="50" xlink:href="#SimHei-2e"/>
       <use x="100" xlink:href="#SimHei-30"/>
      </g>
     </g>
    </g>
    <g id="ytick_4">
     <g id="line2d_10">
      <g>
       <use style="stroke:#000000;stroke-width:0.8;" x="57.6" xlink:href="#mc1c913b4d5" y="110.686384"/>
      </g>
     </g>
     <g id="text_11">
      <!-- 0.5 -->
      <g transform="translate(35.6 114.123884)scale(0.1 -0.1)">
       <use xlink:href="#SimHei-30"/>
       <use x="50" xlink:href="#SimHei-2e"/>
       <use x="100" xlink:href="#SimHei-35"/>
      </g>
     </g>
    </g>
    <g id="ytick_5">
     <g id="line2d_11">
      <g>
       <use style="stroke:#000000;stroke-width:0.8;" x="57.6" xlink:href="#mc1c913b4d5" y="53.564441"/>
      </g>
     </g>
     <g id="text_12">
      <!-- 1.0 -->
      <g transform="translate(35.6 57.001941)scale(0.1 -0.1)">
       <use xlink:href="#SimHei-31"/>
       <use x="50" xlink:href="#SimHei-2e"/>
       <use x="100" xlink:href="#SimHei-30"/>
      </g>
     </g>
    </g>
    <g id="text_13">
     <!-- y -->
     <g transform="translate(25.35 177.028)rotate(-90)scale(0.1 -0.1)">
      <defs>
       <path d="M 2900 2925 
L 1750 -100 
Q 1650 -450 1450 -625 
Q 1250 -800 950 -800 
Q 825 -800 712 -787 
Q 600 -775 500 -725 
L 500 -225 
Q 600 -275 700 -300 
Q 800 -325 875 -325 
Q 1075 -325 1150 -262 
Q 1225 -200 1300 25 
L 200 2925 
L 750 2925 
L 1550 725 
L 1575 725 
L 2350 2925 
L 2900 2925 
z
" id="SimHei-79" transform="scale(0.015625)"/>
      </defs>
      <use xlink:href="#SimHei-79"/>
     </g>
    </g>
   </g>
   <g id="line2d_12">
    <path clip-path="url(#pc82357608a)" d="M 73.832727 128.497031 
L 77.095587 126.701971 
L 80.358447 124.476827 
L 83.621307 121.883152 
L 86.884166 118.97962 
L 90.147026 115.822075 
L 95.041316 110.724815 
L 101.567035 103.51191 
L 114.618474 88.960512 
L 119.512764 83.849751 
L 124.407053 79.097228 
L 127.669913 76.173953 
L 130.932773 73.475708 
L 134.195633 71.02487 
L 137.458492 68.841687 
L 140.721352 66.944327 
L 143.984212 65.348924 
L 147.247072 64.069629 
L 150.509931 63.118658 
L 153.772791 62.506337 
L 157.035651 62.241154 
L 160.298511 62.329808 
L 163.56137 62.777252 
L 166.82423 63.586746 
L 170.08709 64.759904 
L 173.34995 66.296743 
L 176.61281 68.195729 
L 179.875669 70.453827 
L 183.138529 73.066549 
L 186.401389 76.028003 
L 189.664249 79.330941 
L 192.927108 82.966805 
L 196.189968 86.925779 
L 199.452828 91.196836 
L 202.715688 95.767782 
L 205.978547 100.625313 
L 210.872837 108.417234 
L 215.767127 116.768637 
L 220.661416 125.62198 
L 225.555706 134.915298 
L 232.081425 147.876148 
L 238.607145 161.334857 
L 248.395724 182.06763 
L 261.447163 209.737669 
L 267.972883 223.14112 
L 274.498602 235.987216 
L 279.392892 245.132941 
L 284.287181 253.76362 
L 289.181471 261.793173 
L 292.444331 266.77005 
L 295.70719 271.416751 
L 298.97005 275.708494 
L 302.23291 279.620806 
L 305.49577 283.129571 
L 308.75863 286.211081 
L 312.021489 288.842082 
L 315.284349 290.999822 
L 318.547209 292.662101 
L 320.178639 293.300667 
L 321.810069 293.807317 
L 323.441498 294.179451 
L 325.072928 294.414516 
L 326.704358 294.510001 
L 328.335788 294.463441 
L 329.967218 294.272423 
L 331.598648 293.934579 
L 333.230078 293.447595 
L 334.861508 292.809208 
L 336.492937 292.01721 
L 338.124367 291.069448 
L 339.755797 289.963827 
L 341.387227 288.698309 
L 343.018657 287.270917 
L 344.650087 285.679735 
L 346.281517 283.922912 
L 349.544376 279.905256 
L 352.807236 275.204449 
L 356.070096 269.808099 
L 359.332956 263.704967 
L 362.595815 256.885018 
L 365.858675 249.339469 
L 369.121535 241.060834 
L 372.384395 232.042977 
L 375.647254 222.281157 
L 378.910114 211.772079 
L 382.172974 200.513938 
L 385.435834 188.506473 
L 388.698693 175.75101 
L 391.961553 162.250513 
L 395.224413 148.009632 
L 398.487273 133.034751 
L 398.487273 133.034751 
" style="fill:none;stroke:#0000ff;stroke-linecap:square;"/>
   </g>
   <g id="line2d_13">
    <path clip-path="url(#pc82357608a)" d="M 73.832727 132.166081 
L 78.727017 123.8719 
L 83.621307 116.09393 
L 88.515596 108.843742 
L 93.409886 102.132395 
L 96.672746 97.962714 
L 99.935605 94.04012 
L 103.198465 90.367409 
L 106.461325 86.947221 
L 109.724185 83.782032 
L 112.987044 80.874142 
L 116.249904 78.225668 
L 119.512764 75.838528 
L 122.775624 73.714436 
L 126.038483 71.854887 
L 129.301343 70.26115 
L 132.564203 68.934255 
L 135.827063 67.874982 
L 139.089922 67.083855 
L 142.352782 66.561126 
L 145.615642 66.306766 
L 148.878502 66.320459 
L 152.141361 66.601584 
L 155.404221 67.149209 
L 158.667081 67.962081 
L 161.929941 69.038614 
L 165.1928 70.376878 
L 168.45566 71.974589 
L 171.71852 73.829099 
L 174.98138 75.937385 
L 178.244239 78.296038 
L 181.507099 80.901256 
L 184.769959 83.748826 
L 188.032819 86.834121 
L 191.295678 90.152087 
L 194.558538 93.697229 
L 199.452828 99.427777 
L 204.347117 105.633996 
L 209.241407 112.291481 
L 214.135697 119.373345 
L 219.029986 126.850135 
L 223.924276 134.689756 
L 230.449995 145.646406 
L 236.975715 157.095545 
L 245.132864 171.947018 
L 256.552873 193.354714 
L 271.235742 220.926888 
L 277.761462 232.807238 
L 284.287181 244.229248 
L 289.181471 252.389386 
L 294.075761 260.114047 
L 298.97005 267.320597 
L 302.23291 271.794535 
L 305.49577 275.973161 
L 308.75863 279.829023 
L 312.021489 283.333855 
L 315.284349 286.458563 
L 318.547209 289.173212 
L 321.810069 291.447024 
L 325.072928 293.248359 
L 326.704358 293.961722 
L 328.335788 294.544707 
L 329.967218 294.993112 
L 331.598648 295.30268 
L 333.230078 295.469099 
L 334.861508 295.488 
L 336.492937 295.354957 
L 338.124367 295.065486 
L 339.755797 294.615049 
L 341.387227 293.999048 
L 343.018657 293.212827 
L 344.650087 292.251672 
L 346.281517 291.110811 
L 347.912947 289.785412 
L 349.544376 288.270586 
L 351.175806 286.561381 
L 352.807236 284.652788 
L 354.438666 282.539736 
L 356.070096 280.217095 
L 357.701526 277.679672 
L 359.332956 274.922214 
L 362.595815 268.725874 
L 365.858675 261.584814 
L 369.121535 253.454769 
L 372.384395 244.290467 
L 375.647254 234.045611 
L 378.910114 222.672873 
L 382.172974 210.123882 
L 385.435834 196.349213 
L 388.698693 181.298378 
L 391.961553 164.919814 
L 395.224413 147.160873 
L 398.487273 127.967811 
L 398.487273 127.967811 
" style="fill:none;stroke:#ff0000;stroke-linecap:square;"/>
   </g>
   <g id="line2d_14">
    <path clip-path="url(#pc82357608a)" d="M 73.832727 167.808326 
L 85.252736 142.763602 
L 91.778456 128.922986 
L 96.672746 118.937298 
L 101.567035 109.389759 
L 106.461325 100.365969 
L 111.355614 91.946829 
L 114.618474 86.707503 
L 117.881334 81.79147 
L 121.144194 77.218325 
L 124.407053 73.006299 
L 127.669913 69.172181 
L 130.932773 65.731255 
L 134.195633 62.697239 
L 137.458492 60.082227 
L 140.721352 57.896642 
L 143.984212 56.149197 
L 147.247072 54.846859 
L 150.509931 53.994818 
L 152.141361 53.738791 
L 153.772791 53.596471 
L 155.404221 53.568 
L 157.035651 53.653406 
L 158.667081 53.852604 
L 160.298511 54.165396 
L 163.56137 55.1304 
L 166.82423 56.544572 
L 170.08709 58.402273 
L 173.34995 60.696099 
L 176.61281 63.416906 
L 179.875669 66.553847 
L 183.138529 70.094419 
L 186.401389 74.024507 
L 189.664249 78.328445 
L 192.927108 82.989075 
L 196.189968 87.987821 
L 199.452828 93.304754 
L 204.347117 101.830066 
L 209.241407 110.946902 
L 214.135697 120.573525 
L 220.661416 134.052291 
L 227.187136 148.068767 
L 240.238575 176.816748 
L 250.027154 198.102051 
L 256.552873 211.735767 
L 261.447163 221.513344 
L 266.341453 230.809432 
L 271.235742 239.540688 
L 274.498602 245.008843 
L 277.761462 250.169254 
L 281.024322 255.001351 
L 284.287181 259.48587 
L 287.550041 263.604936 
L 290.812901 267.342128 
L 294.075761 270.68255 
L 297.33862 273.612884 
L 300.60148 276.121451 
L 303.86434 278.19825 
L 307.1272 279.835002 
L 310.390059 281.025183 
L 313.652919 281.764048 
L 315.284349 281.963247 
L 316.915779 282.048653 
L 318.547209 282.020182 
L 320.178639 281.877862 
L 321.810069 281.621835 
L 325.072928 280.769794 
L 328.335788 279.467455 
L 331.598648 277.720011 
L 334.861508 275.534426 
L 338.124367 272.919414 
L 341.387227 269.885397 
L 344.650087 266.444472 
L 347.912947 262.610354 
L 351.175806 258.398328 
L 354.438666 253.825183 
L 357.701526 248.909149 
L 360.964386 243.669824 
L 365.858675 235.250684 
L 370.752965 226.226893 
L 375.647254 216.679355 
L 380.541544 206.693667 
L 387.067264 192.853051 
L 396.855843 171.41484 
L 398.487273 167.808326 
L 398.487273 167.808326 
" style="fill:none;stroke:#000000;stroke-dasharray:3.7,1.6;stroke-dashoffset:0;"/>
   </g>
   <g id="patch_3">
    <path d="M 57.6 307.584 
L 57.6 41.472 
" style="fill:none;stroke:#000000;stroke-linecap:square;stroke-linejoin:miter;stroke-width:0.8;"/>
   </g>
   <g id="patch_4">
    <path d="M 414.72 307.584 
L 414.72 41.472 
" style="fill:none;stroke:#000000;stroke-linecap:square;stroke-linejoin:miter;stroke-width:0.8;"/>
   </g>
   <g id="patch_5">
    <path d="M 57.6 307.584 
L 414.72 307.584 
" style="fill:none;stroke:#000000;stroke-linecap:square;stroke-linejoin:miter;stroke-width:0.8;"/>
   </g>
   <g id="patch_6">
    <path d="M 57.6 41.472 
L 414.72 41.472 
" style="fill:none;stroke:#000000;stroke-linecap:square;stroke-linejoin:miter;stroke-width:0.8;"/>
   </g>
   <g id="text_14">
    <!-- predict func of different method,m=5 -->
    <g transform="translate(128.16 35.472)scale(0.12 -0.12)">
     <defs>
      <path d="M 2825 1525 
Q 2825 800 2475 425 
Q 2125 50 1625 50 
Q 1350 50 1150 162 
Q 950 275 800 500 
L 800 -800 
L 300 -800 
L 300 2925 
L 800 2925 
L 800 2550 
Q 950 2775 1150 2875 
Q 1350 2975 1625 2975 
Q 2125 2975 2475 2612 
Q 2825 2250 2825 1525 
z
M 2275 1525 
Q 2275 2000 2087 2262 
Q 1900 2525 1525 2525 
Q 1225 2525 1012 2262 
Q 800 2000 800 1525 
Q 800 1050 1012 775 
Q 1225 500 1525 500 
Q 1900 500 2087 775 
Q 2275 1050 2275 1525 
z
" id="SimHei-70" transform="scale(0.015625)"/>
      <path d="M 2500 2425 
Q 2025 2500 1700 2287 
Q 1375 2075 1150 1550 
L 1150 125 
L 650 125 
L 650 2925 
L 1150 2925 
L 1150 2200 
Q 1375 2600 1712 2787 
Q 2050 2975 2500 2975 
L 2500 2425 
z
" id="SimHei-72" transform="scale(0.015625)"/>
      <path d="M 2850 1075 
Q 2800 625 2450 350 
Q 2100 75 1625 75 
Q 1025 75 637 462 
Q 250 850 250 1525 
Q 250 2200 637 2587 
Q 1025 2975 1625 2975 
Q 2150 2975 2487 2637 
Q 2825 2300 2825 1525 
L 800 1525 
Q 800 975 1037 750 
Q 1275 525 1625 525 
Q 1900 525 2075 662 
Q 2250 800 2300 1075 
L 2850 1075 
z
M 2250 1925 
Q 2200 2275 2025 2412 
Q 1850 2550 1575 2550 
Q 1325 2550 1125 2412 
Q 925 2275 825 1925 
L 2250 1925 
z
" id="SimHei-65" transform="scale(0.015625)"/>
      <path d="M 2750 125 
L 2250 125 
L 2250 500 
Q 2100 275 1900 175 
Q 1700 75 1425 75 
Q 925 75 575 437 
Q 225 800 225 1525 
Q 225 2250 575 2625 
Q 925 3000 1425 3000 
Q 1700 3000 1900 2887 
Q 2100 2775 2250 2550 
L 2250 4400 
L 2750 4400 
L 2750 125 
z
M 2250 1525 
Q 2250 2000 2037 2275 
Q 1825 2550 1525 2550 
Q 1150 2550 962 2275 
Q 775 2000 775 1525 
Q 775 1050 962 787 
Q 1150 525 1525 525 
Q 1825 525 2037 787 
Q 2250 1050 2250 1525 
z
" id="SimHei-64" transform="scale(0.015625)"/>
      <path d="M 1800 3725 
L 1300 3725 
L 1300 4375 
L 1800 4375 
L 1800 3725 
z
M 1800 125 
L 1300 125 
L 1300 2925 
L 1800 2925 
L 1800 125 
z
" id="SimHei-69" transform="scale(0.015625)"/>
      <path d="M 2850 1250 
Q 2850 725 2487 400 
Q 2125 75 1575 75 
Q 1025 75 625 462 
Q 225 850 225 1525 
Q 225 2200 625 2587 
Q 1025 2975 1575 2975 
Q 2125 2975 2450 2687 
Q 2775 2400 2775 2000 
L 2225 2000 
Q 2200 2300 2012 2412 
Q 1825 2525 1575 2525 
Q 1275 2525 1025 2287 
Q 775 2050 775 1525 
Q 775 1000 1025 762 
Q 1275 525 1575 525 
Q 1900 525 2100 700 
Q 2300 875 2300 1250 
L 2850 1250 
z
" id="SimHei-63" transform="scale(0.015625)"/>
      <path d="M 2750 200 
Q 2625 150 2462 112 
Q 2300 75 2025 75 
Q 1575 75 1300 325 
Q 1025 575 1025 1025 
L 1025 2525 
L 175 2525 
L 175 2925 
L 1025 2925 
L 1025 3900 
L 1525 3900 
L 1525 2925 
L 2550 2925 
L 2550 2525 
L 1525 2525 
L 1525 1000 
Q 1525 800 1625 662 
Q 1725 525 2000 525 
Q 2275 525 2450 575 
Q 2625 625 2750 700 
L 2750 200 
z
" id="SimHei-74" transform="scale(0.015625)"/>
      <path id="SimHei-20" transform="scale(0.015625)"/>
      <path d="M 2850 3825 
Q 2725 3900 2550 3950 
Q 2375 4000 2100 4000 
Q 1825 4000 1725 3862 
Q 1625 3725 1625 3525 
L 1625 2925 
L 2650 2925 
L 2650 2525 
L 1625 2525 
L 1625 125 
L 1125 125 
L 1125 2525 
L 275 2525 
L 275 2925 
L 1125 2925 
L 1125 3500 
Q 1125 3950 1400 4200 
Q 1675 4450 2125 4450 
Q 2400 4450 2562 4412 
Q 2725 4375 2850 4325 
L 2850 3825 
z
" id="SimHei-66" transform="scale(0.015625)"/>
      <path d="M 2800 125 
L 2300 125 
L 2300 650 
Q 2100 375 1862 225 
Q 1625 75 1250 75 
Q 800 75 575 325 
Q 350 575 350 950 
L 350 2925 
L 850 2925 
L 850 1125 
Q 850 825 1000 650 
Q 1150 475 1400 475 
Q 1725 475 2012 812 
Q 2300 1150 2300 1650 
L 2300 2925 
L 2800 2925 
L 2800 125 
z
" id="SimHei-75" transform="scale(0.015625)"/>
      <path d="M 2800 125 
L 2300 125 
L 2300 1925 
Q 2300 2225 2150 2400 
Q 2000 2575 1750 2575 
Q 1425 2575 1137 2237 
Q 850 1900 850 1400 
L 850 125 
L 350 125 
L 350 2925 
L 850 2925 
L 850 2400 
Q 1050 2675 1287 2825 
Q 1525 2975 1900 2975 
Q 2350 2975 2575 2725 
Q 2800 2475 2800 2100 
L 2800 125 
z
" id="SimHei-6e" transform="scale(0.015625)"/>
      <path d="M 2925 1525 
Q 2925 875 2525 475 
Q 2125 75 1575 75 
Q 1025 75 625 475 
Q 225 875 225 1525 
Q 225 2175 625 2575 
Q 1025 2975 1575 2975 
Q 2125 2975 2525 2575 
Q 2925 2175 2925 1525 
z
M 2375 1525 
Q 2375 2025 2125 2275 
Q 1875 2525 1575 2525 
Q 1275 2525 1025 2275 
Q 775 2025 775 1525 
Q 775 1025 1025 775 
Q 1275 525 1575 525 
Q 1875 525 2125 775 
Q 2375 1025 2375 1525 
z
" id="SimHei-6f" transform="scale(0.015625)"/>
      <path d="M 3050 125 
L 2550 125 
L 2550 2150 
Q 2550 2300 2500 2400 
Q 2450 2500 2300 2500 
Q 2125 2500 1975 2312 
Q 1825 2125 1825 1825 
L 1825 125 
L 1325 125 
L 1325 2150 
Q 1325 2300 1275 2400 
Q 1225 2500 1075 2500 
Q 900 2500 750 2312 
Q 600 2125 600 1825 
L 600 125 
L 100 125 
L 100 2925 
L 600 2925 
L 600 2550 
Q 725 2750 900 2862 
Q 1075 2975 1275 2975 
Q 1475 2975 1612 2862 
Q 1750 2750 1800 2550 
Q 1925 2750 2087 2862 
Q 2250 2975 2450 2975 
Q 2750 2975 2900 2812 
Q 3050 2650 3050 2350 
L 3050 125 
z
" id="SimHei-6d" transform="scale(0.015625)"/>
      <path d="M 2800 125 
L 2300 125 
L 2300 1925 
Q 2300 2225 2150 2400 
Q 2000 2575 1750 2575 
Q 1425 2575 1137 2237 
Q 850 1900 850 1400 
L 850 125 
L 350 125 
L 350 4400 
L 850 4400 
L 850 2400 
Q 1050 2675 1287 2825 
Q 1525 2975 1900 2975 
Q 2350 2975 2575 2725 
Q 2800 2475 2800 2100 
L 2800 125 
z
" id="SimHei-68" transform="scale(0.015625)"/>
      <path d="M 1100 125 
L 775 -550 
L 525 -550 
L 775 125 
L 525 125 
L 525 675 
L 1100 675 
L 1100 125 
z
" id="SimHei-2c" transform="scale(0.015625)"/>
      <path d="M 2975 2900 
L 125 2900 
L 125 3300 
L 2975 3300 
L 2975 2900 
z
M 2975 1375 
L 125 1375 
L 125 1775 
L 2975 1775 
L 2975 1375 
z
" id="SimHei-3d" transform="scale(0.015625)"/>
     </defs>
     <use xlink:href="#SimHei-70"/>
     <use x="50" xlink:href="#SimHei-72"/>
     <use x="100" xlink:href="#SimHei-65"/>
     <use x="150" xlink:href="#SimHei-64"/>
     <use x="200" xlink:href="#SimHei-69"/>
     <use x="250" xlink:href="#SimHei-63"/>
     <use x="300" xlink:href="#SimHei-74"/>
     <use x="350" xlink:href="#SimHei-20"/>
     <use x="400" xlink:href="#SimHei-66"/>
     <use x="450" xlink:href="#SimHei-75"/>
     <use x="500" xlink:href="#SimHei-6e"/>
     <use x="550" xlink:href="#SimHei-63"/>
     <use x="600" xlink:href="#SimHei-20"/>
     <use x="650" xlink:href="#SimHei-6f"/>
     <use x="700" xlink:href="#SimHei-66"/>
     <use x="750" xlink:href="#SimHei-20"/>
     <use x="800" xlink:href="#SimHei-64"/>
     <use x="850" xlink:href="#SimHei-69"/>
     <use x="900" xlink:href="#SimHei-66"/>
     <use x="950" xlink:href="#SimHei-66"/>
     <use x="1000" xlink:href="#SimHei-65"/>
     <use x="1050" xlink:href="#SimHei-72"/>
     <use x="1100" xlink:href="#SimHei-65"/>
     <use x="1150" xlink:href="#SimHei-6e"/>
     <use x="1200" xlink:href="#SimHei-74"/>
     <use x="1250" xlink:href="#SimHei-20"/>
     <use x="1300" xlink:href="#SimHei-6d"/>
     <use x="1350" xlink:href="#SimHei-65"/>
     <use x="1400" xlink:href="#SimHei-74"/>
     <use x="1450" xlink:href="#SimHei-68"/>
     <use x="1500" xlink:href="#SimHei-6f"/>
     <use x="1550" xlink:href="#SimHei-64"/>
     <use x="1600" xlink:href="#SimHei-2c"/>
     <use x="1650" xlink:href="#SimHei-6d"/>
     <use x="1700" xlink:href="#SimHei-3d"/>
     <use x="1750" xlink:href="#SimHei-35"/>
    </g>
   </g>
   <g id="legend_1">
    <g id="patch_7">
     <path d="M 225.72 104.097 
L 407.72 104.097 
Q 409.72 104.097 409.72 102.097 
L 409.72 48.472 
Q 409.72 46.472 407.72 46.472 
L 225.72 46.472 
Q 223.72 46.472 223.72 48.472 
L 223.72 102.097 
Q 223.72 104.097 225.72 104.097 
z
" style="fill:#ffffff;opacity:0.8;stroke:#cccccc;stroke-linejoin:miter;"/>
    </g>
    <g id="line2d_15">
     <path d="M 227.72 54.7845 
L 247.72 54.7845 
" style="fill:none;stroke:#0000ff;stroke-linecap:square;"/>
    </g>
    <g id="line2d_16"/>
    <g id="text_15">
     <!-- predict func(analytic) -->
     <g transform="translate(255.72 58.2845)scale(0.1 -0.1)">
      <defs>
       <path d="M 2975 -200 
L 2700 -475 
Q 2075 125 1762 775 
Q 1450 1425 1450 2250 
Q 1450 3075 1762 3725 
Q 2075 4375 2700 5000 
L 2975 4725 
Q 2400 4175 2112 3587 
Q 1825 3000 1825 2250 
Q 1825 1500 2112 912 
Q 2400 325 2975 -200 
z
" id="SimHei-28" transform="scale(0.015625)"/>
       <path d="M 2875 125 
L 2275 125 
Q 2225 175 2200 262 
Q 2175 350 2175 475 
Q 2000 275 1750 175 
Q 1500 75 1225 75 
Q 825 75 550 275 
Q 275 475 275 850 
Q 275 1225 525 1450 
Q 775 1675 1300 1750 
Q 1650 1800 1912 1875 
Q 2175 1950 2175 2075 
Q 2175 2225 2062 2375 
Q 1950 2525 1575 2525 
Q 1275 2525 1137 2412 
Q 1000 2300 950 2100 
L 400 2100 
Q 450 2500 762 2737 
Q 1075 2975 1575 2975 
Q 2125 2975 2400 2725 
Q 2675 2475 2675 2025 
L 2675 650 
Q 2675 500 2725 375 
Q 2775 250 2875 125 
z
M 2175 1050 
L 2175 1550 
Q 2025 1500 1887 1462 
Q 1750 1425 1425 1375 
Q 1050 1325 937 1200 
Q 825 1075 825 900 
Q 825 750 937 637 
Q 1050 525 1275 525 
Q 1500 525 1762 650 
Q 2025 775 2175 1050 
z
" id="SimHei-61" transform="scale(0.015625)"/>
       <path d="M 1825 125 
L 1325 125 
L 1325 4400 
L 1825 4400 
L 1825 125 
z
" id="SimHei-6c" transform="scale(0.015625)"/>
       <path d="M 1675 2250 
Q 1675 1425 1362 775 
Q 1050 125 425 -475 
L 150 -200 
Q 725 325 1012 912 
Q 1300 1500 1300 2250 
Q 1300 3000 1012 3587 
Q 725 4175 150 4725 
L 425 5000 
Q 1050 4375 1362 3725 
Q 1675 3075 1675 2250 
z
" id="SimHei-29" transform="scale(0.015625)"/>
      </defs>
      <use xlink:href="#SimHei-70"/>
      <use x="50" xlink:href="#SimHei-72"/>
      <use x="100" xlink:href="#SimHei-65"/>
      <use x="150" xlink:href="#SimHei-64"/>
      <use x="200" xlink:href="#SimHei-69"/>
      <use x="250" xlink:href="#SimHei-63"/>
      <use x="300" xlink:href="#SimHei-74"/>
      <use x="350" xlink:href="#SimHei-20"/>
      <use x="400" xlink:href="#SimHei-66"/>
      <use x="450" xlink:href="#SimHei-75"/>
      <use x="500" xlink:href="#SimHei-6e"/>
      <use x="550" xlink:href="#SimHei-63"/>
      <use x="600" xlink:href="#SimHei-28"/>
      <use x="650" xlink:href="#SimHei-61"/>
      <use x="700" xlink:href="#SimHei-6e"/>
      <use x="750" xlink:href="#SimHei-61"/>
      <use x="800" xlink:href="#SimHei-6c"/>
      <use x="850" xlink:href="#SimHei-79"/>
      <use x="900" xlink:href="#SimHei-74"/>
      <use x="950" xlink:href="#SimHei-69"/>
      <use x="1000" xlink:href="#SimHei-63"/>
      <use x="1050" xlink:href="#SimHei-29"/>
     </g>
    </g>
    <g id="line2d_17">
     <path d="M 227.72 68.847 
L 247.72 68.847 
" style="fill:none;stroke:#ff0000;stroke-linecap:square;"/>
    </g>
    <g id="line2d_18"/>
    <g id="text_16">
     <!-- predict func(gradient descent) -->
     <g transform="translate(255.72 72.347)scale(0.1 -0.1)">
      <defs>
       <path d="M 2975 2500 
Q 2800 2550 2637 2562 
Q 2475 2575 2300 2525 
Q 2375 2450 2425 2337 
Q 2475 2225 2475 2000 
Q 2475 1575 2187 1300 
Q 1900 1025 1475 1025 
Q 1375 1025 1212 1062 
Q 1050 1100 950 1150 
Q 875 1100 850 1050 
Q 825 1000 825 925 
Q 825 800 1000 737 
Q 1175 675 1625 675 
Q 2350 675 2612 475 
Q 2875 275 2875 -25 
Q 2875 -425 2487 -612 
Q 2100 -800 1575 -800 
Q 900 -800 575 -625 
Q 250 -450 250 -150 
Q 250 0 375 150 
Q 500 300 700 400 
Q 550 475 462 587 
Q 375 700 375 875 
Q 375 1025 487 1137 
Q 600 1250 750 1325 
Q 625 1450 550 1625 
Q 475 1800 475 2000 
Q 475 2425 762 2700 
Q 1050 2975 1475 2975 
Q 1700 2975 1862 2912 
Q 2025 2850 2150 2725 
Q 2350 2875 2550 2937 
Q 2750 3000 2975 2975 
L 2975 2500 
z
M 1975 2000 
Q 1975 2250 1850 2400 
Q 1725 2550 1475 2550 
Q 1225 2550 1100 2400 
Q 975 2250 975 2000 
Q 975 1750 1100 1600 
Q 1225 1450 1475 1450 
Q 1725 1450 1850 1600 
Q 1975 1750 1975 2000 
z
M 2400 -75 
Q 2400 25 2287 125 
Q 2175 225 1725 225 
Q 1625 225 1450 237 
Q 1275 250 1050 275 
Q 850 200 775 100 
Q 700 0 700 -100 
Q 700 -250 900 -350 
Q 1100 -450 1600 -450 
Q 2025 -450 2212 -337 
Q 2400 -225 2400 -75 
z
" id="SimHei-67" transform="scale(0.015625)"/>
       <path d="M 2750 900 
Q 2750 500 2437 287 
Q 2125 75 1650 75 
Q 1050 75 725 312 
Q 400 550 400 1000 
L 900 1000 
Q 900 700 1112 600 
Q 1325 500 1625 500 
Q 1925 500 2075 612 
Q 2225 725 2225 900 
Q 2225 1025 2100 1150 
Q 1975 1275 1475 1350 
Q 900 1425 687 1637 
Q 475 1850 475 2200 
Q 475 2500 762 2737 
Q 1050 2975 1600 2975 
Q 2100 2975 2387 2750 
Q 2675 2525 2675 2150 
L 2175 2150 
Q 2175 2375 2012 2462 
Q 1850 2550 1600 2550 
Q 1275 2550 1137 2437 
Q 1000 2325 1000 2175 
Q 1000 2000 1125 1900 
Q 1250 1800 1650 1750 
Q 2300 1650 2525 1437 
Q 2750 1225 2750 900 
z
" id="SimHei-73" transform="scale(0.015625)"/>
      </defs>
      <use xlink:href="#SimHei-70"/>
      <use x="50" xlink:href="#SimHei-72"/>
      <use x="100" xlink:href="#SimHei-65"/>
      <use x="150" xlink:href="#SimHei-64"/>
      <use x="200" xlink:href="#SimHei-69"/>
      <use x="250" xlink:href="#SimHei-63"/>
      <use x="300" xlink:href="#SimHei-74"/>
      <use x="350" xlink:href="#SimHei-20"/>
      <use x="400" xlink:href="#SimHei-66"/>
      <use x="450" xlink:href="#SimHei-75"/>
      <use x="500" xlink:href="#SimHei-6e"/>
      <use x="550" xlink:href="#SimHei-63"/>
      <use x="600" xlink:href="#SimHei-28"/>
      <use x="650" xlink:href="#SimHei-67"/>
      <use x="700" xlink:href="#SimHei-72"/>
      <use x="750" xlink:href="#SimHei-61"/>
      <use x="800" xlink:href="#SimHei-64"/>
      <use x="850" xlink:href="#SimHei-69"/>
      <use x="900" xlink:href="#SimHei-65"/>
      <use x="950" xlink:href="#SimHei-6e"/>
      <use x="1000" xlink:href="#SimHei-74"/>
      <use x="1050" xlink:href="#SimHei-20"/>
      <use x="1100" xlink:href="#SimHei-64"/>
      <use x="1150" xlink:href="#SimHei-65"/>
      <use x="1200" xlink:href="#SimHei-73"/>
      <use x="1250" xlink:href="#SimHei-63"/>
      <use x="1300" xlink:href="#SimHei-65"/>
      <use x="1350" xlink:href="#SimHei-6e"/>
      <use x="1400" xlink:href="#SimHei-74"/>
      <use x="1450" xlink:href="#SimHei-29"/>
     </g>
    </g>
    <g id="line2d_19">
     <path d="M 227.72 82.097 
L 247.72 82.097 
" style="fill:none;stroke:#000000;stroke-dasharray:3.7,1.6;stroke-dashoffset:0;"/>
    </g>
    <g id="line2d_20"/>
    <g id="text_17">
     <!-- real func -->
     <g transform="translate(255.72 85.597)scale(0.1 -0.1)">
      <use xlink:href="#SimHei-72"/>
      <use x="50" xlink:href="#SimHei-65"/>
      <use x="100" xlink:href="#SimHei-61"/>
      <use x="150" xlink:href="#SimHei-6c"/>
      <use x="200" xlink:href="#SimHei-20"/>
      <use x="250" xlink:href="#SimHei-66"/>
      <use x="300" xlink:href="#SimHei-75"/>
      <use x="350" xlink:href="#SimHei-6e"/>
      <use x="400" xlink:href="#SimHei-63"/>
     </g>
    </g>
    <g id="PathCollection_2">
     <g>
      <use style="fill:#008000;stroke:#008000;" x="237.72" xlink:href="#ma73dfd4db8" y="96.222"/>
     </g>
    </g>
    <g id="text_18">
     <!-- train data -->
     <g transform="translate(255.72 98.847)scale(0.1 -0.1)">
      <use xlink:href="#SimHei-74"/>
      <use x="50" xlink:href="#SimHei-72"/>
      <use x="100" xlink:href="#SimHei-61"/>
      <use x="150" xlink:href="#SimHei-69"/>
      <use x="200" xlink:href="#SimHei-6e"/>
      <use x="250" xlink:href="#SimHei-20"/>
      <use x="300" xlink:href="#SimHei-64"/>
      <use x="350" xlink:href="#SimHei-61"/>
      <use x="400" xlink:href="#SimHei-74"/>
      <use x="450" xlink:href="#SimHei-61"/>
     </g>
    </g>
   </g>
  </g>
 </g>
 <defs>
  <clipPath id="pc82357608a">
   <rect height="266.112" width="357.12" x="57.6" y="41.472"/>
  </clipPath>
 </defs>
</svg>
