<?xml version="1.0" encoding="utf-8" standalone="no"?>
<!DOCTYPE svg PUBLIC "-//W3C//DTD SVG 1.1//EN"
  "http://www.w3.org/Graphics/SVG/1.1/DTD/svg11.dtd">
<svg height="345.6pt" version="1.1" viewBox="0 0 460.8 345.6" width="460.8pt" xmlns="http://www.w3.org/2000/svg" xmlns:xlink="http://www.w3.org/1999/xlink">
 <metadata>
  <rdf:RDF xmlns:cc="http://creativecommons.org/ns#" xmlns:dc="http://purl.org/dc/elements/1.1/" xmlns:rdf="http://www.w3.org/1999/02/22-rdf-syntax-ns#">
   <cc:Work>
    <dc:type rdf:resource="http://purl.org/dc/dcmitype/StillImage"/>
    <dc:date>2021-10-02T22:00:46.028861</dc:date>
    <dc:format>image/svg+xml</dc:format>
    <dc:creator>
     <cc:Agent>
      <dc:title>Matplotlib v3.4.2, https://matplotlib.org/</dc:title>
     </cc:Agent>
    </dc:creator>
   </cc:Work>
  </rdf:RDF>
 </metadata>
 <defs>
  <style type="text/css">*{stroke-linecap:butt;stroke-linejoin:round;}</style>
 </defs>
 <g id="figure_1">
  <g id="patch_1">
   <path d="M 0 345.6 
L 460.8 345.6 
L 460.8 0 
L 0 0 
z
" style="fill:#ffffff;"/>
  </g>
  <g id="axes_1">
   <g id="patch_2">
    <path d="M 57.6 307.584 
L 414.72 307.584 
L 414.72 41.472 
L 57.6 41.472 
z
" style="fill:#ffffff;"/>
   </g>
   <g id="PathCollection_1">
    <defs>
     <path d="M 0 1.581139 
C 0.419323 1.581139 0.821528 1.41454 1.118034 1.118034 
C 1.41454 0.821528 1.581139 0.419323 1.581139 0 
C 1.581139 -0.419323 1.41454 -0.821528 1.118034 -1.118034 
C 0.821528 -1.41454 0.419323 -1.581139 0 -1.581139 
C -0.419323 -1.581139 -0.821528 -1.41454 -1.118034 -1.118034 
C -1.41454 -0.821528 -1.581139 -0.419323 -1.581139 0 
C -1.581139 0.419323 -1.41454 0.821528 -1.118034 1.118034 
C -0.821528 1.41454 -0.419323 1.581139 0 1.581139 
z
" id="m56555f82be" style="stroke:#008000;"/>
    </defs>
    <g clip-path="url(#pe688079781)">
     <use style="fill:#008000;stroke:#008000;" x="73.832727" xlink:href="#m56555f82be" y="160.605097"/>
     <use style="fill:#008000;stroke:#008000;" x="109.905455" xlink:href="#m56555f82be" y="94.876609"/>
     <use style="fill:#008000;stroke:#008000;" x="145.978182" xlink:href="#m56555f82be" y="53.568"/>
     <use style="fill:#008000;stroke:#008000;" x="182.050909" xlink:href="#m56555f82be" y="77.227495"/>
     <use style="fill:#008000;stroke:#008000;" x="218.123636" xlink:href="#m56555f82be" y="152.236486"/>
     <use style="fill:#008000;stroke:#008000;" x="254.196364" xlink:href="#m56555f82be" y="193.566278"/>
     <use style="fill:#008000;stroke:#008000;" x="290.269091" xlink:href="#m56555f82be" y="200.791925"/>
     <use style="fill:#008000;stroke:#008000;" x="326.341818" xlink:href="#m56555f82be" y="295.488"/>
     <use style="fill:#008000;stroke:#008000;" x="362.414545" xlink:href="#m56555f82be" y="223.855397"/>
     <use style="fill:#008000;stroke:#008000;" x="398.487273" xlink:href="#m56555f82be" y="134.254804"/>
    </g>
   </g>
   <g id="matplotlib.axis_1">
    <g id="xtick_1">
     <g id="line2d_1">
      <defs>
       <path d="M 0 0 
L 0 3.5 
" id="md291308bde" style="stroke:#000000;stroke-width:0.8;"/>
      </defs>
      <g>
       <use style="stroke:#000000;stroke-width:0.8;" x="73.832727" xlink:href="#md291308bde" y="307.584"/>
      </g>
     </g>
     <g id="text_1">
      <!-- 0.0 -->
      <g transform="translate(66.332727 321.459)scale(0.1 -0.1)">
       <defs>
        <path d="M 225 2537 
Q 250 3200 412 3587 
Q 575 3975 875 4225 
Q 1175 4475 1612 4475 
Q 2050 4475 2375 4112 
Q 2700 3750 2800 3200 
Q 2900 2650 2862 1937 
Q 2825 1225 2612 775 
Q 2400 325 1975 150 
Q 1550 -25 1125 187 
Q 700 400 525 750 
Q 350 1100 275 1487 
Q 200 1875 225 2537 
z
M 750 2687 
Q 675 2000 800 1462 
Q 925 925 1212 700 
Q 1500 475 1800 612 
Q 2100 750 2237 1162 
Q 2375 1575 2375 2062 
Q 2375 2550 2337 2950 
Q 2300 3350 2112 3675 
Q 1925 4000 1612 4012 
Q 1300 4025 1062 3700 
Q 825 3375 750 2687 
z
" id="SimHei-30" transform="scale(0.015625)"/>
        <path d="M 1075 125 
L 500 125 
L 500 675 
L 1075 675 
L 1075 125 
z
" id="SimHei-2e" transform="scale(0.015625)"/>
       </defs>
       <use xlink:href="#SimHei-30"/>
       <use x="50" xlink:href="#SimHei-2e"/>
       <use x="100" xlink:href="#SimHei-30"/>
      </g>
     </g>
    </g>
    <g id="xtick_2">
     <g id="line2d_2">
      <g>
       <use style="stroke:#000000;stroke-width:0.8;" x="138.763636" xlink:href="#md291308bde" y="307.584"/>
      </g>
     </g>
     <g id="text_2">
      <!-- 0.2 -->
      <g transform="translate(131.263636 321.459)scale(0.1 -0.1)">
       <defs>
        <path d="M 300 250 
Q 325 625 650 925 
Q 975 1225 1475 1862 
Q 1975 2500 2125 2850 
Q 2275 3200 2237 3450 
Q 2200 3700 2000 3862 
Q 1800 4025 1537 4000 
Q 1275 3975 1037 3800 
Q 800 3625 675 3275 
L 200 3350 
Q 400 3925 712 4187 
Q 1025 4450 1450 4475 
Q 1700 4500 1900 4462 
Q 2100 4425 2312 4287 
Q 2525 4150 2662 3875 
Q 2800 3600 2762 3212 
Q 2725 2825 2375 2287 
Q 2025 1750 1025 600 
L 2825 600 
L 2825 150 
L 300 150 
L 300 250 
z
" id="SimHei-32" transform="scale(0.015625)"/>
       </defs>
       <use xlink:href="#SimHei-30"/>
       <use x="50" xlink:href="#SimHei-2e"/>
       <use x="100" xlink:href="#SimHei-32"/>
      </g>
     </g>
    </g>
    <g id="xtick_3">
     <g id="line2d_3">
      <g>
       <use style="stroke:#000000;stroke-width:0.8;" x="203.694545" xlink:href="#md291308bde" y="307.584"/>
      </g>
     </g>
     <g id="text_3">
      <!-- 0.4 -->
      <g transform="translate(196.194545 321.459)scale(0.1 -0.1)">
       <defs>
        <path d="M 2000 1100 
L 75 1100 
L 75 1525 
L 2100 4450 
L 2475 4450 
L 2475 1525 
L 3075 1525 
L 3075 1100 
L 2475 1100 
L 2475 150 
L 2000 150 
L 2000 1100 
z
M 2000 1525 
L 2000 3500 
L 600 1525 
L 2000 1525 
z
" id="SimHei-34" transform="scale(0.015625)"/>
       </defs>
       <use xlink:href="#SimHei-30"/>
       <use x="50" xlink:href="#SimHei-2e"/>
       <use x="100" xlink:href="#SimHei-34"/>
      </g>
     </g>
    </g>
    <g id="xtick_4">
     <g id="line2d_4">
      <g>
       <use style="stroke:#000000;stroke-width:0.8;" x="268.625455" xlink:href="#md291308bde" y="307.584"/>
      </g>
     </g>
     <g id="text_4">
      <!-- 0.6 -->
      <g transform="translate(261.125455 321.459)scale(0.1 -0.1)">
       <defs>
        <path d="M 250 1612 
Q 275 1975 387 2225 
Q 500 2475 725 2850 
L 1750 4450 
L 2325 4450 
L 1275 2800 
Q 1950 2975 2350 2750 
Q 2750 2525 2887 2237 
Q 3025 1950 3037 1612 
Q 3050 1275 2937 950 
Q 2825 625 2537 362 
Q 2250 100 1737 75 
Q 1225 50 862 262 
Q 500 475 362 862 
Q 225 1250 250 1612 
z
M 1025 787 
Q 1250 550 1625 525 
Q 2000 500 2250 775 
Q 2500 1050 2500 1575 
Q 2500 2100 2187 2300 
Q 1875 2500 1487 2450 
Q 1100 2400 925 2075 
Q 750 1750 775 1387 
Q 800 1025 1025 787 
z
" id="SimHei-36" transform="scale(0.015625)"/>
       </defs>
       <use xlink:href="#SimHei-30"/>
       <use x="50" xlink:href="#SimHei-2e"/>
       <use x="100" xlink:href="#SimHei-36"/>
      </g>
     </g>
    </g>
    <g id="xtick_5">
     <g id="line2d_5">
      <g>
       <use style="stroke:#000000;stroke-width:0.8;" x="333.556364" xlink:href="#md291308bde" y="307.584"/>
      </g>
     </g>
     <g id="text_5">
      <!-- 0.8 -->
      <g transform="translate(326.056364 321.459)scale(0.1 -0.1)">
       <defs>
        <path d="M 175 1375 
Q 175 1675 325 1962 
Q 475 2250 825 2425 
Q 525 2600 425 2812 
Q 325 3025 312 3300 
Q 300 3575 387 3775 
Q 475 3975 650 4150 
Q 825 4325 1037 4387 
Q 1250 4450 1500 4450 
Q 1750 4450 1950 4400 
Q 2150 4350 2375 4187 
Q 2600 4025 2700 3725 
Q 2800 3425 2687 3025 
Q 2575 2625 2100 2400 
Q 2525 2275 2700 2012 
Q 2875 1750 2875 1375 
Q 2875 1000 2762 775 
Q 2650 550 2512 400 
Q 2375 250 2137 162 
Q 1900 75 1537 75 
Q 1175 75 912 162 
Q 650 250 475 425 
Q 300 600 237 837 
Q 175 1075 175 1375 
z
M 687 1400 
Q 675 1100 787 875 
Q 900 650 1200 587 
Q 1500 525 1825 600 
Q 2150 675 2275 950 
Q 2400 1225 2362 1500 
Q 2325 1775 2050 1962 
Q 1775 2150 1450 2125 
Q 1125 2100 912 1900 
Q 700 1700 687 1400 
z
M 775 3350 
Q 775 3100 950 2875 
Q 1125 2650 1500 2650 
Q 1875 2650 2062 2875 
Q 2250 3100 2237 3412 
Q 2225 3725 2012 3875 
Q 1800 4025 1437 4000 
Q 1075 3975 925 3787 
Q 775 3600 775 3350 
z
" id="SimHei-38" transform="scale(0.015625)"/>
       </defs>
       <use xlink:href="#SimHei-30"/>
       <use x="50" xlink:href="#SimHei-2e"/>
       <use x="100" xlink:href="#SimHei-38"/>
      </g>
     </g>
    </g>
    <g id="xtick_6">
     <g id="line2d_6">
      <g>
       <use style="stroke:#000000;stroke-width:0.8;" x="398.487273" xlink:href="#md291308bde" y="307.584"/>
      </g>
     </g>
     <g id="text_6">
      <!-- 1.0 -->
      <g transform="translate(390.987273 321.459)scale(0.1 -0.1)">
       <defs>
        <path d="M 1400 3600 
Q 1075 3275 575 2975 
L 575 3450 
Q 1200 3875 1600 4450 
L 1900 4450 
L 1900 150 
L 1400 150 
L 1400 3600 
z
" id="SimHei-31" transform="scale(0.015625)"/>
       </defs>
       <use xlink:href="#SimHei-31"/>
       <use x="50" xlink:href="#SimHei-2e"/>
       <use x="100" xlink:href="#SimHei-30"/>
      </g>
     </g>
    </g>
    <g id="text_7">
     <!-- x -->
     <g transform="translate(233.66 333.584)scale(0.1 -0.1)">
      <defs>
       <path d="M 2875 125 
L 2275 125 
L 1550 1200 
L 825 125 
L 225 125 
L 1250 1550 
L 300 2925 
L 900 2925 
L 1550 1875 
L 2200 2925 
L 2800 2925 
L 1850 1550 
L 2875 125 
z
" id="SimHei-78" transform="scale(0.015625)"/>
      </defs>
      <use xlink:href="#SimHei-78"/>
     </g>
    </g>
   </g>
   <g id="matplotlib.axis_2">
    <g id="ytick_1">
     <g id="line2d_7">
      <defs>
       <path d="M 0 0 
L -3.5 0 
" id="m902dfb954e" style="stroke:#000000;stroke-width:0.8;"/>
      </defs>
      <g>
       <use style="stroke:#000000;stroke-width:0.8;" x="57.6" xlink:href="#m902dfb954e" y="259.062815"/>
      </g>
     </g>
     <g id="text_8">
      <!-- -1.0 -->
      <g transform="translate(30.6 262.500315)scale(0.1 -0.1)">
       <defs>
        <path d="M 2975 2125 
L 125 2125 
L 125 2525 
L 2975 2525 
L 2975 2125 
z
" id="SimHei-2d" transform="scale(0.015625)"/>
       </defs>
       <use xlink:href="#SimHei-2d"/>
       <use x="50" xlink:href="#SimHei-31"/>
       <use x="100" xlink:href="#SimHei-2e"/>
       <use x="150" xlink:href="#SimHei-30"/>
      </g>
     </g>
    </g>
    <g id="ytick_2">
     <g id="line2d_8">
      <g>
       <use style="stroke:#000000;stroke-width:0.8;" x="57.6" xlink:href="#m902dfb954e" y="208.663111"/>
      </g>
     </g>
     <g id="text_9">
      <!-- -0.5 -->
      <g transform="translate(30.6 212.100611)scale(0.1 -0.1)">
       <defs>
        <path d="M 550 1325 
Q 725 650 1150 575 
Q 1575 500 1837 662 
Q 2100 825 2212 1087 
Q 2325 1350 2312 1675 
Q 2300 2000 2137 2225 
Q 1975 2450 1725 2525 
Q 1475 2600 1162 2525 
Q 850 2450 650 2175 
L 225 2225 
Q 275 2375 700 4375 
L 2675 4375 
L 2675 3925 
L 1075 3925 
Q 950 3250 825 2850 
Q 1200 3025 1525 3012 
Q 1850 3000 2150 2862 
Q 2450 2725 2587 2487 
Q 2725 2250 2787 2012 
Q 2850 1775 2837 1500 
Q 2825 1225 2725 937 
Q 2625 650 2425 462 
Q 2225 275 1937 162 
Q 1650 50 1275 75 
Q 900 100 562 350 
Q 225 600 100 1200 
L 550 1325 
z
" id="SimHei-35" transform="scale(0.015625)"/>
       </defs>
       <use xlink:href="#SimHei-2d"/>
       <use x="50" xlink:href="#SimHei-30"/>
       <use x="100" xlink:href="#SimHei-2e"/>
       <use x="150" xlink:href="#SimHei-35"/>
      </g>
     </g>
    </g>
    <g id="ytick_3">
     <g id="line2d_9">
      <g>
       <use style="stroke:#000000;stroke-width:0.8;" x="57.6" xlink:href="#m902dfb954e" y="158.263408"/>
      </g>
     </g>
     <g id="text_10">
      <!-- 0.0 -->
      <g transform="translate(35.6 161.700908)scale(0.1 -0.1)">
       <use xlink:href="#SimHei-30"/>
       <use x="50" xlink:href="#SimHei-2e"/>
       <use x="100" xlink:href="#SimHei-30"/>
      </g>
     </g>
    </g>
    <g id="ytick_4">
     <g id="line2d_10">
      <g>
       <use style="stroke:#000000;stroke-width:0.8;" x="57.6" xlink:href="#m902dfb954e" y="107.863705"/>
      </g>
     </g>
     <g id="text_11">
      <!-- 0.5 -->
      <g transform="translate(35.6 111.301205)scale(0.1 -0.1)">
       <use xlink:href="#SimHei-30"/>
       <use x="50" xlink:href="#SimHei-2e"/>
       <use x="100" xlink:href="#SimHei-35"/>
      </g>
     </g>
    </g>
    <g id="ytick_5">
     <g id="line2d_11">
      <g>
       <use style="stroke:#000000;stroke-width:0.8;" x="57.6" xlink:href="#m902dfb954e" y="57.464001"/>
      </g>
     </g>
     <g id="text_12">
      <!-- 1.0 -->
      <g transform="translate(35.6 60.901501)scale(0.1 -0.1)">
       <use xlink:href="#SimHei-31"/>
       <use x="50" xlink:href="#SimHei-2e"/>
       <use x="100" xlink:href="#SimHei-30"/>
      </g>
     </g>
    </g>
    <g id="text_13">
     <!-- y -->
     <g transform="translate(25.35 177.028)rotate(-90)scale(0.1 -0.1)">
      <defs>
       <path d="M 2900 2925 
L 1750 -100 
Q 1650 -450 1450 -625 
Q 1250 -800 950 -800 
Q 825 -800 712 -787 
Q 600 -775 500 -725 
L 500 -225 
Q 600 -275 700 -300 
Q 800 -325 875 -325 
Q 1075 -325 1150 -262 
Q 1225 -200 1300 25 
L 200 2925 
L 750 2925 
L 1550 725 
L 1575 725 
L 2350 2925 
L 2900 2925 
z
" id="SimHei-79" transform="scale(0.015625)"/>
      </defs>
      <use xlink:href="#SimHei-79"/>
     </g>
    </g>
   </g>
   <g id="line2d_12">
    <path clip-path="url(#pe688079781)" d="M 73.832727 155.087191 
L 78.727017 143.923869 
L 81.989877 136.939318 
L 85.252736 130.319438 
L 88.515596 124.062769 
L 91.778456 118.16766 
L 95.041316 112.632267 
L 98.304175 107.454553 
L 101.567035 102.632283 
L 104.829895 98.163024 
L 108.092755 94.044142 
L 111.355614 90.272798 
L 114.618474 86.845948 
L 117.881334 83.76034 
L 121.144194 81.012511 
L 124.407053 78.598787 
L 127.669913 76.515278 
L 130.932773 74.757877 
L 134.195633 73.322258 
L 137.458492 72.203873 
L 140.721352 71.397949 
L 143.984212 70.899489 
L 147.247072 70.703267 
L 150.509931 70.803825 
L 153.772791 71.195473 
L 157.035651 71.872286 
L 160.298511 72.828102 
L 163.56137 74.056518 
L 166.82423 75.550889 
L 170.08709 77.304327 
L 173.34995 79.309696 
L 176.61281 81.559613 
L 179.875669 84.046442 
L 183.138529 86.762295 
L 186.401389 89.699028 
L 189.664249 92.84824 
L 194.558538 97.951433 
L 199.452828 103.482809 
L 204.347117 109.410677 
L 209.241407 115.701988 
L 214.135697 122.32231 
L 220.661416 131.599072 
L 227.187136 141.308042 
L 235.344285 153.909339 
L 246.764294 172.071193 
L 263.078593 198.025382 
L 271.235742 210.51063 
L 277.761462 220.04289 
L 282.655751 226.840546 
L 287.550041 233.273492 
L 292.444331 239.282883 
L 297.33862 244.808203 
L 300.60148 248.192173 
L 303.86434 251.314537 
L 307.1272 254.156104 
L 310.390059 256.697341 
L 313.652919 258.918373 
L 316.915779 260.798975 
L 320.178639 262.318578 
L 323.441498 263.456261 
L 326.704358 264.190747 
L 329.967218 264.500409 
L 331.598648 264.489074 
L 333.230078 264.36326 
L 334.861508 264.120161 
L 336.492937 263.756951 
L 338.124367 263.270781 
L 339.755797 262.658776 
L 341.387227 261.918043 
L 343.018657 261.045662 
L 344.650087 260.038692 
L 346.281517 258.894169 
L 347.912947 257.609105 
L 351.175806 254.605288 
L 354.438666 251.002876 
L 357.701526 246.777131 
L 360.964386 241.902935 
L 364.227245 236.354793 
L 367.490105 230.10683 
L 370.752965 223.132786 
L 374.015825 215.406014 
L 377.278684 206.899483 
L 380.541544 197.585768 
L 383.804404 187.437053 
L 387.067264 176.425128 
L 390.330123 164.521385 
L 393.592983 151.696817 
L 396.855843 137.922015 
L 398.487273 130.668976 
L 398.487273 130.668976 
" style="fill:none;stroke:#0000ff;stroke-linecap:square;"/>
   </g>
   <g id="line2d_13">
    <path clip-path="url(#pe688079781)" d="M 73.832727 153.17272 
L 78.727017 142.724061 
L 83.621307 133.01575 
L 86.884166 126.954391 
L 90.147026 121.221151 
L 93.409886 115.815359 
L 96.672746 110.736169 
L 99.935605 105.982557 
L 103.198465 101.553318 
L 106.461325 97.44706 
L 109.724185 93.662203 
L 112.987044 90.196973 
L 116.249904 87.049398 
L 119.512764 84.217304 
L 122.775624 81.698315 
L 126.038483 79.489843 
L 129.301343 77.58909 
L 132.564203 75.993038 
L 135.827063 74.698451 
L 139.089922 73.70187 
L 142.352782 72.999604 
L 145.615642 72.587732 
L 148.878502 72.462098 
L 152.141361 72.618305 
L 155.404221 73.051714 
L 158.667081 73.757435 
L 161.929941 74.730331 
L 165.1928 75.965007 
L 168.45566 77.455811 
L 171.71852 79.196825 
L 174.98138 81.181869 
L 178.244239 83.404488 
L 181.507099 85.857954 
L 184.769959 88.535263 
L 188.032819 91.429125 
L 191.295678 94.531967 
L 196.189968 99.560785 
L 201.084258 105.014261 
L 205.978547 110.863095 
L 210.872837 117.076442 
L 215.767127 123.621882 
L 222.292846 132.806683 
L 228.818566 142.436017 
L 236.975715 154.959478 
L 246.764294 170.450863 
L 266.341453 201.568657 
L 272.867172 211.553879 
L 279.392892 221.134881 
L 284.287181 227.974024 
L 289.181471 234.45009 
L 294.075761 240.501483 
L 297.33862 244.26846 
L 300.60148 247.799057 
L 303.86434 251.073473 
L 307.1272 254.071483 
L 310.390059 256.772435 
L 313.652919 259.155249 
L 316.915779 261.198408 
L 320.178639 262.879958 
L 323.441498 264.177502 
L 326.704358 265.068198 
L 329.967218 265.528753 
L 331.598648 265.590325 
L 333.230078 265.535422 
L 334.861508 265.361004 
L 336.492937 265.064001 
L 338.124367 264.641318 
L 339.755797 264.089826 
L 341.387227 263.40637 
L 343.018657 262.587765 
L 344.650087 261.630796 
L 346.281517 260.53222 
L 347.912947 259.288762 
L 349.544376 257.897118 
L 351.175806 256.353956 
L 354.438666 252.79959 
L 357.701526 248.598392 
L 360.964386 243.722604 
L 364.227245 238.143978 
L 367.490105 231.833772 
L 370.752965 224.762744 
L 374.015825 216.901153 
L 377.278684 208.218751 
L 380.541544 198.684778 
L 383.804404 188.267965 
L 387.067264 176.936524 
L 390.330123 164.658143 
L 393.592983 151.399989 
L 396.855843 137.128698 
L 398.487273 129.602555 
L 398.487273 129.602555 
" style="fill:none;stroke:#ff0000;stroke-linecap:square;"/>
   </g>
   <g id="line2d_14">
    <path clip-path="url(#pe688079781)" d="M 73.832727 151.252146 
L 78.727017 141.16116 
L 83.621307 131.793497 
L 86.884166 125.949613 
L 90.147026 120.426034 
L 93.409886 115.221989 
L 96.672746 110.336536 
L 99.935605 105.768558 
L 103.198465 101.516756 
L 106.461325 97.57965 
L 109.724185 93.955573 
L 112.987044 90.642668 
L 116.249904 87.638886 
L 119.512764 84.941982 
L 122.775624 82.549511 
L 126.038483 80.458825 
L 129.301343 78.66707 
L 132.564203 77.171183 
L 135.827063 75.967886 
L 139.089922 75.053688 
L 142.352782 74.424875 
L 145.615642 74.077513 
L 148.878502 74.007441 
L 152.141361 74.210266 
L 155.404221 74.681366 
L 158.667081 75.415879 
L 161.929941 76.408706 
L 165.1928 77.654504 
L 168.45566 79.147683 
L 171.71852 80.882405 
L 174.98138 82.852579 
L 178.244239 85.051855 
L 181.507099 87.473626 
L 184.769959 90.111021 
L 188.032819 92.956903 
L 192.927108 97.600363 
L 197.821398 102.670035 
L 202.715688 108.138358 
L 207.609977 113.976339 
L 212.504267 120.153525 
L 217.398556 126.63798 
L 223.924276 135.703866 
L 230.449995 145.172842 
L 238.607145 157.440616 
L 250.027154 175.087987 
L 264.710023 197.773463 
L 272.867172 209.945251 
L 279.392892 219.256972 
L 284.287181 225.908207 
L 289.181471 232.211664 
L 294.075761 238.108851 
L 298.97005 243.539369 
L 302.23291 246.869754 
L 305.49577 249.946118 
L 308.75863 252.74912 
L 312.021489 255.259026 
L 315.284349 257.455706 
L 318.547209 259.31863 
L 321.810069 260.826864 
L 325.072928 261.959067 
L 328.335788 262.693488 
L 331.598648 263.007966 
L 333.230078 263.000685 
L 334.861508 262.879918 
L 336.492937 262.642775 
L 338.124367 262.286344 
L 339.755797 261.807682 
L 341.387227 261.203821 
L 343.018657 260.471767 
L 344.650087 259.608498 
L 346.281517 258.610966 
L 347.912947 257.476095 
L 349.544376 256.200782 
L 352.807236 253.216283 
L 356.070096 249.632099 
L 359.332956 245.422418 
L 362.595815 240.560983 
L 365.858675 235.021088 
L 369.121535 228.775576 
L 372.384395 221.796836 
L 375.647254 214.056795 
L 378.910114 205.526923 
L 382.172974 196.17822 
L 385.435834 185.981221 
L 388.698693 174.905988 
L 391.961553 162.922108 
L 395.224413 149.99869 
L 398.487273 136.10436 
L 398.487273 136.10436 
" style="fill:none;stroke:#008000;stroke-linecap:square;"/>
   </g>
   <g id="line2d_15">
    <path clip-path="url(#pe688079781)" d="M 73.832727 154.666984 
L 78.727017 143.557307 
L 81.989877 136.607535 
L 85.252736 130.021637 
L 88.515596 123.798139 
L 91.778456 117.935378 
L 95.041316 112.431499 
L 98.304175 107.284451 
L 101.567035 102.491986 
L 104.829895 98.051656 
L 108.092755 93.960812 
L 111.355614 90.216601 
L 114.618474 86.815965 
L 117.881334 83.755637 
L 121.144194 81.032139 
L 124.407053 78.641782 
L 127.669913 76.58066 
L 130.932773 74.844654 
L 134.195633 73.429423 
L 137.458492 72.330404 
L 140.721352 71.542813 
L 143.984212 71.06164 
L 147.247072 70.881645 
L 150.509931 70.99736 
L 153.772791 71.403085 
L 157.035651 72.092884 
L 160.298511 73.060586 
L 163.56137 74.29978 
L 166.82423 75.803816 
L 170.08709 77.565798 
L 173.34995 79.578587 
L 176.61281 81.834796 
L 179.875669 84.326789 
L 183.138529 87.046676 
L 186.401389 89.986314 
L 189.664249 93.137305 
L 194.558538 98.241068 
L 199.452828 103.770514 
L 204.347117 109.693986 
L 209.241407 115.978476 
L 214.135697 122.589606 
L 220.661416 131.850535 
L 227.187136 141.539758 
L 235.344285 154.111213 
L 246.764294 172.222642 
L 261.447163 195.546657 
L 269.604312 208.085288 
L 276.130032 217.694816 
L 281.024322 224.571817 
L 285.918611 231.103355 
L 290.812901 237.231439 
L 295.70719 242.896426 
L 298.97005 246.385604 
L 302.23291 249.623173 
L 305.49577 252.590221 
L 308.75863 255.267501 
L 312.021489 257.635426 
L 315.284349 259.674072 
L 318.547209 261.363168 
L 321.810069 262.682102 
L 325.072928 263.609914 
L 328.335788 264.125293 
L 331.598648 264.206578 
L 333.230078 264.07757 
L 334.861508 263.831756 
L 336.492937 263.466327 
L 338.124367 262.978455 
L 339.755797 262.365288 
L 341.387227 261.623949 
L 343.018657 260.751543 
L 344.650087 259.745149 
L 346.281517 258.601825 
L 347.912947 257.318605 
L 351.175806 254.320501 
L 354.438666 250.726657 
L 357.701526 246.512523 
L 360.964386 241.653176 
L 364.227245 236.123323 
L 367.490105 229.897294 
L 370.752965 222.949041 
L 374.015825 215.252138 
L 377.278684 206.779774 
L 380.541544 197.504759 
L 383.804404 187.399511 
L 387.067264 176.436062 
L 390.330123 164.586055 
L 393.592983 151.820738 
L 396.855843 138.110964 
L 398.487273 130.892688 
L 398.487273 130.892688 
" style="fill:none;stroke:#800080;stroke-linecap:square;"/>
   </g>
   <g id="line2d_16">
    <path clip-path="url(#pe688079781)" d="M 73.832727 141.708274 
L 80.358447 133.765538 
L 86.884166 126.181028 
L 91.778456 120.765249 
L 96.672746 115.611457 
L 101.567035 110.744282 
L 106.461325 106.187465 
L 111.355614 101.963772 
L 116.249904 98.09491 
L 121.144194 94.601436 
L 124.407053 92.490599 
L 127.669913 90.560623 
L 130.932773 88.816639 
L 134.195633 87.263497 
L 137.458492 85.905751 
L 140.721352 84.74765 
L 143.984212 83.793128 
L 147.247072 83.045786 
L 150.509931 82.508889 
L 153.772791 82.185351 
L 157.035651 82.07772 
L 160.298511 82.188175 
L 163.56137 82.518507 
L 166.82423 83.070112 
L 170.08709 83.843978 
L 173.34995 84.840674 
L 176.61281 86.060339 
L 179.875669 87.50267 
L 183.138529 89.166911 
L 186.401389 91.051843 
L 189.664249 93.15577 
L 192.927108 95.476511 
L 196.189968 98.011384 
L 199.452828 100.7572 
L 202.715688 103.71025 
L 207.609977 108.518955 
L 212.504267 113.767638 
L 217.398556 119.436836 
L 222.292846 125.504167 
L 227.187136 131.944238 
L 232.081425 138.728563 
L 236.975715 145.825473 
L 243.501434 155.7134 
L 250.027154 166.002424 
L 258.184303 179.269638 
L 282.655751 219.452433 
L 289.181471 229.574507 
L 294.075761 236.801594 
L 298.97005 243.628455 
L 303.86434 249.97134 
L 307.1272 253.887687 
L 310.390059 257.522584 
L 313.652919 260.847878 
L 316.915779 263.834503 
L 320.178639 266.452462 
L 323.441498 268.670819 
L 326.704358 270.457686 
L 329.967218 271.780216 
L 331.598648 272.256823 
L 333.230078 272.604585 
L 334.861508 272.819121 
L 336.492937 272.895986 
L 338.124367 272.830675 
L 339.755797 272.618617 
L 341.387227 272.255179 
L 343.018657 271.735665 
L 344.650087 271.055315 
L 346.281517 270.209302 
L 347.912947 269.192738 
L 349.544376 268.000668 
L 351.175806 266.628071 
L 352.807236 265.069862 
L 354.438666 263.320887 
L 356.070096 261.375929 
L 357.701526 259.229702 
L 359.332956 256.876853 
L 360.964386 254.311962 
L 362.595815 251.52954 
L 365.858675 245.28981 
L 369.121535 238.112385 
L 372.384395 229.950878 
L 375.647254 220.757782 
L 378.910114 210.484456 
L 382.172974 199.081118 
L 385.435834 186.49683 
L 388.698693 172.67949 
L 391.961553 157.575815 
L 395.224413 141.131337 
L 398.487273 123.290388 
L 398.487273 123.290388 
" style="fill:none;stroke:#ffff00;stroke-linecap:square;"/>
   </g>
   <g id="line2d_17">
    <path clip-path="url(#pe688079781)" d="M 73.832727 158.263408 
L 85.252736 136.166003 
L 91.778456 123.954182 
L 96.672746 115.143632 
L 101.567035 106.71967 
L 106.461325 98.75782 
L 111.355614 91.329463 
L 114.618474 86.706713 
L 117.881334 82.36921 
L 121.144194 78.334243 
L 124.407053 74.617897 
L 127.669913 71.234987 
L 130.932773 68.198997 
L 134.195633 65.522031 
L 137.458492 63.214759 
L 140.721352 61.286379 
L 143.984212 59.744578 
L 147.247072 58.595501 
L 150.509931 57.84373 
L 153.772791 57.492262 
L 157.035651 57.542497 
L 160.298511 57.994235 
L 163.56137 58.845675 
L 166.82423 60.093423 
L 170.08709 61.732506 
L 173.34995 63.75639 
L 176.61281 66.157006 
L 179.875669 68.924785 
L 183.138529 72.048694 
L 186.401389 75.51628 
L 189.664249 79.313721 
L 192.927108 83.425878 
L 196.189968 87.83636 
L 199.452828 92.527584 
L 204.347117 100.049618 
L 209.241407 108.093565 
L 214.135697 116.587305 
L 220.661416 128.479859 
L 228.818566 143.989756 
L 251.658584 188.046956 
L 258.184303 199.939511 
L 263.078593 208.433251 
L 267.972883 216.477197 
L 272.867172 223.999232 
L 276.130032 228.690456 
L 279.392892 233.100938 
L 282.655751 237.213095 
L 285.918611 241.010535 
L 289.181471 244.478122 
L 292.444331 247.602031 
L 295.70719 250.36981 
L 298.97005 252.770426 
L 302.23291 254.794309 
L 305.49577 256.433392 
L 308.75863 257.681141 
L 312.021489 258.532581 
L 315.284349 258.984319 
L 318.547209 259.034554 
L 321.810069 258.683085 
L 325.072928 257.931314 
L 328.335788 256.782238 
L 331.598648 255.240437 
L 334.861508 253.312057 
L 338.124367 251.004785 
L 341.387227 248.327818 
L 344.650087 245.291829 
L 347.912947 241.908919 
L 351.175806 238.192573 
L 354.438666 234.157606 
L 357.701526 229.820103 
L 360.964386 225.197353 
L 365.858675 217.768996 
L 370.752965 209.807146 
L 375.647254 201.383183 
L 380.541544 192.572633 
L 387.067264 180.360813 
L 396.855843 161.445499 
L 398.487273 158.263408 
L 398.487273 158.263408 
" style="fill:none;stroke:#000000;stroke-dasharray:3.7,1.6;stroke-dashoffset:0;"/>
   </g>
   <g id="patch_3">
    <path d="M 57.6 307.584 
L 57.6 41.472 
" style="fill:none;stroke:#000000;stroke-linecap:square;stroke-linejoin:miter;stroke-width:0.8;"/>
   </g>
   <g id="patch_4">
    <path d="M 414.72 307.584 
L 414.72 41.472 
" style="fill:none;stroke:#000000;stroke-linecap:square;stroke-linejoin:miter;stroke-width:0.8;"/>
   </g>
   <g id="patch_5">
    <path d="M 57.6 307.584 
L 414.72 307.584 
" style="fill:none;stroke:#000000;stroke-linecap:square;stroke-linejoin:miter;stroke-width:0.8;"/>
   </g>
   <g id="patch_6">
    <path d="M 57.6 41.472 
L 414.72 41.472 
" style="fill:none;stroke:#000000;stroke-linecap:square;stroke-linejoin:miter;stroke-width:0.8;"/>
   </g>
   <g id="text_14">
    <!-- predict func of different method,m=5,l2_coef=0.0001 -->
    <g transform="translate(83.16 35.472)scale(0.12 -0.12)">
     <defs>
      <path d="M 2825 1525 
Q 2825 800 2475 425 
Q 2125 50 1625 50 
Q 1350 50 1150 162 
Q 950 275 800 500 
L 800 -800 
L 300 -800 
L 300 2925 
L 800 2925 
L 800 2550 
Q 950 2775 1150 2875 
Q 1350 2975 1625 2975 
Q 2125 2975 2475 2612 
Q 2825 2250 2825 1525 
z
M 2275 1525 
Q 2275 2000 2087 2262 
Q 1900 2525 1525 2525 
Q 1225 2525 1012 2262 
Q 800 2000 800 1525 
Q 800 1050 1012 775 
Q 1225 500 1525 500 
Q 1900 500 2087 775 
Q 2275 1050 2275 1525 
z
" id="SimHei-70" transform="scale(0.015625)"/>
      <path d="M 2500 2425 
Q 2025 2500 1700 2287 
Q 1375 2075 1150 1550 
L 1150 125 
L 650 125 
L 650 2925 
L 1150 2925 
L 1150 2200 
Q 1375 2600 1712 2787 
Q 2050 2975 2500 2975 
L 2500 2425 
z
" id="SimHei-72" transform="scale(0.015625)"/>
      <path d="M 2850 1075 
Q 2800 625 2450 350 
Q 2100 75 1625 75 
Q 1025 75 637 462 
Q 250 850 250 1525 
Q 250 2200 637 2587 
Q 1025 2975 1625 2975 
Q 2150 2975 2487 2637 
Q 2825 2300 2825 1525 
L 800 1525 
Q 800 975 1037 750 
Q 1275 525 1625 525 
Q 1900 525 2075 662 
Q 2250 800 2300 1075 
L 2850 1075 
z
M 2250 1925 
Q 2200 2275 2025 2412 
Q 1850 2550 1575 2550 
Q 1325 2550 1125 2412 
Q 925 2275 825 1925 
L 2250 1925 
z
" id="SimHei-65" transform="scale(0.015625)"/>
      <path d="M 2750 125 
L 2250 125 
L 2250 500 
Q 2100 275 1900 175 
Q 1700 75 1425 75 
Q 925 75 575 437 
Q 225 800 225 1525 
Q 225 2250 575 2625 
Q 925 3000 1425 3000 
Q 1700 3000 1900 2887 
Q 2100 2775 2250 2550 
L 2250 4400 
L 2750 4400 
L 2750 125 
z
M 2250 1525 
Q 2250 2000 2037 2275 
Q 1825 2550 1525 2550 
Q 1150 2550 962 2275 
Q 775 2000 775 1525 
Q 775 1050 962 787 
Q 1150 525 1525 525 
Q 1825 525 2037 787 
Q 2250 1050 2250 1525 
z
" id="SimHei-64" transform="scale(0.015625)"/>
      <path d="M 1800 3725 
L 1300 3725 
L 1300 4375 
L 1800 4375 
L 1800 3725 
z
M 1800 125 
L 1300 125 
L 1300 2925 
L 1800 2925 
L 1800 125 
z
" id="SimHei-69" transform="scale(0.015625)"/>
      <path d="M 2850 1250 
Q 2850 725 2487 400 
Q 2125 75 1575 75 
Q 1025 75 625 462 
Q 225 850 225 1525 
Q 225 2200 625 2587 
Q 1025 2975 1575 2975 
Q 2125 2975 2450 2687 
Q 2775 2400 2775 2000 
L 2225 2000 
Q 2200 2300 2012 2412 
Q 1825 2525 1575 2525 
Q 1275 2525 1025 2287 
Q 775 2050 775 1525 
Q 775 1000 1025 762 
Q 1275 525 1575 525 
Q 1900 525 2100 700 
Q 2300 875 2300 1250 
L 2850 1250 
z
" id="SimHei-63" transform="scale(0.015625)"/>
      <path d="M 2750 200 
Q 2625 150 2462 112 
Q 2300 75 2025 75 
Q 1575 75 1300 325 
Q 1025 575 1025 1025 
L 1025 2525 
L 175 2525 
L 175 2925 
L 1025 2925 
L 1025 3900 
L 1525 3900 
L 1525 2925 
L 2550 2925 
L 2550 2525 
L 1525 2525 
L 1525 1000 
Q 1525 800 1625 662 
Q 1725 525 2000 525 
Q 2275 525 2450 575 
Q 2625 625 2750 700 
L 2750 200 
z
" id="SimHei-74" transform="scale(0.015625)"/>
      <path id="SimHei-20" transform="scale(0.015625)"/>
      <path d="M 2850 3825 
Q 2725 3900 2550 3950 
Q 2375 4000 2100 4000 
Q 1825 4000 1725 3862 
Q 1625 3725 1625 3525 
L 1625 2925 
L 2650 2925 
L 2650 2525 
L 1625 2525 
L 1625 125 
L 1125 125 
L 1125 2525 
L 275 2525 
L 275 2925 
L 1125 2925 
L 1125 3500 
Q 1125 3950 1400 4200 
Q 1675 4450 2125 4450 
Q 2400 4450 2562 4412 
Q 2725 4375 2850 4325 
L 2850 3825 
z
" id="SimHei-66" transform="scale(0.015625)"/>
      <path d="M 2800 125 
L 2300 125 
L 2300 650 
Q 2100 375 1862 225 
Q 1625 75 1250 75 
Q 800 75 575 325 
Q 350 575 350 950 
L 350 2925 
L 850 2925 
L 850 1125 
Q 850 825 1000 650 
Q 1150 475 1400 475 
Q 1725 475 2012 812 
Q 2300 1150 2300 1650 
L 2300 2925 
L 2800 2925 
L 2800 125 
z
" id="SimHei-75" transform="scale(0.015625)"/>
      <path d="M 2800 125 
L 2300 125 
L 2300 1925 
Q 2300 2225 2150 2400 
Q 2000 2575 1750 2575 
Q 1425 2575 1137 2237 
Q 850 1900 850 1400 
L 850 125 
L 350 125 
L 350 2925 
L 850 2925 
L 850 2400 
Q 1050 2675 1287 2825 
Q 1525 2975 1900 2975 
Q 2350 2975 2575 2725 
Q 2800 2475 2800 2100 
L 2800 125 
z
" id="SimHei-6e" transform="scale(0.015625)"/>
      <path d="M 2925 1525 
Q 2925 875 2525 475 
Q 2125 75 1575 75 
Q 1025 75 625 475 
Q 225 875 225 1525 
Q 225 2175 625 2575 
Q 1025 2975 1575 2975 
Q 2125 2975 2525 2575 
Q 2925 2175 2925 1525 
z
M 2375 1525 
Q 2375 2025 2125 2275 
Q 1875 2525 1575 2525 
Q 1275 2525 1025 2275 
Q 775 2025 775 1525 
Q 775 1025 1025 775 
Q 1275 525 1575 525 
Q 1875 525 2125 775 
Q 2375 1025 2375 1525 
z
" id="SimHei-6f" transform="scale(0.015625)"/>
      <path d="M 3050 125 
L 2550 125 
L 2550 2150 
Q 2550 2300 2500 2400 
Q 2450 2500 2300 2500 
Q 2125 2500 1975 2312 
Q 1825 2125 1825 1825 
L 1825 125 
L 1325 125 
L 1325 2150 
Q 1325 2300 1275 2400 
Q 1225 2500 1075 2500 
Q 900 2500 750 2312 
Q 600 2125 600 1825 
L 600 125 
L 100 125 
L 100 2925 
L 600 2925 
L 600 2550 
Q 725 2750 900 2862 
Q 1075 2975 1275 2975 
Q 1475 2975 1612 2862 
Q 1750 2750 1800 2550 
Q 1925 2750 2087 2862 
Q 2250 2975 2450 2975 
Q 2750 2975 2900 2812 
Q 3050 2650 3050 2350 
L 3050 125 
z
" id="SimHei-6d" transform="scale(0.015625)"/>
      <path d="M 2800 125 
L 2300 125 
L 2300 1925 
Q 2300 2225 2150 2400 
Q 2000 2575 1750 2575 
Q 1425 2575 1137 2237 
Q 850 1900 850 1400 
L 850 125 
L 350 125 
L 350 4400 
L 850 4400 
L 850 2400 
Q 1050 2675 1287 2825 
Q 1525 2975 1900 2975 
Q 2350 2975 2575 2725 
Q 2800 2475 2800 2100 
L 2800 125 
z
" id="SimHei-68" transform="scale(0.015625)"/>
      <path d="M 1100 125 
L 775 -550 
L 525 -550 
L 775 125 
L 525 125 
L 525 675 
L 1100 675 
L 1100 125 
z
" id="SimHei-2c" transform="scale(0.015625)"/>
      <path d="M 2975 2900 
L 125 2900 
L 125 3300 
L 2975 3300 
L 2975 2900 
z
M 2975 1375 
L 125 1375 
L 125 1775 
L 2975 1775 
L 2975 1375 
z
" id="SimHei-3d" transform="scale(0.015625)"/>
      <path d="M 1825 125 
L 1325 125 
L 1325 4400 
L 1825 4400 
L 1825 125 
z
" id="SimHei-6c" transform="scale(0.015625)"/>
      <path d="M 3150 -850 
L 0 -850 
L 0 -550 
L 3150 -550 
L 3150 -850 
z
" id="SimHei-5f" transform="scale(0.015625)"/>
     </defs>
     <use xlink:href="#SimHei-70"/>
     <use x="50" xlink:href="#SimHei-72"/>
     <use x="100" xlink:href="#SimHei-65"/>
     <use x="150" xlink:href="#SimHei-64"/>
     <use x="200" xlink:href="#SimHei-69"/>
     <use x="250" xlink:href="#SimHei-63"/>
     <use x="300" xlink:href="#SimHei-74"/>
     <use x="350" xlink:href="#SimHei-20"/>
     <use x="400" xlink:href="#SimHei-66"/>
     <use x="450" xlink:href="#SimHei-75"/>
     <use x="500" xlink:href="#SimHei-6e"/>
     <use x="550" xlink:href="#SimHei-63"/>
     <use x="600" xlink:href="#SimHei-20"/>
     <use x="650" xlink:href="#SimHei-6f"/>
     <use x="700" xlink:href="#SimHei-66"/>
     <use x="750" xlink:href="#SimHei-20"/>
     <use x="800" xlink:href="#SimHei-64"/>
     <use x="850" xlink:href="#SimHei-69"/>
     <use x="900" xlink:href="#SimHei-66"/>
     <use x="950" xlink:href="#SimHei-66"/>
     <use x="1000" xlink:href="#SimHei-65"/>
     <use x="1050" xlink:href="#SimHei-72"/>
     <use x="1100" xlink:href="#SimHei-65"/>
     <use x="1150" xlink:href="#SimHei-6e"/>
     <use x="1200" xlink:href="#SimHei-74"/>
     <use x="1250" xlink:href="#SimHei-20"/>
     <use x="1300" xlink:href="#SimHei-6d"/>
     <use x="1350" xlink:href="#SimHei-65"/>
     <use x="1400" xlink:href="#SimHei-74"/>
     <use x="1450" xlink:href="#SimHei-68"/>
     <use x="1500" xlink:href="#SimHei-6f"/>
     <use x="1550" xlink:href="#SimHei-64"/>
     <use x="1600" xlink:href="#SimHei-2c"/>
     <use x="1650" xlink:href="#SimHei-6d"/>
     <use x="1700" xlink:href="#SimHei-3d"/>
     <use x="1750" xlink:href="#SimHei-35"/>
     <use x="1800" xlink:href="#SimHei-2c"/>
     <use x="1850" xlink:href="#SimHei-6c"/>
     <use x="1900" xlink:href="#SimHei-32"/>
     <use x="1950" xlink:href="#SimHei-5f"/>
     <use x="2000" xlink:href="#SimHei-63"/>
     <use x="2050" xlink:href="#SimHei-6f"/>
     <use x="2100" xlink:href="#SimHei-65"/>
     <use x="2150" xlink:href="#SimHei-66"/>
     <use x="2200" xlink:href="#SimHei-3d"/>
     <use x="2250" xlink:href="#SimHei-30"/>
     <use x="2300" xlink:href="#SimHei-2e"/>
     <use x="2350" xlink:href="#SimHei-30"/>
     <use x="2400" xlink:href="#SimHei-30"/>
     <use x="2450" xlink:href="#SimHei-30"/>
     <use x="2500" xlink:href="#SimHei-31"/>
    </g>
   </g>
   <g id="legend_1">
    <g id="patch_7">
     <path d="M 64.6 302.584 
L 301.6 302.584 
Q 303.6 302.584 303.6 300.584 
L 303.6 204.7715 
Q 303.6 202.7715 301.6 202.7715 
L 64.6 202.7715 
Q 62.6 202.7715 62.6 204.7715 
L 62.6 300.584 
Q 62.6 302.584 64.6 302.584 
z
" style="fill:#ffffff;opacity:0.8;stroke:#cccccc;stroke-linejoin:miter;"/>
    </g>
    <g id="line2d_18">
     <path d="M 66.6 211.084 
L 86.6 211.084 
" style="fill:none;stroke:#0000ff;stroke-linecap:square;"/>
    </g>
    <g id="line2d_19"/>
    <g id="text_15">
     <!-- predict func(analytic) -->
     <g transform="translate(94.6 214.584)scale(0.1 -0.1)">
      <defs>
       <path d="M 2975 -200 
L 2700 -475 
Q 2075 125 1762 775 
Q 1450 1425 1450 2250 
Q 1450 3075 1762 3725 
Q 2075 4375 2700 5000 
L 2975 4725 
Q 2400 4175 2112 3587 
Q 1825 3000 1825 2250 
Q 1825 1500 2112 912 
Q 2400 325 2975 -200 
z
" id="SimHei-28" transform="scale(0.015625)"/>
       <path d="M 2875 125 
L 2275 125 
Q 2225 175 2200 262 
Q 2175 350 2175 475 
Q 2000 275 1750 175 
Q 1500 75 1225 75 
Q 825 75 550 275 
Q 275 475 275 850 
Q 275 1225 525 1450 
Q 775 1675 1300 1750 
Q 1650 1800 1912 1875 
Q 2175 1950 2175 2075 
Q 2175 2225 2062 2375 
Q 1950 2525 1575 2525 
Q 1275 2525 1137 2412 
Q 1000 2300 950 2100 
L 400 2100 
Q 450 2500 762 2737 
Q 1075 2975 1575 2975 
Q 2125 2975 2400 2725 
Q 2675 2475 2675 2025 
L 2675 650 
Q 2675 500 2725 375 
Q 2775 250 2875 125 
z
M 2175 1050 
L 2175 1550 
Q 2025 1500 1887 1462 
Q 1750 1425 1425 1375 
Q 1050 1325 937 1200 
Q 825 1075 825 900 
Q 825 750 937 637 
Q 1050 525 1275 525 
Q 1500 525 1762 650 
Q 2025 775 2175 1050 
z
" id="SimHei-61" transform="scale(0.015625)"/>
       <path d="M 1675 2250 
Q 1675 1425 1362 775 
Q 1050 125 425 -475 
L 150 -200 
Q 725 325 1012 912 
Q 1300 1500 1300 2250 
Q 1300 3000 1012 3587 
Q 725 4175 150 4725 
L 425 5000 
Q 1050 4375 1362 3725 
Q 1675 3075 1675 2250 
z
" id="SimHei-29" transform="scale(0.015625)"/>
      </defs>
      <use xlink:href="#SimHei-70"/>
      <use x="50" xlink:href="#SimHei-72"/>
      <use x="100" xlink:href="#SimHei-65"/>
      <use x="150" xlink:href="#SimHei-64"/>
      <use x="200" xlink:href="#SimHei-69"/>
      <use x="250" xlink:href="#SimHei-63"/>
      <use x="300" xlink:href="#SimHei-74"/>
      <use x="350" xlink:href="#SimHei-20"/>
      <use x="400" xlink:href="#SimHei-66"/>
      <use x="450" xlink:href="#SimHei-75"/>
      <use x="500" xlink:href="#SimHei-6e"/>
      <use x="550" xlink:href="#SimHei-63"/>
      <use x="600" xlink:href="#SimHei-28"/>
      <use x="650" xlink:href="#SimHei-61"/>
      <use x="700" xlink:href="#SimHei-6e"/>
      <use x="750" xlink:href="#SimHei-61"/>
      <use x="800" xlink:href="#SimHei-6c"/>
      <use x="850" xlink:href="#SimHei-79"/>
      <use x="900" xlink:href="#SimHei-74"/>
      <use x="950" xlink:href="#SimHei-69"/>
      <use x="1000" xlink:href="#SimHei-63"/>
      <use x="1050" xlink:href="#SimHei-29"/>
     </g>
    </g>
    <g id="line2d_20">
     <path d="M 66.6 225.1465 
L 86.6 225.1465 
" style="fill:none;stroke:#ff0000;stroke-linecap:square;"/>
    </g>
    <g id="line2d_21"/>
    <g id="text_16">
     <!-- predict func(gradient descent) -->
     <g transform="translate(94.6 228.6465)scale(0.1 -0.1)">
      <defs>
       <path d="M 2975 2500 
Q 2800 2550 2637 2562 
Q 2475 2575 2300 2525 
Q 2375 2450 2425 2337 
Q 2475 2225 2475 2000 
Q 2475 1575 2187 1300 
Q 1900 1025 1475 1025 
Q 1375 1025 1212 1062 
Q 1050 1100 950 1150 
Q 875 1100 850 1050 
Q 825 1000 825 925 
Q 825 800 1000 737 
Q 1175 675 1625 675 
Q 2350 675 2612 475 
Q 2875 275 2875 -25 
Q 2875 -425 2487 -612 
Q 2100 -800 1575 -800 
Q 900 -800 575 -625 
Q 250 -450 250 -150 
Q 250 0 375 150 
Q 500 300 700 400 
Q 550 475 462 587 
Q 375 700 375 875 
Q 375 1025 487 1137 
Q 600 1250 750 1325 
Q 625 1450 550 1625 
Q 475 1800 475 2000 
Q 475 2425 762 2700 
Q 1050 2975 1475 2975 
Q 1700 2975 1862 2912 
Q 2025 2850 2150 2725 
Q 2350 2875 2550 2937 
Q 2750 3000 2975 2975 
L 2975 2500 
z
M 1975 2000 
Q 1975 2250 1850 2400 
Q 1725 2550 1475 2550 
Q 1225 2550 1100 2400 
Q 975 2250 975 2000 
Q 975 1750 1100 1600 
Q 1225 1450 1475 1450 
Q 1725 1450 1850 1600 
Q 1975 1750 1975 2000 
z
M 2400 -75 
Q 2400 25 2287 125 
Q 2175 225 1725 225 
Q 1625 225 1450 237 
Q 1275 250 1050 275 
Q 850 200 775 100 
Q 700 0 700 -100 
Q 700 -250 900 -350 
Q 1100 -450 1600 -450 
Q 2025 -450 2212 -337 
Q 2400 -225 2400 -75 
z
" id="SimHei-67" transform="scale(0.015625)"/>
       <path d="M 2750 900 
Q 2750 500 2437 287 
Q 2125 75 1650 75 
Q 1050 75 725 312 
Q 400 550 400 1000 
L 900 1000 
Q 900 700 1112 600 
Q 1325 500 1625 500 
Q 1925 500 2075 612 
Q 2225 725 2225 900 
Q 2225 1025 2100 1150 
Q 1975 1275 1475 1350 
Q 900 1425 687 1637 
Q 475 1850 475 2200 
Q 475 2500 762 2737 
Q 1050 2975 1600 2975 
Q 2100 2975 2387 2750 
Q 2675 2525 2675 2150 
L 2175 2150 
Q 2175 2375 2012 2462 
Q 1850 2550 1600 2550 
Q 1275 2550 1137 2437 
Q 1000 2325 1000 2175 
Q 1000 2000 1125 1900 
Q 1250 1800 1650 1750 
Q 2300 1650 2525 1437 
Q 2750 1225 2750 900 
z
" id="SimHei-73" transform="scale(0.015625)"/>
      </defs>
      <use xlink:href="#SimHei-70"/>
      <use x="50" xlink:href="#SimHei-72"/>
      <use x="100" xlink:href="#SimHei-65"/>
      <use x="150" xlink:href="#SimHei-64"/>
      <use x="200" xlink:href="#SimHei-69"/>
      <use x="250" xlink:href="#SimHei-63"/>
      <use x="300" xlink:href="#SimHei-74"/>
      <use x="350" xlink:href="#SimHei-20"/>
      <use x="400" xlink:href="#SimHei-66"/>
      <use x="450" xlink:href="#SimHei-75"/>
      <use x="500" xlink:href="#SimHei-6e"/>
      <use x="550" xlink:href="#SimHei-63"/>
      <use x="600" xlink:href="#SimHei-28"/>
      <use x="650" xlink:href="#SimHei-67"/>
      <use x="700" xlink:href="#SimHei-72"/>
      <use x="750" xlink:href="#SimHei-61"/>
      <use x="800" xlink:href="#SimHei-64"/>
      <use x="850" xlink:href="#SimHei-69"/>
      <use x="900" xlink:href="#SimHei-65"/>
      <use x="950" xlink:href="#SimHei-6e"/>
      <use x="1000" xlink:href="#SimHei-74"/>
      <use x="1050" xlink:href="#SimHei-20"/>
      <use x="1100" xlink:href="#SimHei-64"/>
      <use x="1150" xlink:href="#SimHei-65"/>
      <use x="1200" xlink:href="#SimHei-73"/>
      <use x="1250" xlink:href="#SimHei-63"/>
      <use x="1300" xlink:href="#SimHei-65"/>
      <use x="1350" xlink:href="#SimHei-6e"/>
      <use x="1400" xlink:href="#SimHei-74"/>
      <use x="1450" xlink:href="#SimHei-29"/>
     </g>
    </g>
    <g id="line2d_22">
     <path d="M 66.6 239.209 
L 86.6 239.209 
" style="fill:none;stroke:#008000;stroke-linecap:square;"/>
    </g>
    <g id="line2d_23"/>
    <g id="text_17">
     <!-- predict func(stochastic gradient descent) -->
     <g transform="translate(94.6 242.709)scale(0.1 -0.1)">
      <use xlink:href="#SimHei-70"/>
      <use x="50" xlink:href="#SimHei-72"/>
      <use x="100" xlink:href="#SimHei-65"/>
      <use x="150" xlink:href="#SimHei-64"/>
      <use x="200" xlink:href="#SimHei-69"/>
      <use x="250" xlink:href="#SimHei-63"/>
      <use x="300" xlink:href="#SimHei-74"/>
      <use x="350" xlink:href="#SimHei-20"/>
      <use x="400" xlink:href="#SimHei-66"/>
      <use x="450" xlink:href="#SimHei-75"/>
      <use x="500" xlink:href="#SimHei-6e"/>
      <use x="550" xlink:href="#SimHei-63"/>
      <use x="600" xlink:href="#SimHei-28"/>
      <use x="650" xlink:href="#SimHei-73"/>
      <use x="700" xlink:href="#SimHei-74"/>
      <use x="750" xlink:href="#SimHei-6f"/>
      <use x="800" xlink:href="#SimHei-63"/>
      <use x="850" xlink:href="#SimHei-68"/>
      <use x="900" xlink:href="#SimHei-61"/>
      <use x="950" xlink:href="#SimHei-73"/>
      <use x="1000" xlink:href="#SimHei-74"/>
      <use x="1050" xlink:href="#SimHei-69"/>
      <use x="1100" xlink:href="#SimHei-63"/>
      <use x="1150" xlink:href="#SimHei-20"/>
      <use x="1200" xlink:href="#SimHei-67"/>
      <use x="1250" xlink:href="#SimHei-72"/>
      <use x="1300" xlink:href="#SimHei-61"/>
      <use x="1350" xlink:href="#SimHei-64"/>
      <use x="1400" xlink:href="#SimHei-69"/>
      <use x="1450" xlink:href="#SimHei-65"/>
      <use x="1500" xlink:href="#SimHei-6e"/>
      <use x="1550" xlink:href="#SimHei-74"/>
      <use x="1600" xlink:href="#SimHei-20"/>
      <use x="1650" xlink:href="#SimHei-64"/>
      <use x="1700" xlink:href="#SimHei-65"/>
      <use x="1750" xlink:href="#SimHei-73"/>
      <use x="1800" xlink:href="#SimHei-63"/>
      <use x="1850" xlink:href="#SimHei-65"/>
      <use x="1900" xlink:href="#SimHei-6e"/>
      <use x="1950" xlink:href="#SimHei-74"/>
      <use x="2000" xlink:href="#SimHei-29"/>
     </g>
    </g>
    <g id="line2d_24">
     <path d="M 66.6 253.2715 
L 86.6 253.2715 
" style="fill:none;stroke:#800080;stroke-linecap:square;"/>
    </g>
    <g id="line2d_25"/>
    <g id="text_18">
     <!-- predict func(els gradient descent) -->
     <g transform="translate(94.6 256.7715)scale(0.1 -0.1)">
      <use xlink:href="#SimHei-70"/>
      <use x="50" xlink:href="#SimHei-72"/>
      <use x="100" xlink:href="#SimHei-65"/>
      <use x="150" xlink:href="#SimHei-64"/>
      <use x="200" xlink:href="#SimHei-69"/>
      <use x="250" xlink:href="#SimHei-63"/>
      <use x="300" xlink:href="#SimHei-74"/>
      <use x="350" xlink:href="#SimHei-20"/>
      <use x="400" xlink:href="#SimHei-66"/>
      <use x="450" xlink:href="#SimHei-75"/>
      <use x="500" xlink:href="#SimHei-6e"/>
      <use x="550" xlink:href="#SimHei-63"/>
      <use x="600" xlink:href="#SimHei-28"/>
      <use x="650" xlink:href="#SimHei-65"/>
      <use x="700" xlink:href="#SimHei-6c"/>
      <use x="750" xlink:href="#SimHei-73"/>
      <use x="800" xlink:href="#SimHei-20"/>
      <use x="850" xlink:href="#SimHei-67"/>
      <use x="900" xlink:href="#SimHei-72"/>
      <use x="950" xlink:href="#SimHei-61"/>
      <use x="1000" xlink:href="#SimHei-64"/>
      <use x="1050" xlink:href="#SimHei-69"/>
      <use x="1100" xlink:href="#SimHei-65"/>
      <use x="1150" xlink:href="#SimHei-6e"/>
      <use x="1200" xlink:href="#SimHei-74"/>
      <use x="1250" xlink:href="#SimHei-20"/>
      <use x="1300" xlink:href="#SimHei-64"/>
      <use x="1350" xlink:href="#SimHei-65"/>
      <use x="1400" xlink:href="#SimHei-73"/>
      <use x="1450" xlink:href="#SimHei-63"/>
      <use x="1500" xlink:href="#SimHei-65"/>
      <use x="1550" xlink:href="#SimHei-6e"/>
      <use x="1600" xlink:href="#SimHei-74"/>
      <use x="1650" xlink:href="#SimHei-29"/>
     </g>
    </g>
    <g id="line2d_26">
     <path d="M 66.6 267.334 
L 86.6 267.334 
" style="fill:none;stroke:#ffff00;stroke-linecap:square;"/>
    </g>
    <g id="line2d_27"/>
    <g id="text_19">
     <!-- predict func(conjugate gradient descent) -->
     <g transform="translate(94.6 270.834)scale(0.1 -0.1)">
      <defs>
       <path d="M 2300 3725 
L 1800 3725 
L 1800 4375 
L 2300 4375 
L 2300 3725 
z
M 2300 150 
Q 2300 -300 2025 -550 
Q 1750 -800 1300 -800 
Q 1025 -800 862 -762 
Q 700 -725 575 -675 
L 575 -175 
Q 700 -250 875 -300 
Q 1050 -350 1325 -350 
Q 1600 -350 1700 -212 
Q 1800 -75 1800 125 
L 1800 2925 
L 2300 2925 
L 2300 150 
z
" id="SimHei-6a" transform="scale(0.015625)"/>
      </defs>
      <use xlink:href="#SimHei-70"/>
      <use x="50" xlink:href="#SimHei-72"/>
      <use x="100" xlink:href="#SimHei-65"/>
      <use x="150" xlink:href="#SimHei-64"/>
      <use x="200" xlink:href="#SimHei-69"/>
      <use x="250" xlink:href="#SimHei-63"/>
      <use x="300" xlink:href="#SimHei-74"/>
      <use x="350" xlink:href="#SimHei-20"/>
      <use x="400" xlink:href="#SimHei-66"/>
      <use x="450" xlink:href="#SimHei-75"/>
      <use x="500" xlink:href="#SimHei-6e"/>
      <use x="550" xlink:href="#SimHei-63"/>
      <use x="600" xlink:href="#SimHei-28"/>
      <use x="650" xlink:href="#SimHei-63"/>
      <use x="700" xlink:href="#SimHei-6f"/>
      <use x="750" xlink:href="#SimHei-6e"/>
      <use x="800" xlink:href="#SimHei-6a"/>
      <use x="850" xlink:href="#SimHei-75"/>
      <use x="900" xlink:href="#SimHei-67"/>
      <use x="950" xlink:href="#SimHei-61"/>
      <use x="1000" xlink:href="#SimHei-74"/>
      <use x="1050" xlink:href="#SimHei-65"/>
      <use x="1100" xlink:href="#SimHei-20"/>
      <use x="1150" xlink:href="#SimHei-67"/>
      <use x="1200" xlink:href="#SimHei-72"/>
      <use x="1250" xlink:href="#SimHei-61"/>
      <use x="1300" xlink:href="#SimHei-64"/>
      <use x="1350" xlink:href="#SimHei-69"/>
      <use x="1400" xlink:href="#SimHei-65"/>
      <use x="1450" xlink:href="#SimHei-6e"/>
      <use x="1500" xlink:href="#SimHei-74"/>
      <use x="1550" xlink:href="#SimHei-20"/>
      <use x="1600" xlink:href="#SimHei-64"/>
      <use x="1650" xlink:href="#SimHei-65"/>
      <use x="1700" xlink:href="#SimHei-73"/>
      <use x="1750" xlink:href="#SimHei-63"/>
      <use x="1800" xlink:href="#SimHei-65"/>
      <use x="1850" xlink:href="#SimHei-6e"/>
      <use x="1900" xlink:href="#SimHei-74"/>
      <use x="1950" xlink:href="#SimHei-29"/>
     </g>
    </g>
    <g id="line2d_28">
     <path d="M 66.6 280.584 
L 86.6 280.584 
" style="fill:none;stroke:#000000;stroke-dasharray:3.7,1.6;stroke-dashoffset:0;"/>
    </g>
    <g id="line2d_29"/>
    <g id="text_20">
     <!-- real func -->
     <g transform="translate(94.6 284.084)scale(0.1 -0.1)">
      <use xlink:href="#SimHei-72"/>
      <use x="50" xlink:href="#SimHei-65"/>
      <use x="100" xlink:href="#SimHei-61"/>
      <use x="150" xlink:href="#SimHei-6c"/>
      <use x="200" xlink:href="#SimHei-20"/>
      <use x="250" xlink:href="#SimHei-66"/>
      <use x="300" xlink:href="#SimHei-75"/>
      <use x="350" xlink:href="#SimHei-6e"/>
      <use x="400" xlink:href="#SimHei-63"/>
     </g>
    </g>
    <g id="PathCollection_2">
     <g>
      <use style="fill:#008000;stroke:#008000;" x="76.6" xlink:href="#m56555f82be" y="294.709"/>
     </g>
    </g>
    <g id="text_21">
     <!-- train data -->
     <g transform="translate(94.6 297.334)scale(0.1 -0.1)">
      <use xlink:href="#SimHei-74"/>
      <use x="50" xlink:href="#SimHei-72"/>
      <use x="100" xlink:href="#SimHei-61"/>
      <use x="150" xlink:href="#SimHei-69"/>
      <use x="200" xlink:href="#SimHei-6e"/>
      <use x="250" xlink:href="#SimHei-20"/>
      <use x="300" xlink:href="#SimHei-64"/>
      <use x="350" xlink:href="#SimHei-61"/>
      <use x="400" xlink:href="#SimHei-74"/>
      <use x="450" xlink:href="#SimHei-61"/>
     </g>
    </g>
   </g>
  </g>
 </g>
 <defs>
  <clipPath id="pe688079781">
   <rect height="266.112" width="357.12" x="57.6" y="41.472"/>
  </clipPath>
 </defs>
</svg>
