<?xml version="1.0" encoding="utf-8" standalone="no"?>
<!DOCTYPE svg PUBLIC "-//W3C//DTD SVG 1.1//EN"
  "http://www.w3.org/Graphics/SVG/1.1/DTD/svg11.dtd">
<svg height="345.6pt" version="1.1" viewBox="0 0 460.8 345.6" width="460.8pt" xmlns="http://www.w3.org/2000/svg" xmlns:xlink="http://www.w3.org/1999/xlink">
 <metadata>
  <rdf:RDF xmlns:cc="http://creativecommons.org/ns#" xmlns:dc="http://purl.org/dc/elements/1.1/" xmlns:rdf="http://www.w3.org/1999/02/22-rdf-syntax-ns#">
   <cc:Work>
    <dc:type rdf:resource="http://purl.org/dc/dcmitype/StillImage"/>
    <dc:date>2021-10-07T21:07:53.865206</dc:date>
    <dc:format>image/svg+xml</dc:format>
    <dc:creator>
     <cc:Agent>
      <dc:title>Matplotlib v3.4.2, https://matplotlib.org/</dc:title>
     </cc:Agent>
    </dc:creator>
   </cc:Work>
  </rdf:RDF>
 </metadata>
 <defs>
  <style type="text/css">*{stroke-linecap:butt;stroke-linejoin:round;}</style>
 </defs>
 <g id="figure_1">
  <g id="patch_1">
   <path d="M 0 345.6 
L 460.8 345.6 
L 460.8 0 
L 0 0 
z
" style="fill:#ffffff;"/>
  </g>
  <g id="axes_1">
   <g id="patch_2">
    <path d="M 57.6 307.584 
L 414.72 307.584 
L 414.72 41.472 
L 57.6 41.472 
z
" style="fill:#ffffff;"/>
   </g>
   <g id="PathCollection_1">
    <defs>
     <path d="M 0 1.581139 
C 0.419323 1.581139 0.821528 1.41454 1.118034 1.118034 
C 1.41454 0.821528 1.581139 0.419323 1.581139 0 
C 1.581139 -0.419323 1.41454 -0.821528 1.118034 -1.118034 
C 0.821528 -1.41454 0.419323 -1.581139 0 -1.581139 
C -0.419323 -1.581139 -0.821528 -1.41454 -1.118034 -1.118034 
C -1.41454 -0.821528 -1.581139 -0.419323 -1.581139 0 
C -1.581139 0.419323 -1.41454 0.821528 -1.118034 1.118034 
C -0.821528 1.41454 -0.419323 1.581139 0 1.581139 
z
" id="m6706f38764" style="stroke:#008000;"/>
    </defs>
    <g clip-path="url(#p49d74e2d54)">
     <use style="fill:#008000;stroke:#008000;" x="73.832727" xlink:href="#m6706f38764" y="164.724782"/>
     <use style="fill:#008000;stroke:#008000;" x="109.905455" xlink:href="#m6706f38764" y="121.081615"/>
     <use style="fill:#008000;stroke:#008000;" x="145.978182" xlink:href="#m6706f38764" y="56.799821"/>
     <use style="fill:#008000;stroke:#008000;" x="182.050909" xlink:href="#m6706f38764" y="81.052112"/>
     <use style="fill:#008000;stroke:#008000;" x="218.123636" xlink:href="#m6706f38764" y="166.399563"/>
     <use style="fill:#008000;stroke:#008000;" x="254.196364" xlink:href="#m6706f38764" y="200.364452"/>
     <use style="fill:#008000;stroke:#008000;" x="290.269091" xlink:href="#m6706f38764" y="271.457185"/>
     <use style="fill:#008000;stroke:#008000;" x="326.341818" xlink:href="#m6706f38764" y="295.488"/>
     <use style="fill:#008000;stroke:#008000;" x="362.414545" xlink:href="#m6706f38764" y="258.824975"/>
     <use style="fill:#008000;stroke:#008000;" x="398.487273" xlink:href="#m6706f38764" y="159.133062"/>
    </g>
   </g>
   <g id="matplotlib.axis_1">
    <g id="xtick_1">
     <g id="line2d_1">
      <defs>
       <path d="M 0 0 
L 0 3.5 
" id="m499aeba972" style="stroke:#000000;stroke-width:0.8;"/>
      </defs>
      <g>
       <use style="stroke:#000000;stroke-width:0.8;" x="73.832727" xlink:href="#m499aeba972" y="307.584"/>
      </g>
     </g>
     <g id="text_1">
      <!-- 0.0 -->
      <g transform="translate(66.332727 321.459)scale(0.1 -0.1)">
       <defs>
        <path d="M 225 2537 
Q 250 3200 412 3587 
Q 575 3975 875 4225 
Q 1175 4475 1612 4475 
Q 2050 4475 2375 4112 
Q 2700 3750 2800 3200 
Q 2900 2650 2862 1937 
Q 2825 1225 2612 775 
Q 2400 325 1975 150 
Q 1550 -25 1125 187 
Q 700 400 525 750 
Q 350 1100 275 1487 
Q 200 1875 225 2537 
z
M 750 2687 
Q 675 2000 800 1462 
Q 925 925 1212 700 
Q 1500 475 1800 612 
Q 2100 750 2237 1162 
Q 2375 1575 2375 2062 
Q 2375 2550 2337 2950 
Q 2300 3350 2112 3675 
Q 1925 4000 1612 4012 
Q 1300 4025 1062 3700 
Q 825 3375 750 2687 
z
" id="SimHei-30" transform="scale(0.015625)"/>
        <path d="M 1075 125 
L 500 125 
L 500 675 
L 1075 675 
L 1075 125 
z
" id="SimHei-2e" transform="scale(0.015625)"/>
       </defs>
       <use xlink:href="#SimHei-30"/>
       <use x="50" xlink:href="#SimHei-2e"/>
       <use x="100" xlink:href="#SimHei-30"/>
      </g>
     </g>
    </g>
    <g id="xtick_2">
     <g id="line2d_2">
      <g>
       <use style="stroke:#000000;stroke-width:0.8;" x="138.763636" xlink:href="#m499aeba972" y="307.584"/>
      </g>
     </g>
     <g id="text_2">
      <!-- 0.2 -->
      <g transform="translate(131.263636 321.459)scale(0.1 -0.1)">
       <defs>
        <path d="M 300 250 
Q 325 625 650 925 
Q 975 1225 1475 1862 
Q 1975 2500 2125 2850 
Q 2275 3200 2237 3450 
Q 2200 3700 2000 3862 
Q 1800 4025 1537 4000 
Q 1275 3975 1037 3800 
Q 800 3625 675 3275 
L 200 3350 
Q 400 3925 712 4187 
Q 1025 4450 1450 4475 
Q 1700 4500 1900 4462 
Q 2100 4425 2312 4287 
Q 2525 4150 2662 3875 
Q 2800 3600 2762 3212 
Q 2725 2825 2375 2287 
Q 2025 1750 1025 600 
L 2825 600 
L 2825 150 
L 300 150 
L 300 250 
z
" id="SimHei-32" transform="scale(0.015625)"/>
       </defs>
       <use xlink:href="#SimHei-30"/>
       <use x="50" xlink:href="#SimHei-2e"/>
       <use x="100" xlink:href="#SimHei-32"/>
      </g>
     </g>
    </g>
    <g id="xtick_3">
     <g id="line2d_3">
      <g>
       <use style="stroke:#000000;stroke-width:0.8;" x="203.694545" xlink:href="#m499aeba972" y="307.584"/>
      </g>
     </g>
     <g id="text_3">
      <!-- 0.4 -->
      <g transform="translate(196.194545 321.459)scale(0.1 -0.1)">
       <defs>
        <path d="M 2000 1100 
L 75 1100 
L 75 1525 
L 2100 4450 
L 2475 4450 
L 2475 1525 
L 3075 1525 
L 3075 1100 
L 2475 1100 
L 2475 150 
L 2000 150 
L 2000 1100 
z
M 2000 1525 
L 2000 3500 
L 600 1525 
L 2000 1525 
z
" id="SimHei-34" transform="scale(0.015625)"/>
       </defs>
       <use xlink:href="#SimHei-30"/>
       <use x="50" xlink:href="#SimHei-2e"/>
       <use x="100" xlink:href="#SimHei-34"/>
      </g>
     </g>
    </g>
    <g id="xtick_4">
     <g id="line2d_4">
      <g>
       <use style="stroke:#000000;stroke-width:0.8;" x="268.625455" xlink:href="#m499aeba972" y="307.584"/>
      </g>
     </g>
     <g id="text_4">
      <!-- 0.6 -->
      <g transform="translate(261.125455 321.459)scale(0.1 -0.1)">
       <defs>
        <path d="M 250 1612 
Q 275 1975 387 2225 
Q 500 2475 725 2850 
L 1750 4450 
L 2325 4450 
L 1275 2800 
Q 1950 2975 2350 2750 
Q 2750 2525 2887 2237 
Q 3025 1950 3037 1612 
Q 3050 1275 2937 950 
Q 2825 625 2537 362 
Q 2250 100 1737 75 
Q 1225 50 862 262 
Q 500 475 362 862 
Q 225 1250 250 1612 
z
M 1025 787 
Q 1250 550 1625 525 
Q 2000 500 2250 775 
Q 2500 1050 2500 1575 
Q 2500 2100 2187 2300 
Q 1875 2500 1487 2450 
Q 1100 2400 925 2075 
Q 750 1750 775 1387 
Q 800 1025 1025 787 
z
" id="SimHei-36" transform="scale(0.015625)"/>
       </defs>
       <use xlink:href="#SimHei-30"/>
       <use x="50" xlink:href="#SimHei-2e"/>
       <use x="100" xlink:href="#SimHei-36"/>
      </g>
     </g>
    </g>
    <g id="xtick_5">
     <g id="line2d_5">
      <g>
       <use style="stroke:#000000;stroke-width:0.8;" x="333.556364" xlink:href="#m499aeba972" y="307.584"/>
      </g>
     </g>
     <g id="text_5">
      <!-- 0.8 -->
      <g transform="translate(326.056364 321.459)scale(0.1 -0.1)">
       <defs>
        <path d="M 175 1375 
Q 175 1675 325 1962 
Q 475 2250 825 2425 
Q 525 2600 425 2812 
Q 325 3025 312 3300 
Q 300 3575 387 3775 
Q 475 3975 650 4150 
Q 825 4325 1037 4387 
Q 1250 4450 1500 4450 
Q 1750 4450 1950 4400 
Q 2150 4350 2375 4187 
Q 2600 4025 2700 3725 
Q 2800 3425 2687 3025 
Q 2575 2625 2100 2400 
Q 2525 2275 2700 2012 
Q 2875 1750 2875 1375 
Q 2875 1000 2762 775 
Q 2650 550 2512 400 
Q 2375 250 2137 162 
Q 1900 75 1537 75 
Q 1175 75 912 162 
Q 650 250 475 425 
Q 300 600 237 837 
Q 175 1075 175 1375 
z
M 687 1400 
Q 675 1100 787 875 
Q 900 650 1200 587 
Q 1500 525 1825 600 
Q 2150 675 2275 950 
Q 2400 1225 2362 1500 
Q 2325 1775 2050 1962 
Q 1775 2150 1450 2125 
Q 1125 2100 912 1900 
Q 700 1700 687 1400 
z
M 775 3350 
Q 775 3100 950 2875 
Q 1125 2650 1500 2650 
Q 1875 2650 2062 2875 
Q 2250 3100 2237 3412 
Q 2225 3725 2012 3875 
Q 1800 4025 1437 4000 
Q 1075 3975 925 3787 
Q 775 3600 775 3350 
z
" id="SimHei-38" transform="scale(0.015625)"/>
       </defs>
       <use xlink:href="#SimHei-30"/>
       <use x="50" xlink:href="#SimHei-2e"/>
       <use x="100" xlink:href="#SimHei-38"/>
      </g>
     </g>
    </g>
    <g id="xtick_6">
     <g id="line2d_6">
      <g>
       <use style="stroke:#000000;stroke-width:0.8;" x="398.487273" xlink:href="#m499aeba972" y="307.584"/>
      </g>
     </g>
     <g id="text_6">
      <!-- 1.0 -->
      <g transform="translate(390.987273 321.459)scale(0.1 -0.1)">
       <defs>
        <path d="M 1400 3600 
Q 1075 3275 575 2975 
L 575 3450 
Q 1200 3875 1600 4450 
L 1900 4450 
L 1900 150 
L 1400 150 
L 1400 3600 
z
" id="SimHei-31" transform="scale(0.015625)"/>
       </defs>
       <use xlink:href="#SimHei-31"/>
       <use x="50" xlink:href="#SimHei-2e"/>
       <use x="100" xlink:href="#SimHei-30"/>
      </g>
     </g>
    </g>
    <g id="text_7">
     <!-- x -->
     <g transform="translate(233.66 333.584)scale(0.1 -0.1)">
      <defs>
       <path d="M 2875 125 
L 2275 125 
L 1550 1200 
L 825 125 
L 225 125 
L 1250 1550 
L 300 2925 
L 900 2925 
L 1550 1875 
L 2200 2925 
L 2800 2925 
L 1850 1550 
L 2875 125 
z
" id="SimHei-78" transform="scale(0.015625)"/>
      </defs>
      <use xlink:href="#SimHei-78"/>
     </g>
    </g>
   </g>
   <g id="matplotlib.axis_2">
    <g id="ytick_1">
     <g id="line2d_7">
      <defs>
       <path d="M 0 0 
L -3.5 0 
" id="m6f6d627ce7" style="stroke:#000000;stroke-width:0.8;"/>
      </defs>
      <g>
       <use style="stroke:#000000;stroke-width:0.8;" x="57.6" xlink:href="#m6f6d627ce7" y="280.414921"/>
      </g>
     </g>
     <g id="text_8">
      <!-- -1.0 -->
      <g transform="translate(30.6 283.852421)scale(0.1 -0.1)">
       <defs>
        <path d="M 2975 2125 
L 125 2125 
L 125 2525 
L 2975 2525 
L 2975 2125 
z
" id="SimHei-2d" transform="scale(0.015625)"/>
       </defs>
       <use xlink:href="#SimHei-2d"/>
       <use x="50" xlink:href="#SimHei-31"/>
       <use x="100" xlink:href="#SimHei-2e"/>
       <use x="150" xlink:href="#SimHei-30"/>
      </g>
     </g>
    </g>
    <g id="ytick_2">
     <g id="line2d_8">
      <g>
       <use style="stroke:#000000;stroke-width:0.8;" x="57.6" xlink:href="#m6f6d627ce7" y="223.702307"/>
      </g>
     </g>
     <g id="text_9">
      <!-- -0.5 -->
      <g transform="translate(30.6 227.139807)scale(0.1 -0.1)">
       <defs>
        <path d="M 550 1325 
Q 725 650 1150 575 
Q 1575 500 1837 662 
Q 2100 825 2212 1087 
Q 2325 1350 2312 1675 
Q 2300 2000 2137 2225 
Q 1975 2450 1725 2525 
Q 1475 2600 1162 2525 
Q 850 2450 650 2175 
L 225 2225 
Q 275 2375 700 4375 
L 2675 4375 
L 2675 3925 
L 1075 3925 
Q 950 3250 825 2850 
Q 1200 3025 1525 3012 
Q 1850 3000 2150 2862 
Q 2450 2725 2587 2487 
Q 2725 2250 2787 2012 
Q 2850 1775 2837 1500 
Q 2825 1225 2725 937 
Q 2625 650 2425 462 
Q 2225 275 1937 162 
Q 1650 50 1275 75 
Q 900 100 562 350 
Q 225 600 100 1200 
L 550 1325 
z
" id="SimHei-35" transform="scale(0.015625)"/>
       </defs>
       <use xlink:href="#SimHei-2d"/>
       <use x="50" xlink:href="#SimHei-30"/>
       <use x="100" xlink:href="#SimHei-2e"/>
       <use x="150" xlink:href="#SimHei-35"/>
      </g>
     </g>
    </g>
    <g id="ytick_3">
     <g id="line2d_9">
      <g>
       <use style="stroke:#000000;stroke-width:0.8;" x="57.6" xlink:href="#m6f6d627ce7" y="166.989694"/>
      </g>
     </g>
     <g id="text_10">
      <!-- 0.0 -->
      <g transform="translate(35.6 170.427194)scale(0.1 -0.1)">
       <use xlink:href="#SimHei-30"/>
       <use x="50" xlink:href="#SimHei-2e"/>
       <use x="100" xlink:href="#SimHei-30"/>
      </g>
     </g>
    </g>
    <g id="ytick_4">
     <g id="line2d_10">
      <g>
       <use style="stroke:#000000;stroke-width:0.8;" x="57.6" xlink:href="#m6f6d627ce7" y="110.27708"/>
      </g>
     </g>
     <g id="text_11">
      <!-- 0.5 -->
      <g transform="translate(35.6 113.71458)scale(0.1 -0.1)">
       <use xlink:href="#SimHei-30"/>
       <use x="50" xlink:href="#SimHei-2e"/>
       <use x="100" xlink:href="#SimHei-35"/>
      </g>
     </g>
    </g>
    <g id="ytick_5">
     <g id="line2d_11">
      <g>
       <use style="stroke:#000000;stroke-width:0.8;" x="57.6" xlink:href="#m6f6d627ce7" y="53.564466"/>
      </g>
     </g>
     <g id="text_12">
      <!-- 1.0 -->
      <g transform="translate(35.6 57.001966)scale(0.1 -0.1)">
       <use xlink:href="#SimHei-31"/>
       <use x="50" xlink:href="#SimHei-2e"/>
       <use x="100" xlink:href="#SimHei-30"/>
      </g>
     </g>
    </g>
    <g id="text_13">
     <!-- y -->
     <g transform="translate(25.35 177.028)rotate(-90)scale(0.1 -0.1)">
      <defs>
       <path d="M 2900 2925 
L 1750 -100 
Q 1650 -450 1450 -625 
Q 1250 -800 950 -800 
Q 825 -800 712 -787 
Q 600 -775 500 -725 
L 500 -225 
Q 600 -275 700 -300 
Q 800 -325 875 -325 
Q 1075 -325 1150 -262 
Q 1225 -200 1300 25 
L 200 2925 
L 750 2925 
L 1550 725 
L 1575 725 
L 2350 2925 
L 2900 2925 
z
" id="SimHei-79" transform="scale(0.015625)"/>
      </defs>
      <use xlink:href="#SimHei-79"/>
     </g>
    </g>
   </g>
   <g id="line2d_12">
    <path clip-path="url(#p49d74e2d54)" d="M 73.832727 167.646678 
L 78.727017 156.134602 
L 83.621307 145.388602 
L 86.884166 138.654253 
L 90.147026 132.266166 
L 93.409886 126.226274 
L 96.672746 120.53628 
L 99.935605 115.197646 
L 103.198465 110.211579 
L 106.461325 105.579023 
L 109.724185 101.300641 
L 112.987044 97.37681 
L 116.249904 93.807605 
L 119.512764 90.592785 
L 122.775624 87.73179 
L 126.038483 85.22372 
L 129.301343 83.067329 
L 132.564203 81.261012 
L 135.827063 79.802796 
L 139.089922 78.690327 
L 142.352782 77.92086 
L 145.615642 77.491252 
L 148.878502 77.397948 
L 152.141361 77.636975 
L 155.404221 78.20393 
L 158.667081 79.093976 
L 161.929941 80.30183 
L 165.1928 81.821758 
L 168.45566 83.647565 
L 171.71852 85.772594 
L 174.98138 88.189714 
L 178.244239 90.89132 
L 181.507099 93.869324 
L 184.769959 97.115157 
L 188.032819 100.619758 
L 191.295678 104.37358 
L 194.558538 108.366583 
L 199.452828 114.781375 
L 204.347117 121.672887 
L 209.241407 129.001012 
L 214.135697 136.723181 
L 219.029986 144.794389 
L 225.555706 156.016692 
L 233.712855 170.616649 
L 245.132864 191.676445 
L 259.815733 218.728743 
L 266.341453 230.345149 
L 272.867172 241.492894 
L 277.761462 249.450624 
L 282.655751 256.987299 
L 287.550041 264.034259 
L 290.812901 268.426101 
L 294.075761 272.549156 
L 297.33862 276.382977 
L 300.60148 279.907183 
L 303.86434 283.101499 
L 307.1272 285.9458 
L 310.390059 288.420157 
L 313.652919 290.504883 
L 316.915779 292.180582 
L 320.178639 293.4282 
L 323.441498 294.229079 
L 325.072928 294.456283 
L 326.704358 294.565013 
L 328.335788 294.553072 
L 329.967218 294.4183 
L 331.598648 294.158573 
L 333.230078 293.771806 
L 334.861508 293.255957 
L 336.492937 292.609025 
L 338.124367 291.829055 
L 339.755797 290.914139 
L 341.387227 289.862419 
L 343.018657 288.672088 
L 346.281517 285.868635 
L 349.544376 282.490433 
L 352.807236 278.525105 
L 356.070096 273.961307 
L 359.332956 268.788816 
L 362.595815 262.9986 
L 365.858675 256.582902 
L 369.121535 249.535326 
L 372.384395 241.850918 
L 375.647254 233.526261 
L 378.910114 224.559557 
L 382.172974 214.95073 
L 385.435834 204.701514 
L 388.698693 193.815555 
L 391.961553 182.298513 
L 395.224413 170.158162 
L 398.487273 157.4045 
L 398.487273 157.4045 
" style="fill:none;stroke:#0000ff;stroke-linecap:square;"/>
   </g>
   <g id="line2d_13">
    <path clip-path="url(#p49d74e2d54)" d="M 73.832727 164.126387 
L 78.727017 153.460332 
L 83.621307 143.509578 
L 88.515596 134.280292 
L 91.778456 128.530918 
L 95.041316 123.105938 
L 98.304175 118.006518 
L 101.567035 113.233624 
L 104.829895 108.78801 
L 108.092755 104.670214 
L 111.355614 100.880541 
L 114.618474 97.419058 
L 117.881334 94.28558 
L 121.144194 91.479663 
L 124.407053 89.000594 
L 127.669913 86.847378 
L 130.932773 85.018732 
L 134.195633 83.513072 
L 137.458492 82.328504 
L 140.721352 81.462817 
L 143.984212 80.913469 
L 147.247072 80.677584 
L 150.509931 80.751935 
L 153.772791 81.132943 
L 157.035651 81.816663 
L 160.298511 82.798779 
L 163.56137 84.074593 
L 166.82423 85.639021 
L 170.08709 87.486583 
L 173.34995 89.611396 
L 176.61281 92.007168 
L 179.875669 94.667191 
L 183.138529 97.584338 
L 186.401389 100.751052 
L 189.664249 104.159348 
L 192.927108 107.800801 
L 197.821398 113.680642 
L 202.715688 120.033252 
L 207.609977 126.824574 
L 212.504267 134.018268 
L 217.398556 141.575704 
L 223.924276 152.147046 
L 230.449995 163.188708 
L 238.607145 177.483206 
L 251.658584 200.939526 
L 263.078593 221.342672 
L 269.604312 232.646722 
L 276.130032 243.507504 
L 281.024322 251.269486 
L 285.918611 258.628454 
L 290.812901 265.516143 
L 294.075761 269.811852 
L 297.33862 273.8464 
L 300.60148 277.598755 
L 303.86434 281.047726 
L 307.1272 284.171984 
L 310.390059 286.950098 
L 313.652919 289.360551 
L 316.915779 291.381779 
L 320.178639 292.992193 
L 323.441498 294.170219 
L 325.072928 294.590354 
L 326.704358 294.894323 
L 328.335788 295.079445 
L 329.967218 295.143048 
L 331.598648 295.082469 
L 333.230078 294.895054 
L 334.861508 294.578157 
L 336.492937 294.129146 
L 338.124367 293.545403 
L 339.755797 292.824323 
L 341.387227 291.963315 
L 343.018657 290.959807 
L 344.650087 289.811246 
L 346.281517 288.515094 
L 347.912947 287.06884 
L 351.175806 283.716078 
L 354.438666 279.733318 
L 357.701526 275.101346 
L 360.964386 269.80142 
L 364.227245 263.815322 
L 367.490105 257.125412 
L 370.752965 249.714674 
L 374.015825 241.566777 
L 377.278684 232.666127 
L 380.541544 222.997929 
L 383.804404 212.548242 
L 387.067264 201.304043 
L 390.330123 189.25329 
L 393.592983 176.384984 
L 396.855843 162.689241 
L 398.487273 155.528312 
L 398.487273 155.528312 
" style="fill:none;stroke:#ff0000;stroke-linecap:square;"/>
   </g>
   <g id="line2d_14">
    <path clip-path="url(#p49d74e2d54)" d="M 73.832727 166.989694 
L 85.252736 142.124437 
L 91.778456 128.383001 
L 96.672746 118.468869 
L 101.567035 108.989747 
L 106.461325 100.03062 
L 111.355614 91.67181 
L 114.618474 86.47003 
L 117.881334 81.589224 
L 121.144194 77.04885 
L 124.407053 72.867006 
L 127.669913 69.060363 
L 130.932773 65.644095 
L 134.195633 62.63182 
L 137.458492 60.035546 
L 140.721352 57.865623 
L 143.984212 56.130701 
L 147.247072 54.837695 
L 150.509931 53.991759 
L 152.141361 53.737567 
L 153.772791 53.596267 
L 155.404221 53.568 
L 157.035651 53.652794 
L 158.667081 53.850565 
L 161.929941 54.584136 
L 165.1928 55.765788 
L 168.45566 57.390811 
L 171.71852 59.452728 
L 174.98138 61.943319 
L 178.244239 64.852655 
L 181.507099 68.169139 
L 184.769959 71.879551 
L 188.032819 75.9691 
L 191.295678 80.421484 
L 194.558538 85.218954 
L 197.821398 90.342387 
L 201.084258 95.771358 
L 205.978547 104.440046 
L 210.872837 113.66952 
L 215.767127 123.377032 
L 222.292846 136.913051 
L 230.449995 154.480763 
L 250.027154 197.066337 
L 256.552873 210.602355 
L 261.447163 220.309868 
L 266.341453 229.539341 
L 271.235742 238.20803 
L 274.498602 243.637001 
L 277.761462 248.760433 
L 281.024322 253.557903 
L 284.287181 258.010287 
L 287.550041 262.099836 
L 290.812901 265.810248 
L 294.075761 269.126733 
L 297.33862 272.036069 
L 300.60148 274.526659 
L 303.86434 276.588576 
L 307.1272 278.213599 
L 310.390059 279.395252 
L 313.652919 280.128822 
L 315.284349 280.326593 
L 316.915779 280.411387 
L 318.547209 280.38312 
L 320.178639 280.24182 
L 321.810069 279.987628 
L 325.072928 279.141693 
L 328.335788 277.848687 
L 331.598648 276.113764 
L 334.861508 273.943841 
L 338.124367 271.347567 
L 341.387227 268.335293 
L 344.650087 264.919025 
L 347.912947 261.112381 
L 351.175806 256.930538 
L 354.438666 252.390163 
L 357.701526 247.509358 
L 360.964386 242.307577 
L 365.858675 233.948767 
L 370.752965 224.98964 
L 375.647254 215.510518 
L 380.541544 205.596386 
L 387.067264 191.854951 
L 396.855843 170.570364 
L 398.487273 166.989694 
L 398.487273 166.989694 
" style="fill:none;stroke:#000000;stroke-dasharray:3.7,1.6;stroke-dashoffset:0;"/>
   </g>
   <g id="patch_3">
    <path d="M 57.6 307.584 
L 57.6 41.472 
" style="fill:none;stroke:#000000;stroke-linecap:square;stroke-linejoin:miter;stroke-width:0.8;"/>
   </g>
   <g id="patch_4">
    <path d="M 414.72 307.584 
L 414.72 41.472 
" style="fill:none;stroke:#000000;stroke-linecap:square;stroke-linejoin:miter;stroke-width:0.8;"/>
   </g>
   <g id="patch_5">
    <path d="M 57.6 307.584 
L 414.72 307.584 
" style="fill:none;stroke:#000000;stroke-linecap:square;stroke-linejoin:miter;stroke-width:0.8;"/>
   </g>
   <g id="patch_6">
    <path d="M 57.6 41.472 
L 414.72 41.472 
" style="fill:none;stroke:#000000;stroke-linecap:square;stroke-linejoin:miter;stroke-width:0.8;"/>
   </g>
   <g id="text_14">
    <!-- predict func of different method,m=7,l2_coef=0.0001 -->
    <g transform="translate(83.16 35.472)scale(0.12 -0.12)">
     <defs>
      <path d="M 2825 1525 
Q 2825 800 2475 425 
Q 2125 50 1625 50 
Q 1350 50 1150 162 
Q 950 275 800 500 
L 800 -800 
L 300 -800 
L 300 2925 
L 800 2925 
L 800 2550 
Q 950 2775 1150 2875 
Q 1350 2975 1625 2975 
Q 2125 2975 2475 2612 
Q 2825 2250 2825 1525 
z
M 2275 1525 
Q 2275 2000 2087 2262 
Q 1900 2525 1525 2525 
Q 1225 2525 1012 2262 
Q 800 2000 800 1525 
Q 800 1050 1012 775 
Q 1225 500 1525 500 
Q 1900 500 2087 775 
Q 2275 1050 2275 1525 
z
" id="SimHei-70" transform="scale(0.015625)"/>
      <path d="M 2500 2425 
Q 2025 2500 1700 2287 
Q 1375 2075 1150 1550 
L 1150 125 
L 650 125 
L 650 2925 
L 1150 2925 
L 1150 2200 
Q 1375 2600 1712 2787 
Q 2050 2975 2500 2975 
L 2500 2425 
z
" id="SimHei-72" transform="scale(0.015625)"/>
      <path d="M 2850 1075 
Q 2800 625 2450 350 
Q 2100 75 1625 75 
Q 1025 75 637 462 
Q 250 850 250 1525 
Q 250 2200 637 2587 
Q 1025 2975 1625 2975 
Q 2150 2975 2487 2637 
Q 2825 2300 2825 1525 
L 800 1525 
Q 800 975 1037 750 
Q 1275 525 1625 525 
Q 1900 525 2075 662 
Q 2250 800 2300 1075 
L 2850 1075 
z
M 2250 1925 
Q 2200 2275 2025 2412 
Q 1850 2550 1575 2550 
Q 1325 2550 1125 2412 
Q 925 2275 825 1925 
L 2250 1925 
z
" id="SimHei-65" transform="scale(0.015625)"/>
      <path d="M 2750 125 
L 2250 125 
L 2250 500 
Q 2100 275 1900 175 
Q 1700 75 1425 75 
Q 925 75 575 437 
Q 225 800 225 1525 
Q 225 2250 575 2625 
Q 925 3000 1425 3000 
Q 1700 3000 1900 2887 
Q 2100 2775 2250 2550 
L 2250 4400 
L 2750 4400 
L 2750 125 
z
M 2250 1525 
Q 2250 2000 2037 2275 
Q 1825 2550 1525 2550 
Q 1150 2550 962 2275 
Q 775 2000 775 1525 
Q 775 1050 962 787 
Q 1150 525 1525 525 
Q 1825 525 2037 787 
Q 2250 1050 2250 1525 
z
" id="SimHei-64" transform="scale(0.015625)"/>
      <path d="M 1800 3725 
L 1300 3725 
L 1300 4375 
L 1800 4375 
L 1800 3725 
z
M 1800 125 
L 1300 125 
L 1300 2925 
L 1800 2925 
L 1800 125 
z
" id="SimHei-69" transform="scale(0.015625)"/>
      <path d="M 2850 1250 
Q 2850 725 2487 400 
Q 2125 75 1575 75 
Q 1025 75 625 462 
Q 225 850 225 1525 
Q 225 2200 625 2587 
Q 1025 2975 1575 2975 
Q 2125 2975 2450 2687 
Q 2775 2400 2775 2000 
L 2225 2000 
Q 2200 2300 2012 2412 
Q 1825 2525 1575 2525 
Q 1275 2525 1025 2287 
Q 775 2050 775 1525 
Q 775 1000 1025 762 
Q 1275 525 1575 525 
Q 1900 525 2100 700 
Q 2300 875 2300 1250 
L 2850 1250 
z
" id="SimHei-63" transform="scale(0.015625)"/>
      <path d="M 2750 200 
Q 2625 150 2462 112 
Q 2300 75 2025 75 
Q 1575 75 1300 325 
Q 1025 575 1025 1025 
L 1025 2525 
L 175 2525 
L 175 2925 
L 1025 2925 
L 1025 3900 
L 1525 3900 
L 1525 2925 
L 2550 2925 
L 2550 2525 
L 1525 2525 
L 1525 1000 
Q 1525 800 1625 662 
Q 1725 525 2000 525 
Q 2275 525 2450 575 
Q 2625 625 2750 700 
L 2750 200 
z
" id="SimHei-74" transform="scale(0.015625)"/>
      <path id="SimHei-20" transform="scale(0.015625)"/>
      <path d="M 2850 3825 
Q 2725 3900 2550 3950 
Q 2375 4000 2100 4000 
Q 1825 4000 1725 3862 
Q 1625 3725 1625 3525 
L 1625 2925 
L 2650 2925 
L 2650 2525 
L 1625 2525 
L 1625 125 
L 1125 125 
L 1125 2525 
L 275 2525 
L 275 2925 
L 1125 2925 
L 1125 3500 
Q 1125 3950 1400 4200 
Q 1675 4450 2125 4450 
Q 2400 4450 2562 4412 
Q 2725 4375 2850 4325 
L 2850 3825 
z
" id="SimHei-66" transform="scale(0.015625)"/>
      <path d="M 2800 125 
L 2300 125 
L 2300 650 
Q 2100 375 1862 225 
Q 1625 75 1250 75 
Q 800 75 575 325 
Q 350 575 350 950 
L 350 2925 
L 850 2925 
L 850 1125 
Q 850 825 1000 650 
Q 1150 475 1400 475 
Q 1725 475 2012 812 
Q 2300 1150 2300 1650 
L 2300 2925 
L 2800 2925 
L 2800 125 
z
" id="SimHei-75" transform="scale(0.015625)"/>
      <path d="M 2800 125 
L 2300 125 
L 2300 1925 
Q 2300 2225 2150 2400 
Q 2000 2575 1750 2575 
Q 1425 2575 1137 2237 
Q 850 1900 850 1400 
L 850 125 
L 350 125 
L 350 2925 
L 850 2925 
L 850 2400 
Q 1050 2675 1287 2825 
Q 1525 2975 1900 2975 
Q 2350 2975 2575 2725 
Q 2800 2475 2800 2100 
L 2800 125 
z
" id="SimHei-6e" transform="scale(0.015625)"/>
      <path d="M 2925 1525 
Q 2925 875 2525 475 
Q 2125 75 1575 75 
Q 1025 75 625 475 
Q 225 875 225 1525 
Q 225 2175 625 2575 
Q 1025 2975 1575 2975 
Q 2125 2975 2525 2575 
Q 2925 2175 2925 1525 
z
M 2375 1525 
Q 2375 2025 2125 2275 
Q 1875 2525 1575 2525 
Q 1275 2525 1025 2275 
Q 775 2025 775 1525 
Q 775 1025 1025 775 
Q 1275 525 1575 525 
Q 1875 525 2125 775 
Q 2375 1025 2375 1525 
z
" id="SimHei-6f" transform="scale(0.015625)"/>
      <path d="M 3050 125 
L 2550 125 
L 2550 2150 
Q 2550 2300 2500 2400 
Q 2450 2500 2300 2500 
Q 2125 2500 1975 2312 
Q 1825 2125 1825 1825 
L 1825 125 
L 1325 125 
L 1325 2150 
Q 1325 2300 1275 2400 
Q 1225 2500 1075 2500 
Q 900 2500 750 2312 
Q 600 2125 600 1825 
L 600 125 
L 100 125 
L 100 2925 
L 600 2925 
L 600 2550 
Q 725 2750 900 2862 
Q 1075 2975 1275 2975 
Q 1475 2975 1612 2862 
Q 1750 2750 1800 2550 
Q 1925 2750 2087 2862 
Q 2250 2975 2450 2975 
Q 2750 2975 2900 2812 
Q 3050 2650 3050 2350 
L 3050 125 
z
" id="SimHei-6d" transform="scale(0.015625)"/>
      <path d="M 2800 125 
L 2300 125 
L 2300 1925 
Q 2300 2225 2150 2400 
Q 2000 2575 1750 2575 
Q 1425 2575 1137 2237 
Q 850 1900 850 1400 
L 850 125 
L 350 125 
L 350 4400 
L 850 4400 
L 850 2400 
Q 1050 2675 1287 2825 
Q 1525 2975 1900 2975 
Q 2350 2975 2575 2725 
Q 2800 2475 2800 2100 
L 2800 125 
z
" id="SimHei-68" transform="scale(0.015625)"/>
      <path d="M 1100 125 
L 775 -550 
L 525 -550 
L 775 125 
L 525 125 
L 525 675 
L 1100 675 
L 1100 125 
z
" id="SimHei-2c" transform="scale(0.015625)"/>
      <path d="M 2975 2900 
L 125 2900 
L 125 3300 
L 2975 3300 
L 2975 2900 
z
M 2975 1375 
L 125 1375 
L 125 1775 
L 2975 1775 
L 2975 1375 
z
" id="SimHei-3d" transform="scale(0.015625)"/>
      <path d="M 850 150 
Q 1300 2050 2425 3925 
L 275 3925 
L 275 4375 
L 2950 4375 
L 2950 3950 
Q 1775 2050 1400 150 
L 850 150 
z
" id="SimHei-37" transform="scale(0.015625)"/>
      <path d="M 1825 125 
L 1325 125 
L 1325 4400 
L 1825 4400 
L 1825 125 
z
" id="SimHei-6c" transform="scale(0.015625)"/>
      <path d="M 3150 -850 
L 0 -850 
L 0 -550 
L 3150 -550 
L 3150 -850 
z
" id="SimHei-5f" transform="scale(0.015625)"/>
     </defs>
     <use xlink:href="#SimHei-70"/>
     <use x="50" xlink:href="#SimHei-72"/>
     <use x="100" xlink:href="#SimHei-65"/>
     <use x="150" xlink:href="#SimHei-64"/>
     <use x="200" xlink:href="#SimHei-69"/>
     <use x="250" xlink:href="#SimHei-63"/>
     <use x="300" xlink:href="#SimHei-74"/>
     <use x="350" xlink:href="#SimHei-20"/>
     <use x="400" xlink:href="#SimHei-66"/>
     <use x="450" xlink:href="#SimHei-75"/>
     <use x="500" xlink:href="#SimHei-6e"/>
     <use x="550" xlink:href="#SimHei-63"/>
     <use x="600" xlink:href="#SimHei-20"/>
     <use x="650" xlink:href="#SimHei-6f"/>
     <use x="700" xlink:href="#SimHei-66"/>
     <use x="750" xlink:href="#SimHei-20"/>
     <use x="800" xlink:href="#SimHei-64"/>
     <use x="850" xlink:href="#SimHei-69"/>
     <use x="900" xlink:href="#SimHei-66"/>
     <use x="950" xlink:href="#SimHei-66"/>
     <use x="1000" xlink:href="#SimHei-65"/>
     <use x="1050" xlink:href="#SimHei-72"/>
     <use x="1100" xlink:href="#SimHei-65"/>
     <use x="1150" xlink:href="#SimHei-6e"/>
     <use x="1200" xlink:href="#SimHei-74"/>
     <use x="1250" xlink:href="#SimHei-20"/>
     <use x="1300" xlink:href="#SimHei-6d"/>
     <use x="1350" xlink:href="#SimHei-65"/>
     <use x="1400" xlink:href="#SimHei-74"/>
     <use x="1450" xlink:href="#SimHei-68"/>
     <use x="1500" xlink:href="#SimHei-6f"/>
     <use x="1550" xlink:href="#SimHei-64"/>
     <use x="1600" xlink:href="#SimHei-2c"/>
     <use x="1650" xlink:href="#SimHei-6d"/>
     <use x="1700" xlink:href="#SimHei-3d"/>
     <use x="1750" xlink:href="#SimHei-37"/>
     <use x="1800" xlink:href="#SimHei-2c"/>
     <use x="1850" xlink:href="#SimHei-6c"/>
     <use x="1900" xlink:href="#SimHei-32"/>
     <use x="1950" xlink:href="#SimHei-5f"/>
     <use x="2000" xlink:href="#SimHei-63"/>
     <use x="2050" xlink:href="#SimHei-6f"/>
     <use x="2100" xlink:href="#SimHei-65"/>
     <use x="2150" xlink:href="#SimHei-66"/>
     <use x="2200" xlink:href="#SimHei-3d"/>
     <use x="2250" xlink:href="#SimHei-30"/>
     <use x="2300" xlink:href="#SimHei-2e"/>
     <use x="2350" xlink:href="#SimHei-30"/>
     <use x="2400" xlink:href="#SimHei-30"/>
     <use x="2450" xlink:href="#SimHei-30"/>
     <use x="2500" xlink:href="#SimHei-31"/>
    </g>
   </g>
   <g id="legend_1">
    <g id="patch_7">
     <path d="M 225.72 104.097 
L 407.72 104.097 
Q 409.72 104.097 409.72 102.097 
L 409.72 48.472 
Q 409.72 46.472 407.72 46.472 
L 225.72 46.472 
Q 223.72 46.472 223.72 48.472 
L 223.72 102.097 
Q 223.72 104.097 225.72 104.097 
z
" style="fill:#ffffff;opacity:0.8;stroke:#cccccc;stroke-linejoin:miter;"/>
    </g>
    <g id="line2d_15">
     <path d="M 227.72 54.7845 
L 247.72 54.7845 
" style="fill:none;stroke:#0000ff;stroke-linecap:square;"/>
    </g>
    <g id="line2d_16"/>
    <g id="text_15">
     <!-- predict func(analytic) -->
     <g transform="translate(255.72 58.2845)scale(0.1 -0.1)">
      <defs>
       <path d="M 2975 -200 
L 2700 -475 
Q 2075 125 1762 775 
Q 1450 1425 1450 2250 
Q 1450 3075 1762 3725 
Q 2075 4375 2700 5000 
L 2975 4725 
Q 2400 4175 2112 3587 
Q 1825 3000 1825 2250 
Q 1825 1500 2112 912 
Q 2400 325 2975 -200 
z
" id="SimHei-28" transform="scale(0.015625)"/>
       <path d="M 2875 125 
L 2275 125 
Q 2225 175 2200 262 
Q 2175 350 2175 475 
Q 2000 275 1750 175 
Q 1500 75 1225 75 
Q 825 75 550 275 
Q 275 475 275 850 
Q 275 1225 525 1450 
Q 775 1675 1300 1750 
Q 1650 1800 1912 1875 
Q 2175 1950 2175 2075 
Q 2175 2225 2062 2375 
Q 1950 2525 1575 2525 
Q 1275 2525 1137 2412 
Q 1000 2300 950 2100 
L 400 2100 
Q 450 2500 762 2737 
Q 1075 2975 1575 2975 
Q 2125 2975 2400 2725 
Q 2675 2475 2675 2025 
L 2675 650 
Q 2675 500 2725 375 
Q 2775 250 2875 125 
z
M 2175 1050 
L 2175 1550 
Q 2025 1500 1887 1462 
Q 1750 1425 1425 1375 
Q 1050 1325 937 1200 
Q 825 1075 825 900 
Q 825 750 937 637 
Q 1050 525 1275 525 
Q 1500 525 1762 650 
Q 2025 775 2175 1050 
z
" id="SimHei-61" transform="scale(0.015625)"/>
       <path d="M 1675 2250 
Q 1675 1425 1362 775 
Q 1050 125 425 -475 
L 150 -200 
Q 725 325 1012 912 
Q 1300 1500 1300 2250 
Q 1300 3000 1012 3587 
Q 725 4175 150 4725 
L 425 5000 
Q 1050 4375 1362 3725 
Q 1675 3075 1675 2250 
z
" id="SimHei-29" transform="scale(0.015625)"/>
      </defs>
      <use xlink:href="#SimHei-70"/>
      <use x="50" xlink:href="#SimHei-72"/>
      <use x="100" xlink:href="#SimHei-65"/>
      <use x="150" xlink:href="#SimHei-64"/>
      <use x="200" xlink:href="#SimHei-69"/>
      <use x="250" xlink:href="#SimHei-63"/>
      <use x="300" xlink:href="#SimHei-74"/>
      <use x="350" xlink:href="#SimHei-20"/>
      <use x="400" xlink:href="#SimHei-66"/>
      <use x="450" xlink:href="#SimHei-75"/>
      <use x="500" xlink:href="#SimHei-6e"/>
      <use x="550" xlink:href="#SimHei-63"/>
      <use x="600" xlink:href="#SimHei-28"/>
      <use x="650" xlink:href="#SimHei-61"/>
      <use x="700" xlink:href="#SimHei-6e"/>
      <use x="750" xlink:href="#SimHei-61"/>
      <use x="800" xlink:href="#SimHei-6c"/>
      <use x="850" xlink:href="#SimHei-79"/>
      <use x="900" xlink:href="#SimHei-74"/>
      <use x="950" xlink:href="#SimHei-69"/>
      <use x="1000" xlink:href="#SimHei-63"/>
      <use x="1050" xlink:href="#SimHei-29"/>
     </g>
    </g>
    <g id="line2d_17">
     <path d="M 227.72 68.847 
L 247.72 68.847 
" style="fill:none;stroke:#ff0000;stroke-linecap:square;"/>
    </g>
    <g id="line2d_18"/>
    <g id="text_16">
     <!-- predict func(gradient descent) -->
     <g transform="translate(255.72 72.347)scale(0.1 -0.1)">
      <defs>
       <path d="M 2975 2500 
Q 2800 2550 2637 2562 
Q 2475 2575 2300 2525 
Q 2375 2450 2425 2337 
Q 2475 2225 2475 2000 
Q 2475 1575 2187 1300 
Q 1900 1025 1475 1025 
Q 1375 1025 1212 1062 
Q 1050 1100 950 1150 
Q 875 1100 850 1050 
Q 825 1000 825 925 
Q 825 800 1000 737 
Q 1175 675 1625 675 
Q 2350 675 2612 475 
Q 2875 275 2875 -25 
Q 2875 -425 2487 -612 
Q 2100 -800 1575 -800 
Q 900 -800 575 -625 
Q 250 -450 250 -150 
Q 250 0 375 150 
Q 500 300 700 400 
Q 550 475 462 587 
Q 375 700 375 875 
Q 375 1025 487 1137 
Q 600 1250 750 1325 
Q 625 1450 550 1625 
Q 475 1800 475 2000 
Q 475 2425 762 2700 
Q 1050 2975 1475 2975 
Q 1700 2975 1862 2912 
Q 2025 2850 2150 2725 
Q 2350 2875 2550 2937 
Q 2750 3000 2975 2975 
L 2975 2500 
z
M 1975 2000 
Q 1975 2250 1850 2400 
Q 1725 2550 1475 2550 
Q 1225 2550 1100 2400 
Q 975 2250 975 2000 
Q 975 1750 1100 1600 
Q 1225 1450 1475 1450 
Q 1725 1450 1850 1600 
Q 1975 1750 1975 2000 
z
M 2400 -75 
Q 2400 25 2287 125 
Q 2175 225 1725 225 
Q 1625 225 1450 237 
Q 1275 250 1050 275 
Q 850 200 775 100 
Q 700 0 700 -100 
Q 700 -250 900 -350 
Q 1100 -450 1600 -450 
Q 2025 -450 2212 -337 
Q 2400 -225 2400 -75 
z
" id="SimHei-67" transform="scale(0.015625)"/>
       <path d="M 2750 900 
Q 2750 500 2437 287 
Q 2125 75 1650 75 
Q 1050 75 725 312 
Q 400 550 400 1000 
L 900 1000 
Q 900 700 1112 600 
Q 1325 500 1625 500 
Q 1925 500 2075 612 
Q 2225 725 2225 900 
Q 2225 1025 2100 1150 
Q 1975 1275 1475 1350 
Q 900 1425 687 1637 
Q 475 1850 475 2200 
Q 475 2500 762 2737 
Q 1050 2975 1600 2975 
Q 2100 2975 2387 2750 
Q 2675 2525 2675 2150 
L 2175 2150 
Q 2175 2375 2012 2462 
Q 1850 2550 1600 2550 
Q 1275 2550 1137 2437 
Q 1000 2325 1000 2175 
Q 1000 2000 1125 1900 
Q 1250 1800 1650 1750 
Q 2300 1650 2525 1437 
Q 2750 1225 2750 900 
z
" id="SimHei-73" transform="scale(0.015625)"/>
      </defs>
      <use xlink:href="#SimHei-70"/>
      <use x="50" xlink:href="#SimHei-72"/>
      <use x="100" xlink:href="#SimHei-65"/>
      <use x="150" xlink:href="#SimHei-64"/>
      <use x="200" xlink:href="#SimHei-69"/>
      <use x="250" xlink:href="#SimHei-63"/>
      <use x="300" xlink:href="#SimHei-74"/>
      <use x="350" xlink:href="#SimHei-20"/>
      <use x="400" xlink:href="#SimHei-66"/>
      <use x="450" xlink:href="#SimHei-75"/>
      <use x="500" xlink:href="#SimHei-6e"/>
      <use x="550" xlink:href="#SimHei-63"/>
      <use x="600" xlink:href="#SimHei-28"/>
      <use x="650" xlink:href="#SimHei-67"/>
      <use x="700" xlink:href="#SimHei-72"/>
      <use x="750" xlink:href="#SimHei-61"/>
      <use x="800" xlink:href="#SimHei-64"/>
      <use x="850" xlink:href="#SimHei-69"/>
      <use x="900" xlink:href="#SimHei-65"/>
      <use x="950" xlink:href="#SimHei-6e"/>
      <use x="1000" xlink:href="#SimHei-74"/>
      <use x="1050" xlink:href="#SimHei-20"/>
      <use x="1100" xlink:href="#SimHei-64"/>
      <use x="1150" xlink:href="#SimHei-65"/>
      <use x="1200" xlink:href="#SimHei-73"/>
      <use x="1250" xlink:href="#SimHei-63"/>
      <use x="1300" xlink:href="#SimHei-65"/>
      <use x="1350" xlink:href="#SimHei-6e"/>
      <use x="1400" xlink:href="#SimHei-74"/>
      <use x="1450" xlink:href="#SimHei-29"/>
     </g>
    </g>
    <g id="line2d_19">
     <path d="M 227.72 82.097 
L 247.72 82.097 
" style="fill:none;stroke:#000000;stroke-dasharray:3.7,1.6;stroke-dashoffset:0;"/>
    </g>
    <g id="line2d_20"/>
    <g id="text_17">
     <!-- real func -->
     <g transform="translate(255.72 85.597)scale(0.1 -0.1)">
      <use xlink:href="#SimHei-72"/>
      <use x="50" xlink:href="#SimHei-65"/>
      <use x="100" xlink:href="#SimHei-61"/>
      <use x="150" xlink:href="#SimHei-6c"/>
      <use x="200" xlink:href="#SimHei-20"/>
      <use x="250" xlink:href="#SimHei-66"/>
      <use x="300" xlink:href="#SimHei-75"/>
      <use x="350" xlink:href="#SimHei-6e"/>
      <use x="400" xlink:href="#SimHei-63"/>
     </g>
    </g>
    <g id="PathCollection_2">
     <g>
      <use style="fill:#008000;stroke:#008000;" x="237.72" xlink:href="#m6706f38764" y="96.222"/>
     </g>
    </g>
    <g id="text_18">
     <!-- train data -->
     <g transform="translate(255.72 98.847)scale(0.1 -0.1)">
      <use xlink:href="#SimHei-74"/>
      <use x="50" xlink:href="#SimHei-72"/>
      <use x="100" xlink:href="#SimHei-61"/>
      <use x="150" xlink:href="#SimHei-69"/>
      <use x="200" xlink:href="#SimHei-6e"/>
      <use x="250" xlink:href="#SimHei-20"/>
      <use x="300" xlink:href="#SimHei-64"/>
      <use x="350" xlink:href="#SimHei-61"/>
      <use x="400" xlink:href="#SimHei-74"/>
      <use x="450" xlink:href="#SimHei-61"/>
     </g>
    </g>
   </g>
  </g>
 </g>
 <defs>
  <clipPath id="p49d74e2d54">
   <rect height="266.112" width="357.12" x="57.6" y="41.472"/>
  </clipPath>
 </defs>
</svg>
