<?xml version="1.0" encoding="utf-8" standalone="no"?>
<!DOCTYPE svg PUBLIC "-//W3C//DTD SVG 1.1//EN"
  "http://www.w3.org/Graphics/SVG/1.1/DTD/svg11.dtd">
<svg height="345.6pt" version="1.1" viewBox="0 0 460.8 345.6" width="460.8pt" xmlns="http://www.w3.org/2000/svg" xmlns:xlink="http://www.w3.org/1999/xlink">
 <metadata>
  <rdf:RDF xmlns:cc="http://creativecommons.org/ns#" xmlns:dc="http://purl.org/dc/elements/1.1/" xmlns:rdf="http://www.w3.org/1999/02/22-rdf-syntax-ns#">
   <cc:Work>
    <dc:type rdf:resource="http://purl.org/dc/dcmitype/StillImage"/>
    <dc:date>2021-10-02T22:01:00.925861</dc:date>
    <dc:format>image/svg+xml</dc:format>
    <dc:creator>
     <cc:Agent>
      <dc:title>Matplotlib v3.4.2, https://matplotlib.org/</dc:title>
     </cc:Agent>
    </dc:creator>
   </cc:Work>
  </rdf:RDF>
 </metadata>
 <defs>
  <style type="text/css">*{stroke-linecap:butt;stroke-linejoin:round;}</style>
 </defs>
 <g id="figure_1">
  <g id="patch_1">
   <path d="M 0 345.6 
L 460.8 345.6 
L 460.8 0 
L 0 0 
z
" style="fill:#ffffff;"/>
  </g>
  <g id="axes_1">
   <g id="patch_2">
    <path d="M 57.6 307.584 
L 414.72 307.584 
L 414.72 41.472 
L 57.6 41.472 
z
" style="fill:#ffffff;"/>
   </g>
   <g id="PathCollection_1">
    <defs>
     <path d="M 0 1.581139 
C 0.419323 1.581139 0.821528 1.41454 1.118034 1.118034 
C 1.41454 0.821528 1.581139 0.419323 1.581139 0 
C 1.581139 -0.419323 1.41454 -0.821528 1.118034 -1.118034 
C 0.821528 -1.41454 0.419323 -1.581139 0 -1.581139 
C -0.419323 -1.581139 -0.821528 -1.41454 -1.118034 -1.118034 
C -1.41454 -0.821528 -1.581139 -0.419323 -1.581139 0 
C -1.581139 0.419323 -1.41454 0.821528 -1.118034 1.118034 
C -0.821528 1.41454 -0.419323 1.581139 0 1.581139 
z
" id="m74ecf01dcc" style="stroke:#008000;"/>
    </defs>
    <g clip-path="url(#pb446248e64)">
     <use style="fill:#008000;stroke:#008000;" x="73.832727" xlink:href="#m74ecf01dcc" y="180.946465"/>
     <use style="fill:#008000;stroke:#008000;" x="109.905455" xlink:href="#m74ecf01dcc" y="54.929899"/>
     <use style="fill:#008000;stroke:#008000;" x="145.978182" xlink:href="#m74ecf01dcc" y="61.621344"/>
     <use style="fill:#008000;stroke:#008000;" x="182.050909" xlink:href="#m74ecf01dcc" y="81.609671"/>
     <use style="fill:#008000;stroke:#008000;" x="218.123636" xlink:href="#m74ecf01dcc" y="133.17068"/>
     <use style="fill:#008000;stroke:#008000;" x="254.196364" xlink:href="#m74ecf01dcc" y="209.968956"/>
     <use style="fill:#008000;stroke:#008000;" x="290.269091" xlink:href="#m74ecf01dcc" y="295.488"/>
     <use style="fill:#008000;stroke:#008000;" x="326.341818" xlink:href="#m74ecf01dcc" y="227.411468"/>
     <use style="fill:#008000;stroke:#008000;" x="362.414545" xlink:href="#m74ecf01dcc" y="230.703488"/>
     <use style="fill:#008000;stroke:#008000;" x="398.487273" xlink:href="#m74ecf01dcc" y="133.310135"/>
    </g>
   </g>
   <g id="matplotlib.axis_1">
    <g id="xtick_1">
     <g id="line2d_1">
      <defs>
       <path d="M 0 0 
L 0 3.5 
" id="ma8aff2631f" style="stroke:#000000;stroke-width:0.8;"/>
      </defs>
      <g>
       <use style="stroke:#000000;stroke-width:0.8;" x="73.832727" xlink:href="#ma8aff2631f" y="307.584"/>
      </g>
     </g>
     <g id="text_1">
      <!-- 0.0 -->
      <g transform="translate(66.332727 321.459)scale(0.1 -0.1)">
       <defs>
        <path d="M 225 2537 
Q 250 3200 412 3587 
Q 575 3975 875 4225 
Q 1175 4475 1612 4475 
Q 2050 4475 2375 4112 
Q 2700 3750 2800 3200 
Q 2900 2650 2862 1937 
Q 2825 1225 2612 775 
Q 2400 325 1975 150 
Q 1550 -25 1125 187 
Q 700 400 525 750 
Q 350 1100 275 1487 
Q 200 1875 225 2537 
z
M 750 2687 
Q 675 2000 800 1462 
Q 925 925 1212 700 
Q 1500 475 1800 612 
Q 2100 750 2237 1162 
Q 2375 1575 2375 2062 
Q 2375 2550 2337 2950 
Q 2300 3350 2112 3675 
Q 1925 4000 1612 4012 
Q 1300 4025 1062 3700 
Q 825 3375 750 2687 
z
" id="SimHei-30" transform="scale(0.015625)"/>
        <path d="M 1075 125 
L 500 125 
L 500 675 
L 1075 675 
L 1075 125 
z
" id="SimHei-2e" transform="scale(0.015625)"/>
       </defs>
       <use xlink:href="#SimHei-30"/>
       <use x="50" xlink:href="#SimHei-2e"/>
       <use x="100" xlink:href="#SimHei-30"/>
      </g>
     </g>
    </g>
    <g id="xtick_2">
     <g id="line2d_2">
      <g>
       <use style="stroke:#000000;stroke-width:0.8;" x="138.763636" xlink:href="#ma8aff2631f" y="307.584"/>
      </g>
     </g>
     <g id="text_2">
      <!-- 0.2 -->
      <g transform="translate(131.263636 321.459)scale(0.1 -0.1)">
       <defs>
        <path d="M 300 250 
Q 325 625 650 925 
Q 975 1225 1475 1862 
Q 1975 2500 2125 2850 
Q 2275 3200 2237 3450 
Q 2200 3700 2000 3862 
Q 1800 4025 1537 4000 
Q 1275 3975 1037 3800 
Q 800 3625 675 3275 
L 200 3350 
Q 400 3925 712 4187 
Q 1025 4450 1450 4475 
Q 1700 4500 1900 4462 
Q 2100 4425 2312 4287 
Q 2525 4150 2662 3875 
Q 2800 3600 2762 3212 
Q 2725 2825 2375 2287 
Q 2025 1750 1025 600 
L 2825 600 
L 2825 150 
L 300 150 
L 300 250 
z
" id="SimHei-32" transform="scale(0.015625)"/>
       </defs>
       <use xlink:href="#SimHei-30"/>
       <use x="50" xlink:href="#SimHei-2e"/>
       <use x="100" xlink:href="#SimHei-32"/>
      </g>
     </g>
    </g>
    <g id="xtick_3">
     <g id="line2d_3">
      <g>
       <use style="stroke:#000000;stroke-width:0.8;" x="203.694545" xlink:href="#ma8aff2631f" y="307.584"/>
      </g>
     </g>
     <g id="text_3">
      <!-- 0.4 -->
      <g transform="translate(196.194545 321.459)scale(0.1 -0.1)">
       <defs>
        <path d="M 2000 1100 
L 75 1100 
L 75 1525 
L 2100 4450 
L 2475 4450 
L 2475 1525 
L 3075 1525 
L 3075 1100 
L 2475 1100 
L 2475 150 
L 2000 150 
L 2000 1100 
z
M 2000 1525 
L 2000 3500 
L 600 1525 
L 2000 1525 
z
" id="SimHei-34" transform="scale(0.015625)"/>
       </defs>
       <use xlink:href="#SimHei-30"/>
       <use x="50" xlink:href="#SimHei-2e"/>
       <use x="100" xlink:href="#SimHei-34"/>
      </g>
     </g>
    </g>
    <g id="xtick_4">
     <g id="line2d_4">
      <g>
       <use style="stroke:#000000;stroke-width:0.8;" x="268.625455" xlink:href="#ma8aff2631f" y="307.584"/>
      </g>
     </g>
     <g id="text_4">
      <!-- 0.6 -->
      <g transform="translate(261.125455 321.459)scale(0.1 -0.1)">
       <defs>
        <path d="M 250 1612 
Q 275 1975 387 2225 
Q 500 2475 725 2850 
L 1750 4450 
L 2325 4450 
L 1275 2800 
Q 1950 2975 2350 2750 
Q 2750 2525 2887 2237 
Q 3025 1950 3037 1612 
Q 3050 1275 2937 950 
Q 2825 625 2537 362 
Q 2250 100 1737 75 
Q 1225 50 862 262 
Q 500 475 362 862 
Q 225 1250 250 1612 
z
M 1025 787 
Q 1250 550 1625 525 
Q 2000 500 2250 775 
Q 2500 1050 2500 1575 
Q 2500 2100 2187 2300 
Q 1875 2500 1487 2450 
Q 1100 2400 925 2075 
Q 750 1750 775 1387 
Q 800 1025 1025 787 
z
" id="SimHei-36" transform="scale(0.015625)"/>
       </defs>
       <use xlink:href="#SimHei-30"/>
       <use x="50" xlink:href="#SimHei-2e"/>
       <use x="100" xlink:href="#SimHei-36"/>
      </g>
     </g>
    </g>
    <g id="xtick_5">
     <g id="line2d_5">
      <g>
       <use style="stroke:#000000;stroke-width:0.8;" x="333.556364" xlink:href="#ma8aff2631f" y="307.584"/>
      </g>
     </g>
     <g id="text_5">
      <!-- 0.8 -->
      <g transform="translate(326.056364 321.459)scale(0.1 -0.1)">
       <defs>
        <path d="M 175 1375 
Q 175 1675 325 1962 
Q 475 2250 825 2425 
Q 525 2600 425 2812 
Q 325 3025 312 3300 
Q 300 3575 387 3775 
Q 475 3975 650 4150 
Q 825 4325 1037 4387 
Q 1250 4450 1500 4450 
Q 1750 4450 1950 4400 
Q 2150 4350 2375 4187 
Q 2600 4025 2700 3725 
Q 2800 3425 2687 3025 
Q 2575 2625 2100 2400 
Q 2525 2275 2700 2012 
Q 2875 1750 2875 1375 
Q 2875 1000 2762 775 
Q 2650 550 2512 400 
Q 2375 250 2137 162 
Q 1900 75 1537 75 
Q 1175 75 912 162 
Q 650 250 475 425 
Q 300 600 237 837 
Q 175 1075 175 1375 
z
M 687 1400 
Q 675 1100 787 875 
Q 900 650 1200 587 
Q 1500 525 1825 600 
Q 2150 675 2275 950 
Q 2400 1225 2362 1500 
Q 2325 1775 2050 1962 
Q 1775 2150 1450 2125 
Q 1125 2100 912 1900 
Q 700 1700 687 1400 
z
M 775 3350 
Q 775 3100 950 2875 
Q 1125 2650 1500 2650 
Q 1875 2650 2062 2875 
Q 2250 3100 2237 3412 
Q 2225 3725 2012 3875 
Q 1800 4025 1437 4000 
Q 1075 3975 925 3787 
Q 775 3600 775 3350 
z
" id="SimHei-38" transform="scale(0.015625)"/>
       </defs>
       <use xlink:href="#SimHei-30"/>
       <use x="50" xlink:href="#SimHei-2e"/>
       <use x="100" xlink:href="#SimHei-38"/>
      </g>
     </g>
    </g>
    <g id="xtick_6">
     <g id="line2d_6">
      <g>
       <use style="stroke:#000000;stroke-width:0.8;" x="398.487273" xlink:href="#ma8aff2631f" y="307.584"/>
      </g>
     </g>
     <g id="text_6">
      <!-- 1.0 -->
      <g transform="translate(390.987273 321.459)scale(0.1 -0.1)">
       <defs>
        <path d="M 1400 3600 
Q 1075 3275 575 2975 
L 575 3450 
Q 1200 3875 1600 4450 
L 1900 4450 
L 1900 150 
L 1400 150 
L 1400 3600 
z
" id="SimHei-31" transform="scale(0.015625)"/>
       </defs>
       <use xlink:href="#SimHei-31"/>
       <use x="50" xlink:href="#SimHei-2e"/>
       <use x="100" xlink:href="#SimHei-30"/>
      </g>
     </g>
    </g>
    <g id="text_7">
     <!-- x -->
     <g transform="translate(233.66 333.584)scale(0.1 -0.1)">
      <defs>
       <path d="M 2875 125 
L 2275 125 
L 1550 1200 
L 825 125 
L 225 125 
L 1250 1550 
L 300 2925 
L 900 2925 
L 1550 1875 
L 2200 2925 
L 2800 2925 
L 1850 1550 
L 2875 125 
z
" id="SimHei-78" transform="scale(0.015625)"/>
      </defs>
      <use xlink:href="#SimHei-78"/>
     </g>
    </g>
   </g>
   <g id="matplotlib.axis_2">
    <g id="ytick_1">
     <g id="line2d_7">
      <defs>
       <path d="M 0 0 
L -3.5 0 
" id="m02c125a895" style="stroke:#000000;stroke-width:0.8;"/>
      </defs>
      <g>
       <use style="stroke:#000000;stroke-width:0.8;" x="57.6" xlink:href="#m02c125a895" y="275.076535"/>
      </g>
     </g>
     <g id="text_8">
      <!-- -1.0 -->
      <g transform="translate(30.6 278.514035)scale(0.1 -0.1)">
       <defs>
        <path d="M 2975 2125 
L 125 2125 
L 125 2525 
L 2975 2525 
L 2975 2125 
z
" id="SimHei-2d" transform="scale(0.015625)"/>
       </defs>
       <use xlink:href="#SimHei-2d"/>
       <use x="50" xlink:href="#SimHei-31"/>
       <use x="100" xlink:href="#SimHei-2e"/>
       <use x="150" xlink:href="#SimHei-30"/>
      </g>
     </g>
    </g>
    <g id="ytick_2">
     <g id="line2d_8">
      <g>
       <use style="stroke:#000000;stroke-width:0.8;" x="57.6" xlink:href="#m02c125a895" y="221.238978"/>
      </g>
     </g>
     <g id="text_9">
      <!-- -0.5 -->
      <g transform="translate(30.6 224.676478)scale(0.1 -0.1)">
       <defs>
        <path d="M 550 1325 
Q 725 650 1150 575 
Q 1575 500 1837 662 
Q 2100 825 2212 1087 
Q 2325 1350 2312 1675 
Q 2300 2000 2137 2225 
Q 1975 2450 1725 2525 
Q 1475 2600 1162 2525 
Q 850 2450 650 2175 
L 225 2225 
Q 275 2375 700 4375 
L 2675 4375 
L 2675 3925 
L 1075 3925 
Q 950 3250 825 2850 
Q 1200 3025 1525 3012 
Q 1850 3000 2150 2862 
Q 2450 2725 2587 2487 
Q 2725 2250 2787 2012 
Q 2850 1775 2837 1500 
Q 2825 1225 2725 937 
Q 2625 650 2425 462 
Q 2225 275 1937 162 
Q 1650 50 1275 75 
Q 900 100 562 350 
Q 225 600 100 1200 
L 550 1325 
z
" id="SimHei-35" transform="scale(0.015625)"/>
       </defs>
       <use xlink:href="#SimHei-2d"/>
       <use x="50" xlink:href="#SimHei-30"/>
       <use x="100" xlink:href="#SimHei-2e"/>
       <use x="150" xlink:href="#SimHei-35"/>
      </g>
     </g>
    </g>
    <g id="ytick_3">
     <g id="line2d_9">
      <g>
       <use style="stroke:#000000;stroke-width:0.8;" x="57.6" xlink:href="#m02c125a895" y="167.401421"/>
      </g>
     </g>
     <g id="text_10">
      <!-- 0.0 -->
      <g transform="translate(35.6 170.838921)scale(0.1 -0.1)">
       <use xlink:href="#SimHei-30"/>
       <use x="50" xlink:href="#SimHei-2e"/>
       <use x="100" xlink:href="#SimHei-30"/>
      </g>
     </g>
    </g>
    <g id="ytick_4">
     <g id="line2d_10">
      <g>
       <use style="stroke:#000000;stroke-width:0.8;" x="57.6" xlink:href="#m02c125a895" y="113.563864"/>
      </g>
     </g>
     <g id="text_11">
      <!-- 0.5 -->
      <g transform="translate(35.6 117.001364)scale(0.1 -0.1)">
       <use xlink:href="#SimHei-30"/>
       <use x="50" xlink:href="#SimHei-2e"/>
       <use x="100" xlink:href="#SimHei-35"/>
      </g>
     </g>
    </g>
    <g id="ytick_5">
     <g id="line2d_11">
      <g>
       <use style="stroke:#000000;stroke-width:0.8;" x="57.6" xlink:href="#m02c125a895" y="59.726308"/>
      </g>
     </g>
     <g id="text_12">
      <!-- 1.0 -->
      <g transform="translate(35.6 63.163808)scale(0.1 -0.1)">
       <use xlink:href="#SimHei-31"/>
       <use x="50" xlink:href="#SimHei-2e"/>
       <use x="100" xlink:href="#SimHei-30"/>
      </g>
     </g>
    </g>
    <g id="text_13">
     <!-- y -->
     <g transform="translate(25.35 177.028)rotate(-90)scale(0.1 -0.1)">
      <defs>
       <path d="M 2900 2925 
L 1750 -100 
Q 1650 -450 1450 -625 
Q 1250 -800 950 -800 
Q 825 -800 712 -787 
Q 600 -775 500 -725 
L 500 -225 
Q 600 -275 700 -300 
Q 800 -325 875 -325 
Q 1075 -325 1150 -262 
Q 1225 -200 1300 25 
L 200 2925 
L 750 2925 
L 1550 725 
L 1575 725 
L 2350 2925 
L 2900 2925 
z
" id="SimHei-79" transform="scale(0.015625)"/>
      </defs>
      <use xlink:href="#SimHei-79"/>
     </g>
    </g>
   </g>
   <g id="line2d_12">
    <path clip-path="url(#pb446248e64)" d="M 73.832727 165.92055 
L 77.095587 155.57343 
L 80.358447 145.74263 
L 83.621307 136.427268 
L 86.884166 127.62619 
L 90.147026 119.337962 
L 93.409886 111.560858 
L 96.672746 104.292846 
L 99.935605 97.531581 
L 103.198465 91.274389 
L 106.461325 85.518258 
L 109.724185 80.259824 
L 112.987044 75.49536 
L 116.249904 71.220763 
L 119.512764 67.431544 
L 122.775624 64.122812 
L 126.038483 61.289265 
L 129.301343 58.925176 
L 132.564203 57.024381 
L 135.827063 55.58027 
L 139.089922 54.585771 
L 142.352782 54.03334 
L 145.615642 53.914951 
L 148.878502 54.222084 
L 152.141361 54.945715 
L 155.404221 56.076305 
L 158.667081 57.603792 
L 161.929941 59.51758 
L 165.1928 61.806533 
L 168.45566 64.458966 
L 171.71852 67.462639 
L 174.98138 70.804748 
L 178.244239 74.471926 
L 181.507099 78.450233 
L 184.769959 82.72516 
L 188.032819 87.28162 
L 192.927108 94.60977 
L 197.821398 102.480733 
L 202.715688 110.836369 
L 207.609977 119.615709 
L 214.135697 131.870059 
L 220.661416 144.605678 
L 230.449995 164.245759 
L 245.132864 193.731252 
L 251.658584 206.370316 
L 256.552873 215.495443 
L 261.447163 224.227048 
L 266.341453 232.484335 
L 271.235742 240.187229 
L 274.498602 244.975536 
L 277.761462 249.459542 
L 281.024322 253.616871 
L 284.287181 257.425741 
L 287.550041 260.865073 
L 290.812901 263.914607 
L 294.075761 266.555028 
L 297.33862 268.768092 
L 300.60148 270.536772 
L 303.86434 271.8454 
L 305.49577 272.322708 
L 307.1272 272.679824 
L 308.75863 272.915243 
L 310.390059 273.027575 
L 312.021489 273.015553 
L 313.652919 272.878036 
L 315.284349 272.614017 
L 316.915779 272.222628 
L 318.547209 271.703147 
L 320.178639 271.055004 
L 321.810069 270.277786 
L 323.441498 269.371247 
L 326.704358 267.17009 
L 329.967218 264.453133 
L 333.230078 261.225084 
L 336.492937 257.494003 
L 339.755797 253.271562 
L 343.018657 248.573318 
L 346.281517 243.418992 
L 349.544376 237.832771 
L 352.807236 231.843618 
L 356.070096 225.485597 
L 360.964386 215.344921 
L 365.858675 204.622683 
L 374.015825 185.992747 
L 382.172974 167.395754 
L 387.067264 156.829441 
L 390.330123 150.251198 
L 393.592983 144.185601 
L 396.855843 138.764335 
L 398.487273 136.339496 
L 398.487273 136.339496 
" style="fill:none;stroke:#0000ff;stroke-linecap:square;"/>
   </g>
   <g id="line2d_13">
    <path clip-path="url(#pb446248e64)" d="M 73.832727 160.003762 
L 78.727017 146.978179 
L 83.621307 134.834367 
L 86.884166 127.23202 
L 90.147026 120.026798 
L 93.409886 113.220461 
L 96.672746 106.814563 
L 99.935605 100.810443 
L 103.198465 95.209206 
L 106.461325 90.011709 
L 109.724185 85.218551 
L 112.987044 80.830049 
L 116.249904 76.846231 
L 119.512764 73.266809 
L 122.775624 70.091171 
L 126.038483 67.318358 
L 129.301343 64.947048 
L 132.564203 62.975534 
L 135.827063 61.401708 
L 139.089922 60.223042 
L 142.352782 59.436565 
L 145.615642 59.038845 
L 148.878502 59.025969 
L 152.141361 59.39352 
L 155.404221 60.136559 
L 158.667081 61.249603 
L 161.929941 62.726606 
L 165.1928 64.560935 
L 168.45566 66.745354 
L 171.71852 69.272001 
L 174.98138 72.132371 
L 178.244239 75.317293 
L 181.507099 78.816919 
L 184.769959 82.620698 
L 188.032819 86.717367 
L 191.295678 91.094931 
L 194.558538 95.740654 
L 199.452828 103.182306 
L 204.347117 111.147983 
L 209.241407 119.584952 
L 214.135697 128.436497 
L 220.661416 140.777957 
L 227.187136 153.593219 
L 238.607145 176.650843 
L 250.027154 199.662296 
L 256.552873 212.3814 
L 261.447163 221.555133 
L 266.341453 230.31451 
L 271.235742 238.567507 
L 274.498602 243.742586 
L 277.761462 248.624315 
L 281.024322 253.185664 
L 284.287181 257.399964 
L 287.550041 261.241042 
L 290.812901 264.683385 
L 294.075761 267.702301 
L 297.33862 270.274101 
L 300.60148 272.376292 
L 303.86434 273.987787 
L 305.49577 274.603373 
L 307.1272 275.089127 
L 308.75863 275.442911 
L 310.390059 275.662718 
L 312.021489 275.746682 
L 313.652919 275.693087 
L 315.284349 275.500374 
L 316.915779 275.167152 
L 318.547209 274.692208 
L 320.178639 274.074515 
L 321.810069 273.313242 
L 323.441498 272.407765 
L 325.072928 271.35768 
L 326.704358 270.162809 
L 328.335788 268.823216 
L 331.598648 265.711388 
L 334.861508 262.027958 
L 338.124367 257.78331 
L 341.387227 252.992879 
L 344.650087 247.677593 
L 347.912947 241.864349 
L 351.175806 235.586509 
L 354.438666 228.884427 
L 359.332956 218.142833 
L 364.227245 206.752943 
L 372.384395 187.010491 
L 378.910114 171.377876 
L 382.172974 163.929597 
L 385.435834 156.907048 
L 388.698693 150.463265 
L 391.961553 144.766566 
L 393.592983 142.255385 
L 395.224413 140.001503 
L 396.855843 138.030688 
L 398.487273 136.369849 
L 398.487273 136.369849 
" style="fill:none;stroke:#ff0000;stroke-linecap:square;"/>
   </g>
   <g id="line2d_14">
    <path clip-path="url(#pb446248e64)" d="M 73.832727 162.848432 
L 78.727017 148.91731 
L 81.989877 140.179521 
L 85.252736 131.882338 
L 88.515596 124.026297 
L 91.778456 116.611712 
L 95.041316 109.63866 
L 98.304175 103.106971 
L 101.567035 97.016217 
L 104.829895 91.365695 
L 108.092755 86.154421 
L 111.355614 81.381113 
L 114.618474 77.044176 
L 117.881334 73.141692 
L 121.144194 69.671407 
L 124.407053 66.63071 
L 127.669913 64.016627 
L 130.932773 61.825801 
L 134.195633 60.05448 
L 137.458492 58.698499 
L 140.721352 57.75327 
L 143.984212 57.213762 
L 147.247072 57.074489 
L 150.509931 57.329496 
L 153.772791 57.972338 
L 157.035651 58.996074 
L 160.298511 60.393247 
L 163.56137 62.155868 
L 166.82423 64.27541 
L 170.08709 66.742786 
L 173.34995 69.54834 
L 176.61281 72.681837 
L 179.875669 76.132445 
L 183.138529 79.888732 
L 186.401389 83.938649 
L 189.664249 88.269524 
L 192.927108 92.868055 
L 197.821398 100.237041 
L 202.715688 108.126981 
L 207.609977 116.484836 
L 212.504267 125.254288 
L 219.029986 137.483701 
L 225.555706 150.188424 
L 235.344285 169.784184 
L 250.027154 199.226666 
L 256.552873 211.853923 
L 261.447163 220.969441 
L 266.341453 229.68732 
L 271.235742 237.92272 
L 276.130032 245.590689 
L 279.392892 250.345695 
L 282.655751 254.786219 
L 285.918611 258.887866 
L 289.181471 262.626702 
L 292.444331 265.979366 
L 295.70719 268.923209 
L 298.97005 271.436422 
L 302.23291 273.498191 
L 305.49577 275.088849 
L 307.1272 275.701721 
L 308.75863 276.190047 
L 310.390059 276.551768 
L 312.021489 276.784931 
L 313.652919 276.887692 
L 315.284349 276.858328 
L 316.915779 276.695239 
L 318.547209 276.396956 
L 320.178639 275.962148 
L 321.810069 275.389629 
L 323.441498 274.678366 
L 325.072928 273.827486 
L 326.704358 272.836286 
L 328.335788 271.704235 
L 329.967218 270.430989 
L 333.230078 267.460509 
L 336.492937 263.926101 
L 339.755797 259.832537 
L 343.018657 255.188408 
L 346.281517 250.006446 
L 349.544376 244.303862 
L 352.807236 238.102703 
L 356.070096 231.430226 
L 359.332956 224.319284 
L 362.595815 216.808748 
L 367.490105 204.894696 
L 372.384395 192.367639 
L 380.541544 170.746536 
L 387.067264 153.535664 
L 391.961553 141.21298 
L 395.224413 133.502948 
L 398.487273 126.356621 
L 398.487273 126.356621 
" style="fill:none;stroke:#008000;stroke-linecap:square;"/>
   </g>
   <g id="line2d_15">
    <path clip-path="url(#pb446248e64)" d="M 73.832727 166.257527 
L 77.095587 155.777567 
L 80.358447 145.826529 
L 83.621307 136.403149 
L 86.884166 127.505882 
L 90.147026 119.132892 
L 93.409886 111.282038 
L 96.672746 103.950866 
L 99.935605 97.136597 
L 103.198465 90.836116 
L 106.461325 85.045957 
L 109.724185 79.762297 
L 112.987044 74.980941 
L 116.249904 70.697311 
L 119.512764 66.906434 
L 122.775624 63.602932 
L 126.038483 60.781009 
L 129.301343 58.434441 
L 132.564203 56.556562 
L 135.827063 55.140258 
L 139.089922 54.177952 
L 142.352782 53.661595 
L 145.615642 53.582655 
L 148.878502 53.932112 
L 152.141361 54.70044 
L 155.404221 55.877607 
L 158.667081 57.453061 
L 161.929941 59.415726 
L 165.1928 61.753992 
L 168.45566 64.455714 
L 171.71852 67.508201 
L 174.98138 70.898213 
L 178.244239 74.611963 
L 181.507099 78.635108 
L 184.769959 82.952751 
L 188.032819 87.549442 
L 192.927108 94.932538 
L 197.821398 102.851038 
L 202.715688 111.24588 
L 207.609977 120.055325 
L 214.135697 132.334615 
L 222.292846 148.315485 
L 236.975715 177.848671 
L 246.764294 197.249754 
L 253.290014 209.6901 
L 258.184303 218.627351 
L 263.078593 227.139358 
L 267.972883 235.147124 
L 272.867172 242.572743 
L 276.130032 247.162015 
L 279.392892 251.436608 
L 282.655751 255.375054 
L 285.918611 258.956552 
L 289.181471 262.161067 
L 292.444331 264.96945 
L 295.70719 267.363556 
L 298.97005 269.326373 
L 302.23291 270.842156 
L 305.49577 271.89657 
L 307.1272 272.246706 
L 308.75863 272.47684 
L 310.390059 272.585644 
L 312.021489 272.571909 
L 313.652919 272.434548 
L 315.284349 272.172605 
L 316.915779 271.785256 
L 318.547209 271.271817 
L 320.178639 270.631753 
L 321.810069 269.864678 
L 323.441498 268.970366 
L 326.704358 266.799959 
L 329.967218 264.122143 
L 333.230078 260.94149 
L 336.492937 257.265765 
L 339.755797 253.106162 
L 343.018657 248.477556 
L 346.281517 243.398761 
L 349.544376 237.892806 
L 352.807236 231.987217 
L 356.070096 225.714317 
L 360.964386 215.699606 
L 365.858675 205.0935 
L 372.384395 190.347263 
L 383.804404 164.412171 
L 388.698693 153.984084 
L 391.961553 147.513267 
L 395.224413 141.563829 
L 398.487273 136.263825 
L 398.487273 136.263825 
" style="fill:none;stroke:#800080;stroke-linecap:square;"/>
   </g>
   <g id="line2d_16">
    <path clip-path="url(#pb446248e64)" d="M 73.832727 165.927249 
L 77.095587 155.575509 
L 80.358447 145.740747 
L 83.621307 136.422044 
L 86.884166 127.618214 
L 90.147026 119.327783 
L 93.409886 111.54899 
L 96.672746 104.279765 
L 99.935605 97.517725 
L 103.198465 91.260159 
L 106.461325 85.504015 
L 109.724185 80.245893 
L 112.987044 75.482028 
L 116.249904 71.208281 
L 119.512764 67.420126 
L 122.775624 64.112636 
L 126.038483 61.280475 
L 129.301343 58.917883 
L 132.564203 57.018664 
L 135.827063 55.576177 
L 139.089922 54.583321 
L 142.352782 54.032524 
L 145.615642 53.915736 
L 148.878502 54.224413 
L 152.141361 54.949508 
L 155.404221 56.081464 
L 158.667081 57.610201 
L 161.929941 59.525108 
L 165.1928 61.815037 
L 168.45566 64.46829 
L 171.71852 67.47262 
L 174.98138 70.815219 
L 178.244239 74.482714 
L 181.507099 78.461167 
L 184.769959 82.736066 
L 188.032819 87.292329 
L 192.927108 94.619881 
L 197.821398 102.489906 
L 202.715688 110.8443 
L 207.609977 119.62214 
L 214.135697 131.874181 
L 220.661416 144.607268 
L 230.449995 164.243469 
L 245.132864 193.724018 
L 251.658584 206.361598 
L 256.552873 215.486005 
L 261.447163 224.217267 
L 266.341453 232.474611 
L 271.235742 240.177972 
L 274.498602 244.966817 
L 277.761462 249.451534 
L 281.024322 253.609741 
L 284.287181 257.419643 
L 287.550041 260.860146 
L 290.812901 263.910971 
L 294.075761 266.552779 
L 297.33862 268.767304 
L 300.60148 270.537489 
L 303.86434 271.847635 
L 305.49577 272.325697 
L 307.1272 272.683557 
L 308.75863 272.919706 
L 310.390059 273.032749 
L 312.021489 273.021416 
L 313.652919 272.884559 
L 315.284349 272.621168 
L 316.915779 272.230369 
L 318.547209 271.711435 
L 320.178639 271.063792 
L 321.810069 270.287022 
L 323.441498 269.380874 
L 326.704358 267.180311 
L 329.967218 264.463667 
L 333.230078 261.235619 
L 336.492937 257.504201 
L 339.755797 253.281063 
L 343.018657 248.581748 
L 346.281517 243.425972 
L 349.544376 237.837931 
L 352.807236 231.846605 
L 356.070096 225.486093 
L 360.964386 215.341207 
L 365.858675 204.614435 
L 374.015825 185.97735 
L 382.172974 167.376256 
L 387.067264 156.810672 
L 390.330123 150.234982 
L 393.592983 144.174103 
L 396.855843 138.760227 
L 398.487273 136.340264 
L 398.487273 136.340264 
" style="fill:none;stroke:#ffff00;stroke-linecap:square;"/>
   </g>
   <g id="line2d_17">
    <path clip-path="url(#pb446248e64)" d="M 73.832727 167.401421 
L 85.252736 143.796713 
L 91.778456 130.751902 
L 96.672746 121.340369 
L 101.567035 112.341793 
L 106.461325 103.836851 
L 111.355614 95.901792 
L 114.618474 90.963717 
L 117.881334 86.330345 
L 121.144194 82.020146 
L 124.407053 78.050301 
L 127.669913 74.436637 
L 130.932773 71.193557 
L 134.195633 68.33399 
L 137.458492 65.869335 
L 140.721352 63.809416 
L 143.984212 62.162446 
L 147.247072 60.934989 
L 150.509931 60.131939 
L 153.772791 59.756496 
L 157.035651 59.810157 
L 160.298511 60.292709 
L 163.56137 61.202228 
L 166.82423 62.535087 
L 170.08709 64.285975 
L 173.34995 66.447911 
L 176.61281 69.012277 
L 179.875669 71.968852 
L 183.138529 75.305848 
L 186.401389 79.009965 
L 189.664249 83.066436 
L 192.927108 87.45909 
L 196.189968 92.170419 
L 199.452828 97.18164 
L 204.347117 105.216765 
L 209.241407 113.809404 
L 214.135697 122.882517 
L 220.661416 135.586284 
L 227.187136 148.796843 
L 240.238575 175.891878 
L 250.027154 195.953323 
L 256.552873 208.803131 
L 261.447163 218.018519 
L 266.341453 226.780102 
L 271.235742 235.00933 
L 274.498602 240.163078 
L 277.761462 245.026777 
L 281.024322 249.581039 
L 284.287181 253.807708 
L 287.550041 257.689937 
L 290.812901 261.212249 
L 294.075761 264.360603 
L 297.33862 267.12245 
L 300.60148 269.48678 
L 303.86434 271.444167 
L 307.1272 272.98681 
L 310.390059 274.108558 
L 313.652919 274.80494 
L 316.915779 275.07318 
L 320.178639 274.912209 
L 323.441498 274.322669 
L 326.704358 273.306909 
L 329.967218 271.868979 
L 333.230078 270.01461 
L 336.492937 267.751195 
L 339.755797 265.087757 
L 343.018657 262.034912 
L 346.281517 258.60483 
L 349.544376 254.811185 
L 352.807236 250.669099 
L 356.070096 246.195083 
L 359.332956 241.406973 
L 362.595815 236.323855 
L 367.490105 228.190664 
L 372.384395 219.512472 
L 377.278684 210.367082 
L 383.804404 197.588702 
L 391.961553 180.964147 
L 398.487273 167.401421 
L 398.487273 167.401421 
" style="fill:none;stroke:#000000;stroke-dasharray:3.7,1.6;stroke-dashoffset:0;"/>
   </g>
   <g id="patch_3">
    <path d="M 57.6 307.584 
L 57.6 41.472 
" style="fill:none;stroke:#000000;stroke-linecap:square;stroke-linejoin:miter;stroke-width:0.8;"/>
   </g>
   <g id="patch_4">
    <path d="M 414.72 307.584 
L 414.72 41.472 
" style="fill:none;stroke:#000000;stroke-linecap:square;stroke-linejoin:miter;stroke-width:0.8;"/>
   </g>
   <g id="patch_5">
    <path d="M 57.6 307.584 
L 414.72 307.584 
" style="fill:none;stroke:#000000;stroke-linecap:square;stroke-linejoin:miter;stroke-width:0.8;"/>
   </g>
   <g id="patch_6">
    <path d="M 57.6 41.472 
L 414.72 41.472 
" style="fill:none;stroke:#000000;stroke-linecap:square;stroke-linejoin:miter;stroke-width:0.8;"/>
   </g>
   <g id="text_14">
    <!-- predict func of different method,m=9,l2_coef=0.0001 -->
    <g transform="translate(83.16 35.472)scale(0.12 -0.12)">
     <defs>
      <path d="M 2825 1525 
Q 2825 800 2475 425 
Q 2125 50 1625 50 
Q 1350 50 1150 162 
Q 950 275 800 500 
L 800 -800 
L 300 -800 
L 300 2925 
L 800 2925 
L 800 2550 
Q 950 2775 1150 2875 
Q 1350 2975 1625 2975 
Q 2125 2975 2475 2612 
Q 2825 2250 2825 1525 
z
M 2275 1525 
Q 2275 2000 2087 2262 
Q 1900 2525 1525 2525 
Q 1225 2525 1012 2262 
Q 800 2000 800 1525 
Q 800 1050 1012 775 
Q 1225 500 1525 500 
Q 1900 500 2087 775 
Q 2275 1050 2275 1525 
z
" id="SimHei-70" transform="scale(0.015625)"/>
      <path d="M 2500 2425 
Q 2025 2500 1700 2287 
Q 1375 2075 1150 1550 
L 1150 125 
L 650 125 
L 650 2925 
L 1150 2925 
L 1150 2200 
Q 1375 2600 1712 2787 
Q 2050 2975 2500 2975 
L 2500 2425 
z
" id="SimHei-72" transform="scale(0.015625)"/>
      <path d="M 2850 1075 
Q 2800 625 2450 350 
Q 2100 75 1625 75 
Q 1025 75 637 462 
Q 250 850 250 1525 
Q 250 2200 637 2587 
Q 1025 2975 1625 2975 
Q 2150 2975 2487 2637 
Q 2825 2300 2825 1525 
L 800 1525 
Q 800 975 1037 750 
Q 1275 525 1625 525 
Q 1900 525 2075 662 
Q 2250 800 2300 1075 
L 2850 1075 
z
M 2250 1925 
Q 2200 2275 2025 2412 
Q 1850 2550 1575 2550 
Q 1325 2550 1125 2412 
Q 925 2275 825 1925 
L 2250 1925 
z
" id="SimHei-65" transform="scale(0.015625)"/>
      <path d="M 2750 125 
L 2250 125 
L 2250 500 
Q 2100 275 1900 175 
Q 1700 75 1425 75 
Q 925 75 575 437 
Q 225 800 225 1525 
Q 225 2250 575 2625 
Q 925 3000 1425 3000 
Q 1700 3000 1900 2887 
Q 2100 2775 2250 2550 
L 2250 4400 
L 2750 4400 
L 2750 125 
z
M 2250 1525 
Q 2250 2000 2037 2275 
Q 1825 2550 1525 2550 
Q 1150 2550 962 2275 
Q 775 2000 775 1525 
Q 775 1050 962 787 
Q 1150 525 1525 525 
Q 1825 525 2037 787 
Q 2250 1050 2250 1525 
z
" id="SimHei-64" transform="scale(0.015625)"/>
      <path d="M 1800 3725 
L 1300 3725 
L 1300 4375 
L 1800 4375 
L 1800 3725 
z
M 1800 125 
L 1300 125 
L 1300 2925 
L 1800 2925 
L 1800 125 
z
" id="SimHei-69" transform="scale(0.015625)"/>
      <path d="M 2850 1250 
Q 2850 725 2487 400 
Q 2125 75 1575 75 
Q 1025 75 625 462 
Q 225 850 225 1525 
Q 225 2200 625 2587 
Q 1025 2975 1575 2975 
Q 2125 2975 2450 2687 
Q 2775 2400 2775 2000 
L 2225 2000 
Q 2200 2300 2012 2412 
Q 1825 2525 1575 2525 
Q 1275 2525 1025 2287 
Q 775 2050 775 1525 
Q 775 1000 1025 762 
Q 1275 525 1575 525 
Q 1900 525 2100 700 
Q 2300 875 2300 1250 
L 2850 1250 
z
" id="SimHei-63" transform="scale(0.015625)"/>
      <path d="M 2750 200 
Q 2625 150 2462 112 
Q 2300 75 2025 75 
Q 1575 75 1300 325 
Q 1025 575 1025 1025 
L 1025 2525 
L 175 2525 
L 175 2925 
L 1025 2925 
L 1025 3900 
L 1525 3900 
L 1525 2925 
L 2550 2925 
L 2550 2525 
L 1525 2525 
L 1525 1000 
Q 1525 800 1625 662 
Q 1725 525 2000 525 
Q 2275 525 2450 575 
Q 2625 625 2750 700 
L 2750 200 
z
" id="SimHei-74" transform="scale(0.015625)"/>
      <path id="SimHei-20" transform="scale(0.015625)"/>
      <path d="M 2850 3825 
Q 2725 3900 2550 3950 
Q 2375 4000 2100 4000 
Q 1825 4000 1725 3862 
Q 1625 3725 1625 3525 
L 1625 2925 
L 2650 2925 
L 2650 2525 
L 1625 2525 
L 1625 125 
L 1125 125 
L 1125 2525 
L 275 2525 
L 275 2925 
L 1125 2925 
L 1125 3500 
Q 1125 3950 1400 4200 
Q 1675 4450 2125 4450 
Q 2400 4450 2562 4412 
Q 2725 4375 2850 4325 
L 2850 3825 
z
" id="SimHei-66" transform="scale(0.015625)"/>
      <path d="M 2800 125 
L 2300 125 
L 2300 650 
Q 2100 375 1862 225 
Q 1625 75 1250 75 
Q 800 75 575 325 
Q 350 575 350 950 
L 350 2925 
L 850 2925 
L 850 1125 
Q 850 825 1000 650 
Q 1150 475 1400 475 
Q 1725 475 2012 812 
Q 2300 1150 2300 1650 
L 2300 2925 
L 2800 2925 
L 2800 125 
z
" id="SimHei-75" transform="scale(0.015625)"/>
      <path d="M 2800 125 
L 2300 125 
L 2300 1925 
Q 2300 2225 2150 2400 
Q 2000 2575 1750 2575 
Q 1425 2575 1137 2237 
Q 850 1900 850 1400 
L 850 125 
L 350 125 
L 350 2925 
L 850 2925 
L 850 2400 
Q 1050 2675 1287 2825 
Q 1525 2975 1900 2975 
Q 2350 2975 2575 2725 
Q 2800 2475 2800 2100 
L 2800 125 
z
" id="SimHei-6e" transform="scale(0.015625)"/>
      <path d="M 2925 1525 
Q 2925 875 2525 475 
Q 2125 75 1575 75 
Q 1025 75 625 475 
Q 225 875 225 1525 
Q 225 2175 625 2575 
Q 1025 2975 1575 2975 
Q 2125 2975 2525 2575 
Q 2925 2175 2925 1525 
z
M 2375 1525 
Q 2375 2025 2125 2275 
Q 1875 2525 1575 2525 
Q 1275 2525 1025 2275 
Q 775 2025 775 1525 
Q 775 1025 1025 775 
Q 1275 525 1575 525 
Q 1875 525 2125 775 
Q 2375 1025 2375 1525 
z
" id="SimHei-6f" transform="scale(0.015625)"/>
      <path d="M 3050 125 
L 2550 125 
L 2550 2150 
Q 2550 2300 2500 2400 
Q 2450 2500 2300 2500 
Q 2125 2500 1975 2312 
Q 1825 2125 1825 1825 
L 1825 125 
L 1325 125 
L 1325 2150 
Q 1325 2300 1275 2400 
Q 1225 2500 1075 2500 
Q 900 2500 750 2312 
Q 600 2125 600 1825 
L 600 125 
L 100 125 
L 100 2925 
L 600 2925 
L 600 2550 
Q 725 2750 900 2862 
Q 1075 2975 1275 2975 
Q 1475 2975 1612 2862 
Q 1750 2750 1800 2550 
Q 1925 2750 2087 2862 
Q 2250 2975 2450 2975 
Q 2750 2975 2900 2812 
Q 3050 2650 3050 2350 
L 3050 125 
z
" id="SimHei-6d" transform="scale(0.015625)"/>
      <path d="M 2800 125 
L 2300 125 
L 2300 1925 
Q 2300 2225 2150 2400 
Q 2000 2575 1750 2575 
Q 1425 2575 1137 2237 
Q 850 1900 850 1400 
L 850 125 
L 350 125 
L 350 4400 
L 850 4400 
L 850 2400 
Q 1050 2675 1287 2825 
Q 1525 2975 1900 2975 
Q 2350 2975 2575 2725 
Q 2800 2475 2800 2100 
L 2800 125 
z
" id="SimHei-68" transform="scale(0.015625)"/>
      <path d="M 1100 125 
L 775 -550 
L 525 -550 
L 775 125 
L 525 125 
L 525 675 
L 1100 675 
L 1100 125 
z
" id="SimHei-2c" transform="scale(0.015625)"/>
      <path d="M 2975 2900 
L 125 2900 
L 125 3300 
L 2975 3300 
L 2975 2900 
z
M 2975 1375 
L 125 1375 
L 125 1775 
L 2975 1775 
L 2975 1375 
z
" id="SimHei-3d" transform="scale(0.015625)"/>
      <path d="M 800 75 
Q 1350 1000 1700 1750 
Q 1075 1650 662 1912 
Q 250 2175 162 2625 
Q 75 3075 175 3437 
Q 275 3800 487 4037 
Q 700 4275 1000 4375 
Q 1300 4475 1537 4475 
Q 1775 4475 2025 4375 
Q 2275 4275 2475 4075 
Q 2675 3875 2750 3662 
Q 2825 3450 2825 3112 
Q 2825 2775 2575 2250 
Q 2325 1725 1350 75 
L 800 75 
z
M 662 2875 
Q 700 2550 937 2337 
Q 1175 2125 1450 2150 
Q 1725 2175 1887 2300 
Q 2050 2425 2200 2725 
Q 2300 3100 2250 3362 
Q 2200 3625 1987 3800 
Q 1775 3975 1525 3975 
Q 1375 4000 1137 3900 
Q 900 3800 762 3500 
Q 625 3200 662 2875 
z
" id="SimHei-39" transform="scale(0.015625)"/>
      <path d="M 1825 125 
L 1325 125 
L 1325 4400 
L 1825 4400 
L 1825 125 
z
" id="SimHei-6c" transform="scale(0.015625)"/>
      <path d="M 3150 -850 
L 0 -850 
L 0 -550 
L 3150 -550 
L 3150 -850 
z
" id="SimHei-5f" transform="scale(0.015625)"/>
     </defs>
     <use xlink:href="#SimHei-70"/>
     <use x="50" xlink:href="#SimHei-72"/>
     <use x="100" xlink:href="#SimHei-65"/>
     <use x="150" xlink:href="#SimHei-64"/>
     <use x="200" xlink:href="#SimHei-69"/>
     <use x="250" xlink:href="#SimHei-63"/>
     <use x="300" xlink:href="#SimHei-74"/>
     <use x="350" xlink:href="#SimHei-20"/>
     <use x="400" xlink:href="#SimHei-66"/>
     <use x="450" xlink:href="#SimHei-75"/>
     <use x="500" xlink:href="#SimHei-6e"/>
     <use x="550" xlink:href="#SimHei-63"/>
     <use x="600" xlink:href="#SimHei-20"/>
     <use x="650" xlink:href="#SimHei-6f"/>
     <use x="700" xlink:href="#SimHei-66"/>
     <use x="750" xlink:href="#SimHei-20"/>
     <use x="800" xlink:href="#SimHei-64"/>
     <use x="850" xlink:href="#SimHei-69"/>
     <use x="900" xlink:href="#SimHei-66"/>
     <use x="950" xlink:href="#SimHei-66"/>
     <use x="1000" xlink:href="#SimHei-65"/>
     <use x="1050" xlink:href="#SimHei-72"/>
     <use x="1100" xlink:href="#SimHei-65"/>
     <use x="1150" xlink:href="#SimHei-6e"/>
     <use x="1200" xlink:href="#SimHei-74"/>
     <use x="1250" xlink:href="#SimHei-20"/>
     <use x="1300" xlink:href="#SimHei-6d"/>
     <use x="1350" xlink:href="#SimHei-65"/>
     <use x="1400" xlink:href="#SimHei-74"/>
     <use x="1450" xlink:href="#SimHei-68"/>
     <use x="1500" xlink:href="#SimHei-6f"/>
     <use x="1550" xlink:href="#SimHei-64"/>
     <use x="1600" xlink:href="#SimHei-2c"/>
     <use x="1650" xlink:href="#SimHei-6d"/>
     <use x="1700" xlink:href="#SimHei-3d"/>
     <use x="1750" xlink:href="#SimHei-39"/>
     <use x="1800" xlink:href="#SimHei-2c"/>
     <use x="1850" xlink:href="#SimHei-6c"/>
     <use x="1900" xlink:href="#SimHei-32"/>
     <use x="1950" xlink:href="#SimHei-5f"/>
     <use x="2000" xlink:href="#SimHei-63"/>
     <use x="2050" xlink:href="#SimHei-6f"/>
     <use x="2100" xlink:href="#SimHei-65"/>
     <use x="2150" xlink:href="#SimHei-66"/>
     <use x="2200" xlink:href="#SimHei-3d"/>
     <use x="2250" xlink:href="#SimHei-30"/>
     <use x="2300" xlink:href="#SimHei-2e"/>
     <use x="2350" xlink:href="#SimHei-30"/>
     <use x="2400" xlink:href="#SimHei-30"/>
     <use x="2450" xlink:href="#SimHei-30"/>
     <use x="2500" xlink:href="#SimHei-31"/>
    </g>
   </g>
   <g id="legend_1">
    <g id="patch_7">
     <path d="M 117.66 224.43425 
L 354.66 224.43425 
Q 356.66 224.43425 356.66 222.43425 
L 356.66 126.62175 
Q 356.66 124.62175 354.66 124.62175 
L 117.66 124.62175 
Q 115.66 124.62175 115.66 126.62175 
L 115.66 222.43425 
Q 115.66 224.43425 117.66 224.43425 
z
" style="fill:#ffffff;opacity:0.8;stroke:#cccccc;stroke-linejoin:miter;"/>
    </g>
    <g id="line2d_18">
     <path d="M 119.66 132.93425 
L 139.66 132.93425 
" style="fill:none;stroke:#0000ff;stroke-linecap:square;"/>
    </g>
    <g id="line2d_19"/>
    <g id="text_15">
     <!-- predict func(analytic) -->
     <g transform="translate(147.66 136.43425)scale(0.1 -0.1)">
      <defs>
       <path d="M 2975 -200 
L 2700 -475 
Q 2075 125 1762 775 
Q 1450 1425 1450 2250 
Q 1450 3075 1762 3725 
Q 2075 4375 2700 5000 
L 2975 4725 
Q 2400 4175 2112 3587 
Q 1825 3000 1825 2250 
Q 1825 1500 2112 912 
Q 2400 325 2975 -200 
z
" id="SimHei-28" transform="scale(0.015625)"/>
       <path d="M 2875 125 
L 2275 125 
Q 2225 175 2200 262 
Q 2175 350 2175 475 
Q 2000 275 1750 175 
Q 1500 75 1225 75 
Q 825 75 550 275 
Q 275 475 275 850 
Q 275 1225 525 1450 
Q 775 1675 1300 1750 
Q 1650 1800 1912 1875 
Q 2175 1950 2175 2075 
Q 2175 2225 2062 2375 
Q 1950 2525 1575 2525 
Q 1275 2525 1137 2412 
Q 1000 2300 950 2100 
L 400 2100 
Q 450 2500 762 2737 
Q 1075 2975 1575 2975 
Q 2125 2975 2400 2725 
Q 2675 2475 2675 2025 
L 2675 650 
Q 2675 500 2725 375 
Q 2775 250 2875 125 
z
M 2175 1050 
L 2175 1550 
Q 2025 1500 1887 1462 
Q 1750 1425 1425 1375 
Q 1050 1325 937 1200 
Q 825 1075 825 900 
Q 825 750 937 637 
Q 1050 525 1275 525 
Q 1500 525 1762 650 
Q 2025 775 2175 1050 
z
" id="SimHei-61" transform="scale(0.015625)"/>
       <path d="M 1675 2250 
Q 1675 1425 1362 775 
Q 1050 125 425 -475 
L 150 -200 
Q 725 325 1012 912 
Q 1300 1500 1300 2250 
Q 1300 3000 1012 3587 
Q 725 4175 150 4725 
L 425 5000 
Q 1050 4375 1362 3725 
Q 1675 3075 1675 2250 
z
" id="SimHei-29" transform="scale(0.015625)"/>
      </defs>
      <use xlink:href="#SimHei-70"/>
      <use x="50" xlink:href="#SimHei-72"/>
      <use x="100" xlink:href="#SimHei-65"/>
      <use x="150" xlink:href="#SimHei-64"/>
      <use x="200" xlink:href="#SimHei-69"/>
      <use x="250" xlink:href="#SimHei-63"/>
      <use x="300" xlink:href="#SimHei-74"/>
      <use x="350" xlink:href="#SimHei-20"/>
      <use x="400" xlink:href="#SimHei-66"/>
      <use x="450" xlink:href="#SimHei-75"/>
      <use x="500" xlink:href="#SimHei-6e"/>
      <use x="550" xlink:href="#SimHei-63"/>
      <use x="600" xlink:href="#SimHei-28"/>
      <use x="650" xlink:href="#SimHei-61"/>
      <use x="700" xlink:href="#SimHei-6e"/>
      <use x="750" xlink:href="#SimHei-61"/>
      <use x="800" xlink:href="#SimHei-6c"/>
      <use x="850" xlink:href="#SimHei-79"/>
      <use x="900" xlink:href="#SimHei-74"/>
      <use x="950" xlink:href="#SimHei-69"/>
      <use x="1000" xlink:href="#SimHei-63"/>
      <use x="1050" xlink:href="#SimHei-29"/>
     </g>
    </g>
    <g id="line2d_20">
     <path d="M 119.66 146.99675 
L 139.66 146.99675 
" style="fill:none;stroke:#ff0000;stroke-linecap:square;"/>
    </g>
    <g id="line2d_21"/>
    <g id="text_16">
     <!-- predict func(gradient descent) -->
     <g transform="translate(147.66 150.49675)scale(0.1 -0.1)">
      <defs>
       <path d="M 2975 2500 
Q 2800 2550 2637 2562 
Q 2475 2575 2300 2525 
Q 2375 2450 2425 2337 
Q 2475 2225 2475 2000 
Q 2475 1575 2187 1300 
Q 1900 1025 1475 1025 
Q 1375 1025 1212 1062 
Q 1050 1100 950 1150 
Q 875 1100 850 1050 
Q 825 1000 825 925 
Q 825 800 1000 737 
Q 1175 675 1625 675 
Q 2350 675 2612 475 
Q 2875 275 2875 -25 
Q 2875 -425 2487 -612 
Q 2100 -800 1575 -800 
Q 900 -800 575 -625 
Q 250 -450 250 -150 
Q 250 0 375 150 
Q 500 300 700 400 
Q 550 475 462 587 
Q 375 700 375 875 
Q 375 1025 487 1137 
Q 600 1250 750 1325 
Q 625 1450 550 1625 
Q 475 1800 475 2000 
Q 475 2425 762 2700 
Q 1050 2975 1475 2975 
Q 1700 2975 1862 2912 
Q 2025 2850 2150 2725 
Q 2350 2875 2550 2937 
Q 2750 3000 2975 2975 
L 2975 2500 
z
M 1975 2000 
Q 1975 2250 1850 2400 
Q 1725 2550 1475 2550 
Q 1225 2550 1100 2400 
Q 975 2250 975 2000 
Q 975 1750 1100 1600 
Q 1225 1450 1475 1450 
Q 1725 1450 1850 1600 
Q 1975 1750 1975 2000 
z
M 2400 -75 
Q 2400 25 2287 125 
Q 2175 225 1725 225 
Q 1625 225 1450 237 
Q 1275 250 1050 275 
Q 850 200 775 100 
Q 700 0 700 -100 
Q 700 -250 900 -350 
Q 1100 -450 1600 -450 
Q 2025 -450 2212 -337 
Q 2400 -225 2400 -75 
z
" id="SimHei-67" transform="scale(0.015625)"/>
       <path d="M 2750 900 
Q 2750 500 2437 287 
Q 2125 75 1650 75 
Q 1050 75 725 312 
Q 400 550 400 1000 
L 900 1000 
Q 900 700 1112 600 
Q 1325 500 1625 500 
Q 1925 500 2075 612 
Q 2225 725 2225 900 
Q 2225 1025 2100 1150 
Q 1975 1275 1475 1350 
Q 900 1425 687 1637 
Q 475 1850 475 2200 
Q 475 2500 762 2737 
Q 1050 2975 1600 2975 
Q 2100 2975 2387 2750 
Q 2675 2525 2675 2150 
L 2175 2150 
Q 2175 2375 2012 2462 
Q 1850 2550 1600 2550 
Q 1275 2550 1137 2437 
Q 1000 2325 1000 2175 
Q 1000 2000 1125 1900 
Q 1250 1800 1650 1750 
Q 2300 1650 2525 1437 
Q 2750 1225 2750 900 
z
" id="SimHei-73" transform="scale(0.015625)"/>
      </defs>
      <use xlink:href="#SimHei-70"/>
      <use x="50" xlink:href="#SimHei-72"/>
      <use x="100" xlink:href="#SimHei-65"/>
      <use x="150" xlink:href="#SimHei-64"/>
      <use x="200" xlink:href="#SimHei-69"/>
      <use x="250" xlink:href="#SimHei-63"/>
      <use x="300" xlink:href="#SimHei-74"/>
      <use x="350" xlink:href="#SimHei-20"/>
      <use x="400" xlink:href="#SimHei-66"/>
      <use x="450" xlink:href="#SimHei-75"/>
      <use x="500" xlink:href="#SimHei-6e"/>
      <use x="550" xlink:href="#SimHei-63"/>
      <use x="600" xlink:href="#SimHei-28"/>
      <use x="650" xlink:href="#SimHei-67"/>
      <use x="700" xlink:href="#SimHei-72"/>
      <use x="750" xlink:href="#SimHei-61"/>
      <use x="800" xlink:href="#SimHei-64"/>
      <use x="850" xlink:href="#SimHei-69"/>
      <use x="900" xlink:href="#SimHei-65"/>
      <use x="950" xlink:href="#SimHei-6e"/>
      <use x="1000" xlink:href="#SimHei-74"/>
      <use x="1050" xlink:href="#SimHei-20"/>
      <use x="1100" xlink:href="#SimHei-64"/>
      <use x="1150" xlink:href="#SimHei-65"/>
      <use x="1200" xlink:href="#SimHei-73"/>
      <use x="1250" xlink:href="#SimHei-63"/>
      <use x="1300" xlink:href="#SimHei-65"/>
      <use x="1350" xlink:href="#SimHei-6e"/>
      <use x="1400" xlink:href="#SimHei-74"/>
      <use x="1450" xlink:href="#SimHei-29"/>
     </g>
    </g>
    <g id="line2d_22">
     <path d="M 119.66 161.05925 
L 139.66 161.05925 
" style="fill:none;stroke:#008000;stroke-linecap:square;"/>
    </g>
    <g id="line2d_23"/>
    <g id="text_17">
     <!-- predict func(stochastic gradient descent) -->
     <g transform="translate(147.66 164.55925)scale(0.1 -0.1)">
      <use xlink:href="#SimHei-70"/>
      <use x="50" xlink:href="#SimHei-72"/>
      <use x="100" xlink:href="#SimHei-65"/>
      <use x="150" xlink:href="#SimHei-64"/>
      <use x="200" xlink:href="#SimHei-69"/>
      <use x="250" xlink:href="#SimHei-63"/>
      <use x="300" xlink:href="#SimHei-74"/>
      <use x="350" xlink:href="#SimHei-20"/>
      <use x="400" xlink:href="#SimHei-66"/>
      <use x="450" xlink:href="#SimHei-75"/>
      <use x="500" xlink:href="#SimHei-6e"/>
      <use x="550" xlink:href="#SimHei-63"/>
      <use x="600" xlink:href="#SimHei-28"/>
      <use x="650" xlink:href="#SimHei-73"/>
      <use x="700" xlink:href="#SimHei-74"/>
      <use x="750" xlink:href="#SimHei-6f"/>
      <use x="800" xlink:href="#SimHei-63"/>
      <use x="850" xlink:href="#SimHei-68"/>
      <use x="900" xlink:href="#SimHei-61"/>
      <use x="950" xlink:href="#SimHei-73"/>
      <use x="1000" xlink:href="#SimHei-74"/>
      <use x="1050" xlink:href="#SimHei-69"/>
      <use x="1100" xlink:href="#SimHei-63"/>
      <use x="1150" xlink:href="#SimHei-20"/>
      <use x="1200" xlink:href="#SimHei-67"/>
      <use x="1250" xlink:href="#SimHei-72"/>
      <use x="1300" xlink:href="#SimHei-61"/>
      <use x="1350" xlink:href="#SimHei-64"/>
      <use x="1400" xlink:href="#SimHei-69"/>
      <use x="1450" xlink:href="#SimHei-65"/>
      <use x="1500" xlink:href="#SimHei-6e"/>
      <use x="1550" xlink:href="#SimHei-74"/>
      <use x="1600" xlink:href="#SimHei-20"/>
      <use x="1650" xlink:href="#SimHei-64"/>
      <use x="1700" xlink:href="#SimHei-65"/>
      <use x="1750" xlink:href="#SimHei-73"/>
      <use x="1800" xlink:href="#SimHei-63"/>
      <use x="1850" xlink:href="#SimHei-65"/>
      <use x="1900" xlink:href="#SimHei-6e"/>
      <use x="1950" xlink:href="#SimHei-74"/>
      <use x="2000" xlink:href="#SimHei-29"/>
     </g>
    </g>
    <g id="line2d_24">
     <path d="M 119.66 175.12175 
L 139.66 175.12175 
" style="fill:none;stroke:#800080;stroke-linecap:square;"/>
    </g>
    <g id="line2d_25"/>
    <g id="text_18">
     <!-- predict func(els gradient descent) -->
     <g transform="translate(147.66 178.62175)scale(0.1 -0.1)">
      <use xlink:href="#SimHei-70"/>
      <use x="50" xlink:href="#SimHei-72"/>
      <use x="100" xlink:href="#SimHei-65"/>
      <use x="150" xlink:href="#SimHei-64"/>
      <use x="200" xlink:href="#SimHei-69"/>
      <use x="250" xlink:href="#SimHei-63"/>
      <use x="300" xlink:href="#SimHei-74"/>
      <use x="350" xlink:href="#SimHei-20"/>
      <use x="400" xlink:href="#SimHei-66"/>
      <use x="450" xlink:href="#SimHei-75"/>
      <use x="500" xlink:href="#SimHei-6e"/>
      <use x="550" xlink:href="#SimHei-63"/>
      <use x="600" xlink:href="#SimHei-28"/>
      <use x="650" xlink:href="#SimHei-65"/>
      <use x="700" xlink:href="#SimHei-6c"/>
      <use x="750" xlink:href="#SimHei-73"/>
      <use x="800" xlink:href="#SimHei-20"/>
      <use x="850" xlink:href="#SimHei-67"/>
      <use x="900" xlink:href="#SimHei-72"/>
      <use x="950" xlink:href="#SimHei-61"/>
      <use x="1000" xlink:href="#SimHei-64"/>
      <use x="1050" xlink:href="#SimHei-69"/>
      <use x="1100" xlink:href="#SimHei-65"/>
      <use x="1150" xlink:href="#SimHei-6e"/>
      <use x="1200" xlink:href="#SimHei-74"/>
      <use x="1250" xlink:href="#SimHei-20"/>
      <use x="1300" xlink:href="#SimHei-64"/>
      <use x="1350" xlink:href="#SimHei-65"/>
      <use x="1400" xlink:href="#SimHei-73"/>
      <use x="1450" xlink:href="#SimHei-63"/>
      <use x="1500" xlink:href="#SimHei-65"/>
      <use x="1550" xlink:href="#SimHei-6e"/>
      <use x="1600" xlink:href="#SimHei-74"/>
      <use x="1650" xlink:href="#SimHei-29"/>
     </g>
    </g>
    <g id="line2d_26">
     <path d="M 119.66 189.18425 
L 139.66 189.18425 
" style="fill:none;stroke:#ffff00;stroke-linecap:square;"/>
    </g>
    <g id="line2d_27"/>
    <g id="text_19">
     <!-- predict func(conjugate gradient descent) -->
     <g transform="translate(147.66 192.68425)scale(0.1 -0.1)">
      <defs>
       <path d="M 2300 3725 
L 1800 3725 
L 1800 4375 
L 2300 4375 
L 2300 3725 
z
M 2300 150 
Q 2300 -300 2025 -550 
Q 1750 -800 1300 -800 
Q 1025 -800 862 -762 
Q 700 -725 575 -675 
L 575 -175 
Q 700 -250 875 -300 
Q 1050 -350 1325 -350 
Q 1600 -350 1700 -212 
Q 1800 -75 1800 125 
L 1800 2925 
L 2300 2925 
L 2300 150 
z
" id="SimHei-6a" transform="scale(0.015625)"/>
      </defs>
      <use xlink:href="#SimHei-70"/>
      <use x="50" xlink:href="#SimHei-72"/>
      <use x="100" xlink:href="#SimHei-65"/>
      <use x="150" xlink:href="#SimHei-64"/>
      <use x="200" xlink:href="#SimHei-69"/>
      <use x="250" xlink:href="#SimHei-63"/>
      <use x="300" xlink:href="#SimHei-74"/>
      <use x="350" xlink:href="#SimHei-20"/>
      <use x="400" xlink:href="#SimHei-66"/>
      <use x="450" xlink:href="#SimHei-75"/>
      <use x="500" xlink:href="#SimHei-6e"/>
      <use x="550" xlink:href="#SimHei-63"/>
      <use x="600" xlink:href="#SimHei-28"/>
      <use x="650" xlink:href="#SimHei-63"/>
      <use x="700" xlink:href="#SimHei-6f"/>
      <use x="750" xlink:href="#SimHei-6e"/>
      <use x="800" xlink:href="#SimHei-6a"/>
      <use x="850" xlink:href="#SimHei-75"/>
      <use x="900" xlink:href="#SimHei-67"/>
      <use x="950" xlink:href="#SimHei-61"/>
      <use x="1000" xlink:href="#SimHei-74"/>
      <use x="1050" xlink:href="#SimHei-65"/>
      <use x="1100" xlink:href="#SimHei-20"/>
      <use x="1150" xlink:href="#SimHei-67"/>
      <use x="1200" xlink:href="#SimHei-72"/>
      <use x="1250" xlink:href="#SimHei-61"/>
      <use x="1300" xlink:href="#SimHei-64"/>
      <use x="1350" xlink:href="#SimHei-69"/>
      <use x="1400" xlink:href="#SimHei-65"/>
      <use x="1450" xlink:href="#SimHei-6e"/>
      <use x="1500" xlink:href="#SimHei-74"/>
      <use x="1550" xlink:href="#SimHei-20"/>
      <use x="1600" xlink:href="#SimHei-64"/>
      <use x="1650" xlink:href="#SimHei-65"/>
      <use x="1700" xlink:href="#SimHei-73"/>
      <use x="1750" xlink:href="#SimHei-63"/>
      <use x="1800" xlink:href="#SimHei-65"/>
      <use x="1850" xlink:href="#SimHei-6e"/>
      <use x="1900" xlink:href="#SimHei-74"/>
      <use x="1950" xlink:href="#SimHei-29"/>
     </g>
    </g>
    <g id="line2d_28">
     <path d="M 119.66 202.43425 
L 139.66 202.43425 
" style="fill:none;stroke:#000000;stroke-dasharray:3.7,1.6;stroke-dashoffset:0;"/>
    </g>
    <g id="line2d_29"/>
    <g id="text_20">
     <!-- real func -->
     <g transform="translate(147.66 205.93425)scale(0.1 -0.1)">
      <use xlink:href="#SimHei-72"/>
      <use x="50" xlink:href="#SimHei-65"/>
      <use x="100" xlink:href="#SimHei-61"/>
      <use x="150" xlink:href="#SimHei-6c"/>
      <use x="200" xlink:href="#SimHei-20"/>
      <use x="250" xlink:href="#SimHei-66"/>
      <use x="300" xlink:href="#SimHei-75"/>
      <use x="350" xlink:href="#SimHei-6e"/>
      <use x="400" xlink:href="#SimHei-63"/>
     </g>
    </g>
    <g id="PathCollection_2">
     <g>
      <use style="fill:#008000;stroke:#008000;" x="129.66" xlink:href="#m74ecf01dcc" y="216.55925"/>
     </g>
    </g>
    <g id="text_21">
     <!-- train data -->
     <g transform="translate(147.66 219.18425)scale(0.1 -0.1)">
      <use xlink:href="#SimHei-74"/>
      <use x="50" xlink:href="#SimHei-72"/>
      <use x="100" xlink:href="#SimHei-61"/>
      <use x="150" xlink:href="#SimHei-69"/>
      <use x="200" xlink:href="#SimHei-6e"/>
      <use x="250" xlink:href="#SimHei-20"/>
      <use x="300" xlink:href="#SimHei-64"/>
      <use x="350" xlink:href="#SimHei-61"/>
      <use x="400" xlink:href="#SimHei-74"/>
      <use x="450" xlink:href="#SimHei-61"/>
     </g>
    </g>
   </g>
  </g>
 </g>
 <defs>
  <clipPath id="pb446248e64">
   <rect height="266.112" width="357.12" x="57.6" y="41.472"/>
  </clipPath>
 </defs>
</svg>
