<?xml version="1.0" encoding="utf-8" standalone="no"?>
<!DOCTYPE svg PUBLIC "-//W3C//DTD SVG 1.1//EN"
  "http://www.w3.org/Graphics/SVG/1.1/DTD/svg11.dtd">
<svg height="345.6pt" version="1.1" viewBox="0 0 460.8 345.6" width="460.8pt" xmlns="http://www.w3.org/2000/svg" xmlns:xlink="http://www.w3.org/1999/xlink">
 <metadata>
  <rdf:RDF xmlns:cc="http://creativecommons.org/ns#" xmlns:dc="http://purl.org/dc/elements/1.1/" xmlns:rdf="http://www.w3.org/1999/02/22-rdf-syntax-ns#">
   <cc:Work>
    <dc:type rdf:resource="http://purl.org/dc/dcmitype/StillImage"/>
    <dc:date>2021-10-28T14:42:56.681786</dc:date>
    <dc:format>image/svg+xml</dc:format>
    <dc:creator>
     <cc:Agent>
      <dc:title>Matplotlib v3.4.2, https://matplotlib.org/</dc:title>
     </cc:Agent>
    </dc:creator>
   </cc:Work>
  </rdf:RDF>
 </metadata>
 <defs>
  <style type="text/css">*{stroke-linecap:butt;stroke-linejoin:round;}</style>
 </defs>
 <g id="figure_1">
  <g id="patch_1">
   <path d="M 0 345.6 
L 460.8 345.6 
L 460.8 0 
L 0 0 
z
" style="fill:#ffffff;"/>
  </g>
  <g id="patch_2">
   <path d="M 57.6 345.6 
L 403.2 345.6 
L 403.2 0 
L 57.6 0 
z
" style="fill:#ffffff;"/>
  </g>
  <g id="pane3d_1">
   <g id="patch_3">
    <path d="M 83.695183 260.386116 
L 197.82359 164.721422 
L 196.237096 26.755832 
L 76.647057 114.027196 
" style="fill:#f2f2f2;opacity:0.5;stroke:#f2f2f2;stroke-linejoin:miter;"/>
   </g>
  </g>
  <g id="pane3d_2">
   <g id="patch_4">
    <path d="M 197.82359 164.721422 
L 380.958962 217.951644 
L 387.494418 75.233988 
L 196.237096 26.755832 
" style="fill:#e6e6e6;opacity:0.5;stroke:#e6e6e6;stroke-linejoin:miter;"/>
   </g>
  </g>
  <g id="pane3d_3">
   <g id="patch_5">
    <path d="M 83.695183 260.386116 
L 277.827622 323.78977 
L 380.958962 217.951644 
L 197.82359 164.721422 
" style="fill:#ececec;opacity:0.5;stroke:#ececec;stroke-linejoin:miter;"/>
   </g>
  </g>
  <g id="axis3d_1">
   <g id="line2d_1">
    <path d="M 83.695183 260.386116 
L 277.827622 323.78977 
" style="fill:none;stroke:#000000;stroke-linecap:square;stroke-width:0.8;"/>
   </g>
   <g id="text_1">
    <!-- $x$ -->
    <g transform="translate(157.742049 330.394474)scale(0.14 -0.14)">
     <defs>
      <path d="M 3841 3500 
L 2234 1784 
L 3219 0 
L 2559 0 
L 1819 1388 
L 531 0 
L -166 0 
L 1556 1844 
L 641 3500 
L 1300 3500 
L 1972 2234 
L 3144 3500 
L 3841 3500 
z
" id="DejaVuSans-Oblique-78" transform="scale(0.015625)"/>
     </defs>
     <use transform="translate(0 0.3125)" xlink:href="#DejaVuSans-Oblique-78"/>
    </g>
   </g>
   <g id="Line3DCollection_1">
    <path d="M 97.508768 264.897632 
L 210.908214 168.524605 
L 209.875253 30.212708 
" style="fill:none;stroke:#b0b0b0;stroke-width:0.8;"/>
    <path d="M 117.935942 271.569147 
L 230.242329 174.14427 
L 230.034807 35.322567 
" style="fill:none;stroke:#b0b0b0;stroke-width:0.8;"/>
    <path d="M 138.596343 278.316834 
L 249.778902 179.82278 
L 250.414585 40.488247 
" style="fill:none;stroke:#b0b0b0;stroke-width:0.8;"/>
    <path d="M 159.493988 285.142005 
L 269.521128 185.561066 
L 271.018215 45.710666 
" style="fill:none;stroke:#b0b0b0;stroke-width:0.8;"/>
    <path d="M 180.632987 292.046002 
L 289.472272 191.360075 
L 291.849406 50.990766 
" style="fill:none;stroke:#b0b0b0;stroke-width:0.8;"/>
    <path d="M 202.017545 299.030199 
L 309.635668 197.220779 
L 312.911948 56.329506 
" style="fill:none;stroke:#b0b0b0;stroke-width:0.8;"/>
    <path d="M 223.651967 306.096001 
L 330.01472 203.144165 
L 334.209718 61.72787 
" style="fill:none;stroke:#b0b0b0;stroke-width:0.8;"/>
    <path d="M 245.540658 313.244847 
L 350.612908 209.131245 
L 355.746677 67.186861 
" style="fill:none;stroke:#b0b0b0;stroke-width:0.8;"/>
    <path d="M 267.688126 320.47821 
L 371.433786 215.183052 
L 377.526879 72.707508 
" style="fill:none;stroke:#b0b0b0;stroke-width:0.8;"/>
   </g>
   <g id="xtick_1">
    <g id="line2d_2">
     <path d="M 98.49629 264.058383 
L 95.529484 266.579735 
" style="fill:none;stroke:#000000;stroke-linecap:square;stroke-width:0.8;"/>
    </g>
    <g id="text_2">
     <!-- -2 -->
     <g transform="translate(84.987721 287.480843)scale(0.1 -0.1)">
      <defs>
       <path d="M 2975 2125 
L 125 2125 
L 125 2525 
L 2975 2525 
L 2975 2125 
z
" id="SimHei-2d" transform="scale(0.015625)"/>
       <path d="M 300 250 
Q 325 625 650 925 
Q 975 1225 1475 1862 
Q 1975 2500 2125 2850 
Q 2275 3200 2237 3450 
Q 2200 3700 2000 3862 
Q 1800 4025 1537 4000 
Q 1275 3975 1037 3800 
Q 800 3625 675 3275 
L 200 3350 
Q 400 3925 712 4187 
Q 1025 4450 1450 4475 
Q 1700 4500 1900 4462 
Q 2100 4425 2312 4287 
Q 2525 4150 2662 3875 
Q 2800 3600 2762 3212 
Q 2725 2825 2375 2287 
Q 2025 1750 1025 600 
L 2825 600 
L 2825 150 
L 300 150 
L 300 250 
z
" id="SimHei-32" transform="scale(0.015625)"/>
      </defs>
      <use xlink:href="#SimHei-2d"/>
      <use x="50" xlink:href="#SimHei-32"/>
     </g>
    </g>
   </g>
   <g id="xtick_2">
    <g id="line2d_3">
     <path d="M 118.914396 270.720346 
L 115.974808 273.270415 
" style="fill:none;stroke:#000000;stroke-linecap:square;stroke-width:0.8;"/>
    </g>
    <g id="text_3">
     <!-- -1 -->
     <g transform="translate(105.430865 294.260979)scale(0.1 -0.1)">
      <defs>
       <path d="M 1400 3600 
Q 1075 3275 575 2975 
L 575 3450 
Q 1200 3875 1600 4450 
L 1900 4450 
L 1900 150 
L 1400 150 
L 1400 3600 
z
" id="SimHei-31" transform="scale(0.015625)"/>
      </defs>
      <use xlink:href="#SimHei-2d"/>
      <use x="50" xlink:href="#SimHei-31"/>
     </g>
    </g>
   </g>
   <g id="xtick_3">
    <g id="line2d_4">
     <path d="M 139.565458 277.458318 
L 136.653904 280.037595 
" style="fill:none;stroke:#000000;stroke-linecap:square;stroke-width:0.8;"/>
    </g>
    <g id="text_4">
     <!-- 0 -->
     <g transform="translate(128.608093 301.118751)scale(0.1 -0.1)">
      <defs>
       <path d="M 225 2537 
Q 250 3200 412 3587 
Q 575 3975 875 4225 
Q 1175 4475 1612 4475 
Q 2050 4475 2375 4112 
Q 2700 3750 2800 3200 
Q 2900 2650 2862 1937 
Q 2825 1225 2612 775 
Q 2400 325 1975 150 
Q 1550 -25 1125 187 
Q 700 400 525 750 
Q 350 1100 275 1487 
Q 200 1875 225 2537 
z
M 750 2687 
Q 675 2000 800 1462 
Q 925 925 1212 700 
Q 1500 475 1800 612 
Q 2100 750 2237 1162 
Q 2375 1575 2375 2062 
Q 2375 2550 2337 2950 
Q 2300 3350 2112 3675 
Q 1925 4000 1612 4012 
Q 1300 4025 1062 3700 
Q 825 3375 750 2687 
z
" id="SimHei-30" transform="scale(0.015625)"/>
      </defs>
      <use xlink:href="#SimHei-30"/>
     </g>
    </g>
   </g>
   <g id="xtick_4">
    <g id="line2d_5">
     <path d="M 160.453484 284.273605 
L 157.570805 286.882597 
" style="fill:none;stroke:#000000;stroke-linecap:square;stroke-width:0.8;"/>
    </g>
    <g id="text_5">
     <!-- 1 -->
     <g transform="translate(149.52345 308.0555)scale(0.1 -0.1)">
      <use xlink:href="#SimHei-31"/>
     </g>
    </g>
   </g>
   <g id="xtick_5">
    <g id="line2d_6">
     <path d="M 181.582577 291.167548 
L 178.729635 293.806769 
" style="fill:none;stroke:#000000;stroke-linecap:square;stroke-width:0.8;"/>
    </g>
    <g id="text_6">
     <!-- 2 -->
     <g transform="translate(170.681073 315.072599)scale(0.1 -0.1)">
      <use xlink:href="#SimHei-32"/>
     </g>
    </g>
   </g>
   <g id="xtick_6">
    <g id="line2d_7">
     <path d="M 202.956934 298.141514 
L 200.134618 300.811495 
" style="fill:none;stroke:#000000;stroke-linecap:square;stroke-width:0.8;"/>
    </g>
    <g id="text_7">
     <!-- 3 -->
     <g transform="translate(192.085196 322.171451)scale(0.1 -0.1)">
      <defs>
       <path d="M 250 1225 
L 700 1300 
Q 800 975 1025 762 
Q 1250 550 1587 562 
Q 1925 575 2125 837 
Q 2325 1100 2300 1437 
Q 2275 1775 2037 1962 
Q 1800 2150 1275 2225 
L 1275 2550 
Q 1800 2600 2037 2825 
Q 2275 3050 2250 3412 
Q 2225 3775 1925 3937 
Q 1625 4100 1287 3975 
Q 950 3850 750 3275 
L 300 3350 
Q 450 3800 712 4100 
Q 975 4400 1425 4450 
Q 1875 4500 2212 4337 
Q 2550 4175 2687 3837 
Q 2825 3500 2725 3100 
Q 2625 2700 2150 2400 
Q 2500 2250 2687 1950 
Q 2875 1650 2812 1162 
Q 2750 675 2375 375 
Q 2000 75 1525 87 
Q 1050 100 700 387 
Q 350 675 250 1225 
z
" id="SimHei-33" transform="scale(0.015625)"/>
      </defs>
      <use xlink:href="#SimHei-33"/>
     </g>
    </g>
   </g>
   <g id="xtick_7">
    <g id="line2d_8">
     <path d="M 224.58085 305.196906 
L 221.790073 307.898186 
" style="fill:none;stroke:#000000;stroke-linecap:square;stroke-width:0.8;"/>
    </g>
    <g id="text_8">
     <!-- 4 -->
     <g transform="translate(213.740152 329.353494)scale(0.1 -0.1)">
      <defs>
       <path d="M 2000 1100 
L 75 1100 
L 75 1525 
L 2100 4450 
L 2475 4450 
L 2475 1525 
L 3075 1525 
L 3075 1100 
L 2475 1100 
L 2475 150 
L 2000 150 
L 2000 1100 
z
M 2000 1525 
L 2000 3500 
L 600 1525 
L 2000 1525 
z
" id="SimHei-34" transform="scale(0.015625)"/>
      </defs>
      <use xlink:href="#SimHei-34"/>
     </g>
    </g>
   </g>
   <g id="xtick_8">
    <g id="line2d_9">
     <path d="M 246.458723 312.335158 
L 243.700424 315.068292 
" style="fill:none;stroke:#000000;stroke-linecap:square;stroke-width:0.8;"/>
    </g>
    <g id="text_9">
     <!-- 5 -->
     <g transform="translate(235.650375 336.620199)scale(0.1 -0.1)">
      <defs>
       <path d="M 550 1325 
Q 725 650 1150 575 
Q 1575 500 1837 662 
Q 2100 825 2212 1087 
Q 2325 1350 2312 1675 
Q 2300 2000 2137 2225 
Q 1975 2450 1725 2525 
Q 1475 2600 1162 2525 
Q 850 2450 650 2175 
L 225 2225 
Q 275 2375 700 4375 
L 2675 4375 
L 2675 3925 
L 1075 3925 
Q 950 3250 825 2850 
Q 1200 3025 1525 3012 
Q 1850 3000 2150 2862 
Q 2450 2725 2587 2487 
Q 2725 2250 2787 2012 
Q 2850 1775 2837 1500 
Q 2825 1225 2725 937 
Q 2625 650 2425 462 
Q 2225 275 1937 162 
Q 1650 50 1275 75 
Q 900 100 562 350 
Q 225 600 100 1200 
L 550 1325 
z
" id="SimHei-35" transform="scale(0.015625)"/>
      </defs>
      <use xlink:href="#SimHei-35"/>
     </g>
    </g>
   </g>
   <g id="xtick_9">
    <g id="line2d_10">
     <path d="M 268.595052 319.557739 
L 265.870196 322.323292 
" style="fill:none;stroke:#000000;stroke-linecap:square;stroke-width:0.8;"/>
    </g>
    <g id="text_10">
     <!-- 6 -->
     <g transform="translate(257.820407 343.973071)scale(0.1 -0.1)">
      <defs>
       <path d="M 250 1612 
Q 275 1975 387 2225 
Q 500 2475 725 2850 
L 1750 4450 
L 2325 4450 
L 1275 2800 
Q 1950 2975 2350 2750 
Q 2750 2525 2887 2237 
Q 3025 1950 3037 1612 
Q 3050 1275 2937 950 
Q 2825 625 2537 362 
Q 2250 100 1737 75 
Q 1225 50 862 262 
Q 500 475 362 862 
Q 225 1250 250 1612 
z
M 1025 787 
Q 1250 550 1625 525 
Q 2000 500 2250 775 
Q 2500 1050 2500 1575 
Q 2500 2100 2187 2300 
Q 1875 2500 1487 2450 
Q 1100 2400 925 2075 
Q 750 1750 775 1387 
Q 800 1025 1025 787 
z
" id="SimHei-36" transform="scale(0.015625)"/>
      </defs>
      <use xlink:href="#SimHei-36"/>
     </g>
    </g>
   </g>
  </g>
  <g id="axis3d_2">
   <g id="line2d_11">
    <path d="M 380.958962 217.951644 
L 277.827622 323.78977 
" style="fill:none;stroke:#000000;stroke-linecap:square;stroke-width:0.8;"/>
   </g>
   <g id="text_11">
    <!-- $y$ -->
    <g transform="translate(354.464781 299.251775)scale(0.14 -0.14)">
     <defs>
      <path d="M 1588 -325 
Q 1188 -997 936 -1164 
Q 684 -1331 294 -1331 
L -159 -1331 
L -63 -850 
L 269 -850 
Q 509 -850 678 -719 
Q 847 -588 1056 -206 
L 1234 128 
L 459 3500 
L 1069 3500 
L 1650 819 
L 3256 3500 
L 3859 3500 
L 1588 -325 
z
" id="DejaVuSans-Oblique-79" transform="scale(0.015625)"/>
     </defs>
     <use transform="translate(0 0.3125)" xlink:href="#DejaVuSans-Oblique-79"/>
    </g>
   </g>
   <g id="Line3DCollection_2">
    <path d="M 85.616864 107.481439 
L 92.225325 253.235982 
L 285.567373 315.846882 
" style="fill:none;stroke:#b0b0b0;stroke-width:0.8;"/>
    <path d="M 102.629788 95.066182 
L 108.417674 239.663234 
L 300.245292 300.783725 
" style="fill:none;stroke:#b0b0b0;stroke-width:0.8;"/>
    <path d="M 119.232704 82.95013 
L 124.236647 226.403457 
L 314.566989 286.086141 
" style="fill:none;stroke:#b0b0b0;stroke-width:0.8;"/>
    <path d="M 135.440256 71.122597 
L 139.695012 213.445949 
L 328.545274 271.740982 
" style="fill:none;stroke:#b0b0b0;stroke-width:0.8;"/>
    <path d="M 151.266402 59.573397 
L 154.804961 200.78049 
L 342.192355 257.73572 
" style="fill:none;stroke:#b0b0b0;stroke-width:0.8;"/>
    <path d="M 166.724447 48.292819 
L 169.578141 188.397317 
L 355.519863 244.058417 
" style="fill:none;stroke:#b0b0b0;stroke-width:0.8;"/>
    <path d="M 181.827086 37.271601 
L 184.025688 176.287097 
L 368.538896 230.697688 
" style="fill:none;stroke:#b0b0b0;stroke-width:0.8;"/>
   </g>
   <g id="xtick_10">
    <g id="line2d_12">
     <path d="M 283.938115 315.319271 
L 288.830099 316.903466 
" style="fill:none;stroke:#000000;stroke-linecap:square;stroke-width:0.8;"/>
    </g>
    <g id="text_12">
     <!-- -4.15 -->
     <g transform="translate(285.940003 336.136258)scale(0.1 -0.1)">
      <defs>
       <path d="M 1075 125 
L 500 125 
L 500 675 
L 1075 675 
L 1075 125 
z
" id="SimHei-2e" transform="scale(0.015625)"/>
      </defs>
      <use xlink:href="#SimHei-2d"/>
      <use x="50" xlink:href="#SimHei-34"/>
      <use x="100" xlink:href="#SimHei-2e"/>
      <use x="150" xlink:href="#SimHei-31"/>
      <use x="200" xlink:href="#SimHei-35"/>
     </g>
    </g>
   </g>
   <g id="xtick_11">
    <g id="line2d_13">
     <path d="M 298.629802 300.268994 
L 303.480398 301.814501 
" style="fill:none;stroke:#000000;stroke-linecap:square;stroke-width:0.8;"/>
    </g>
    <g id="text_13">
     <!-- -4.10 -->
     <g transform="translate(300.466407 320.901393)scale(0.1 -0.1)">
      <use xlink:href="#SimHei-2d"/>
      <use x="50" xlink:href="#SimHei-34"/>
      <use x="100" xlink:href="#SimHei-2e"/>
      <use x="150" xlink:href="#SimHei-31"/>
      <use x="200" xlink:href="#SimHei-30"/>
     </g>
    </g>
   </g>
   <g id="xtick_12">
    <g id="line2d_14">
     <path d="M 312.965081 285.583824 
L 317.774844 287.092042 
" style="fill:none;stroke:#000000;stroke-linecap:square;stroke-width:0.8;"/>
    </g>
    <g id="text_14">
     <!-- -4.05 -->
     <g transform="translate(314.640106 306.036434)scale(0.1 -0.1)">
      <use xlink:href="#SimHei-2d"/>
      <use x="50" xlink:href="#SimHei-34"/>
      <use x="100" xlink:href="#SimHei-2e"/>
      <use x="150" xlink:href="#SimHei-30"/>
      <use x="200" xlink:href="#SimHei-35"/>
     </g>
    </g>
   </g>
   <g id="xtick_13">
    <g id="line2d_15">
     <path d="M 326.956766 271.250635 
L 331.726249 272.722897 
" style="fill:none;stroke:#000000;stroke-linecap:square;stroke-width:0.8;"/>
    </g>
    <g id="text_15">
     <!-- -4.00 -->
     <g transform="translate(328.473792 291.528071)scale(0.1 -0.1)">
      <use xlink:href="#SimHei-2d"/>
      <use x="50" xlink:href="#SimHei-34"/>
      <use x="100" xlink:href="#SimHei-2e"/>
      <use x="150" xlink:href="#SimHei-30"/>
      <use x="200" xlink:href="#SimHei-30"/>
     </g>
    </g>
   </g>
   <g id="xtick_14">
    <g id="line2d_16">
     <path d="M 340.617065 257.25692 
L 345.346814 258.694498 
" style="fill:none;stroke:#000000;stroke-linecap:square;stroke-width:0.8;"/>
    </g>
    <g id="text_16">
     <!-- -3.95 -->
     <g transform="translate(341.979556 277.363623)scale(0.1 -0.1)">
      <defs>
       <path d="M 800 75 
Q 1350 1000 1700 1750 
Q 1075 1650 662 1912 
Q 250 2175 162 2625 
Q 75 3075 175 3437 
Q 275 3800 487 4037 
Q 700 4275 1000 4375 
Q 1300 4475 1537 4475 
Q 1775 4475 2025 4375 
Q 2275 4275 2475 4075 
Q 2675 3875 2750 3662 
Q 2825 3450 2825 3112 
Q 2825 2775 2575 2250 
Q 2325 1725 1350 75 
L 800 75 
z
M 662 2875 
Q 700 2550 937 2337 
Q 1175 2125 1450 2150 
Q 1725 2175 1887 2300 
Q 2050 2425 2200 2725 
Q 2300 3100 2250 3362 
Q 2200 3625 1987 3800 
Q 1775 3975 1525 3975 
Q 1375 4000 1137 3900 
Q 900 3800 762 3500 
Q 625 3200 662 2875 
z
" id="SimHei-39" transform="scale(0.015625)"/>
      </defs>
      <use xlink:href="#SimHei-2d"/>
      <use x="50" xlink:href="#SimHei-33"/>
      <use x="100" xlink:href="#SimHei-2e"/>
      <use x="150" xlink:href="#SimHei-39"/>
      <use x="200" xlink:href="#SimHei-35"/>
     </g>
    </g>
   </g>
   <g id="xtick_15">
    <g id="line2d_17">
     <path d="M 353.957611 243.590762 
L 358.648169 244.994866 
" style="fill:none;stroke:#000000;stroke-linecap:square;stroke-width:0.8;"/>
    </g>
    <g id="text_17">
     <!-- -3.90 -->
     <g transform="translate(355.168919 263.531007)scale(0.1 -0.1)">
      <use xlink:href="#SimHei-2d"/>
      <use x="50" xlink:href="#SimHei-33"/>
      <use x="100" xlink:href="#SimHei-2e"/>
      <use x="150" xlink:href="#SimHei-39"/>
      <use x="200" xlink:href="#SimHei-30"/>
     </g>
    </g>
   </g>
   <g id="xtick_16">
    <g id="line2d_18">
     <path d="M 366.989503 230.240792 
L 371.641407 231.612579 
" style="fill:none;stroke:#000000;stroke-linecap:square;stroke-width:0.8;"/>
    </g>
    <g id="text_18">
     <!-- -3.85 -->
     <g transform="translate(368.052873 250.018695)scale(0.1 -0.1)">
      <defs>
       <path d="M 175 1375 
Q 175 1675 325 1962 
Q 475 2250 825 2425 
Q 525 2600 425 2812 
Q 325 3025 312 3300 
Q 300 3575 387 3775 
Q 475 3975 650 4150 
Q 825 4325 1037 4387 
Q 1250 4450 1500 4450 
Q 1750 4450 1950 4400 
Q 2150 4350 2375 4187 
Q 2600 4025 2700 3725 
Q 2800 3425 2687 3025 
Q 2575 2625 2100 2400 
Q 2525 2275 2700 2012 
Q 2875 1750 2875 1375 
Q 2875 1000 2762 775 
Q 2650 550 2512 400 
Q 2375 250 2137 162 
Q 1900 75 1537 75 
Q 1175 75 912 162 
Q 650 250 475 425 
Q 300 600 237 837 
Q 175 1075 175 1375 
z
M 687 1400 
Q 675 1100 787 875 
Q 900 650 1200 587 
Q 1500 525 1825 600 
Q 2150 675 2275 950 
Q 2400 1225 2362 1500 
Q 2325 1775 2050 1962 
Q 1775 2150 1450 2125 
Q 1125 2100 912 1900 
Q 700 1700 687 1400 
z
M 775 3350 
Q 775 3100 950 2875 
Q 1125 2650 1500 2650 
Q 1875 2650 2062 2875 
Q 2250 3100 2237 3412 
Q 2225 3725 2012 3875 
Q 1800 4025 1437 4000 
Q 1075 3975 925 3787 
Q 775 3600 775 3350 
z
" id="SimHei-38" transform="scale(0.015625)"/>
      </defs>
      <use xlink:href="#SimHei-2d"/>
      <use x="50" xlink:href="#SimHei-33"/>
      <use x="100" xlink:href="#SimHei-2e"/>
      <use x="150" xlink:href="#SimHei-38"/>
      <use x="200" xlink:href="#SimHei-35"/>
     </g>
    </g>
   </g>
  </g>
  <g id="axis3d_3">
   <g id="line2d_19">
    <path d="M 380.958962 217.951644 
L 387.494418 75.233988 
" style="fill:none;stroke:#000000;stroke-linecap:square;stroke-width:0.8;"/>
   </g>
   <g id="text_19">
    <!-- $z$ -->
    <g transform="translate(420.882625 146.676049)scale(0.14 -0.14)">
     <defs>
      <path d="M 744 3500 
L 3475 3500 
L 3372 2975 
L 738 459 
L 2913 459 
L 2822 0 
L -19 0 
L 84 525 
L 2719 3041 
L 653 3041 
L 744 3500 
z
" id="DejaVuSans-Oblique-7a" transform="scale(0.015625)"/>
     </defs>
     <use transform="translate(0 0.3125)" xlink:href="#DejaVuSans-Oblique-7a"/>
    </g>
   </g>
   <g id="Line3DCollection_3">
    <path d="M 381.285605 210.818584 
L 197.744138 157.812028 
L 83.34348 253.082772 
" style="fill:none;stroke:#b0b0b0;stroke-width:0.8;"/>
    <path d="M 381.97664 195.728143 
L 197.576106 143.199578 
L 82.599235 237.628034 
" style="fill:none;stroke:#b0b0b0;stroke-width:0.8;"/>
    <path d="M 382.674238 180.494387 
L 197.406555 128.45497 
L 81.847652 222.020933 
" style="fill:none;stroke:#b0b0b0;stroke-width:0.8;"/>
    <path d="M 383.378493 165.115262 
L 197.235463 113.576405 
L 81.088623 206.259203 
" style="fill:none;stroke:#b0b0b0;stroke-width:0.8;"/>
    <path d="M 384.0895 149.588678 
L 197.06281 98.562048 
L 80.322037 190.340537 
" style="fill:none;stroke:#b0b0b0;stroke-width:0.8;"/>
    <path d="M 384.807358 133.912505 
L 196.888574 83.410031 
L 79.547779 174.262577 
" style="fill:none;stroke:#b0b0b0;stroke-width:0.8;"/>
    <path d="M 385.532165 118.084569 
L 196.712733 68.118452 
L 78.765735 158.022922 
" style="fill:none;stroke:#b0b0b0;stroke-width:0.8;"/>
    <path d="M 386.264023 102.102657 
L 196.535265 52.685376 
L 77.975786 141.619119 
" style="fill:none;stroke:#b0b0b0;stroke-width:0.8;"/>
    <path d="M 387.003036 85.964511 
L 196.356147 37.108827 
L 77.177812 125.048667 
" style="fill:none;stroke:#b0b0b0;stroke-width:0.8;"/>
   </g>
   <g id="xtick_17">
    <g id="line2d_20">
     <path d="M 379.745026 210.373666 
L 384.370437 211.709479 
" style="fill:none;stroke:#000000;stroke-linecap:square;stroke-width:0.8;"/>
    </g>
    <g id="text_20">
     <!-- 3 -->
     <g transform="translate(397.086873 215.097481)scale(0.1 -0.1)">
      <use xlink:href="#SimHei-33"/>
     </g>
    </g>
   </g>
   <g id="xtick_18">
    <g id="line2d_21">
     <path d="M 380.428507 195.28714 
L 385.076615 196.611206 
" style="fill:none;stroke:#000000;stroke-linecap:square;stroke-width:0.8;"/>
    </g>
    <g id="text_21">
     <!-- 4 -->
     <g transform="translate(397.862594 200.029905)scale(0.1 -0.1)">
      <use xlink:href="#SimHei-34"/>
     </g>
    </g>
   </g>
   <g id="xtick_19">
    <g id="line2d_22">
     <path d="M 381.118477 180.057392 
L 385.789505 181.369427 
" style="fill:none;stroke:#000000;stroke-linecap:square;stroke-width:0.8;"/>
    </g>
    <g id="text_22">
     <!-- 5 -->
     <g transform="translate(398.645665 184.819564)scale(0.1 -0.1)">
      <use xlink:href="#SimHei-35"/>
     </g>
    </g>
   </g>
   <g id="xtick_20">
    <g id="line2d_23">
     <path d="M 381.815028 164.682373 
L 386.509203 165.982085 
" style="fill:none;stroke:#000000;stroke-linecap:square;stroke-width:0.8;"/>
    </g>
    <g id="text_23">
     <!-- 6 -->
     <g transform="translate(399.43619 169.464418)scale(0.1 -0.1)">
      <use xlink:href="#SimHei-36"/>
     </g>
    </g>
   </g>
   <g id="xtick_21">
    <g id="line2d_24">
     <path d="M 382.518256 149.159994 
L 387.235807 150.447087 
" style="fill:none;stroke:#000000;stroke-linecap:square;stroke-width:0.8;"/>
    </g>
    <g id="text_24">
     <!-- 7 -->
     <g transform="translate(400.234278 153.962392)scale(0.1 -0.1)">
      <defs>
       <path d="M 850 150 
Q 1300 2050 2425 3925 
L 275 3925 
L 275 4375 
L 2950 4375 
L 2950 3950 
Q 1775 2050 1400 150 
L 850 150 
z
" id="SimHei-37" transform="scale(0.015625)"/>
      </defs>
      <use xlink:href="#SimHei-37"/>
     </g>
    </g>
   </g>
   <g id="xtick_22">
    <g id="line2d_25">
     <path d="M 383.228256 133.488127 
L 387.969417 134.762297 
" style="fill:none;stroke:#000000;stroke-linecap:square;stroke-width:0.8;"/>
    </g>
    <g id="text_25">
     <!-- 8 -->
     <g transform="translate(401.040036 138.311367)scale(0.1 -0.1)">
      <use xlink:href="#SimHei-38"/>
     </g>
    </g>
   </g>
   <g id="xtick_23">
    <g id="line2d_26">
     <path d="M 383.945126 117.664601 
L 388.710136 118.925536 
" style="fill:none;stroke:#000000;stroke-linecap:square;stroke-width:0.8;"/>
    </g>
    <g id="text_26">
     <!-- 9 -->
     <g transform="translate(401.853576 122.509183)scale(0.1 -0.1)">
      <use xlink:href="#SimHei-39"/>
     </g>
    </g>
   </g>
   <g id="xtick_24">
    <g id="line2d_27">
     <path d="M 384.668968 101.687205 
L 389.458066 102.934587 
" style="fill:none;stroke:#000000;stroke-linecap:square;stroke-width:0.8;"/>
    </g>
    <g id="text_27">
     <!-- 10 -->
     <g transform="translate(400.175012 106.553642)scale(0.1 -0.1)">
      <use xlink:href="#SimHei-31"/>
      <use x="50" xlink:href="#SimHei-30"/>
     </g>
    </g>
   </g>
   <g id="xtick_25">
    <g id="line2d_28">
     <path d="M 385.399882 85.553683 
L 390.213314 86.787186 
" style="fill:none;stroke:#000000;stroke-linecap:square;stroke-width:0.8;"/>
    </g>
    <g id="text_28">
     <!-- 11 -->
     <g transform="translate(401.004459 90.4425)scale(0.1 -0.1)">
      <use xlink:href="#SimHei-31"/>
      <use x="50" xlink:href="#SimHei-31"/>
     </g>
    </g>
   </g>
  </g>
  <g id="axes_1">
   <g id="line2d_29">
    <path clip-path="url(#p2ba6e7cdc5)" d="M 256.840666 93.575015 
L 204.231219 249.904054 
" style="fill:none;stroke:#00bfff;stroke-linecap:square;stroke-width:1.5;"/>
   </g>
   <g id="line2d_30">
    <path clip-path="url(#p2ba6e7cdc5)" d="M 321.756107 197.317898 
L 141.983231 147.872552 
" style="fill:none;stroke:#808000;stroke-linecap:square;stroke-width:1.5;"/>
   </g>
   <g id="Path3DCollection_1">
    <defs>
     <path d="M 0 2.236068 
C 0.593012 2.236068 1.161816 2.000462 1.581139 1.581139 
C 2.000462 1.161816 2.236068 0.593012 2.236068 -0 
C 2.236068 -0.593012 2.000462 -1.161816 1.581139 -1.581139 
C 1.161816 -2.000462 0.593012 -2.236068 0 -2.236068 
C -0.593012 -2.236068 -1.161816 -2.000462 -1.581139 -1.581139 
C -2.000462 -1.161816 -2.236068 -0.593012 -2.236068 0 
C -2.236068 0.593012 -2.000462 1.161816 -1.581139 1.581139 
C -1.161816 2.000462 -0.593012 2.236068 0 2.236068 
z
" id="C0_0_c57a2441c8"/>
    </defs>
    <g clip-path="url(#p2ba6e7cdc5)">
     <use style="fill:#0000ff;fill-opacity:0.3;stroke:#0000ff;stroke-opacity:0.3;" x="178.086449" xlink:href="#C0_0_c57a2441c8" y="222.183039"/>
    </g>
    <g clip-path="url(#p2ba6e7cdc5)">
     <use style="fill:#0000ff;fill-opacity:0.437476;stroke:#0000ff;stroke-opacity:0.437476;" x="196.860676" xlink:href="#C0_0_c57a2441c8" y="144.382449"/>
    </g>
    <g clip-path="url(#p2ba6e7cdc5)">
     <use style="fill:#0000ff;fill-opacity:0.440764;stroke:#0000ff;stroke-opacity:0.440764;" x="198.991279" xlink:href="#C0_0_c57a2441c8" y="172.606089"/>
    </g>
    <g clip-path="url(#p2ba6e7cdc5)">
     <use style="fill:#0000ff;fill-opacity:0.450817;stroke:#0000ff;stroke-opacity:0.450817;" x="201.379087" xlink:href="#C0_0_c57a2441c8" y="185.076451"/>
    </g>
    <g clip-path="url(#p2ba6e7cdc5)">
     <use style="fill:#0000ff;fill-opacity:0.466395;stroke:#0000ff;stroke-opacity:0.466395;" x="203.841051" xlink:href="#C0_0_c57a2441c8" y="182.248254"/>
    </g>
    <g clip-path="url(#p2ba6e7cdc5)">
     <use style="fill:#0000ff;fill-opacity:0.482291;stroke:#0000ff;stroke-opacity:0.482291;" x="207.054274" xlink:href="#C0_0_c57a2441c8" y="191.904308"/>
    </g>
    <g clip-path="url(#p2ba6e7cdc5)">
     <use style="fill:#0000ff;fill-opacity:0.502712;stroke:#0000ff;stroke-opacity:0.502712;" x="207.775763" xlink:href="#C0_0_c57a2441c8" y="143.357076"/>
    </g>
    <g clip-path="url(#p2ba6e7cdc5)">
     <use style="fill:#0000ff;fill-opacity:0.506648;stroke:#0000ff;stroke-opacity:0.506648;" x="209.657733" xlink:href="#C0_0_c57a2441c8" y="165.184647"/>
    </g>
    <g clip-path="url(#p2ba6e7cdc5)">
     <use style="fill:#0000ff;fill-opacity:0.511842;stroke:#0000ff;stroke-opacity:0.511842;" x="210.513081" xlink:href="#C0_0_c57a2441c8" y="164.859521"/>
    </g>
    <g clip-path="url(#p2ba6e7cdc5)">
     <use style="fill:#0000ff;fill-opacity:0.512284;stroke:#0000ff;stroke-opacity:0.512284;" x="210.967757" xlink:href="#C0_0_c57a2441c8" y="171.66442"/>
    </g>
    <g clip-path="url(#p2ba6e7cdc5)">
     <use style="fill:#0000ff;fill-opacity:0.515058;stroke:#0000ff;stroke-opacity:0.515058;" x="213.472871" xlink:href="#C0_0_c57a2441c8" y="208.138716"/>
    </g>
    <g clip-path="url(#p2ba6e7cdc5)">
     <use style="fill:#0000ff;fill-opacity:0.525519;stroke:#0000ff;stroke-opacity:0.525519;" x="212.131955" xlink:href="#C0_0_c57a2441c8" y="152.66665"/>
    </g>
    <g clip-path="url(#p2ba6e7cdc5)">
     <use style="fill:#0000ff;fill-opacity:0.531214;stroke:#0000ff;stroke-opacity:0.531214;" x="213.417061" xlink:href="#C0_0_c57a2441c8" y="158.521739"/>
    </g>
    <g clip-path="url(#p2ba6e7cdc5)">
     <use style="fill:#0000ff;fill-opacity:0.543606;stroke:#0000ff;stroke-opacity:0.543606;" x="214.994768" xlink:href="#C0_0_c57a2441c8" y="149.457985"/>
    </g>
    <g clip-path="url(#p2ba6e7cdc5)">
     <use style="fill:#0000ff;fill-opacity:0.543669;stroke:#0000ff;stroke-opacity:0.543669;" x="216.720974" xlink:href="#C0_0_c57a2441c8" y="180.153301"/>
    </g>
    <g clip-path="url(#p2ba6e7cdc5)">
     <use style="fill:#0000ff;fill-opacity:0.553169;stroke:#0000ff;stroke-opacity:0.553169;" x="217.59983" xlink:href="#C0_0_c57a2441c8" y="167.288034"/>
    </g>
    <g clip-path="url(#p2ba6e7cdc5)">
     <use style="fill:#0000ff;fill-opacity:0.564317;stroke:#0000ff;stroke-opacity:0.564317;" x="220.021384" xlink:href="#C0_0_c57a2441c8" y="177.067114"/>
    </g>
    <g clip-path="url(#p2ba6e7cdc5)">
     <use style="fill:#0000ff;fill-opacity:0.566508;stroke:#0000ff;stroke-opacity:0.566508;" x="218.430687" xlink:href="#C0_0_c57a2441c8" y="142.013957"/>
    </g>
    <g clip-path="url(#p2ba6e7cdc5)">
     <use style="fill:#0000ff;fill-opacity:0.569073;stroke:#0000ff;stroke-opacity:0.569073;" x="222.371796" xlink:href="#C0_0_c57a2441c8" y="204.809147"/>
    </g>
    <g clip-path="url(#p2ba6e7cdc5)">
     <use style="fill:#0000ff;fill-opacity:0.572831;stroke:#0000ff;stroke-opacity:0.572831;" x="220.137932" xlink:href="#C0_0_c57a2441c8" y="153.530203"/>
    </g>
    <g clip-path="url(#p2ba6e7cdc5)">
     <use style="fill:#0000ff;fill-opacity:0.573203;stroke:#0000ff;stroke-opacity:0.573203;" x="219.534472" xlink:href="#C0_0_c57a2441c8" y="141.613821"/>
    </g>
    <g clip-path="url(#p2ba6e7cdc5)">
     <use style="fill:#0000ff;fill-opacity:0.573224;stroke:#0000ff;stroke-opacity:0.573224;" x="220.107489" xlink:href="#C0_0_c57a2441c8" y="151.802583"/>
    </g>
    <g clip-path="url(#p2ba6e7cdc5)">
     <use style="fill:#0000ff;fill-opacity:0.579708;stroke:#0000ff;stroke-opacity:0.579708;" x="223.839862" xlink:href="#C0_0_c57a2441c8" y="199.070891"/>
    </g>
    <g clip-path="url(#p2ba6e7cdc5)">
     <use style="fill:#0000ff;fill-opacity:0.612197;stroke:#0000ff;stroke-opacity:0.612197;" x="226.258687" xlink:href="#C0_0_c57a2441c8" y="144.578765"/>
    </g>
    <g clip-path="url(#p2ba6e7cdc5)">
     <use style="fill:#0000ff;fill-opacity:0.625022;stroke:#0000ff;stroke-opacity:0.625022;" x="230.084598" xlink:href="#C0_0_c57a2441c8" y="174.438977"/>
    </g>
    <g clip-path="url(#p2ba6e7cdc5)">
     <use style="fill:#0000ff;fill-opacity:0.627457;stroke:#0000ff;stroke-opacity:0.627457;" x="229.785316" xlink:href="#C0_0_c57a2441c8" y="161.75472"/>
    </g>
    <g clip-path="url(#p2ba6e7cdc5)">
     <use style="fill:#0000ff;fill-opacity:0.628317;stroke:#0000ff;stroke-opacity:0.628317;" x="231.023911" xlink:href="#C0_0_c57a2441c8" y="181.328153"/>
    </g>
    <g clip-path="url(#p2ba6e7cdc5)">
     <use style="fill:#0000ff;fill-opacity:0.628426;stroke:#0000ff;stroke-opacity:0.628426;" x="232.518222" xlink:href="#C0_0_c57a2441c8" y="207.736547"/>
    </g>
    <g clip-path="url(#p2ba6e7cdc5)">
     <use style="fill:#0000ff;fill-opacity:0.630497;stroke:#0000ff;stroke-opacity:0.630497;" x="230.693934" xlink:href="#C0_0_c57a2441c8" y="168.86565"/>
    </g>
    <g clip-path="url(#p2ba6e7cdc5)">
     <use style="fill:#0000ff;fill-opacity:0.646016;stroke:#0000ff;stroke-opacity:0.646016;" x="232.258514" xlink:href="#C0_0_c57a2441c8" y="150.155984"/>
    </g>
    <g clip-path="url(#p2ba6e7cdc5)">
     <use style="fill:#0000ff;fill-opacity:0.650013;stroke:#0000ff;stroke-opacity:0.650013;" x="234.331993" xlink:href="#C0_0_c57a2441c8" y="175.226808"/>
    </g>
    <g clip-path="url(#p2ba6e7cdc5)">
     <use style="fill:#0000ff;fill-opacity:0.656048;stroke:#0000ff;stroke-opacity:0.656048;" x="235.780555" xlink:href="#C0_0_c57a2441c8" y="182.983553"/>
    </g>
    <g clip-path="url(#p2ba6e7cdc5)">
     <use style="fill:#0000ff;fill-opacity:0.666694;stroke:#0000ff;stroke-opacity:0.666694;" x="238.050529" xlink:href="#C0_0_c57a2441c8" y="191.560714"/>
    </g>
    <g clip-path="url(#p2ba6e7cdc5)">
     <use style="fill:#0000ff;fill-opacity:0.668648;stroke:#0000ff;stroke-opacity:0.668648;" x="234.42033" xlink:href="#C0_0_c57a2441c8" y="120.726362"/>
    </g>
    <g clip-path="url(#p2ba6e7cdc5)">
     <use style="fill:#0000ff;fill-opacity:0.683607;stroke:#0000ff;stroke-opacity:0.683607;" x="241.161907" xlink:href="#C0_0_c57a2441c8" y="196.332684"/>
    </g>
    <g clip-path="url(#p2ba6e7cdc5)">
     <use style="fill:#0000ff;fill-opacity:0.690791;stroke:#0000ff;stroke-opacity:0.690791;" x="242.914434" xlink:href="#C0_0_c57a2441c8" y="206.071413"/>
    </g>
    <g clip-path="url(#p2ba6e7cdc5)">
     <use style="fill:#0000ff;fill-opacity:0.693435;stroke:#0000ff;stroke-opacity:0.693435;" x="242.440733" xlink:href="#C0_0_c57a2441c8" y="189.636322"/>
    </g>
    <g clip-path="url(#p2ba6e7cdc5)">
     <use style="fill:#0000ff;fill-opacity:0.720644;stroke:#0000ff;stroke-opacity:0.720644;" x="244.946157" xlink:href="#C0_0_c57a2441c8" y="152.582145"/>
    </g>
    <g clip-path="url(#p2ba6e7cdc5)">
     <use style="fill:#0000ff;fill-opacity:0.727301;stroke:#0000ff;stroke-opacity:0.727301;" x="246.846696" xlink:href="#C0_0_c57a2441c8" y="166.555272"/>
    </g>
    <g clip-path="url(#p2ba6e7cdc5)">
     <use style="fill:#0000ff;fill-opacity:0.734095;stroke:#0000ff;stroke-opacity:0.734095;" x="250.069472" xlink:href="#C0_0_c57a2441c8" y="203.773476"/>
    </g>
    <g clip-path="url(#p2ba6e7cdc5)">
     <use style="fill:#0000ff;fill-opacity:0.735539;stroke:#0000ff;stroke-opacity:0.735539;" x="248.895562" xlink:href="#C0_0_c57a2441c8" y="178.424363"/>
    </g>
    <g clip-path="url(#p2ba6e7cdc5)">
     <use style="fill:#0000ff;fill-opacity:0.749696;stroke:#0000ff;stroke-opacity:0.749696;" x="252.111041" xlink:href="#C0_0_c57a2441c8" y="193.350916"/>
    </g>
    <g clip-path="url(#p2ba6e7cdc5)">
     <use style="fill:#0000ff;fill-opacity:0.761011;stroke:#0000ff;stroke-opacity:0.761011;" x="253.116417" xlink:href="#C0_0_c57a2441c8" y="177.288246"/>
    </g>
    <g clip-path="url(#p2ba6e7cdc5)">
     <use style="fill:#0000ff;fill-opacity:0.766261;stroke:#0000ff;stroke-opacity:0.766261;" x="253.427294" xlink:href="#C0_0_c57a2441c8" y="167.053477"/>
    </g>
    <g clip-path="url(#p2ba6e7cdc5)">
     <use style="fill:#0000ff;fill-opacity:0.793014;stroke:#0000ff;stroke-opacity:0.793014;" x="257.426663" xlink:href="#C0_0_c57a2441c8" y="158.099906"/>
    </g>
    <g clip-path="url(#p2ba6e7cdc5)">
     <use style="fill:#0000ff;fill-opacity:0.820993;stroke:#0000ff;stroke-opacity:0.820993;" x="262.746145" xlink:href="#C0_0_c57a2441c8" y="169.077599"/>
    </g>
    <g clip-path="url(#p2ba6e7cdc5)">
     <use style="fill:#0000ff;fill-opacity:0.847049;stroke:#0000ff;stroke-opacity:0.847049;" x="267.658596" xlink:href="#C0_0_c57a2441c8" y="178.56329"/>
    </g>
    <g clip-path="url(#p2ba6e7cdc5)">
     <use style="fill:#0000ff;fill-opacity:0.861411;stroke:#0000ff;stroke-opacity:0.861411;" x="268.311641" xlink:href="#C0_0_c57a2441c8" y="147.025911"/>
    </g>
    <g clip-path="url(#p2ba6e7cdc5)">
     <use style="fill:#0000ff;fill-opacity:0.960063;stroke:#0000ff;stroke-opacity:0.960063;" x="285.461227" xlink:href="#C0_0_c57a2441c8" y="156.990444"/>
    </g>
    <g clip-path="url(#p2ba6e7cdc5)">
     <use style="fill:#0000ff;stroke:#0000ff;" x="293.419729" xlink:href="#C0_0_c57a2441c8" y="179.201768"/>
    </g>
   </g>
   <g id="text_29">
    <!-- PCA Result Graph((n_samples,origin_dim)=(50,3)) -->
    <g transform="translate(89.4 -6)scale(0.12 -0.12)">
     <defs>
      <path d="M 2950 3100 
Q 2950 2500 2600 2150 
Q 2250 1800 1625 1800 
L 900 1800 
L 900 125 
L 325 125 
L 325 4400 
L 1625 4400 
Q 2250 4400 2600 4050 
Q 2950 3700 2950 3100 
z
M 2375 3100 
Q 2375 3575 2150 3750 
Q 1925 3925 1475 3925 
L 900 3925 
L 900 2275 
L 1475 2275 
Q 1925 2275 2150 2450 
Q 2375 2625 2375 3100 
z
" id="SimHei-50" transform="scale(0.015625)"/>
      <path d="M 2975 1825 
Q 2950 875 2575 475 
Q 2200 75 1675 75 
Q 1075 75 650 562 
Q 225 1050 225 2125 
Q 225 3300 637 3875 
Q 1050 4450 1700 4450 
Q 2250 4450 2612 4037 
Q 2975 3625 2950 2875 
L 2400 2875 
Q 2400 3425 2225 3700 
Q 2050 3975 1700 3975 
Q 1300 3975 1062 3562 
Q 825 3150 825 2175 
Q 825 1275 1062 912 
Q 1300 550 1675 550 
Q 1950 550 2175 812 
Q 2400 1075 2400 1825 
L 2975 1825 
z
" id="SimHei-43" transform="scale(0.015625)"/>
      <path d="M 3075 125 
L 2475 125 
L 2125 1450 
L 1025 1450 
L 675 125 
L 75 125 
L 1325 4450 
L 1825 4450 
L 3075 125 
z
M 2000 1925 
L 1600 3450 
L 1550 3450 
L 1150 1925 
L 2000 1925 
z
" id="SimHei-41" transform="scale(0.015625)"/>
      <path id="SimHei-20" transform="scale(0.015625)"/>
      <path d="M 3000 125 
L 2400 125 
L 1500 1975 
L 850 1975 
L 850 125 
L 275 125 
L 275 4400 
L 1525 4400 
Q 2125 4400 2500 4112 
Q 2875 3825 2875 3175 
Q 2875 2675 2625 2400 
Q 2375 2125 2050 2050 
L 3000 125 
z
M 2300 3175 
Q 2300 3525 2087 3725 
Q 1875 3925 1400 3925 
L 850 3925 
L 850 2450 
L 1550 2450 
Q 1850 2450 2075 2612 
Q 2300 2775 2300 3175 
z
" id="SimHei-52" transform="scale(0.015625)"/>
      <path d="M 2850 1075 
Q 2800 625 2450 350 
Q 2100 75 1625 75 
Q 1025 75 637 462 
Q 250 850 250 1525 
Q 250 2200 637 2587 
Q 1025 2975 1625 2975 
Q 2150 2975 2487 2637 
Q 2825 2300 2825 1525 
L 800 1525 
Q 800 975 1037 750 
Q 1275 525 1625 525 
Q 1900 525 2075 662 
Q 2250 800 2300 1075 
L 2850 1075 
z
M 2250 1925 
Q 2200 2275 2025 2412 
Q 1850 2550 1575 2550 
Q 1325 2550 1125 2412 
Q 925 2275 825 1925 
L 2250 1925 
z
" id="SimHei-65" transform="scale(0.015625)"/>
      <path d="M 2750 900 
Q 2750 500 2437 287 
Q 2125 75 1650 75 
Q 1050 75 725 312 
Q 400 550 400 1000 
L 900 1000 
Q 900 700 1112 600 
Q 1325 500 1625 500 
Q 1925 500 2075 612 
Q 2225 725 2225 900 
Q 2225 1025 2100 1150 
Q 1975 1275 1475 1350 
Q 900 1425 687 1637 
Q 475 1850 475 2200 
Q 475 2500 762 2737 
Q 1050 2975 1600 2975 
Q 2100 2975 2387 2750 
Q 2675 2525 2675 2150 
L 2175 2150 
Q 2175 2375 2012 2462 
Q 1850 2550 1600 2550 
Q 1275 2550 1137 2437 
Q 1000 2325 1000 2175 
Q 1000 2000 1125 1900 
Q 1250 1800 1650 1750 
Q 2300 1650 2525 1437 
Q 2750 1225 2750 900 
z
" id="SimHei-73" transform="scale(0.015625)"/>
      <path d="M 2800 125 
L 2300 125 
L 2300 650 
Q 2100 375 1862 225 
Q 1625 75 1250 75 
Q 800 75 575 325 
Q 350 575 350 950 
L 350 2925 
L 850 2925 
L 850 1125 
Q 850 825 1000 650 
Q 1150 475 1400 475 
Q 1725 475 2012 812 
Q 2300 1150 2300 1650 
L 2300 2925 
L 2800 2925 
L 2800 125 
z
" id="SimHei-75" transform="scale(0.015625)"/>
      <path d="M 1825 125 
L 1325 125 
L 1325 4400 
L 1825 4400 
L 1825 125 
z
" id="SimHei-6c" transform="scale(0.015625)"/>
      <path d="M 2750 200 
Q 2625 150 2462 112 
Q 2300 75 2025 75 
Q 1575 75 1300 325 
Q 1025 575 1025 1025 
L 1025 2525 
L 175 2525 
L 175 2925 
L 1025 2925 
L 1025 3900 
L 1525 3900 
L 1525 2925 
L 2550 2925 
L 2550 2525 
L 1525 2525 
L 1525 1000 
Q 1525 800 1625 662 
Q 1725 525 2000 525 
Q 2275 525 2450 575 
Q 2625 625 2750 700 
L 2750 200 
z
" id="SimHei-74" transform="scale(0.015625)"/>
      <path d="M 2850 75 
L 2425 75 
L 2350 425 
Q 2250 275 2037 175 
Q 1825 75 1575 75 
Q 1050 75 637 562 
Q 225 1050 225 2125 
Q 225 3300 600 3875 
Q 975 4450 1625 4450 
Q 2200 4450 2525 4025 
Q 2850 3600 2850 2925 
L 2300 2925 
Q 2300 3450 2125 3712 
Q 1950 3975 1625 3975 
Q 1225 3975 1025 3562 
Q 825 3150 825 2175 
Q 825 1250 1075 900 
Q 1325 550 1650 550 
Q 1975 550 2162 787 
Q 2350 1025 2350 1525 
L 2350 1800 
L 1575 1800 
L 1575 2275 
L 2850 2275 
L 2850 75 
z
" id="SimHei-47" transform="scale(0.015625)"/>
      <path d="M 2500 2425 
Q 2025 2500 1700 2287 
Q 1375 2075 1150 1550 
L 1150 125 
L 650 125 
L 650 2925 
L 1150 2925 
L 1150 2200 
Q 1375 2600 1712 2787 
Q 2050 2975 2500 2975 
L 2500 2425 
z
" id="SimHei-72" transform="scale(0.015625)"/>
      <path d="M 2875 125 
L 2275 125 
Q 2225 175 2200 262 
Q 2175 350 2175 475 
Q 2000 275 1750 175 
Q 1500 75 1225 75 
Q 825 75 550 275 
Q 275 475 275 850 
Q 275 1225 525 1450 
Q 775 1675 1300 1750 
Q 1650 1800 1912 1875 
Q 2175 1950 2175 2075 
Q 2175 2225 2062 2375 
Q 1950 2525 1575 2525 
Q 1275 2525 1137 2412 
Q 1000 2300 950 2100 
L 400 2100 
Q 450 2500 762 2737 
Q 1075 2975 1575 2975 
Q 2125 2975 2400 2725 
Q 2675 2475 2675 2025 
L 2675 650 
Q 2675 500 2725 375 
Q 2775 250 2875 125 
z
M 2175 1050 
L 2175 1550 
Q 2025 1500 1887 1462 
Q 1750 1425 1425 1375 
Q 1050 1325 937 1200 
Q 825 1075 825 900 
Q 825 750 937 637 
Q 1050 525 1275 525 
Q 1500 525 1762 650 
Q 2025 775 2175 1050 
z
" id="SimHei-61" transform="scale(0.015625)"/>
      <path d="M 2825 1525 
Q 2825 800 2475 425 
Q 2125 50 1625 50 
Q 1350 50 1150 162 
Q 950 275 800 500 
L 800 -800 
L 300 -800 
L 300 2925 
L 800 2925 
L 800 2550 
Q 950 2775 1150 2875 
Q 1350 2975 1625 2975 
Q 2125 2975 2475 2612 
Q 2825 2250 2825 1525 
z
M 2275 1525 
Q 2275 2000 2087 2262 
Q 1900 2525 1525 2525 
Q 1225 2525 1012 2262 
Q 800 2000 800 1525 
Q 800 1050 1012 775 
Q 1225 500 1525 500 
Q 1900 500 2087 775 
Q 2275 1050 2275 1525 
z
" id="SimHei-70" transform="scale(0.015625)"/>
      <path d="M 2800 125 
L 2300 125 
L 2300 1925 
Q 2300 2225 2150 2400 
Q 2000 2575 1750 2575 
Q 1425 2575 1137 2237 
Q 850 1900 850 1400 
L 850 125 
L 350 125 
L 350 4400 
L 850 4400 
L 850 2400 
Q 1050 2675 1287 2825 
Q 1525 2975 1900 2975 
Q 2350 2975 2575 2725 
Q 2800 2475 2800 2100 
L 2800 125 
z
" id="SimHei-68" transform="scale(0.015625)"/>
      <path d="M 2975 -200 
L 2700 -475 
Q 2075 125 1762 775 
Q 1450 1425 1450 2250 
Q 1450 3075 1762 3725 
Q 2075 4375 2700 5000 
L 2975 4725 
Q 2400 4175 2112 3587 
Q 1825 3000 1825 2250 
Q 1825 1500 2112 912 
Q 2400 325 2975 -200 
z
" id="SimHei-28" transform="scale(0.015625)"/>
      <path d="M 2800 125 
L 2300 125 
L 2300 1925 
Q 2300 2225 2150 2400 
Q 2000 2575 1750 2575 
Q 1425 2575 1137 2237 
Q 850 1900 850 1400 
L 850 125 
L 350 125 
L 350 2925 
L 850 2925 
L 850 2400 
Q 1050 2675 1287 2825 
Q 1525 2975 1900 2975 
Q 2350 2975 2575 2725 
Q 2800 2475 2800 2100 
L 2800 125 
z
" id="SimHei-6e" transform="scale(0.015625)"/>
      <path d="M 3150 -850 
L 0 -850 
L 0 -550 
L 3150 -550 
L 3150 -850 
z
" id="SimHei-5f" transform="scale(0.015625)"/>
      <path d="M 3050 125 
L 2550 125 
L 2550 2150 
Q 2550 2300 2500 2400 
Q 2450 2500 2300 2500 
Q 2125 2500 1975 2312 
Q 1825 2125 1825 1825 
L 1825 125 
L 1325 125 
L 1325 2150 
Q 1325 2300 1275 2400 
Q 1225 2500 1075 2500 
Q 900 2500 750 2312 
Q 600 2125 600 1825 
L 600 125 
L 100 125 
L 100 2925 
L 600 2925 
L 600 2550 
Q 725 2750 900 2862 
Q 1075 2975 1275 2975 
Q 1475 2975 1612 2862 
Q 1750 2750 1800 2550 
Q 1925 2750 2087 2862 
Q 2250 2975 2450 2975 
Q 2750 2975 2900 2812 
Q 3050 2650 3050 2350 
L 3050 125 
z
" id="SimHei-6d" transform="scale(0.015625)"/>
      <path d="M 1100 125 
L 775 -550 
L 525 -550 
L 775 125 
L 525 125 
L 525 675 
L 1100 675 
L 1100 125 
z
" id="SimHei-2c" transform="scale(0.015625)"/>
      <path d="M 2925 1525 
Q 2925 875 2525 475 
Q 2125 75 1575 75 
Q 1025 75 625 475 
Q 225 875 225 1525 
Q 225 2175 625 2575 
Q 1025 2975 1575 2975 
Q 2125 2975 2525 2575 
Q 2925 2175 2925 1525 
z
M 2375 1525 
Q 2375 2025 2125 2275 
Q 1875 2525 1575 2525 
Q 1275 2525 1025 2275 
Q 775 2025 775 1525 
Q 775 1025 1025 775 
Q 1275 525 1575 525 
Q 1875 525 2125 775 
Q 2375 1025 2375 1525 
z
" id="SimHei-6f" transform="scale(0.015625)"/>
      <path d="M 1800 3725 
L 1300 3725 
L 1300 4375 
L 1800 4375 
L 1800 3725 
z
M 1800 125 
L 1300 125 
L 1300 2925 
L 1800 2925 
L 1800 125 
z
" id="SimHei-69" transform="scale(0.015625)"/>
      <path d="M 2975 2500 
Q 2800 2550 2637 2562 
Q 2475 2575 2300 2525 
Q 2375 2450 2425 2337 
Q 2475 2225 2475 2000 
Q 2475 1575 2187 1300 
Q 1900 1025 1475 1025 
Q 1375 1025 1212 1062 
Q 1050 1100 950 1150 
Q 875 1100 850 1050 
Q 825 1000 825 925 
Q 825 800 1000 737 
Q 1175 675 1625 675 
Q 2350 675 2612 475 
Q 2875 275 2875 -25 
Q 2875 -425 2487 -612 
Q 2100 -800 1575 -800 
Q 900 -800 575 -625 
Q 250 -450 250 -150 
Q 250 0 375 150 
Q 500 300 700 400 
Q 550 475 462 587 
Q 375 700 375 875 
Q 375 1025 487 1137 
Q 600 1250 750 1325 
Q 625 1450 550 1625 
Q 475 1800 475 2000 
Q 475 2425 762 2700 
Q 1050 2975 1475 2975 
Q 1700 2975 1862 2912 
Q 2025 2850 2150 2725 
Q 2350 2875 2550 2937 
Q 2750 3000 2975 2975 
L 2975 2500 
z
M 1975 2000 
Q 1975 2250 1850 2400 
Q 1725 2550 1475 2550 
Q 1225 2550 1100 2400 
Q 975 2250 975 2000 
Q 975 1750 1100 1600 
Q 1225 1450 1475 1450 
Q 1725 1450 1850 1600 
Q 1975 1750 1975 2000 
z
M 2400 -75 
Q 2400 25 2287 125 
Q 2175 225 1725 225 
Q 1625 225 1450 237 
Q 1275 250 1050 275 
Q 850 200 775 100 
Q 700 0 700 -100 
Q 700 -250 900 -350 
Q 1100 -450 1600 -450 
Q 2025 -450 2212 -337 
Q 2400 -225 2400 -75 
z
" id="SimHei-67" transform="scale(0.015625)"/>
      <path d="M 2750 125 
L 2250 125 
L 2250 500 
Q 2100 275 1900 175 
Q 1700 75 1425 75 
Q 925 75 575 437 
Q 225 800 225 1525 
Q 225 2250 575 2625 
Q 925 3000 1425 3000 
Q 1700 3000 1900 2887 
Q 2100 2775 2250 2550 
L 2250 4400 
L 2750 4400 
L 2750 125 
z
M 2250 1525 
Q 2250 2000 2037 2275 
Q 1825 2550 1525 2550 
Q 1150 2550 962 2275 
Q 775 2000 775 1525 
Q 775 1050 962 787 
Q 1150 525 1525 525 
Q 1825 525 2037 787 
Q 2250 1050 2250 1525 
z
" id="SimHei-64" transform="scale(0.015625)"/>
      <path d="M 1675 2250 
Q 1675 1425 1362 775 
Q 1050 125 425 -475 
L 150 -200 
Q 725 325 1012 912 
Q 1300 1500 1300 2250 
Q 1300 3000 1012 3587 
Q 725 4175 150 4725 
L 425 5000 
Q 1050 4375 1362 3725 
Q 1675 3075 1675 2250 
z
" id="SimHei-29" transform="scale(0.015625)"/>
      <path d="M 2975 2900 
L 125 2900 
L 125 3300 
L 2975 3300 
L 2975 2900 
z
M 2975 1375 
L 125 1375 
L 125 1775 
L 2975 1775 
L 2975 1375 
z
" id="SimHei-3d" transform="scale(0.015625)"/>
     </defs>
     <use xlink:href="#SimHei-50"/>
     <use x="50" xlink:href="#SimHei-43"/>
     <use x="100" xlink:href="#SimHei-41"/>
     <use x="150" xlink:href="#SimHei-20"/>
     <use x="200" xlink:href="#SimHei-52"/>
     <use x="250" xlink:href="#SimHei-65"/>
     <use x="300" xlink:href="#SimHei-73"/>
     <use x="350" xlink:href="#SimHei-75"/>
     <use x="400" xlink:href="#SimHei-6c"/>
     <use x="450" xlink:href="#SimHei-74"/>
     <use x="500" xlink:href="#SimHei-20"/>
     <use x="550" xlink:href="#SimHei-47"/>
     <use x="600" xlink:href="#SimHei-72"/>
     <use x="650" xlink:href="#SimHei-61"/>
     <use x="700" xlink:href="#SimHei-70"/>
     <use x="750" xlink:href="#SimHei-68"/>
     <use x="800" xlink:href="#SimHei-28"/>
     <use x="850" xlink:href="#SimHei-28"/>
     <use x="900" xlink:href="#SimHei-6e"/>
     <use x="950" xlink:href="#SimHei-5f"/>
     <use x="1000" xlink:href="#SimHei-73"/>
     <use x="1050" xlink:href="#SimHei-61"/>
     <use x="1100" xlink:href="#SimHei-6d"/>
     <use x="1150" xlink:href="#SimHei-70"/>
     <use x="1200" xlink:href="#SimHei-6c"/>
     <use x="1250" xlink:href="#SimHei-65"/>
     <use x="1300" xlink:href="#SimHei-73"/>
     <use x="1350" xlink:href="#SimHei-2c"/>
     <use x="1400" xlink:href="#SimHei-6f"/>
     <use x="1450" xlink:href="#SimHei-72"/>
     <use x="1500" xlink:href="#SimHei-69"/>
     <use x="1550" xlink:href="#SimHei-67"/>
     <use x="1600" xlink:href="#SimHei-69"/>
     <use x="1650" xlink:href="#SimHei-6e"/>
     <use x="1700" xlink:href="#SimHei-5f"/>
     <use x="1750" xlink:href="#SimHei-64"/>
     <use x="1800" xlink:href="#SimHei-69"/>
     <use x="1850" xlink:href="#SimHei-6d"/>
     <use x="1900" xlink:href="#SimHei-29"/>
     <use x="1950" xlink:href="#SimHei-3d"/>
     <use x="2000" xlink:href="#SimHei-28"/>
     <use x="2050" xlink:href="#SimHei-35"/>
     <use x="2100" xlink:href="#SimHei-30"/>
     <use x="2150" xlink:href="#SimHei-2c"/>
     <use x="2200" xlink:href="#SimHei-33"/>
     <use x="2250" xlink:href="#SimHei-29"/>
     <use x="2300" xlink:href="#SimHei-29"/>
    </g>
   </g>
   <g id="Path3DCollection_2">
    <path clip-path="url(#p2ba6e7cdc5)" d="M 262.316969 117.63631 
L 266.789105 113.164174 
M 262.316969 113.164174 
L 266.789105 117.63631 
" style="fill:#ff6347;fill-opacity:0.3;stroke:#ff6347;stroke-opacity:0.3;stroke-width:1.5;"/>
    <path clip-path="url(#p2ba6e7cdc5)" d="M 212.080453 192.924378 
L 216.552589 188.452242 
M 212.080453 188.452242 
L 216.552589 192.924378 
" style="fill:#ff6347;fill-opacity:0.34595;stroke:#ff6347;stroke-opacity:0.34595;stroke-width:1.5;"/>
    <path clip-path="url(#p2ba6e7cdc5)" d="M 260.460026 118.16134 
L 264.932162 113.689204 
M 260.460026 113.689204 
L 264.932162 118.16134 
" style="fill:#ff6347;fill-opacity:0.365898;stroke:#ff6347;stroke-opacity:0.365898;stroke-width:1.5;"/>
    <path clip-path="url(#p2ba6e7cdc5)" d="M 289.560078 168.237504 
L 294.032214 163.765368 
M 289.560078 163.765368 
L 294.032214 168.237504 
" style="fill:#ff6347;fill-opacity:0.405934;stroke:#ff6347;stroke-opacity:0.405934;stroke-width:1.5;"/>
    <path clip-path="url(#p2ba6e7cdc5)" d="M 224.609411 151.311753 
L 229.081547 146.839617 
M 224.609411 146.839617 
L 229.081547 151.311753 
" style="fill:#ff6347;fill-opacity:0.433063;stroke:#ff6347;stroke-opacity:0.433063;stroke-width:1.5;"/>
    <path clip-path="url(#p2ba6e7cdc5)" d="M 249.952953 151.561173 
L 254.425089 147.089037 
M 249.952953 147.089037 
L 254.425089 151.561173 
" style="fill:#ff6347;fill-opacity:0.433172;stroke:#ff6347;stroke-opacity:0.433172;stroke-width:1.5;"/>
    <path clip-path="url(#p2ba6e7cdc5)" d="M 268.77644 164.571971 
L 273.248576 160.099835 
M 268.77644 160.099835 
L 273.248576 164.571971 
" style="fill:#ff6347;fill-opacity:0.451015;stroke:#ff6347;stroke-opacity:0.451015;stroke-width:1.5;"/>
    <path clip-path="url(#p2ba6e7cdc5)" d="M 241.833953 158.797813 
L 246.306088 154.325678 
M 241.833953 154.325678 
L 246.306088 158.797813 
" style="fill:#ff6347;fill-opacity:0.460461;stroke:#ff6347;stroke-opacity:0.460461;stroke-width:1.5;"/>
    <path clip-path="url(#p2ba6e7cdc5)" d="M 262.960695 150.584151 
L 267.432831 146.112015 
M 262.960695 146.112015 
L 267.432831 150.584151 
" style="fill:#ff6347;fill-opacity:0.461584;stroke:#ff6347;stroke-opacity:0.461584;stroke-width:1.5;"/>
    <path clip-path="url(#p2ba6e7cdc5)" d="M 253.961156 161.576985 
L 258.433292 157.104849 
M 253.961156 157.104849 
L 258.433292 161.576985 
" style="fill:#ff6347;fill-opacity:0.494931;stroke:#ff6347;stroke-opacity:0.494931;stroke-width:1.5;"/>
    <path clip-path="url(#p2ba6e7cdc5)" d="M 256.990865 182.442035 
L 261.463001 177.969899 
M 256.990865 177.969899 
L 261.463001 182.442035 
" style="fill:#ff6347;fill-opacity:0.556273;stroke:#ff6347;stroke-opacity:0.556273;stroke-width:1.5;"/>
    <path clip-path="url(#p2ba6e7cdc5)" d="M 221.835545 144.899724 
L 226.307681 140.427588 
M 221.835545 140.427588 
L 226.307681 144.899724 
" style="fill:#ff6347;fill-opacity:0.558473;stroke:#ff6347;stroke-opacity:0.558473;stroke-width:1.5;"/>
    <path clip-path="url(#p2ba6e7cdc5)" d="M 275.32078 142.756333 
L 279.792916 138.284198 
M 275.32078 138.284198 
L 279.792916 142.756333 
" style="fill:#ff6347;fill-opacity:0.568818;stroke:#ff6347;stroke-opacity:0.568818;stroke-width:1.5;"/>
    <path clip-path="url(#p2ba6e7cdc5)" d="M 229.010657 134.082513 
L 233.482792 129.610377 
M 229.010657 129.610377 
L 233.482792 134.082513 
" style="fill:#ff6347;fill-opacity:0.572008;stroke:#ff6347;stroke-opacity:0.572008;stroke-width:1.5;"/>
    <path clip-path="url(#p2ba6e7cdc5)" d="M 307.371135 137.667183 
L 311.843271 133.195048 
M 307.371135 133.195048 
L 311.843271 137.667183 
" style="fill:#ff6347;fill-opacity:0.580333;stroke:#ff6347;stroke-opacity:0.580333;stroke-width:1.5;"/>
    <path clip-path="url(#p2ba6e7cdc5)" d="M 278.503835 155.368696 
L 282.975971 150.89656 
M 278.503835 150.89656 
L 282.975971 155.368696 
" style="fill:#ff6347;fill-opacity:0.590355;stroke:#ff6347;stroke-opacity:0.590355;stroke-width:1.5;"/>
    <path clip-path="url(#p2ba6e7cdc5)" d="M 230.379344 193.561937 
L 234.85148 189.089801 
M 230.379344 189.089801 
L 234.85148 193.561937 
" style="fill:#ff6347;fill-opacity:0.593106;stroke:#ff6347;stroke-opacity:0.593106;stroke-width:1.5;"/>
    <path clip-path="url(#p2ba6e7cdc5)" d="M 218.53825 146.855674 
L 223.010385 142.383538 
M 218.53825 142.383538 
L 223.010385 146.855674 
" style="fill:#ff6347;fill-opacity:0.603939;stroke:#ff6347;stroke-opacity:0.603939;stroke-width:1.5;"/>
    <path clip-path="url(#p2ba6e7cdc5)" d="M 221.025407 140.223407 
L 225.497543 135.751271 
M 221.025407 135.751271 
L 225.497543 140.223407 
" style="fill:#ff6347;fill-opacity:0.616182;stroke:#ff6347;stroke-opacity:0.616182;stroke-width:1.5;"/>
    <path clip-path="url(#p2ba6e7cdc5)" d="M 203.949689 146.90904 
L 208.421825 142.436904 
M 203.949689 142.436904 
L 208.421825 146.90904 
" style="fill:#ff6347;fill-opacity:0.642001;stroke:#ff6347;stroke-opacity:0.642001;stroke-width:1.5;"/>
    <path clip-path="url(#p2ba6e7cdc5)" d="M 234.057688 148.964908 
L 238.529824 144.492772 
M 234.057688 144.492772 
L 238.529824 148.964908 
" style="fill:#ff6347;fill-opacity:0.642129;stroke:#ff6347;stroke-opacity:0.642129;stroke-width:1.5;"/>
    <path clip-path="url(#p2ba6e7cdc5)" d="M 190.059427 150.368176 
L 194.531563 145.89604 
M 190.059427 145.89604 
L 194.531563 150.368176 
" style="fill:#ff6347;fill-opacity:0.644064;stroke:#ff6347;stroke-opacity:0.644064;stroke-width:1.5;"/>
    <path clip-path="url(#p2ba6e7cdc5)" d="M 307.661798 166.317577 
L 312.133934 161.845441 
M 307.661798 161.845441 
L 312.133934 166.317577 
" style="fill:#ff6347;fill-opacity:0.644589;stroke:#ff6347;stroke-opacity:0.644589;stroke-width:1.5;"/>
    <path clip-path="url(#p2ba6e7cdc5)" d="M 208.454862 212.829857 
L 212.926997 208.357721 
M 208.454862 208.357721 
L 212.926997 212.829857 
" style="fill:#ff6347;fill-opacity:0.653214;stroke:#ff6347;stroke-opacity:0.653214;stroke-width:1.5;"/>
    <path clip-path="url(#p2ba6e7cdc5)" d="M 276.01809 140.592078 
L 280.490226 136.119942 
M 276.01809 136.119942 
L 280.490226 140.592078 
" style="fill:#ff6347;fill-opacity:0.656684;stroke:#ff6347;stroke-opacity:0.656684;stroke-width:1.5;"/>
    <path clip-path="url(#p2ba6e7cdc5)" d="M 228.583968 163.104132 
L 233.056104 158.631996 
M 228.583968 158.631996 
L 233.056104 163.104132 
" style="fill:#ff6347;fill-opacity:0.657511;stroke:#ff6347;stroke-opacity:0.657511;stroke-width:1.5;"/>
    <path clip-path="url(#p2ba6e7cdc5)" d="M 225.726643 173.459373 
L 230.198779 168.987237 
M 225.726643 168.987237 
L 230.198779 173.459373 
" style="fill:#ff6347;fill-opacity:0.683702;stroke:#ff6347;stroke-opacity:0.683702;stroke-width:1.5;"/>
    <path clip-path="url(#p2ba6e7cdc5)" d="M 239.33573 192.64419 
L 243.807866 188.172054 
M 239.33573 188.172054 
L 243.807866 192.64419 
" style="fill:#ff6347;fill-opacity:0.687845;stroke:#ff6347;stroke-opacity:0.687845;stroke-width:1.5;"/>
    <path clip-path="url(#p2ba6e7cdc5)" d="M 199.709336 174.346724 
L 204.181472 169.874588 
M 199.709336 169.874588 
L 204.181472 174.346724 
" style="fill:#ff6347;fill-opacity:0.69057;stroke:#ff6347;stroke-opacity:0.69057;stroke-width:1.5;"/>
    <path clip-path="url(#p2ba6e7cdc5)" d="M 199.882249 181.440251 
L 204.354385 176.968115 
M 199.882249 176.968115 
L 204.354385 181.440251 
" style="fill:#ff6347;fill-opacity:0.692571;stroke:#ff6347;stroke-opacity:0.692571;stroke-width:1.5;"/>
    <path clip-path="url(#p2ba6e7cdc5)" d="M 245.261449 199.73103 
L 249.733585 195.258894 
M 245.261449 195.258894 
L 249.733585 199.73103 
" style="fill:#ff6347;fill-opacity:0.728557;stroke:#ff6347;stroke-opacity:0.728557;stroke-width:1.5;"/>
    <path clip-path="url(#p2ba6e7cdc5)" d="M 205.977749 165.827936 
L 210.449885 161.3558 
M 205.977749 161.3558 
L 210.449885 165.827936 
" style="fill:#ff6347;fill-opacity:0.729633;stroke:#ff6347;stroke-opacity:0.729633;stroke-width:1.5;"/>
    <path clip-path="url(#p2ba6e7cdc5)" d="M 243.151252 176.346649 
L 247.623388 171.874513 
M 243.151252 171.874513 
L 247.623388 176.346649 
" style="fill:#ff6347;fill-opacity:0.756619;stroke:#ff6347;stroke-opacity:0.756619;stroke-width:1.5;"/>
    <path clip-path="url(#p2ba6e7cdc5)" d="M 207.952079 160.326721 
L 212.424215 155.854585 
M 207.952079 155.854585 
L 212.424215 160.326721 
" style="fill:#ff6347;fill-opacity:0.768368;stroke:#ff6347;stroke-opacity:0.768368;stroke-width:1.5;"/>
    <path clip-path="url(#p2ba6e7cdc5)" d="M 218.23913 198.659352 
L 222.711266 194.187216 
M 218.23913 194.187216 
L 222.711266 198.659352 
" style="fill:#ff6347;fill-opacity:0.775748;stroke:#ff6347;stroke-opacity:0.775748;stroke-width:1.5;"/>
    <path clip-path="url(#p2ba6e7cdc5)" d="M 181.887661 213.98199 
L 186.359797 209.509854 
M 181.887661 209.509854 
L 186.359797 213.98199 
" style="fill:#ff6347;fill-opacity:0.777162;stroke:#ff6347;stroke-opacity:0.777162;stroke-width:1.5;"/>
    <path clip-path="url(#p2ba6e7cdc5)" d="M 226.183536 169.031018 
L 230.655672 164.558882 
M 226.183536 164.558882 
L 230.655672 169.031018 
" style="fill:#ff6347;fill-opacity:0.802154;stroke:#ff6347;stroke-opacity:0.802154;stroke-width:1.5;"/>
    <path clip-path="url(#p2ba6e7cdc5)" d="M 191.614737 189.782362 
L 196.086873 185.310226 
M 191.614737 185.310226 
L 196.086873 189.782362 
" style="fill:#ff6347;fill-opacity:0.802944;stroke:#ff6347;stroke-opacity:0.802944;stroke-width:1.5;"/>
    <path clip-path="url(#p2ba6e7cdc5)" d="M 196.56318 227.932912 
L 201.035316 223.460776 
M 196.56318 223.460776 
L 201.035316 227.932912 
" style="fill:#ff6347;fill-opacity:0.806647;stroke:#ff6347;stroke-opacity:0.806647;stroke-width:1.5;"/>
    <path clip-path="url(#p2ba6e7cdc5)" d="M 180.676632 190.047604 
L 185.148768 185.575468 
M 180.676632 185.575468 
L 185.148768 190.047604 
" style="fill:#ff6347;fill-opacity:0.809221;stroke:#ff6347;stroke-opacity:0.809221;stroke-width:1.5;"/>
    <path clip-path="url(#p2ba6e7cdc5)" d="M 223.836398 186.920208 
L 228.308534 182.448072 
M 223.836398 182.448072 
L 228.308534 186.920208 
" style="fill:#ff6347;fill-opacity:0.833217;stroke:#ff6347;stroke-opacity:0.833217;stroke-width:1.5;"/>
    <path clip-path="url(#p2ba6e7cdc5)" d="M 168.057738 213.185392 
L 172.529874 208.713256 
M 168.057738 208.713256 
L 172.529874 213.185392 
" style="fill:#ff6347;fill-opacity:0.842226;stroke:#ff6347;stroke-opacity:0.842226;stroke-width:1.5;"/>
    <path clip-path="url(#p2ba6e7cdc5)" d="M 163.24404 218.045874 
L 167.716176 213.573738 
M 163.24404 213.573738 
L 167.716176 218.045874 
" style="fill:#ff6347;fill-opacity:0.852983;stroke:#ff6347;stroke-opacity:0.852983;stroke-width:1.5;"/>
    <path clip-path="url(#p2ba6e7cdc5)" d="M 228.220847 199.597821 
L 232.692983 195.125685 
M 228.220847 195.125685 
L 232.692983 199.597821 
" style="fill:#ff6347;fill-opacity:0.856003;stroke:#ff6347;stroke-opacity:0.856003;stroke-width:1.5;"/>
    <path clip-path="url(#p2ba6e7cdc5)" d="M 198.778117 201.886742 
L 203.250253 197.414606 
M 198.778117 197.414606 
L 203.250253 201.886742 
" style="fill:#ff6347;fill-opacity:0.859733;stroke:#ff6347;stroke-opacity:0.859733;stroke-width:1.5;"/>
    <path clip-path="url(#p2ba6e7cdc5)" d="M 200.602938 236.55514 
L 205.075074 232.083004 
M 200.602938 232.083004 
L 205.075074 236.55514 
" style="fill:#ff6347;fill-opacity:0.865147;stroke:#ff6347;stroke-opacity:0.865147;stroke-width:1.5;"/>
    <path clip-path="url(#p2ba6e7cdc5)" d="M 195.088524 153.645756 
L 199.56066 149.17362 
M 195.088524 149.17362 
L 199.56066 153.645756 
" style="fill:#ff6347;fill-opacity:0.926556;stroke:#ff6347;stroke-opacity:0.926556;stroke-width:1.5;"/>
    <path clip-path="url(#p2ba6e7cdc5)" d="M 201.198953 243.91181 
L 205.671088 239.439674 
M 201.198953 239.439674 
L 205.671088 243.91181 
" style="fill:#ff6347;fill-opacity:0.950571;stroke:#ff6347;stroke-opacity:0.950571;stroke-width:1.5;"/>
    <path clip-path="url(#p2ba6e7cdc5)" d="M 230.814294 211.862324 
L 235.28643 207.390188 
M 230.814294 207.390188 
L 235.28643 211.862324 
" style="fill:#ff6347;fill-opacity:0.964634;stroke:#ff6347;stroke-opacity:0.964634;stroke-width:1.5;"/>
    <path clip-path="url(#p2ba6e7cdc5)" d="M 201.948879 220.173904 
L 206.421015 215.701768 
M 201.948879 215.701768 
L 206.421015 220.173904 
" style="fill:#ff6347;stroke:#ff6347;stroke-width:1.5;"/>
   </g>
   <g id="legend_1">
    <g id="patch_6">
     <path d="M 244.2 61.1875 
L 396.2 61.1875 
Q 398.2 61.1875 398.2 59.1875 
L 398.2 7 
Q 398.2 5 396.2 5 
L 244.2 5 
Q 242.2 5 242.2 7 
L 242.2 59.1875 
Q 242.2 61.1875 244.2 61.1875 
z
" style="fill:#ffffff;opacity:0.8;stroke:#cccccc;stroke-linejoin:miter;"/>
    </g>
    <g id="line2d_31">
     <path d="M 246.2 12.5 
L 266.2 12.5 
" style="fill:none;stroke:#00bfff;stroke-linecap:square;stroke-width:1.5;"/>
    </g>
    <g id="line2d_32"/>
    <g id="text_30">
     <!-- eigen_vector_direction_1 -->
     <g transform="translate(274.2 16)scale(0.1 -0.1)">
      <defs>
       <path d="M 2875 2925 
L 1825 75 
L 1275 75 
L 225 2925 
L 750 2925 
L 1525 750 
L 1575 750 
L 2350 2925 
L 2875 2925 
z
" id="SimHei-76" transform="scale(0.015625)"/>
       <path d="M 2850 1250 
Q 2850 725 2487 400 
Q 2125 75 1575 75 
Q 1025 75 625 462 
Q 225 850 225 1525 
Q 225 2200 625 2587 
Q 1025 2975 1575 2975 
Q 2125 2975 2450 2687 
Q 2775 2400 2775 2000 
L 2225 2000 
Q 2200 2300 2012 2412 
Q 1825 2525 1575 2525 
Q 1275 2525 1025 2287 
Q 775 2050 775 1525 
Q 775 1000 1025 762 
Q 1275 525 1575 525 
Q 1900 525 2100 700 
Q 2300 875 2300 1250 
L 2850 1250 
z
" id="SimHei-63" transform="scale(0.015625)"/>
      </defs>
      <use xlink:href="#SimHei-65"/>
      <use x="50" xlink:href="#SimHei-69"/>
      <use x="100" xlink:href="#SimHei-67"/>
      <use x="150" xlink:href="#SimHei-65"/>
      <use x="200" xlink:href="#SimHei-6e"/>
      <use x="250" xlink:href="#SimHei-5f"/>
      <use x="300" xlink:href="#SimHei-76"/>
      <use x="350" xlink:href="#SimHei-65"/>
      <use x="400" xlink:href="#SimHei-63"/>
      <use x="450" xlink:href="#SimHei-74"/>
      <use x="500" xlink:href="#SimHei-6f"/>
      <use x="550" xlink:href="#SimHei-72"/>
      <use x="600" xlink:href="#SimHei-5f"/>
      <use x="650" xlink:href="#SimHei-64"/>
      <use x="700" xlink:href="#SimHei-69"/>
      <use x="750" xlink:href="#SimHei-72"/>
      <use x="800" xlink:href="#SimHei-65"/>
      <use x="850" xlink:href="#SimHei-63"/>
      <use x="900" xlink:href="#SimHei-74"/>
      <use x="950" xlink:href="#SimHei-69"/>
      <use x="1000" xlink:href="#SimHei-6f"/>
      <use x="1050" xlink:href="#SimHei-6e"/>
      <use x="1100" xlink:href="#SimHei-5f"/>
      <use x="1150" xlink:href="#SimHei-31"/>
     </g>
    </g>
    <g id="line2d_33">
     <path d="M 246.2 25.859375 
L 266.2 25.859375 
" style="fill:none;stroke:#808000;stroke-linecap:square;stroke-width:1.5;"/>
    </g>
    <g id="line2d_34"/>
    <g id="text_31">
     <!-- eigen_vector_direction_2 -->
     <g transform="translate(274.2 29.359375)scale(0.1 -0.1)">
      <use xlink:href="#SimHei-65"/>
      <use x="50" xlink:href="#SimHei-69"/>
      <use x="100" xlink:href="#SimHei-67"/>
      <use x="150" xlink:href="#SimHei-65"/>
      <use x="200" xlink:href="#SimHei-6e"/>
      <use x="250" xlink:href="#SimHei-5f"/>
      <use x="300" xlink:href="#SimHei-76"/>
      <use x="350" xlink:href="#SimHei-65"/>
      <use x="400" xlink:href="#SimHei-63"/>
      <use x="450" xlink:href="#SimHei-74"/>
      <use x="500" xlink:href="#SimHei-6f"/>
      <use x="550" xlink:href="#SimHei-72"/>
      <use x="600" xlink:href="#SimHei-5f"/>
      <use x="650" xlink:href="#SimHei-64"/>
      <use x="700" xlink:href="#SimHei-69"/>
      <use x="750" xlink:href="#SimHei-72"/>
      <use x="800" xlink:href="#SimHei-65"/>
      <use x="850" xlink:href="#SimHei-63"/>
      <use x="900" xlink:href="#SimHei-74"/>
      <use x="950" xlink:href="#SimHei-69"/>
      <use x="1000" xlink:href="#SimHei-6f"/>
      <use x="1050" xlink:href="#SimHei-6e"/>
      <use x="1100" xlink:href="#SimHei-5f"/>
      <use x="1150" xlink:href="#SimHei-32"/>
     </g>
    </g>
    <g id="Path3DCollection_3">
     <defs>
      <path d="M -2.236068 2.236068 
L 2.236068 -2.236068 
M -2.236068 -2.236068 
L 2.236068 2.236068 
" id="m40d9a1082f" style="stroke:#ff6347;stroke-width:1.5;"/>
     </defs>
     <g>
      <use style="fill:#ff6347;stroke:#ff6347;stroke-width:1.5;" x="256.2" xlink:href="#m40d9a1082f" y="40.0625"/>
     </g>
    </g>
    <g id="text_32">
     <!-- origin data -->
     <g transform="translate(274.2 42.6875)scale(0.1 -0.1)">
      <use xlink:href="#SimHei-6f"/>
      <use x="50" xlink:href="#SimHei-72"/>
      <use x="100" xlink:href="#SimHei-69"/>
      <use x="150" xlink:href="#SimHei-67"/>
      <use x="200" xlink:href="#SimHei-69"/>
      <use x="250" xlink:href="#SimHei-6e"/>
      <use x="300" xlink:href="#SimHei-20"/>
      <use x="350" xlink:href="#SimHei-64"/>
      <use x="400" xlink:href="#SimHei-61"/>
      <use x="450" xlink:href="#SimHei-74"/>
      <use x="500" xlink:href="#SimHei-61"/>
     </g>
    </g>
    <g id="Path3DCollection_4">
     <defs>
      <path d="M 0 2.236068 
C 0.593012 2.236068 1.161816 2.000462 1.581139 1.581139 
C 2.000462 1.161816 2.236068 0.593012 2.236068 0 
C 2.236068 -0.593012 2.000462 -1.161816 1.581139 -1.581139 
C 1.161816 -2.000462 0.593012 -2.236068 0 -2.236068 
C -0.593012 -2.236068 -1.161816 -2.000462 -1.581139 -1.581139 
C -2.000462 -1.161816 -2.236068 -0.593012 -2.236068 0 
C -2.236068 0.593012 -2.000462 1.161816 -1.581139 1.581139 
C -1.161816 2.000462 -0.593012 2.236068 0 2.236068 
z
" id="m1c627361e3" style="stroke:#0000ff;"/>
     </defs>
     <g>
      <use style="fill:#0000ff;stroke:#0000ff;" x="256.2" xlink:href="#m1c627361e3" y="53.3125"/>
     </g>
    </g>
    <g id="text_33">
     <!-- projected data -->
     <g transform="translate(274.2 55.9375)scale(0.1 -0.1)">
      <defs>
       <path d="M 2300 3725 
L 1800 3725 
L 1800 4375 
L 2300 4375 
L 2300 3725 
z
M 2300 150 
Q 2300 -300 2025 -550 
Q 1750 -800 1300 -800 
Q 1025 -800 862 -762 
Q 700 -725 575 -675 
L 575 -175 
Q 700 -250 875 -300 
Q 1050 -350 1325 -350 
Q 1600 -350 1700 -212 
Q 1800 -75 1800 125 
L 1800 2925 
L 2300 2925 
L 2300 150 
z
" id="SimHei-6a" transform="scale(0.015625)"/>
      </defs>
      <use xlink:href="#SimHei-70"/>
      <use x="50" xlink:href="#SimHei-72"/>
      <use x="100" xlink:href="#SimHei-6f"/>
      <use x="150" xlink:href="#SimHei-6a"/>
      <use x="200" xlink:href="#SimHei-65"/>
      <use x="250" xlink:href="#SimHei-63"/>
      <use x="300" xlink:href="#SimHei-74"/>
      <use x="350" xlink:href="#SimHei-65"/>
      <use x="400" xlink:href="#SimHei-64"/>
      <use x="450" xlink:href="#SimHei-20"/>
      <use x="500" xlink:href="#SimHei-64"/>
      <use x="550" xlink:href="#SimHei-61"/>
      <use x="600" xlink:href="#SimHei-74"/>
      <use x="650" xlink:href="#SimHei-61"/>
     </g>
    </g>
   </g>
  </g>
 </g>
 <defs>
  <clipPath id="p2ba6e7cdc5">
   <rect height="345.6" width="345.6" x="57.6" y="0"/>
  </clipPath>
 </defs>
</svg>
