<?xml version="1.0" encoding="utf-8" standalone="no"?>
<!DOCTYPE svg PUBLIC "-//W3C//DTD SVG 1.1//EN"
  "http://www.w3.org/Graphics/SVG/1.1/DTD/svg11.dtd">
<svg height="345.6pt" version="1.1" viewBox="0 0 460.8 345.6" width="460.8pt" xmlns="http://www.w3.org/2000/svg" xmlns:xlink="http://www.w3.org/1999/xlink">
 <metadata>
  <rdf:RDF xmlns:cc="http://creativecommons.org/ns#" xmlns:dc="http://purl.org/dc/elements/1.1/" xmlns:rdf="http://www.w3.org/1999/02/22-rdf-syntax-ns#">
   <cc:Work>
    <dc:type rdf:resource="http://purl.org/dc/dcmitype/StillImage"/>
    <dc:date>2021-10-27T21:33:43.919053</dc:date>
    <dc:format>image/svg+xml</dc:format>
    <dc:creator>
     <cc:Agent>
      <dc:title>Matplotlib v3.4.2, https://matplotlib.org/</dc:title>
     </cc:Agent>
    </dc:creator>
   </cc:Work>
  </rdf:RDF>
 </metadata>
 <defs>
  <style type="text/css">*{stroke-linecap:butt;stroke-linejoin:round;}</style>
 </defs>
 <g id="figure_1">
  <g id="patch_1">
   <path d="M 0 345.6 
L 460.8 345.6 
L 460.8 0 
L 0 0 
z
" style="fill:#ffffff;"/>
  </g>
  <g id="axes_1">
   <g id="patch_2">
    <path d="M 57.6 307.584 
L 414.72 307.584 
L 414.72 41.472 
L 57.6 41.472 
z
" style="fill:#ffffff;"/>
   </g>
   <g id="PathCollection_1">
    <defs>
     <path d="M 0 1.118034 
C 0.296506 1.118034 0.580908 1.000231 0.790569 0.790569 
C 1.000231 0.580908 1.118034 0.296506 1.118034 0 
C 1.118034 -0.296506 1.000231 -0.580908 0.790569 -0.790569 
C 0.580908 -1.000231 0.296506 -1.118034 0 -1.118034 
C -0.296506 -1.118034 -0.580908 -1.000231 -0.790569 -0.790569 
C -1.000231 -0.580908 -1.118034 -0.296506 -1.118034 0 
C -1.118034 0.296506 -1.000231 0.580908 -0.790569 0.790569 
C -0.580908 1.000231 -0.296506 1.118034 0 1.118034 
z
" id="mf7af453638" style="stroke:#ff6347;"/>
    </defs>
    <g clip-path="url(#p721328fab1)">
     <use style="fill:#ff6347;stroke:#ff6347;" x="252.444857" xlink:href="#mf7af453638" y="123.216853"/>
     <use style="fill:#ff6347;stroke:#ff6347;" x="277.844844" xlink:href="#mf7af453638" y="231.491059"/>
     <use style="fill:#ff6347;stroke:#ff6347;" x="250.622567" xlink:href="#mf7af453638" y="183.368079"/>
     <use style="fill:#ff6347;stroke:#ff6347;" x="301.582517" xlink:href="#mf7af453638" y="188.874404"/>
     <use style="fill:#ff6347;stroke:#ff6347;" x="235.898308" xlink:href="#mf7af453638" y="53.568"/>
     <use style="fill:#ff6347;stroke:#ff6347;" x="235.542192" xlink:href="#mf7af453638" y="218.658439"/>
     <use style="fill:#ff6347;stroke:#ff6347;" x="257.793966" xlink:href="#mf7af453638" y="89.608637"/>
     <use style="fill:#ff6347;stroke:#ff6347;" x="249.758792" xlink:href="#mf7af453638" y="131.742326"/>
     <use style="fill:#ff6347;stroke:#ff6347;" x="248.803751" xlink:href="#mf7af453638" y="128.998453"/>
     <use style="fill:#ff6347;stroke:#ff6347;" x="226.965218" xlink:href="#mf7af453638" y="237.515519"/>
     <use style="fill:#ff6347;stroke:#ff6347;" x="230.855505" xlink:href="#mf7af453638" y="182.453719"/>
     <use style="fill:#ff6347;stroke:#ff6347;" x="258.238297" xlink:href="#mf7af453638" y="108.826073"/>
     <use style="fill:#ff6347;stroke:#ff6347;" x="256.321533" xlink:href="#mf7af453638" y="120.20657"/>
     <use style="fill:#ff6347;stroke:#ff6347;" x="247.044426" xlink:href="#mf7af453638" y="180.792671"/>
     <use style="fill:#ff6347;stroke:#ff6347;" x="222.765534" xlink:href="#mf7af453638" y="224.074533"/>
     <use style="fill:#ff6347;stroke:#ff6347;" x="201.574499" xlink:href="#mf7af453638" y="171.789079"/>
     <use style="fill:#ff6347;stroke:#ff6347;" x="225.304701" xlink:href="#mf7af453638" y="156.637854"/>
     <use style="fill:#ff6347;stroke:#ff6347;" x="210.329752" xlink:href="#mf7af453638" y="119.921288"/>
     <use style="fill:#ff6347;stroke:#ff6347;" x="269.305881" xlink:href="#mf7af453638" y="96.731801"/>
     <use style="fill:#ff6347;stroke:#ff6347;" x="225.756028" xlink:href="#mf7af453638" y="221.508564"/>
     <use style="fill:#ff6347;stroke:#ff6347;" x="168.029779" xlink:href="#mf7af453638" y="177.642867"/>
     <use style="fill:#ff6347;stroke:#ff6347;" x="253.957719" xlink:href="#mf7af453638" y="148.984216"/>
     <use style="fill:#ff6347;stroke:#ff6347;" x="273.485162" xlink:href="#mf7af453638" y="195.219967"/>
     <use style="fill:#ff6347;stroke:#ff6347;" x="192.392464" xlink:href="#mf7af453638" y="203.470064"/>
     <use style="fill:#ff6347;stroke:#ff6347;" x="229.764222" xlink:href="#mf7af453638" y="113.878843"/>
     <use style="fill:#ff6347;stroke:#ff6347;" x="207.889824" xlink:href="#mf7af453638" y="111.596261"/>
     <use style="fill:#ff6347;stroke:#ff6347;" x="300.474663" xlink:href="#mf7af453638" y="162.689694"/>
     <use style="fill:#ff6347;stroke:#ff6347;" x="246.151793" xlink:href="#mf7af453638" y="295.488"/>
     <use style="fill:#ff6347;stroke:#ff6347;" x="139.842542" xlink:href="#mf7af453638" y="149.781404"/>
     <use style="fill:#ff6347;stroke:#ff6347;" x="193.220471" xlink:href="#mf7af453638" y="182.87851"/>
     <use style="fill:#ff6347;stroke:#ff6347;" x="281.659253" xlink:href="#mf7af453638" y="184.665753"/>
     <use style="fill:#ff6347;stroke:#ff6347;" x="173.825505" xlink:href="#mf7af453638" y="114.949335"/>
     <use style="fill:#ff6347;stroke:#ff6347;" x="188.132176" xlink:href="#mf7af453638" y="76.505076"/>
     <use style="fill:#ff6347;stroke:#ff6347;" x="202.621559" xlink:href="#mf7af453638" y="131.761286"/>
     <use style="fill:#ff6347;stroke:#ff6347;" x="199.443179" xlink:href="#mf7af453638" y="173.892152"/>
     <use style="fill:#ff6347;stroke:#ff6347;" x="268.612666" xlink:href="#mf7af453638" y="204.605921"/>
     <use style="fill:#ff6347;stroke:#ff6347;" x="223.567463" xlink:href="#mf7af453638" y="144.585538"/>
     <use style="fill:#ff6347;stroke:#ff6347;" x="242.935807" xlink:href="#mf7af453638" y="206.641579"/>
     <use style="fill:#ff6347;stroke:#ff6347;" x="283.511878" xlink:href="#mf7af453638" y="231.544367"/>
     <use style="fill:#ff6347;stroke:#ff6347;" x="189.259134" xlink:href="#mf7af453638" y="234.966836"/>
     <use style="fill:#ff6347;stroke:#ff6347;" x="251.430122" xlink:href="#mf7af453638" y="124.352215"/>
     <use style="fill:#ff6347;stroke:#ff6347;" x="175.424723" xlink:href="#mf7af453638" y="202.335967"/>
     <use style="fill:#ff6347;stroke:#ff6347;" x="274.519167" xlink:href="#mf7af453638" y="169.140529"/>
     <use style="fill:#ff6347;stroke:#ff6347;" x="195.465649" xlink:href="#mf7af453638" y="200.340275"/>
     <use style="fill:#ff6347;stroke:#ff6347;" x="312.41497" xlink:href="#mf7af453638" y="140.345184"/>
     <use style="fill:#ff6347;stroke:#ff6347;" x="222.046128" xlink:href="#mf7af453638" y="117.232831"/>
     <use style="fill:#ff6347;stroke:#ff6347;" x="242.35189" xlink:href="#mf7af453638" y="199.851926"/>
     <use style="fill:#ff6347;stroke:#ff6347;" x="285.189273" xlink:href="#mf7af453638" y="204.590266"/>
     <use style="fill:#ff6347;stroke:#ff6347;" x="287.036028" xlink:href="#mf7af453638" y="114.376691"/>
     <use style="fill:#ff6347;stroke:#ff6347;" x="218.591622" xlink:href="#mf7af453638" y="123.991552"/>
    </g>
   </g>
   <g id="PathCollection_2">
    <defs>
     <path d="M 0 1.118034 
C 0.296506 1.118034 0.580908 1.000231 0.790569 0.790569 
C 1.000231 0.580908 1.118034 0.296506 1.118034 0 
C 1.118034 -0.296506 1.000231 -0.580908 0.790569 -0.790569 
C 0.580908 -1.000231 0.296506 -1.118034 0 -1.118034 
C -0.296506 -1.118034 -0.580908 -1.000231 -0.790569 -0.790569 
C -1.000231 -0.580908 -1.118034 -0.296506 -1.118034 0 
C -1.118034 0.296506 -1.000231 0.580908 -0.790569 0.790569 
C -0.580908 1.000231 -0.296506 1.118034 0 1.118034 
z
" id="mcffac3af91" style="stroke:#008000;"/>
    </defs>
    <g clip-path="url(#p721328fab1)">
     <use style="fill:#008000;stroke:#008000;" x="252.430072" xlink:href="#mcffac3af91" y="165.099234"/>
     <use style="fill:#008000;stroke:#008000;" x="277.86781" xlink:href="#mcffac3af91" y="166.43358"/>
     <use style="fill:#008000;stroke:#008000;" x="250.62905" xlink:href="#mcffac3af91" y="165.00476"/>
     <use style="fill:#008000;stroke:#008000;" x="301.59" xlink:href="#mcffac3af91" y="167.677937"/>
     <use style="fill:#008000;stroke:#008000;" x="235.859243" xlink:href="#mcffac3af91" y="164.230004"/>
     <use style="fill:#008000;stroke:#008000;" x="235.561411" xlink:href="#mcffac3af91" y="164.214381"/>
     <use style="fill:#008000;stroke:#008000;" x="257.767219" xlink:href="#mcffac3af91" y="165.379196"/>
     <use style="fill:#008000;stroke:#008000;" x="249.747066" xlink:href="#mcffac3af91" y="164.958496"/>
     <use style="fill:#008000;stroke:#008000;" x="248.791075" xlink:href="#mcffac3af91" y="164.908349"/>
     <use style="fill:#008000;stroke:#008000;" x="226.991252" xlink:href="#mcffac3af91" y="163.76483"/>
     <use style="fill:#008000;stroke:#008000;" x="230.862031" xlink:href="#mcffac3af91" y="163.967873"/>
     <use style="fill:#008000;stroke:#008000;" x="258.218325" xlink:href="#mcffac3af91" y="165.402859"/>
     <use style="fill:#008000;stroke:#008000;" x="256.305614" xlink:href="#mcffac3af91" y="165.302527"/>
     <use style="fill:#008000;stroke:#008000;" x="247.050066" xlink:href="#mcffac3af91" y="164.817023"/>
     <use style="fill:#008000;stroke:#008000;" x="222.786902" xlink:href="#mcffac3af91" y="163.544289"/>
     <use style="fill:#008000;stroke:#008000;" x="201.577803" xlink:href="#mcffac3af91" y="162.431758"/>
     <use style="fill:#008000;stroke:#008000;" x="225.302217" xlink:href="#mcffac3af91" y="163.676231"/>
     <use style="fill:#008000;stroke:#008000;" x="210.314584" xlink:href="#mcffac3af91" y="162.890049"/>
     <use style="fill:#008000;stroke:#008000;" x="269.281435" xlink:href="#mcffac3af91" y="165.983179"/>
     <use style="fill:#008000;stroke:#008000;" x="225.776435" xlink:href="#mcffac3af91" y="163.701107"/>
     <use style="fill:#008000;stroke:#008000;" x="168.035769" xlink:href="#mcffac3af91" y="160.672297"/>
     <use style="fill:#008000;stroke:#008000;" x="253.952002" xlink:href="#mcffac3af91" y="165.179067"/>
     <use style="fill:#008000;stroke:#008000;" x="273.495405" xlink:href="#mcffac3af91" y="166.204224"/>
     <use style="fill:#008000;stroke:#008000;" x="192.407121" xlink:href="#mcffac3af91" y="161.950706"/>
     <use style="fill:#008000;stroke:#008000;" x="229.74656" xlink:href="#mcffac3af91" y="163.909361"/>
     <use style="fill:#008000;stroke:#008000;" x="207.871761" xlink:href="#mcffac3af91" y="162.76191"/>
     <use style="fill:#008000;stroke:#008000;" x="300.472923" xlink:href="#mcffac3af91" y="167.61934"/>
     <use style="fill:#008000;stroke:#008000;" x="246.197937" xlink:href="#mcffac3af91" y="164.772325"/>
     <use style="fill:#008000;stroke:#008000;" x="139.839219" xlink:href="#mcffac3af91" y="159.193236"/>
     <use style="fill:#008000;stroke:#008000;" x="193.227843" xlink:href="#mcffac3af91" y="161.993757"/>
     <use style="fill:#008000;stroke:#008000;" x="281.665618" xlink:href="#mcffac3af91" y="166.632796"/>
     <use style="fill:#008000;stroke:#008000;" x="173.809258" xlink:href="#mcffac3af91" y="160.975148"/>
     <use style="fill:#008000;stroke:#008000;" x="188.102092" xlink:href="#mcffac3af91" y="161.724884"/>
     <use style="fill:#008000;stroke:#008000;" x="202.610713" xlink:href="#mcffac3af91" y="162.485939"/>
     <use style="fill:#008000;stroke:#008000;" x="199.447264" xlink:href="#mcffac3af91" y="162.319999"/>
     <use style="fill:#008000;stroke:#008000;" x="268.626313" xlink:href="#mcffac3af91" y="165.948814"/>
     <use style="fill:#008000;stroke:#008000;" x="223.560756" xlink:href="#mcffac3af91" y="163.584882"/>
     <use style="fill:#008000;stroke:#008000;" x="242.950647" xlink:href="#mcffac3af91" y="164.601987"/>
     <use style="fill:#008000;stroke:#008000;" x="283.534758" xlink:href="#mcffac3af91" y="166.730842"/>
     <use style="fill:#008000;stroke:#008000;" x="189.284967" xlink:href="#mcffac3af91" y="161.786932"/>
     <use style="fill:#008000;stroke:#008000;" x="251.415757" xlink:href="#mcffac3af91" y="165.046027"/>
     <use style="fill:#008000;stroke:#008000;" x="175.439294" xlink:href="#mcffac3af91" y="161.060652"/>
     <use style="fill:#008000;stroke:#008000;" x="274.520185" xlink:href="#mcffac3af91" y="166.257979"/>
     <use style="fill:#008000;stroke:#008000;" x="195.479144" xlink:href="#mcffac3af91" y="162.11185"/>
     <use style="fill:#008000;stroke:#008000;" x="312.405121" xlink:href="#mcffac3af91" y="168.245249"/>
     <use style="fill:#008000;stroke:#008000;" x="222.029794" xlink:href="#mcffac3af91" y="163.504575"/>
     <use style="fill:#008000;stroke:#008000;" x="242.364344" xlink:href="#mcffac3af91" y="164.571232"/>
     <use style="fill:#008000;stroke:#008000;" x="285.202607" xlink:href="#mcffac3af91" y="166.81833"/>
     <use style="fill:#008000;stroke:#008000;" x="287.017482" xlink:href="#mcffac3af91" y="166.91353"/>
     <use style="fill:#008000;stroke:#008000;" x="218.577738" xlink:href="#mcffac3af91" y="163.323496"/>
    </g>
   </g>
   <g id="matplotlib.axis_1">
    <g id="xtick_1">
     <g id="line2d_1">
      <defs>
       <path d="M 0 0 
L 0 3.5 
" id="mfb71973892" style="stroke:#000000;stroke-width:0.8;"/>
      </defs>
      <g>
       <use style="stroke:#000000;stroke-width:0.8;" x="71.696494" xlink:href="#mfb71973892" y="307.584"/>
      </g>
     </g>
     <g id="text_1">
      <!-- -7 -->
      <g transform="translate(66.696494 321.459)scale(0.1 -0.1)">
       <defs>
        <path d="M 2975 2125 
L 125 2125 
L 125 2525 
L 2975 2525 
L 2975 2125 
z
" id="SimHei-2d" transform="scale(0.015625)"/>
        <path d="M 850 150 
Q 1300 2050 2425 3925 
L 275 3925 
L 275 4375 
L 2950 4375 
L 2950 3950 
Q 1775 2050 1400 150 
L 850 150 
z
" id="SimHei-37" transform="scale(0.015625)"/>
       </defs>
       <use xlink:href="#SimHei-2d"/>
       <use x="50" xlink:href="#SimHei-37"/>
      </g>
     </g>
    </g>
    <g id="xtick_2">
     <g id="line2d_2">
      <g>
       <use style="stroke:#000000;stroke-width:0.8;" x="112.278688" xlink:href="#mfb71973892" y="307.584"/>
      </g>
     </g>
     <g id="text_2">
      <!-- -6 -->
      <g transform="translate(107.278688 321.459)scale(0.1 -0.1)">
       <defs>
        <path d="M 250 1612 
Q 275 1975 387 2225 
Q 500 2475 725 2850 
L 1750 4450 
L 2325 4450 
L 1275 2800 
Q 1950 2975 2350 2750 
Q 2750 2525 2887 2237 
Q 3025 1950 3037 1612 
Q 3050 1275 2937 950 
Q 2825 625 2537 362 
Q 2250 100 1737 75 
Q 1225 50 862 262 
Q 500 475 362 862 
Q 225 1250 250 1612 
z
M 1025 787 
Q 1250 550 1625 525 
Q 2000 500 2250 775 
Q 2500 1050 2500 1575 
Q 2500 2100 2187 2300 
Q 1875 2500 1487 2450 
Q 1100 2400 925 2075 
Q 750 1750 775 1387 
Q 800 1025 1025 787 
z
" id="SimHei-36" transform="scale(0.015625)"/>
       </defs>
       <use xlink:href="#SimHei-2d"/>
       <use x="50" xlink:href="#SimHei-36"/>
      </g>
     </g>
    </g>
    <g id="xtick_3">
     <g id="line2d_3">
      <g>
       <use style="stroke:#000000;stroke-width:0.8;" x="152.860882" xlink:href="#mfb71973892" y="307.584"/>
      </g>
     </g>
     <g id="text_3">
      <!-- -5 -->
      <g transform="translate(147.860882 321.459)scale(0.1 -0.1)">
       <defs>
        <path d="M 550 1325 
Q 725 650 1150 575 
Q 1575 500 1837 662 
Q 2100 825 2212 1087 
Q 2325 1350 2312 1675 
Q 2300 2000 2137 2225 
Q 1975 2450 1725 2525 
Q 1475 2600 1162 2525 
Q 850 2450 650 2175 
L 225 2225 
Q 275 2375 700 4375 
L 2675 4375 
L 2675 3925 
L 1075 3925 
Q 950 3250 825 2850 
Q 1200 3025 1525 3012 
Q 1850 3000 2150 2862 
Q 2450 2725 2587 2487 
Q 2725 2250 2787 2012 
Q 2850 1775 2837 1500 
Q 2825 1225 2725 937 
Q 2625 650 2425 462 
Q 2225 275 1937 162 
Q 1650 50 1275 75 
Q 900 100 562 350 
Q 225 600 100 1200 
L 550 1325 
z
" id="SimHei-35" transform="scale(0.015625)"/>
       </defs>
       <use xlink:href="#SimHei-2d"/>
       <use x="50" xlink:href="#SimHei-35"/>
      </g>
     </g>
    </g>
    <g id="xtick_4">
     <g id="line2d_4">
      <g>
       <use style="stroke:#000000;stroke-width:0.8;" x="193.443076" xlink:href="#mfb71973892" y="307.584"/>
      </g>
     </g>
     <g id="text_4">
      <!-- -4 -->
      <g transform="translate(188.443076 321.459)scale(0.1 -0.1)">
       <defs>
        <path d="M 2000 1100 
L 75 1100 
L 75 1525 
L 2100 4450 
L 2475 4450 
L 2475 1525 
L 3075 1525 
L 3075 1100 
L 2475 1100 
L 2475 150 
L 2000 150 
L 2000 1100 
z
M 2000 1525 
L 2000 3500 
L 600 1525 
L 2000 1525 
z
" id="SimHei-34" transform="scale(0.015625)"/>
       </defs>
       <use xlink:href="#SimHei-2d"/>
       <use x="50" xlink:href="#SimHei-34"/>
      </g>
     </g>
    </g>
    <g id="xtick_5">
     <g id="line2d_5">
      <g>
       <use style="stroke:#000000;stroke-width:0.8;" x="234.02527" xlink:href="#mfb71973892" y="307.584"/>
      </g>
     </g>
     <g id="text_5">
      <!-- -3 -->
      <g transform="translate(229.02527 321.459)scale(0.1 -0.1)">
       <defs>
        <path d="M 250 1225 
L 700 1300 
Q 800 975 1025 762 
Q 1250 550 1587 562 
Q 1925 575 2125 837 
Q 2325 1100 2300 1437 
Q 2275 1775 2037 1962 
Q 1800 2150 1275 2225 
L 1275 2550 
Q 1800 2600 2037 2825 
Q 2275 3050 2250 3412 
Q 2225 3775 1925 3937 
Q 1625 4100 1287 3975 
Q 950 3850 750 3275 
L 300 3350 
Q 450 3800 712 4100 
Q 975 4400 1425 4450 
Q 1875 4500 2212 4337 
Q 2550 4175 2687 3837 
Q 2825 3500 2725 3100 
Q 2625 2700 2150 2400 
Q 2500 2250 2687 1950 
Q 2875 1650 2812 1162 
Q 2750 675 2375 375 
Q 2000 75 1525 87 
Q 1050 100 700 387 
Q 350 675 250 1225 
z
" id="SimHei-33" transform="scale(0.015625)"/>
       </defs>
       <use xlink:href="#SimHei-2d"/>
       <use x="50" xlink:href="#SimHei-33"/>
      </g>
     </g>
    </g>
    <g id="xtick_6">
     <g id="line2d_6">
      <g>
       <use style="stroke:#000000;stroke-width:0.8;" x="274.607463" xlink:href="#mfb71973892" y="307.584"/>
      </g>
     </g>
     <g id="text_6">
      <!-- -2 -->
      <g transform="translate(269.607463 321.459)scale(0.1 -0.1)">
       <defs>
        <path d="M 300 250 
Q 325 625 650 925 
Q 975 1225 1475 1862 
Q 1975 2500 2125 2850 
Q 2275 3200 2237 3450 
Q 2200 3700 2000 3862 
Q 1800 4025 1537 4000 
Q 1275 3975 1037 3800 
Q 800 3625 675 3275 
L 200 3350 
Q 400 3925 712 4187 
Q 1025 4450 1450 4475 
Q 1700 4500 1900 4462 
Q 2100 4425 2312 4287 
Q 2525 4150 2662 3875 
Q 2800 3600 2762 3212 
Q 2725 2825 2375 2287 
Q 2025 1750 1025 600 
L 2825 600 
L 2825 150 
L 300 150 
L 300 250 
z
" id="SimHei-32" transform="scale(0.015625)"/>
       </defs>
       <use xlink:href="#SimHei-2d"/>
       <use x="50" xlink:href="#SimHei-32"/>
      </g>
     </g>
    </g>
    <g id="xtick_7">
     <g id="line2d_7">
      <g>
       <use style="stroke:#000000;stroke-width:0.8;" x="315.189657" xlink:href="#mfb71973892" y="307.584"/>
      </g>
     </g>
     <g id="text_7">
      <!-- -1 -->
      <g transform="translate(310.189657 321.459)scale(0.1 -0.1)">
       <defs>
        <path d="M 1400 3600 
Q 1075 3275 575 2975 
L 575 3450 
Q 1200 3875 1600 4450 
L 1900 4450 
L 1900 150 
L 1400 150 
L 1400 3600 
z
" id="SimHei-31" transform="scale(0.015625)"/>
       </defs>
       <use xlink:href="#SimHei-2d"/>
       <use x="50" xlink:href="#SimHei-31"/>
      </g>
     </g>
    </g>
    <g id="xtick_8">
     <g id="line2d_8">
      <g>
       <use style="stroke:#000000;stroke-width:0.8;" x="355.771851" xlink:href="#mfb71973892" y="307.584"/>
      </g>
     </g>
     <g id="text_8">
      <!-- 0 -->
      <g transform="translate(353.271851 321.459)scale(0.1 -0.1)">
       <defs>
        <path d="M 225 2537 
Q 250 3200 412 3587 
Q 575 3975 875 4225 
Q 1175 4475 1612 4475 
Q 2050 4475 2375 4112 
Q 2700 3750 2800 3200 
Q 2900 2650 2862 1937 
Q 2825 1225 2612 775 
Q 2400 325 1975 150 
Q 1550 -25 1125 187 
Q 700 400 525 750 
Q 350 1100 275 1487 
Q 200 1875 225 2537 
z
M 750 2687 
Q 675 2000 800 1462 
Q 925 925 1212 700 
Q 1500 475 1800 612 
Q 2100 750 2237 1162 
Q 2375 1575 2375 2062 
Q 2375 2550 2337 2950 
Q 2300 3350 2112 3675 
Q 1925 4000 1612 4012 
Q 1300 4025 1062 3700 
Q 825 3375 750 2687 
z
" id="SimHei-30" transform="scale(0.015625)"/>
       </defs>
       <use xlink:href="#SimHei-30"/>
      </g>
     </g>
    </g>
    <g id="xtick_9">
     <g id="line2d_9">
      <g>
       <use style="stroke:#000000;stroke-width:0.8;" x="396.354045" xlink:href="#mfb71973892" y="307.584"/>
      </g>
     </g>
     <g id="text_9">
      <!-- 1 -->
      <g transform="translate(393.854045 321.459)scale(0.1 -0.1)">
       <use xlink:href="#SimHei-31"/>
      </g>
     </g>
    </g>
    <g id="text_10">
     <!-- x -->
     <g transform="translate(233.66 333.584)scale(0.1 -0.1)">
      <defs>
       <path d="M 2875 125 
L 2275 125 
L 1550 1200 
L 825 125 
L 225 125 
L 1250 1550 
L 300 2925 
L 900 2925 
L 1550 1875 
L 2200 2925 
L 2800 2925 
L 1850 1550 
L 2875 125 
z
" id="SimHei-78" transform="scale(0.015625)"/>
      </defs>
      <use xlink:href="#SimHei-78"/>
     </g>
    </g>
   </g>
   <g id="matplotlib.axis_2">
    <g id="ytick_1">
     <g id="line2d_10">
      <defs>
       <path d="M 0 0 
L -3.5 0 
" id="me01d26ab9a" style="stroke:#000000;stroke-width:0.8;"/>
      </defs>
      <g>
       <use style="stroke:#000000;stroke-width:0.8;" x="57.6" xlink:href="#me01d26ab9a" y="260.793258"/>
      </g>
     </g>
     <g id="text_11">
      <!-- 3.8 -->
      <g transform="translate(35.6 264.230758)scale(0.1 -0.1)">
       <defs>
        <path d="M 1075 125 
L 500 125 
L 500 675 
L 1075 675 
L 1075 125 
z
" id="SimHei-2e" transform="scale(0.015625)"/>
        <path d="M 175 1375 
Q 175 1675 325 1962 
Q 475 2250 825 2425 
Q 525 2600 425 2812 
Q 325 3025 312 3300 
Q 300 3575 387 3775 
Q 475 3975 650 4150 
Q 825 4325 1037 4387 
Q 1250 4450 1500 4450 
Q 1750 4450 1950 4400 
Q 2150 4350 2375 4187 
Q 2600 4025 2700 3725 
Q 2800 3425 2687 3025 
Q 2575 2625 2100 2400 
Q 2525 2275 2700 2012 
Q 2875 1750 2875 1375 
Q 2875 1000 2762 775 
Q 2650 550 2512 400 
Q 2375 250 2137 162 
Q 1900 75 1537 75 
Q 1175 75 912 162 
Q 650 250 475 425 
Q 300 600 237 837 
Q 175 1075 175 1375 
z
M 687 1400 
Q 675 1100 787 875 
Q 900 650 1200 587 
Q 1500 525 1825 600 
Q 2150 675 2275 950 
Q 2400 1225 2362 1500 
Q 2325 1775 2050 1962 
Q 1775 2150 1450 2125 
Q 1125 2100 912 1900 
Q 700 1700 687 1400 
z
M 775 3350 
Q 775 3100 950 2875 
Q 1125 2650 1500 2650 
Q 1875 2650 2062 2875 
Q 2250 3100 2237 3412 
Q 2225 3725 2012 3875 
Q 1800 4025 1437 4000 
Q 1075 3975 925 3787 
Q 775 3600 775 3350 
z
" id="SimHei-38" transform="scale(0.015625)"/>
       </defs>
       <use xlink:href="#SimHei-33"/>
       <use x="50" xlink:href="#SimHei-2e"/>
       <use x="100" xlink:href="#SimHei-38"/>
      </g>
     </g>
    </g>
    <g id="ytick_2">
     <g id="line2d_11">
      <g>
       <use style="stroke:#000000;stroke-width:0.8;" x="57.6" xlink:href="#me01d26ab9a" y="211.323892"/>
      </g>
     </g>
     <g id="text_12">
      <!-- 3.9 -->
      <g transform="translate(35.6 214.761392)scale(0.1 -0.1)">
       <defs>
        <path d="M 800 75 
Q 1350 1000 1700 1750 
Q 1075 1650 662 1912 
Q 250 2175 162 2625 
Q 75 3075 175 3437 
Q 275 3800 487 4037 
Q 700 4275 1000 4375 
Q 1300 4475 1537 4475 
Q 1775 4475 2025 4375 
Q 2275 4275 2475 4075 
Q 2675 3875 2750 3662 
Q 2825 3450 2825 3112 
Q 2825 2775 2575 2250 
Q 2325 1725 1350 75 
L 800 75 
z
M 662 2875 
Q 700 2550 937 2337 
Q 1175 2125 1450 2150 
Q 1725 2175 1887 2300 
Q 2050 2425 2200 2725 
Q 2300 3100 2250 3362 
Q 2200 3625 1987 3800 
Q 1775 3975 1525 3975 
Q 1375 4000 1137 3900 
Q 900 3800 762 3500 
Q 625 3200 662 2875 
z
" id="SimHei-39" transform="scale(0.015625)"/>
       </defs>
       <use xlink:href="#SimHei-33"/>
       <use x="50" xlink:href="#SimHei-2e"/>
       <use x="100" xlink:href="#SimHei-39"/>
      </g>
     </g>
    </g>
    <g id="ytick_3">
     <g id="line2d_12">
      <g>
       <use style="stroke:#000000;stroke-width:0.8;" x="57.6" xlink:href="#me01d26ab9a" y="161.854525"/>
      </g>
     </g>
     <g id="text_13">
      <!-- 4.0 -->
      <g transform="translate(35.6 165.292025)scale(0.1 -0.1)">
       <use xlink:href="#SimHei-34"/>
       <use x="50" xlink:href="#SimHei-2e"/>
       <use x="100" xlink:href="#SimHei-30"/>
      </g>
     </g>
    </g>
    <g id="ytick_4">
     <g id="line2d_13">
      <g>
       <use style="stroke:#000000;stroke-width:0.8;" x="57.6" xlink:href="#me01d26ab9a" y="112.385159"/>
      </g>
     </g>
     <g id="text_14">
      <!-- 4.1 -->
      <g transform="translate(35.6 115.822659)scale(0.1 -0.1)">
       <use xlink:href="#SimHei-34"/>
       <use x="50" xlink:href="#SimHei-2e"/>
       <use x="100" xlink:href="#SimHei-31"/>
      </g>
     </g>
    </g>
    <g id="ytick_5">
     <g id="line2d_14">
      <g>
       <use style="stroke:#000000;stroke-width:0.8;" x="57.6" xlink:href="#me01d26ab9a" y="62.915793"/>
      </g>
     </g>
     <g id="text_15">
      <!-- 4.2 -->
      <g transform="translate(35.6 66.353293)scale(0.1 -0.1)">
       <use xlink:href="#SimHei-34"/>
       <use x="50" xlink:href="#SimHei-2e"/>
       <use x="100" xlink:href="#SimHei-32"/>
      </g>
     </g>
    </g>
    <g id="text_16">
     <!-- y -->
     <g transform="translate(30.35 177.028)rotate(-90)scale(0.1 -0.1)">
      <defs>
       <path d="M 2900 2925 
L 1750 -100 
Q 1650 -450 1450 -625 
Q 1250 -800 950 -800 
Q 825 -800 712 -787 
Q 600 -775 500 -725 
L 500 -225 
Q 600 -275 700 -300 
Q 800 -325 875 -325 
Q 1075 -325 1150 -262 
Q 1225 -200 1300 25 
L 200 2925 
L 750 2925 
L 1550 725 
L 1575 725 
L 2350 2925 
L 2900 2925 
z
" id="SimHei-79" transform="scale(0.015625)"/>
      </defs>
      <use xlink:href="#SimHei-79"/>
     </g>
    </g>
   </g>
   <g id="line2d_15">
    <path clip-path="url(#p721328fab1)" d="M 73.832727 155.730839 
L 398.487273 172.760722 
" style="fill:none;stroke:#008000;stroke-linecap:square;"/>
   </g>
   <g id="patch_3">
    <path d="M 57.6 307.584 
L 57.6 41.472 
" style="fill:none;stroke:#000000;stroke-linecap:square;stroke-linejoin:miter;stroke-width:0.8;"/>
   </g>
   <g id="patch_4">
    <path d="M 414.72 307.584 
L 414.72 41.472 
" style="fill:none;stroke:#000000;stroke-linecap:square;stroke-linejoin:miter;stroke-width:0.8;"/>
   </g>
   <g id="patch_5">
    <path d="M 57.6 307.584 
L 414.72 307.584 
" style="fill:none;stroke:#000000;stroke-linecap:square;stroke-linejoin:miter;stroke-width:0.8;"/>
   </g>
   <g id="patch_6">
    <path d="M 57.6 41.472 
L 414.72 41.472 
" style="fill:none;stroke:#000000;stroke-linecap:square;stroke-linejoin:miter;stroke-width:0.8;"/>
   </g>
   <g id="text_17">
    <!-- PCA Result Graph{(n_samples,origin_dim)=(50,2)} -->
    <g transform="translate(48.16 35.472)scale(0.16 -0.16)">
     <defs>
      <path d="M 2950 3100 
Q 2950 2500 2600 2150 
Q 2250 1800 1625 1800 
L 900 1800 
L 900 125 
L 325 125 
L 325 4400 
L 1625 4400 
Q 2250 4400 2600 4050 
Q 2950 3700 2950 3100 
z
M 2375 3100 
Q 2375 3575 2150 3750 
Q 1925 3925 1475 3925 
L 900 3925 
L 900 2275 
L 1475 2275 
Q 1925 2275 2150 2450 
Q 2375 2625 2375 3100 
z
" id="SimHei-50" transform="scale(0.015625)"/>
      <path d="M 2975 1825 
Q 2950 875 2575 475 
Q 2200 75 1675 75 
Q 1075 75 650 562 
Q 225 1050 225 2125 
Q 225 3300 637 3875 
Q 1050 4450 1700 4450 
Q 2250 4450 2612 4037 
Q 2975 3625 2950 2875 
L 2400 2875 
Q 2400 3425 2225 3700 
Q 2050 3975 1700 3975 
Q 1300 3975 1062 3562 
Q 825 3150 825 2175 
Q 825 1275 1062 912 
Q 1300 550 1675 550 
Q 1950 550 2175 812 
Q 2400 1075 2400 1825 
L 2975 1825 
z
" id="SimHei-43" transform="scale(0.015625)"/>
      <path d="M 3075 125 
L 2475 125 
L 2125 1450 
L 1025 1450 
L 675 125 
L 75 125 
L 1325 4450 
L 1825 4450 
L 3075 125 
z
M 2000 1925 
L 1600 3450 
L 1550 3450 
L 1150 1925 
L 2000 1925 
z
" id="SimHei-41" transform="scale(0.015625)"/>
      <path id="SimHei-20" transform="scale(0.015625)"/>
      <path d="M 3000 125 
L 2400 125 
L 1500 1975 
L 850 1975 
L 850 125 
L 275 125 
L 275 4400 
L 1525 4400 
Q 2125 4400 2500 4112 
Q 2875 3825 2875 3175 
Q 2875 2675 2625 2400 
Q 2375 2125 2050 2050 
L 3000 125 
z
M 2300 3175 
Q 2300 3525 2087 3725 
Q 1875 3925 1400 3925 
L 850 3925 
L 850 2450 
L 1550 2450 
Q 1850 2450 2075 2612 
Q 2300 2775 2300 3175 
z
" id="SimHei-52" transform="scale(0.015625)"/>
      <path d="M 2850 1075 
Q 2800 625 2450 350 
Q 2100 75 1625 75 
Q 1025 75 637 462 
Q 250 850 250 1525 
Q 250 2200 637 2587 
Q 1025 2975 1625 2975 
Q 2150 2975 2487 2637 
Q 2825 2300 2825 1525 
L 800 1525 
Q 800 975 1037 750 
Q 1275 525 1625 525 
Q 1900 525 2075 662 
Q 2250 800 2300 1075 
L 2850 1075 
z
M 2250 1925 
Q 2200 2275 2025 2412 
Q 1850 2550 1575 2550 
Q 1325 2550 1125 2412 
Q 925 2275 825 1925 
L 2250 1925 
z
" id="SimHei-65" transform="scale(0.015625)"/>
      <path d="M 2750 900 
Q 2750 500 2437 287 
Q 2125 75 1650 75 
Q 1050 75 725 312 
Q 400 550 400 1000 
L 900 1000 
Q 900 700 1112 600 
Q 1325 500 1625 500 
Q 1925 500 2075 612 
Q 2225 725 2225 900 
Q 2225 1025 2100 1150 
Q 1975 1275 1475 1350 
Q 900 1425 687 1637 
Q 475 1850 475 2200 
Q 475 2500 762 2737 
Q 1050 2975 1600 2975 
Q 2100 2975 2387 2750 
Q 2675 2525 2675 2150 
L 2175 2150 
Q 2175 2375 2012 2462 
Q 1850 2550 1600 2550 
Q 1275 2550 1137 2437 
Q 1000 2325 1000 2175 
Q 1000 2000 1125 1900 
Q 1250 1800 1650 1750 
Q 2300 1650 2525 1437 
Q 2750 1225 2750 900 
z
" id="SimHei-73" transform="scale(0.015625)"/>
      <path d="M 2800 125 
L 2300 125 
L 2300 650 
Q 2100 375 1862 225 
Q 1625 75 1250 75 
Q 800 75 575 325 
Q 350 575 350 950 
L 350 2925 
L 850 2925 
L 850 1125 
Q 850 825 1000 650 
Q 1150 475 1400 475 
Q 1725 475 2012 812 
Q 2300 1150 2300 1650 
L 2300 2925 
L 2800 2925 
L 2800 125 
z
" id="SimHei-75" transform="scale(0.015625)"/>
      <path d="M 1825 125 
L 1325 125 
L 1325 4400 
L 1825 4400 
L 1825 125 
z
" id="SimHei-6c" transform="scale(0.015625)"/>
      <path d="M 2750 200 
Q 2625 150 2462 112 
Q 2300 75 2025 75 
Q 1575 75 1300 325 
Q 1025 575 1025 1025 
L 1025 2525 
L 175 2525 
L 175 2925 
L 1025 2925 
L 1025 3900 
L 1525 3900 
L 1525 2925 
L 2550 2925 
L 2550 2525 
L 1525 2525 
L 1525 1000 
Q 1525 800 1625 662 
Q 1725 525 2000 525 
Q 2275 525 2450 575 
Q 2625 625 2750 700 
L 2750 200 
z
" id="SimHei-74" transform="scale(0.015625)"/>
      <path d="M 2850 75 
L 2425 75 
L 2350 425 
Q 2250 275 2037 175 
Q 1825 75 1575 75 
Q 1050 75 637 562 
Q 225 1050 225 2125 
Q 225 3300 600 3875 
Q 975 4450 1625 4450 
Q 2200 4450 2525 4025 
Q 2850 3600 2850 2925 
L 2300 2925 
Q 2300 3450 2125 3712 
Q 1950 3975 1625 3975 
Q 1225 3975 1025 3562 
Q 825 3150 825 2175 
Q 825 1250 1075 900 
Q 1325 550 1650 550 
Q 1975 550 2162 787 
Q 2350 1025 2350 1525 
L 2350 1800 
L 1575 1800 
L 1575 2275 
L 2850 2275 
L 2850 75 
z
" id="SimHei-47" transform="scale(0.015625)"/>
      <path d="M 2500 2425 
Q 2025 2500 1700 2287 
Q 1375 2075 1150 1550 
L 1150 125 
L 650 125 
L 650 2925 
L 1150 2925 
L 1150 2200 
Q 1375 2600 1712 2787 
Q 2050 2975 2500 2975 
L 2500 2425 
z
" id="SimHei-72" transform="scale(0.015625)"/>
      <path d="M 2875 125 
L 2275 125 
Q 2225 175 2200 262 
Q 2175 350 2175 475 
Q 2000 275 1750 175 
Q 1500 75 1225 75 
Q 825 75 550 275 
Q 275 475 275 850 
Q 275 1225 525 1450 
Q 775 1675 1300 1750 
Q 1650 1800 1912 1875 
Q 2175 1950 2175 2075 
Q 2175 2225 2062 2375 
Q 1950 2525 1575 2525 
Q 1275 2525 1137 2412 
Q 1000 2300 950 2100 
L 400 2100 
Q 450 2500 762 2737 
Q 1075 2975 1575 2975 
Q 2125 2975 2400 2725 
Q 2675 2475 2675 2025 
L 2675 650 
Q 2675 500 2725 375 
Q 2775 250 2875 125 
z
M 2175 1050 
L 2175 1550 
Q 2025 1500 1887 1462 
Q 1750 1425 1425 1375 
Q 1050 1325 937 1200 
Q 825 1075 825 900 
Q 825 750 937 637 
Q 1050 525 1275 525 
Q 1500 525 1762 650 
Q 2025 775 2175 1050 
z
" id="SimHei-61" transform="scale(0.015625)"/>
      <path d="M 2825 1525 
Q 2825 800 2475 425 
Q 2125 50 1625 50 
Q 1350 50 1150 162 
Q 950 275 800 500 
L 800 -800 
L 300 -800 
L 300 2925 
L 800 2925 
L 800 2550 
Q 950 2775 1150 2875 
Q 1350 2975 1625 2975 
Q 2125 2975 2475 2612 
Q 2825 2250 2825 1525 
z
M 2275 1525 
Q 2275 2000 2087 2262 
Q 1900 2525 1525 2525 
Q 1225 2525 1012 2262 
Q 800 2000 800 1525 
Q 800 1050 1012 775 
Q 1225 500 1525 500 
Q 1900 500 2087 775 
Q 2275 1050 2275 1525 
z
" id="SimHei-70" transform="scale(0.015625)"/>
      <path d="M 2800 125 
L 2300 125 
L 2300 1925 
Q 2300 2225 2150 2400 
Q 2000 2575 1750 2575 
Q 1425 2575 1137 2237 
Q 850 1900 850 1400 
L 850 125 
L 350 125 
L 350 4400 
L 850 4400 
L 850 2400 
Q 1050 2675 1287 2825 
Q 1525 2975 1900 2975 
Q 2350 2975 2575 2725 
Q 2800 2475 2800 2100 
L 2800 125 
z
" id="SimHei-68" transform="scale(0.015625)"/>
      <path d="M 2750 -525 
L 2350 -525 
Q 2050 -525 1900 -362 
Q 1750 -200 1750 150 
L 1750 1750 
Q 1750 1900 1675 1987 
Q 1600 2075 1425 2075 
L 1425 2425 
Q 1600 2425 1675 2500 
Q 1750 2575 1750 2750 
L 1750 4375 
Q 1750 4700 1900 4875 
Q 2050 5050 2350 5050 
L 2750 5050 
L 2750 4750 
L 2550 4750 
Q 2400 4750 2325 4675 
Q 2250 4600 2250 4450 
L 2250 2925 
Q 2250 2675 2200 2500 
Q 2150 2325 2025 2250 
Q 2150 2150 2200 1987 
Q 2250 1825 2250 1575 
L 2250 75 
Q 2250 -75 2325 -150 
Q 2400 -225 2550 -225 
L 2750 -225 
L 2750 -525 
z
" id="SimHei-7b" transform="scale(0.015625)"/>
      <path d="M 2975 -200 
L 2700 -475 
Q 2075 125 1762 775 
Q 1450 1425 1450 2250 
Q 1450 3075 1762 3725 
Q 2075 4375 2700 5000 
L 2975 4725 
Q 2400 4175 2112 3587 
Q 1825 3000 1825 2250 
Q 1825 1500 2112 912 
Q 2400 325 2975 -200 
z
" id="SimHei-28" transform="scale(0.015625)"/>
      <path d="M 2800 125 
L 2300 125 
L 2300 1925 
Q 2300 2225 2150 2400 
Q 2000 2575 1750 2575 
Q 1425 2575 1137 2237 
Q 850 1900 850 1400 
L 850 125 
L 350 125 
L 350 2925 
L 850 2925 
L 850 2400 
Q 1050 2675 1287 2825 
Q 1525 2975 1900 2975 
Q 2350 2975 2575 2725 
Q 2800 2475 2800 2100 
L 2800 125 
z
" id="SimHei-6e" transform="scale(0.015625)"/>
      <path d="M 3150 -850 
L 0 -850 
L 0 -550 
L 3150 -550 
L 3150 -850 
z
" id="SimHei-5f" transform="scale(0.015625)"/>
      <path d="M 3050 125 
L 2550 125 
L 2550 2150 
Q 2550 2300 2500 2400 
Q 2450 2500 2300 2500 
Q 2125 2500 1975 2312 
Q 1825 2125 1825 1825 
L 1825 125 
L 1325 125 
L 1325 2150 
Q 1325 2300 1275 2400 
Q 1225 2500 1075 2500 
Q 900 2500 750 2312 
Q 600 2125 600 1825 
L 600 125 
L 100 125 
L 100 2925 
L 600 2925 
L 600 2550 
Q 725 2750 900 2862 
Q 1075 2975 1275 2975 
Q 1475 2975 1612 2862 
Q 1750 2750 1800 2550 
Q 1925 2750 2087 2862 
Q 2250 2975 2450 2975 
Q 2750 2975 2900 2812 
Q 3050 2650 3050 2350 
L 3050 125 
z
" id="SimHei-6d" transform="scale(0.015625)"/>
      <path d="M 1100 125 
L 775 -550 
L 525 -550 
L 775 125 
L 525 125 
L 525 675 
L 1100 675 
L 1100 125 
z
" id="SimHei-2c" transform="scale(0.015625)"/>
      <path d="M 2925 1525 
Q 2925 875 2525 475 
Q 2125 75 1575 75 
Q 1025 75 625 475 
Q 225 875 225 1525 
Q 225 2175 625 2575 
Q 1025 2975 1575 2975 
Q 2125 2975 2525 2575 
Q 2925 2175 2925 1525 
z
M 2375 1525 
Q 2375 2025 2125 2275 
Q 1875 2525 1575 2525 
Q 1275 2525 1025 2275 
Q 775 2025 775 1525 
Q 775 1025 1025 775 
Q 1275 525 1575 525 
Q 1875 525 2125 775 
Q 2375 1025 2375 1525 
z
" id="SimHei-6f" transform="scale(0.015625)"/>
      <path d="M 1800 3725 
L 1300 3725 
L 1300 4375 
L 1800 4375 
L 1800 3725 
z
M 1800 125 
L 1300 125 
L 1300 2925 
L 1800 2925 
L 1800 125 
z
" id="SimHei-69" transform="scale(0.015625)"/>
      <path d="M 2975 2500 
Q 2800 2550 2637 2562 
Q 2475 2575 2300 2525 
Q 2375 2450 2425 2337 
Q 2475 2225 2475 2000 
Q 2475 1575 2187 1300 
Q 1900 1025 1475 1025 
Q 1375 1025 1212 1062 
Q 1050 1100 950 1150 
Q 875 1100 850 1050 
Q 825 1000 825 925 
Q 825 800 1000 737 
Q 1175 675 1625 675 
Q 2350 675 2612 475 
Q 2875 275 2875 -25 
Q 2875 -425 2487 -612 
Q 2100 -800 1575 -800 
Q 900 -800 575 -625 
Q 250 -450 250 -150 
Q 250 0 375 150 
Q 500 300 700 400 
Q 550 475 462 587 
Q 375 700 375 875 
Q 375 1025 487 1137 
Q 600 1250 750 1325 
Q 625 1450 550 1625 
Q 475 1800 475 2000 
Q 475 2425 762 2700 
Q 1050 2975 1475 2975 
Q 1700 2975 1862 2912 
Q 2025 2850 2150 2725 
Q 2350 2875 2550 2937 
Q 2750 3000 2975 2975 
L 2975 2500 
z
M 1975 2000 
Q 1975 2250 1850 2400 
Q 1725 2550 1475 2550 
Q 1225 2550 1100 2400 
Q 975 2250 975 2000 
Q 975 1750 1100 1600 
Q 1225 1450 1475 1450 
Q 1725 1450 1850 1600 
Q 1975 1750 1975 2000 
z
M 2400 -75 
Q 2400 25 2287 125 
Q 2175 225 1725 225 
Q 1625 225 1450 237 
Q 1275 250 1050 275 
Q 850 200 775 100 
Q 700 0 700 -100 
Q 700 -250 900 -350 
Q 1100 -450 1600 -450 
Q 2025 -450 2212 -337 
Q 2400 -225 2400 -75 
z
" id="SimHei-67" transform="scale(0.015625)"/>
      <path d="M 2750 125 
L 2250 125 
L 2250 500 
Q 2100 275 1900 175 
Q 1700 75 1425 75 
Q 925 75 575 437 
Q 225 800 225 1525 
Q 225 2250 575 2625 
Q 925 3000 1425 3000 
Q 1700 3000 1900 2887 
Q 2100 2775 2250 2550 
L 2250 4400 
L 2750 4400 
L 2750 125 
z
M 2250 1525 
Q 2250 2000 2037 2275 
Q 1825 2550 1525 2550 
Q 1150 2550 962 2275 
Q 775 2000 775 1525 
Q 775 1050 962 787 
Q 1150 525 1525 525 
Q 1825 525 2037 787 
Q 2250 1050 2250 1525 
z
" id="SimHei-64" transform="scale(0.015625)"/>
      <path d="M 1675 2250 
Q 1675 1425 1362 775 
Q 1050 125 425 -475 
L 150 -200 
Q 725 325 1012 912 
Q 1300 1500 1300 2250 
Q 1300 3000 1012 3587 
Q 725 4175 150 4725 
L 425 5000 
Q 1050 4375 1362 3725 
Q 1675 3075 1675 2250 
z
" id="SimHei-29" transform="scale(0.015625)"/>
      <path d="M 2975 2900 
L 125 2900 
L 125 3300 
L 2975 3300 
L 2975 2900 
z
M 2975 1375 
L 125 1375 
L 125 1775 
L 2975 1775 
L 2975 1375 
z
" id="SimHei-3d" transform="scale(0.015625)"/>
      <path d="M 1700 2075 
Q 1550 2075 1462 1987 
Q 1375 1900 1375 1750 
L 1375 150 
Q 1375 -200 1225 -362 
Q 1075 -525 775 -525 
L 375 -525 
L 375 -225 
L 575 -225 
Q 725 -225 800 -150 
Q 875 -75 875 75 
L 875 1575 
Q 875 1825 937 1987 
Q 1000 2150 1100 2250 
Q 1000 2325 937 2500 
Q 875 2675 875 2925 
L 875 4450 
Q 875 4600 800 4675 
Q 725 4750 575 4750 
L 375 4750 
L 375 5050 
L 775 5050 
Q 1075 5050 1225 4875 
Q 1375 4700 1375 4375 
L 1375 2750 
Q 1375 2575 1462 2500 
Q 1550 2425 1700 2425 
L 1700 2075 
z
" id="SimHei-7d" transform="scale(0.015625)"/>
     </defs>
     <use xlink:href="#SimHei-50"/>
     <use x="50" xlink:href="#SimHei-43"/>
     <use x="100" xlink:href="#SimHei-41"/>
     <use x="150" xlink:href="#SimHei-20"/>
     <use x="200" xlink:href="#SimHei-52"/>
     <use x="250" xlink:href="#SimHei-65"/>
     <use x="300" xlink:href="#SimHei-73"/>
     <use x="350" xlink:href="#SimHei-75"/>
     <use x="400" xlink:href="#SimHei-6c"/>
     <use x="450" xlink:href="#SimHei-74"/>
     <use x="500" xlink:href="#SimHei-20"/>
     <use x="550" xlink:href="#SimHei-47"/>
     <use x="600" xlink:href="#SimHei-72"/>
     <use x="650" xlink:href="#SimHei-61"/>
     <use x="700" xlink:href="#SimHei-70"/>
     <use x="750" xlink:href="#SimHei-68"/>
     <use x="800" xlink:href="#SimHei-7b"/>
     <use x="850" xlink:href="#SimHei-28"/>
     <use x="900" xlink:href="#SimHei-6e"/>
     <use x="950" xlink:href="#SimHei-5f"/>
     <use x="1000" xlink:href="#SimHei-73"/>
     <use x="1050" xlink:href="#SimHei-61"/>
     <use x="1100" xlink:href="#SimHei-6d"/>
     <use x="1150" xlink:href="#SimHei-70"/>
     <use x="1200" xlink:href="#SimHei-6c"/>
     <use x="1250" xlink:href="#SimHei-65"/>
     <use x="1300" xlink:href="#SimHei-73"/>
     <use x="1350" xlink:href="#SimHei-2c"/>
     <use x="1400" xlink:href="#SimHei-6f"/>
     <use x="1450" xlink:href="#SimHei-72"/>
     <use x="1500" xlink:href="#SimHei-69"/>
     <use x="1550" xlink:href="#SimHei-67"/>
     <use x="1600" xlink:href="#SimHei-69"/>
     <use x="1650" xlink:href="#SimHei-6e"/>
     <use x="1700" xlink:href="#SimHei-5f"/>
     <use x="1750" xlink:href="#SimHei-64"/>
     <use x="1800" xlink:href="#SimHei-69"/>
     <use x="1850" xlink:href="#SimHei-6d"/>
     <use x="1900" xlink:href="#SimHei-29"/>
     <use x="1950" xlink:href="#SimHei-3d"/>
     <use x="2000" xlink:href="#SimHei-28"/>
     <use x="2050" xlink:href="#SimHei-35"/>
     <use x="2100" xlink:href="#SimHei-30"/>
     <use x="2150" xlink:href="#SimHei-2c"/>
     <use x="2200" xlink:href="#SimHei-32"/>
     <use x="2250" xlink:href="#SimHei-29"/>
     <use x="2300" xlink:href="#SimHei-7d"/>
    </g>
   </g>
   <g id="legend_1">
    <g id="patch_7">
     <path d="M 275.72 89.222 
L 407.72 89.222 
Q 409.72 89.222 409.72 87.222 
L 409.72 48.472 
Q 409.72 46.472 407.72 46.472 
L 275.72 46.472 
Q 273.72 46.472 273.72 48.472 
L 273.72 87.222 
Q 273.72 89.222 275.72 89.222 
z
" style="fill:#ffffff;opacity:0.8;stroke:#cccccc;stroke-linejoin:miter;"/>
    </g>
    <g id="line2d_16">
     <path d="M 277.72 53.972 
L 297.72 53.972 
" style="fill:none;stroke:#008000;stroke-linecap:square;"/>
    </g>
    <g id="line2d_17"/>
    <g id="text_18">
     <!-- projection direction -->
     <g transform="translate(305.72 57.472)scale(0.1 -0.1)">
      <defs>
       <path d="M 2300 3725 
L 1800 3725 
L 1800 4375 
L 2300 4375 
L 2300 3725 
z
M 2300 150 
Q 2300 -300 2025 -550 
Q 1750 -800 1300 -800 
Q 1025 -800 862 -762 
Q 700 -725 575 -675 
L 575 -175 
Q 700 -250 875 -300 
Q 1050 -350 1325 -350 
Q 1600 -350 1700 -212 
Q 1800 -75 1800 125 
L 1800 2925 
L 2300 2925 
L 2300 150 
z
" id="SimHei-6a" transform="scale(0.015625)"/>
       <path d="M 2850 1250 
Q 2850 725 2487 400 
Q 2125 75 1575 75 
Q 1025 75 625 462 
Q 225 850 225 1525 
Q 225 2200 625 2587 
Q 1025 2975 1575 2975 
Q 2125 2975 2450 2687 
Q 2775 2400 2775 2000 
L 2225 2000 
Q 2200 2300 2012 2412 
Q 1825 2525 1575 2525 
Q 1275 2525 1025 2287 
Q 775 2050 775 1525 
Q 775 1000 1025 762 
Q 1275 525 1575 525 
Q 1900 525 2100 700 
Q 2300 875 2300 1250 
L 2850 1250 
z
" id="SimHei-63" transform="scale(0.015625)"/>
      </defs>
      <use xlink:href="#SimHei-70"/>
      <use x="50" xlink:href="#SimHei-72"/>
      <use x="100" xlink:href="#SimHei-6f"/>
      <use x="150" xlink:href="#SimHei-6a"/>
      <use x="200" xlink:href="#SimHei-65"/>
      <use x="250" xlink:href="#SimHei-63"/>
      <use x="300" xlink:href="#SimHei-74"/>
      <use x="350" xlink:href="#SimHei-69"/>
      <use x="400" xlink:href="#SimHei-6f"/>
      <use x="450" xlink:href="#SimHei-6e"/>
      <use x="500" xlink:href="#SimHei-20"/>
      <use x="550" xlink:href="#SimHei-64"/>
      <use x="600" xlink:href="#SimHei-69"/>
      <use x="650" xlink:href="#SimHei-72"/>
      <use x="700" xlink:href="#SimHei-65"/>
      <use x="750" xlink:href="#SimHei-63"/>
      <use x="800" xlink:href="#SimHei-74"/>
      <use x="850" xlink:href="#SimHei-69"/>
      <use x="900" xlink:href="#SimHei-6f"/>
      <use x="950" xlink:href="#SimHei-6e"/>
     </g>
    </g>
    <g id="PathCollection_3">
     <g>
      <use style="fill:#ff6347;stroke:#ff6347;" x="287.72" xlink:href="#mf7af453638" y="68.097"/>
     </g>
    </g>
    <g id="text_19">
     <!-- origin data -->
     <g transform="translate(305.72 70.722)scale(0.1 -0.1)">
      <use xlink:href="#SimHei-6f"/>
      <use x="50" xlink:href="#SimHei-72"/>
      <use x="100" xlink:href="#SimHei-69"/>
      <use x="150" xlink:href="#SimHei-67"/>
      <use x="200" xlink:href="#SimHei-69"/>
      <use x="250" xlink:href="#SimHei-6e"/>
      <use x="300" xlink:href="#SimHei-20"/>
      <use x="350" xlink:href="#SimHei-64"/>
      <use x="400" xlink:href="#SimHei-61"/>
      <use x="450" xlink:href="#SimHei-74"/>
      <use x="500" xlink:href="#SimHei-61"/>
     </g>
    </g>
    <g id="PathCollection_4">
     <g>
      <use style="fill:#008000;stroke:#008000;" x="287.72" xlink:href="#mcffac3af91" y="81.347"/>
     </g>
    </g>
    <g id="text_20">
     <!-- reduced data -->
     <g transform="translate(305.72 83.972)scale(0.1 -0.1)">
      <use xlink:href="#SimHei-72"/>
      <use x="50" xlink:href="#SimHei-65"/>
      <use x="100" xlink:href="#SimHei-64"/>
      <use x="150" xlink:href="#SimHei-75"/>
      <use x="200" xlink:href="#SimHei-63"/>
      <use x="250" xlink:href="#SimHei-65"/>
      <use x="300" xlink:href="#SimHei-64"/>
      <use x="350" xlink:href="#SimHei-20"/>
      <use x="400" xlink:href="#SimHei-64"/>
      <use x="450" xlink:href="#SimHei-61"/>
      <use x="500" xlink:href="#SimHei-74"/>
      <use x="550" xlink:href="#SimHei-61"/>
     </g>
    </g>
   </g>
  </g>
 </g>
 <defs>
  <clipPath id="p721328fab1">
   <rect height="266.112" width="357.12" x="57.6" y="41.472"/>
  </clipPath>
 </defs>
</svg>
