<?xml version="1.0" encoding="utf-8" standalone="no"?>
<!DOCTYPE svg PUBLIC "-//W3C//DTD SVG 1.1//EN"
  "http://www.w3.org/Graphics/SVG/1.1/DTD/svg11.dtd">
<svg height="345.6pt" version="1.1" viewBox="0 0 460.8 345.6" width="460.8pt" xmlns="http://www.w3.org/2000/svg" xmlns:xlink="http://www.w3.org/1999/xlink">
 <metadata>
  <rdf:RDF xmlns:cc="http://creativecommons.org/ns#" xmlns:dc="http://purl.org/dc/elements/1.1/" xmlns:rdf="http://www.w3.org/1999/02/22-rdf-syntax-ns#">
   <cc:Work>
    <dc:type rdf:resource="http://purl.org/dc/dcmitype/StillImage"/>
    <dc:date>2021-10-27T22:25:39.530291</dc:date>
    <dc:format>image/svg+xml</dc:format>
    <dc:creator>
     <cc:Agent>
      <dc:title>Matplotlib v3.4.2, https://matplotlib.org/</dc:title>
     </cc:Agent>
    </dc:creator>
   </cc:Work>
  </rdf:RDF>
 </metadata>
 <defs>
  <style type="text/css">*{stroke-linecap:butt;stroke-linejoin:round;}</style>
 </defs>
 <g id="figure_1">
  <g id="patch_1">
   <path d="M 0 345.6 
L 460.8 345.6 
L 460.8 0 
L 0 0 
z
" style="fill:#ffffff;"/>
  </g>
  <g id="patch_2">
   <path d="M 57.6 345.6 
L 403.2 345.6 
L 403.2 0 
L 57.6 0 
z
" style="fill:#ffffff;"/>
  </g>
  <g id="pane3d_1">
   <g id="patch_3">
    <path d="M 83.695183 260.386116 
L 197.82359 164.721422 
L 196.237096 26.755832 
L 76.647057 114.027196 
" style="fill:#f2f2f2;opacity:0.5;stroke:#f2f2f2;stroke-linejoin:miter;"/>
   </g>
  </g>
  <g id="pane3d_2">
   <g id="patch_4">
    <path d="M 197.82359 164.721422 
L 380.958962 217.951644 
L 387.494418 75.233988 
L 196.237096 26.755832 
" style="fill:#e6e6e6;opacity:0.5;stroke:#e6e6e6;stroke-linejoin:miter;"/>
   </g>
  </g>
  <g id="pane3d_3">
   <g id="patch_5">
    <path d="M 83.695183 260.386116 
L 277.827622 323.78977 
L 380.958962 217.951644 
L 197.82359 164.721422 
" style="fill:#ececec;opacity:0.5;stroke:#ececec;stroke-linejoin:miter;"/>
   </g>
  </g>
  <g id="axis3d_1">
   <g id="line2d_1">
    <path d="M 83.695183 260.386116 
L 277.827622 323.78977 
" style="fill:none;stroke:#000000;stroke-linecap:square;stroke-width:0.8;"/>
   </g>
   <g id="text_1">
    <!-- $x$ -->
    <g transform="translate(157.742049 330.394474)scale(0.14 -0.14)">
     <defs>
      <path d="M 3841 3500 
L 2234 1784 
L 3219 0 
L 2559 0 
L 1819 1388 
L 531 0 
L -166 0 
L 1556 1844 
L 641 3500 
L 1300 3500 
L 1972 2234 
L 3144 3500 
L 3841 3500 
z
" id="DejaVuSans-Oblique-78" transform="scale(0.015625)"/>
     </defs>
     <use transform="translate(0 0.3125)" xlink:href="#DejaVuSans-Oblique-78"/>
    </g>
   </g>
   <g id="Line3DCollection_1">
    <path d="M 109.346072 268.763696 
L 222.114296 171.781771 
L 221.558667 33.174112 
" style="fill:none;stroke:#b0b0b0;stroke-width:0.8;"/>
    <path d="M 142.709009 279.660031 
L 253.665666 180.952509 
L 254.470198 41.516226 
" style="fill:none;stroke:#b0b0b0;stroke-width:0.8;"/>
    <path d="M 176.694281 290.759621 
L 285.756347 190.280003 
L 287.968845 50.007157 
" style="fill:none;stroke:#b0b0b0;stroke-width:0.8;"/>
    <path d="M 211.319465 302.068206 
L 318.400285 199.768307 
L 322.07046 58.650922 
" style="fill:none;stroke:#b0b0b0;stroke-width:0.8;"/>
    <path d="M 246.602805 313.591744 
L 351.611913 209.421616 
L 356.791472 67.451686 
" style="fill:none;stroke:#b0b0b0;stroke-width:0.8;"/>
   </g>
   <g id="xtick_1">
    <g id="line2d_2">
     <path d="M 110.32836 267.918918 
L 107.377266 270.456891 
" style="fill:none;stroke:#000000;stroke-linecap:square;stroke-width:0.8;"/>
    </g>
    <g id="text_2">
     <!-- 0 -->
     <g transform="translate(99.334198 291.409824)scale(0.1 -0.1)">
      <defs>
       <path d="M 225 2537 
Q 250 3200 412 3587 
Q 575 3975 875 4225 
Q 1175 4475 1612 4475 
Q 2050 4475 2375 4112 
Q 2700 3750 2800 3200 
Q 2900 2650 2862 1937 
Q 2825 1225 2612 775 
Q 2400 325 1975 150 
Q 1550 -25 1125 187 
Q 700 400 525 750 
Q 350 1100 275 1487 
Q 200 1875 225 2537 
z
M 750 2687 
Q 675 2000 800 1462 
Q 925 925 1212 700 
Q 1500 475 1800 612 
Q 2100 750 2237 1162 
Q 2375 1575 2375 2062 
Q 2375 2550 2337 2950 
Q 2300 3350 2112 3675 
Q 1925 4000 1612 4012 
Q 1300 4025 1062 3700 
Q 825 3375 750 2687 
z
" id="SimHei-30" transform="scale(0.015625)"/>
      </defs>
      <use xlink:href="#SimHei-30"/>
     </g>
    </g>
   </g>
   <g id="xtick_2">
    <g id="line2d_3">
     <path d="M 143.676245 278.799574 
L 140.770333 281.384686 
" style="fill:none;stroke:#000000;stroke-linecap:square;stroke-width:0.8;"/>
    </g>
    <g id="text_3">
     <!-- 1 -->
     <g transform="translate(132.724191 302.483888)scale(0.1 -0.1)">
      <defs>
       <path d="M 1400 3600 
Q 1075 3275 575 2975 
L 575 3450 
Q 1200 3875 1600 4450 
L 1900 4450 
L 1900 150 
L 1400 150 
L 1400 3600 
z
" id="SimHei-31" transform="scale(0.015625)"/>
      </defs>
      <use xlink:href="#SimHei-31"/>
     </g>
    </g>
   </g>
   <g id="xtick_3">
    <g id="line2d_4">
     <path d="M 177.64573 289.883044 
L 174.787208 292.51662 
" style="fill:none;stroke:#000000;stroke-linecap:square;stroke-width:0.8;"/>
    </g>
    <g id="text_4">
     <!-- 2 -->
     <g transform="translate(166.738844 313.765126)scale(0.1 -0.1)">
      <defs>
       <path d="M 300 250 
Q 325 625 650 925 
Q 975 1225 1475 1862 
Q 1975 2500 2125 2850 
Q 2275 3200 2237 3450 
Q 2200 3700 2000 3862 
Q 1800 4025 1537 4000 
Q 1275 3975 1037 3800 
Q 800 3625 675 3275 
L 200 3350 
Q 400 3925 712 4187 
Q 1025 4450 1450 4475 
Q 1700 4500 1900 4462 
Q 2100 4425 2312 4287 
Q 2525 4150 2662 3875 
Q 2800 3600 2762 3212 
Q 2725 2825 2375 2287 
Q 2025 1750 1025 600 
L 2825 600 
L 2825 150 
L 300 150 
L 300 250 
z
" id="SimHei-32" transform="scale(0.015625)"/>
      </defs>
      <use xlink:href="#SimHei-32"/>
     </g>
    </g>
   </g>
   <g id="xtick_4">
    <g id="line2d_5">
     <path d="M 212.254359 301.175052 
L 209.445535 303.858468 
" style="fill:none;stroke:#000000;stroke-linecap:square;stroke-width:0.8;"/>
    </g>
    <g id="text_5">
     <!-- 3 -->
     <g transform="translate(201.395853 325.259406)scale(0.1 -0.1)">
      <defs>
       <path d="M 250 1225 
L 700 1300 
Q 800 975 1025 762 
Q 1250 550 1587 562 
Q 1925 575 2125 837 
Q 2325 1100 2300 1437 
Q 2275 1775 2037 1962 
Q 1800 2150 1275 2225 
L 1275 2550 
Q 1800 2600 2037 2825 
Q 2275 3050 2250 3412 
Q 2225 3775 1925 3937 
Q 1625 4100 1287 3975 
Q 950 3850 750 3275 
L 300 3350 
Q 450 3800 712 4100 
Q 975 4400 1425 4450 
Q 1875 4500 2212 4337 
Q 2550 4175 2687 3837 
Q 2825 3500 2725 3100 
Q 2625 2700 2150 2400 
Q 2500 2250 2687 1950 
Q 2875 1650 2812 1162 
Q 2750 675 2375 375 
Q 2000 75 1525 87 
Q 1050 100 700 387 
Q 350 675 250 1225 
z
" id="SimHei-33" transform="scale(0.015625)"/>
      </defs>
      <use xlink:href="#SimHei-33"/>
     </g>
    </g>
   </g>
   <g id="xtick_5">
    <g id="line2d_6">
     <path d="M 247.52034 312.68154 
L 244.763631 315.416224 
" style="fill:none;stroke:#000000;stroke-linecap:square;stroke-width:0.8;"/>
    </g>
    <g id="text_6">
     <!-- 4 -->
     <g transform="translate(236.713587 336.972821)scale(0.1 -0.1)">
      <defs>
       <path d="M 2000 1100 
L 75 1100 
L 75 1525 
L 2100 4450 
L 2475 4450 
L 2475 1525 
L 3075 1525 
L 3075 1100 
L 2475 1100 
L 2475 150 
L 2000 150 
L 2000 1100 
z
M 2000 1525 
L 2000 3500 
L 600 1525 
L 2000 1525 
z
" id="SimHei-34" transform="scale(0.015625)"/>
      </defs>
      <use xlink:href="#SimHei-34"/>
     </g>
    </g>
   </g>
  </g>
  <g id="axis3d_2">
   <g id="line2d_7">
    <path d="M 380.958962 217.951644 
L 277.827622 323.78977 
" style="fill:none;stroke:#000000;stroke-linecap:square;stroke-width:0.8;"/>
   </g>
   <g id="text_7">
    <!-- $y$ -->
    <g transform="translate(354.464781 299.251775)scale(0.14 -0.14)">
     <defs>
      <path d="M 1588 -325 
Q 1188 -997 936 -1164 
Q 684 -1331 294 -1331 
L -159 -1331 
L -63 -850 
L 269 -850 
Q 509 -850 678 -719 
Q 847 -588 1056 -206 
L 1234 128 
L 459 3500 
L 1069 3500 
L 1650 819 
L 3256 3500 
L 3859 3500 
L 1588 -325 
z
" id="DejaVuSans-Oblique-79" transform="scale(0.015625)"/>
     </defs>
     <use transform="translate(0 0.3125)" xlink:href="#DejaVuSans-Oblique-79"/>
    </g>
   </g>
   <g id="Line3DCollection_2">
    <path d="M 96.622752 99.449843 
L 102.698377 244.457262 
L 295.06301 306.102021 
" style="fill:none;stroke:#b0b0b0;stroke-width:0.8;"/>
    <path d="M 120.735506 81.853454 
L 125.669314 225.202567 
L 315.863187 284.755923 
" style="fill:none;stroke:#b0b0b0;stroke-width:0.8;"/>
    <path d="M 144.022353 64.859774 
L 147.886849 206.579389 
L 335.945999 264.146018 
" style="fill:none;stroke:#b0b0b0;stroke-width:0.8;"/>
    <path d="M 166.52501 48.438359 
L 169.387448 188.55716 
L 355.347928 244.234865 
" style="fill:none;stroke:#b0b0b0;stroke-width:0.8;"/>
    <path d="M 188.282434 32.560782 
L 190.205262 171.107256 
L 374.103024 224.987523 
" style="fill:none;stroke:#b0b0b0;stroke-width:0.8;"/>
   </g>
   <g id="xtick_6">
    <g id="line2d_8">
     <path d="M 293.442641 305.582762 
L 298.307903 307.141873 
" style="fill:none;stroke:#000000;stroke-linecap:square;stroke-width:0.8;"/>
    </g>
    <g id="text_8">
     <!-- -4.2 -->
     <g transform="translate(297.837639 326.280294)scale(0.1 -0.1)">
      <defs>
       <path d="M 2975 2125 
L 125 2125 
L 125 2525 
L 2975 2525 
L 2975 2125 
z
" id="SimHei-2d" transform="scale(0.015625)"/>
       <path d="M 1075 125 
L 500 125 
L 500 675 
L 1075 675 
L 1075 125 
z
" id="SimHei-2e" transform="scale(0.015625)"/>
      </defs>
      <use xlink:href="#SimHei-2d"/>
      <use x="50" xlink:href="#SimHei-34"/>
      <use x="100" xlink:href="#SimHei-2e"/>
      <use x="150" xlink:href="#SimHei-32"/>
     </g>
    </g>
   </g>
   <g id="xtick_7">
    <g id="line2d_9">
     <path d="M 314.262516 284.254722 
L 319.068562 285.759588 
" style="fill:none;stroke:#000000;stroke-linecap:square;stroke-width:0.8;"/>
    </g>
    <g id="text_9">
     <!-- -4.1 -->
     <g transform="translate(318.422902 304.691075)scale(0.1 -0.1)">
      <use xlink:href="#SimHei-2d"/>
      <use x="50" xlink:href="#SimHei-34"/>
      <use x="100" xlink:href="#SimHei-2e"/>
      <use x="150" xlink:href="#SimHei-31"/>
     </g>
    </g>
   </g>
   <g id="xtick_8">
    <g id="line2d_10">
     <path d="M 334.364642 263.66195 
L 339.112628 265.115352 
" style="fill:none;stroke:#000000;stroke-linecap:square;stroke-width:0.8;"/>
    </g>
    <g id="text_10">
     <!-- -4.0 -->
     <g transform="translate(338.297899 283.846763)scale(0.1 -0.1)">
      <use xlink:href="#SimHei-2d"/>
      <use x="50" xlink:href="#SimHei-34"/>
      <use x="100" xlink:href="#SimHei-2e"/>
      <use x="150" xlink:href="#SimHei-30"/>
     </g>
    </g>
   </g>
   <g id="xtick_9">
    <g id="line2d_11">
     <path d="M 353.785507 243.767067 
L 358.476573 245.171601 
" style="fill:none;stroke:#000000;stroke-linecap:square;stroke-width:0.8;"/>
    </g>
    <g id="text_11">
     <!-- -3.9 -->
     <g transform="translate(357.498767 263.709458)scale(0.1 -0.1)">
      <defs>
       <path d="M 800 75 
Q 1350 1000 1700 1750 
Q 1075 1650 662 1912 
Q 250 2175 162 2625 
Q 75 3075 175 3437 
Q 275 3800 487 4037 
Q 700 4275 1000 4375 
Q 1300 4475 1537 4475 
Q 1775 4475 2025 4375 
Q 2275 4275 2475 4075 
Q 2675 3875 2750 3662 
Q 2825 3450 2825 3112 
Q 2825 2775 2575 2250 
Q 2325 1725 1350 75 
L 800 75 
z
M 662 2875 
Q 700 2550 937 2337 
Q 1175 2125 1450 2150 
Q 1725 2175 1887 2300 
Q 2050 2425 2200 2725 
Q 2300 3100 2250 3362 
Q 2200 3625 1987 3800 
Q 1775 3975 1525 3975 
Q 1375 4000 1137 3900 
Q 900 3800 762 3500 
Q 625 3200 662 2875 
z
" id="SimHei-39" transform="scale(0.015625)"/>
      </defs>
      <use xlink:href="#SimHei-2d"/>
      <use x="50" xlink:href="#SimHei-33"/>
      <use x="100" xlink:href="#SimHei-2e"/>
      <use x="150" xlink:href="#SimHei-39"/>
     </g>
    </g>
   </g>
   <g id="xtick_10">
    <g id="line2d_12">
     <path d="M 372.559165 224.535187 
L 377.194437 225.893277 
" style="fill:none;stroke:#000000;stroke-linecap:square;stroke-width:0.8;"/>
    </g>
    <g id="text_12">
     <!-- -3.8 -->
     <g transform="translate(376.059231 244.243788)scale(0.1 -0.1)">
      <defs>
       <path d="M 175 1375 
Q 175 1675 325 1962 
Q 475 2250 825 2425 
Q 525 2600 425 2812 
Q 325 3025 312 3300 
Q 300 3575 387 3775 
Q 475 3975 650 4150 
Q 825 4325 1037 4387 
Q 1250 4450 1500 4450 
Q 1750 4450 1950 4400 
Q 2150 4350 2375 4187 
Q 2600 4025 2700 3725 
Q 2800 3425 2687 3025 
Q 2575 2625 2100 2400 
Q 2525 2275 2700 2012 
Q 2875 1750 2875 1375 
Q 2875 1000 2762 775 
Q 2650 550 2512 400 
Q 2375 250 2137 162 
Q 1900 75 1537 75 
Q 1175 75 912 162 
Q 650 250 475 425 
Q 300 600 237 837 
Q 175 1075 175 1375 
z
M 687 1400 
Q 675 1100 787 875 
Q 900 650 1200 587 
Q 1500 525 1825 600 
Q 2150 675 2275 950 
Q 2400 1225 2362 1500 
Q 2325 1775 2050 1962 
Q 1775 2150 1450 2125 
Q 1125 2100 912 1900 
Q 700 1700 687 1400 
z
M 775 3350 
Q 775 3100 950 2875 
Q 1125 2650 1500 2650 
Q 1875 2650 2062 2875 
Q 2250 3100 2237 3412 
Q 2225 3725 2012 3875 
Q 1800 4025 1437 4000 
Q 1075 3975 925 3787 
Q 775 3600 775 3350 
z
" id="SimHei-38" transform="scale(0.015625)"/>
      </defs>
      <use xlink:href="#SimHei-2d"/>
      <use x="50" xlink:href="#SimHei-33"/>
      <use x="100" xlink:href="#SimHei-2e"/>
      <use x="150" xlink:href="#SimHei-38"/>
     </g>
    </g>
   </g>
  </g>
  <g id="axis3d_3">
   <g id="line2d_13">
    <path d="M 380.958962 217.951644 
L 387.494418 75.233988 
" style="fill:none;stroke:#000000;stroke-linecap:square;stroke-width:0.8;"/>
   </g>
   <g id="text_13">
    <!-- $z$ -->
    <g transform="translate(420.882625 146.676049)scale(0.14 -0.14)">
     <defs>
      <path d="M 744 3500 
L 3475 3500 
L 3372 2975 
L 738 459 
L 2913 459 
L 2822 0 
L -19 0 
L 84 525 
L 2719 3041 
L 653 3041 
L 744 3500 
z
" id="DejaVuSans-Oblique-7a" transform="scale(0.015625)"/>
     </defs>
     <use transform="translate(0 0.3125)" xlink:href="#DejaVuSans-Oblique-7a"/>
    </g>
   </g>
   <g id="Line3DCollection_3">
    <path d="M 381.635923 203.168532 
L 197.658945 150.403476 
L 82.96622 245.24873 
" style="fill:none;stroke:#b0b0b0;stroke-width:0.8;"/>
    <path d="M 382.694069 180.06133 
L 197.401736 128.035916 
L 81.826283 221.577181 
" style="fill:none;stroke:#b0b0b0;stroke-width:0.8;"/>
    <path d="M 383.767605 156.618051 
L 197.140966 105.358665 
L 80.669129 197.548142 
" style="fill:none;stroke:#b0b0b0;stroke-width:0.8;"/>
    <path d="M 384.856869 132.831311 
L 196.87656 82.365247 
L 79.494367 173.153452 
" style="fill:none;stroke:#b0b0b0;stroke-width:0.8;"/>
    <path d="M 385.962209 108.693505 
L 196.608442 59.049004 
L 78.301592 148.384703 
" style="fill:none;stroke:#b0b0b0;stroke-width:0.8;"/>
    <path d="M 387.083984 84.196805 
L 196.336533 35.403088 
L 77.090386 123.233223 
" style="fill:none;stroke:#b0b0b0;stroke-width:0.8;"/>
   </g>
   <g id="xtick_11">
    <g id="line2d_14">
     <path d="M 380.091515 202.725592 
L 384.728431 204.055471 
" style="fill:none;stroke:#000000;stroke-linecap:square;stroke-width:0.8;"/>
    </g>
    <g id="text_14">
     <!-- 5 -->
     <g transform="translate(397.480124 207.45898)scale(0.1 -0.1)">
      <defs>
       <path d="M 550 1325 
Q 725 650 1150 575 
Q 1575 500 1837 662 
Q 2100 825 2212 1087 
Q 2325 1350 2312 1675 
Q 2300 2000 2137 2225 
Q 1975 2450 1725 2525 
Q 1475 2600 1162 2525 
Q 850 2450 650 2175 
L 225 2225 
Q 275 2375 700 4375 
L 2675 4375 
L 2675 3925 
L 1075 3925 
Q 950 3250 825 2850 
Q 1200 3025 1525 3012 
Q 1850 3000 2150 2862 
Q 2450 2725 2587 2487 
Q 2725 2250 2787 2012 
Q 2850 1775 2837 1500 
Q 2825 1225 2725 937 
Q 2625 650 2425 462 
Q 2225 275 1937 162 
Q 1650 50 1275 75 
Q 900 100 562 350 
Q 225 600 100 1200 
L 550 1325 
z
" id="SimHei-35" transform="scale(0.015625)"/>
      </defs>
      <use xlink:href="#SimHei-35"/>
     </g>
    </g>
   </g>
   <g id="xtick_12">
    <g id="line2d_15">
     <path d="M 381.138091 179.62445 
L 385.80977 180.93614 
" style="fill:none;stroke:#000000;stroke-linecap:square;stroke-width:0.8;"/>
    </g>
    <g id="text_15">
     <!-- 6 -->
     <g transform="translate(398.667925 184.387177)scale(0.1 -0.1)">
      <defs>
       <path d="M 250 1612 
Q 275 1975 387 2225 
Q 500 2475 725 2850 
L 1750 4450 
L 2325 4450 
L 1275 2800 
Q 1950 2975 2350 2750 
Q 2750 2525 2887 2237 
Q 3025 1950 3037 1612 
Q 3050 1275 2937 950 
Q 2825 625 2537 362 
Q 2250 100 1737 75 
Q 1225 50 862 262 
Q 500 475 362 862 
Q 225 1250 250 1612 
z
M 1025 787 
Q 1250 550 1625 525 
Q 2000 500 2250 775 
Q 2500 1050 2500 1575 
Q 2500 2100 2187 2300 
Q 1875 2500 1487 2450 
Q 1100 2400 925 2075 
Q 750 1750 775 1387 
Q 800 1025 1025 787 
z
" id="SimHei-36" transform="scale(0.015625)"/>
      </defs>
      <use xlink:href="#SimHei-36"/>
     </g>
    </g>
   </g>
   <g id="xtick_13">
    <g id="line2d_16">
     <path d="M 382.199883 156.187456 
L 386.90685 157.480285 
" style="fill:none;stroke:#000000;stroke-linecap:square;stroke-width:0.8;"/>
    </g>
    <g id="text_16">
     <!-- 7 -->
     <g transform="translate(399.872961 160.980604)scale(0.1 -0.1)">
      <defs>
       <path d="M 850 150 
Q 1300 2050 2425 3925 
L 275 3925 
L 275 4375 
L 2950 4375 
L 2950 3950 
Q 1775 2050 1400 150 
L 850 150 
z
" id="SimHei-37" transform="scale(0.015625)"/>
      </defs>
      <use xlink:href="#SimHei-37"/>
     </g>
    </g>
   </g>
   <g id="xtick_14">
    <g id="line2d_17">
     <path d="M 383.277225 132.407232 
L 388.020015 133.680504 
" style="fill:none;stroke:#000000;stroke-linecap:square;stroke-width:0.8;"/>
    </g>
    <g id="text_17">
     <!-- 8 -->
     <g transform="translate(401.095609 137.23192)scale(0.1 -0.1)">
      <use xlink:href="#SimHei-38"/>
     </g>
    </g>
   </g>
   <g id="xtick_15">
    <g id="line2d_18">
     <path d="M 384.37046 108.276183 
L 389.149623 109.529177 
" style="fill:none;stroke:#000000;stroke-linecap:square;stroke-width:0.8;"/>
    </g>
    <g id="text_18">
     <!-- 9 -->
     <g transform="translate(402.336259 113.13357)scale(0.1 -0.1)">
      <use xlink:href="#SimHei-39"/>
     </g>
    </g>
   </g>
   <g id="xtick_16">
    <g id="line2d_19">
     <path d="M 385.479944 83.786487 
L 390.296041 85.018457 
" style="fill:none;stroke:#000000;stroke-linecap:square;stroke-width:0.8;"/>
    </g>
    <g id="text_19">
     <!-- 10 -->
     <g transform="translate(401.095312 88.677774)scale(0.1 -0.1)">
      <use xlink:href="#SimHei-31"/>
      <use x="50" xlink:href="#SimHei-30"/>
     </g>
    </g>
   </g>
  </g>
  <g id="axes_1">
   <g id="Path3DCollection_1">
    <defs>
     <path d="M 0 2.236068 
C 0.593012 2.236068 1.161816 2.000462 1.581139 1.581139 
C 2.000462 1.161816 2.236068 0.593012 2.236068 -0 
C 2.236068 -0.593012 2.000462 -1.161816 1.581139 -1.581139 
C 1.161816 -2.000462 0.593012 -2.236068 0 -2.236068 
C -0.593012 -2.236068 -1.161816 -2.000462 -1.581139 -1.581139 
C -2.000462 -1.161816 -2.236068 -0.593012 -2.236068 0 
C -2.236068 0.593012 -2.000462 1.161816 -1.581139 1.581139 
C -1.161816 2.000462 -0.593012 2.236068 0 2.236068 
z
" id="C0_0_94eaae74b2"/>
    </defs>
    <g clip-path="url(#pc20ea37fff)">
     <use style="fill:#ff6347;fill-opacity:0.3;stroke:#ff6347;stroke-opacity:0.3;" x="232.31792" xlink:href="#C0_0_94eaae74b2" y="186.813922"/>
    </g>
    <g clip-path="url(#pc20ea37fff)">
     <use style="fill:#ff6347;fill-opacity:0.397382;stroke:#ff6347;stroke-opacity:0.397382;" x="187.553065" xlink:href="#C0_0_94eaae74b2" y="156.402332"/>
    </g>
    <g clip-path="url(#pc20ea37fff)">
     <use style="fill:#ff6347;fill-opacity:0.432735;stroke:#ff6347;stroke-opacity:0.432735;" x="237.248106" xlink:href="#C0_0_94eaae74b2" y="186.54907"/>
    </g>
    <g clip-path="url(#pc20ea37fff)">
     <use style="fill:#ff6347;fill-opacity:0.441262;stroke:#ff6347;stroke-opacity:0.441262;" x="272.226165" xlink:href="#C0_0_94eaae74b2" y="156.775087"/>
    </g>
    <g clip-path="url(#pc20ea37fff)">
     <use style="fill:#ff6347;fill-opacity:0.447872;stroke:#ff6347;stroke-opacity:0.447872;" x="222.588527" xlink:href="#C0_0_94eaae74b2" y="152.10419"/>
    </g>
    <g clip-path="url(#pc20ea37fff)">
     <use style="fill:#ff6347;fill-opacity:0.47319;stroke:#ff6347;stroke-opacity:0.47319;" x="197.349129" xlink:href="#C0_0_94eaae74b2" y="189.300628"/>
    </g>
    <g clip-path="url(#pc20ea37fff)">
     <use style="fill:#ff6347;fill-opacity:0.487444;stroke:#ff6347;stroke-opacity:0.487444;" x="316.682543" xlink:href="#C0_0_94eaae74b2" y="140.755822"/>
    </g>
    <g clip-path="url(#pc20ea37fff)">
     <use style="fill:#ff6347;fill-opacity:0.497325;stroke:#ff6347;stroke-opacity:0.497325;" x="163.394642" xlink:href="#C0_0_94eaae74b2" y="130.527118"/>
    </g>
    <g clip-path="url(#pc20ea37fff)">
     <use style="fill:#ff6347;fill-opacity:0.507864;stroke:#ff6347;stroke-opacity:0.507864;" x="276.420453" xlink:href="#C0_0_94eaae74b2" y="183.088341"/>
    </g>
    <g clip-path="url(#pc20ea37fff)">
     <use style="fill:#ff6347;fill-opacity:0.512006;stroke:#ff6347;stroke-opacity:0.512006;" x="249.41769" xlink:href="#C0_0_94eaae74b2" y="144.0431"/>
    </g>
    <g clip-path="url(#pc20ea37fff)">
     <use style="fill:#ff6347;fill-opacity:0.525335;stroke:#ff6347;stroke-opacity:0.525335;" x="331.36455" xlink:href="#C0_0_94eaae74b2" y="164.86948"/>
    </g>
    <g clip-path="url(#pc20ea37fff)">
     <use style="fill:#ff6347;fill-opacity:0.538757;stroke:#ff6347;stroke-opacity:0.538757;" x="211.851109" xlink:href="#C0_0_94eaae74b2" y="174.054938"/>
    </g>
    <g clip-path="url(#pc20ea37fff)">
     <use style="fill:#ff6347;fill-opacity:0.54018;stroke:#ff6347;stroke-opacity:0.54018;" x="249.16859" xlink:href="#C0_0_94eaae74b2" y="153.856385"/>
    </g>
    <g clip-path="url(#pc20ea37fff)">
     <use style="fill:#ff6347;fill-opacity:0.55974;stroke:#ff6347;stroke-opacity:0.55974;" x="290.207718" xlink:href="#C0_0_94eaae74b2" y="168.210849"/>
    </g>
    <g clip-path="url(#pc20ea37fff)">
     <use style="fill:#ff6347;fill-opacity:0.561602;stroke:#ff6347;stroke-opacity:0.561602;" x="186.40256" xlink:href="#C0_0_94eaae74b2" y="145.669931"/>
    </g>
    <g clip-path="url(#pc20ea37fff)">
     <use style="fill:#ff6347;fill-opacity:0.580742;stroke:#ff6347;stroke-opacity:0.580742;" x="213.225377" xlink:href="#C0_0_94eaae74b2" y="183.304692"/>
    </g>
    <g clip-path="url(#pc20ea37fff)">
     <use style="fill:#ff6347;fill-opacity:0.584226;stroke:#ff6347;stroke-opacity:0.584226;" x="353.755132" xlink:href="#C0_0_94eaae74b2" y="190.439501"/>
    </g>
    <g clip-path="url(#pc20ea37fff)">
     <use style="fill:#ff6347;fill-opacity:0.587642;stroke:#ff6347;stroke-opacity:0.587642;" x="288.854019" xlink:href="#C0_0_94eaae74b2" y="115.356365"/>
    </g>
    <g clip-path="url(#pc20ea37fff)">
     <use style="fill:#ff6347;fill-opacity:0.593903;stroke:#ff6347;stroke-opacity:0.593903;" x="170.879725" xlink:href="#C0_0_94eaae74b2" y="175.149705"/>
    </g>
    <g clip-path="url(#pc20ea37fff)">
     <use style="fill:#ff6347;fill-opacity:0.616261;stroke:#ff6347;stroke-opacity:0.616261;" x="225.549198" xlink:href="#C0_0_94eaae74b2" y="134.160802"/>
    </g>
    <g clip-path="url(#pc20ea37fff)">
     <use style="fill:#ff6347;fill-opacity:0.62165;stroke:#ff6347;stroke-opacity:0.62165;" x="261.838624" xlink:href="#C0_0_94eaae74b2" y="197.698472"/>
    </g>
    <g clip-path="url(#pc20ea37fff)">
     <use style="fill:#ff6347;fill-opacity:0.626941;stroke:#ff6347;stroke-opacity:0.626941;" x="227.17312" xlink:href="#C0_0_94eaae74b2" y="150.064283"/>
    </g>
    <g clip-path="url(#pc20ea37fff)">
     <use style="fill:#ff6347;fill-opacity:0.634286;stroke:#ff6347;stroke-opacity:0.634286;" x="182.336781" xlink:href="#C0_0_94eaae74b2" y="179.888394"/>
    </g>
    <g clip-path="url(#pc20ea37fff)">
     <use style="fill:#ff6347;fill-opacity:0.648418;stroke:#ff6347;stroke-opacity:0.648418;" x="244.68344" xlink:href="#C0_0_94eaae74b2" y="182.65796"/>
    </g>
    <g clip-path="url(#pc20ea37fff)">
     <use style="fill:#ff6347;fill-opacity:0.654586;stroke:#ff6347;stroke-opacity:0.654586;" x="207.172193" xlink:href="#C0_0_94eaae74b2" y="180.90266"/>
    </g>
    <g clip-path="url(#pc20ea37fff)">
     <use style="fill:#ff6347;fill-opacity:0.66281;stroke:#ff6347;stroke-opacity:0.66281;" x="204.436172" xlink:href="#C0_0_94eaae74b2" y="141.917048"/>
    </g>
    <g clip-path="url(#pc20ea37fff)">
     <use style="fill:#ff6347;fill-opacity:0.671447;stroke:#ff6347;stroke-opacity:0.671447;" x="249.906172" xlink:href="#C0_0_94eaae74b2" y="162.605023"/>
    </g>
    <g clip-path="url(#pc20ea37fff)">
     <use style="fill:#ff6347;fill-opacity:0.671522;stroke:#ff6347;stroke-opacity:0.671522;" x="275.066479" xlink:href="#C0_0_94eaae74b2" y="126.05915"/>
    </g>
    <g clip-path="url(#pc20ea37fff)">
     <use style="fill:#ff6347;fill-opacity:0.6794;stroke:#ff6347;stroke-opacity:0.6794;" x="230.352374" xlink:href="#C0_0_94eaae74b2" y="240.630672"/>
    </g>
    <g clip-path="url(#pc20ea37fff)">
     <use style="fill:#ff6347;fill-opacity:0.697436;stroke:#ff6347;stroke-opacity:0.697436;" x="205.518846" xlink:href="#C0_0_94eaae74b2" y="186.661987"/>
    </g>
    <g clip-path="url(#pc20ea37fff)">
     <use style="fill:#ff6347;fill-opacity:0.706076;stroke:#ff6347;stroke-opacity:0.706076;" x="269.766781" xlink:href="#C0_0_94eaae74b2" y="175.242435"/>
    </g>
    <g clip-path="url(#pc20ea37fff)">
     <use style="fill:#ff6347;fill-opacity:0.708726;stroke:#ff6347;stroke-opacity:0.708726;" x="316.429006" xlink:href="#C0_0_94eaae74b2" y="149.297066"/>
    </g>
    <g clip-path="url(#pc20ea37fff)">
     <use style="fill:#ff6347;fill-opacity:0.719727;stroke:#ff6347;stroke-opacity:0.719727;" x="271.838246" xlink:href="#C0_0_94eaae74b2" y="191.245528"/>
    </g>
    <g clip-path="url(#pc20ea37fff)">
     <use style="fill:#ff6347;fill-opacity:0.727465;stroke:#ff6347;stroke-opacity:0.727465;" x="224.16326" xlink:href="#C0_0_94eaae74b2" y="181.240704"/>
    </g>
    <g clip-path="url(#pc20ea37fff)">
     <use style="fill:#ff6347;fill-opacity:0.742925;stroke:#ff6347;stroke-opacity:0.742925;" x="205.029185" xlink:href="#C0_0_94eaae74b2" y="170.922671"/>
    </g>
    <g clip-path="url(#pc20ea37fff)">
     <use style="fill:#ff6347;fill-opacity:0.749303;stroke:#ff6347;stroke-opacity:0.749303;" x="178.711738" xlink:href="#C0_0_94eaae74b2" y="195.440899"/>
    </g>
    <g clip-path="url(#pc20ea37fff)">
     <use style="fill:#ff6347;fill-opacity:0.757329;stroke:#ff6347;stroke-opacity:0.757329;" x="213.110246" xlink:href="#C0_0_94eaae74b2" y="150.444298"/>
    </g>
    <g clip-path="url(#pc20ea37fff)">
     <use style="fill:#ff6347;fill-opacity:0.762075;stroke:#ff6347;stroke-opacity:0.762075;" x="278.337002" xlink:href="#C0_0_94eaae74b2" y="191.76026"/>
    </g>
    <g clip-path="url(#pc20ea37fff)">
     <use style="fill:#ff6347;fill-opacity:0.767066;stroke:#ff6347;stroke-opacity:0.767066;" x="170.053928" xlink:href="#C0_0_94eaae74b2" y="237.608242"/>
    </g>
    <g clip-path="url(#pc20ea37fff)">
     <use style="fill:#ff6347;fill-opacity:0.775267;stroke:#ff6347;stroke-opacity:0.775267;" x="323.578908" xlink:href="#C0_0_94eaae74b2" y="159.663113"/>
    </g>
    <g clip-path="url(#pc20ea37fff)">
     <use style="fill:#ff6347;fill-opacity:0.790931;stroke:#ff6347;stroke-opacity:0.790931;" x="234.662252" xlink:href="#C0_0_94eaae74b2" y="150.748341"/>
    </g>
    <g clip-path="url(#pc20ea37fff)">
     <use style="fill:#ff6347;fill-opacity:0.796359;stroke:#ff6347;stroke-opacity:0.796359;" x="210.855296" xlink:href="#C0_0_94eaae74b2" y="171.092133"/>
    </g>
    <g clip-path="url(#pc20ea37fff)">
     <use style="fill:#ff6347;fill-opacity:0.798607;stroke:#ff6347;stroke-opacity:0.798607;" x="199.006903" xlink:href="#C0_0_94eaae74b2" y="137.429478"/>
    </g>
    <g clip-path="url(#pc20ea37fff)">
     <use style="fill:#ff6347;fill-opacity:0.801335;stroke:#ff6347;stroke-opacity:0.801335;" x="247.562506" xlink:href="#C0_0_94eaae74b2" y="223.408261"/>
    </g>
    <g clip-path="url(#pc20ea37fff)">
     <use style="fill:#ff6347;fill-opacity:0.822329;stroke:#ff6347;stroke-opacity:0.822329;" x="241.750642" xlink:href="#C0_0_94eaae74b2" y="173.916942"/>
    </g>
    <g clip-path="url(#pc20ea37fff)">
     <use style="fill:#ff6347;fill-opacity:0.826428;stroke:#ff6347;stroke-opacity:0.826428;" x="279.981173" xlink:href="#C0_0_94eaae74b2" y="217.719441"/>
    </g>
    <g clip-path="url(#pc20ea37fff)">
     <use style="fill:#ff6347;fill-opacity:0.836523;stroke:#ff6347;stroke-opacity:0.836523;" x="142.18799" xlink:href="#C0_0_94eaae74b2" y="173.18755"/>
    </g>
    <g clip-path="url(#pc20ea37fff)">
     <use style="fill:#ff6347;fill-opacity:0.860233;stroke:#ff6347;stroke-opacity:0.860233;" x="235.169115" xlink:href="#C0_0_94eaae74b2" y="133.573993"/>
    </g>
    <g clip-path="url(#pc20ea37fff)">
     <use style="fill:#ff6347;fill-opacity:0.892273;stroke:#ff6347;stroke-opacity:0.892273;" x="126.931286" xlink:href="#C0_0_94eaae74b2" y="183.648855"/>
    </g>
    <g clip-path="url(#pc20ea37fff)">
     <use style="fill:#ff6347;stroke:#ff6347;" x="249.034555" xlink:href="#C0_0_94eaae74b2" y="126.934563"/>
    </g>
   </g>
   <g id="text_20">
    <!-- Samples Scatter Graph{(n_samples,n_features)=(50,3)} -->
    <g transform="translate(22.4 -6)scale(0.16 -0.16)">
     <defs>
      <path d="M 2900 1325 
Q 2900 750 2537 412 
Q 2175 75 1550 75 
Q 925 75 575 425 
Q 225 775 225 1300 
L 225 1475 
L 800 1475 
L 800 1325 
Q 800 950 1025 750 
Q 1250 550 1550 550 
Q 1950 550 2137 762 
Q 2325 975 2325 1275 
Q 2325 1525 2100 1737 
Q 1875 1950 1450 2125 
Q 850 2350 587 2625 
Q 325 2900 325 3275 
Q 325 3800 687 4125 
Q 1050 4450 1550 4450 
Q 2200 4450 2487 4062 
Q 2775 3675 2775 3225 
L 2200 3225 
Q 2225 3500 2050 3725 
Q 1875 3950 1550 3950 
Q 1250 3950 1075 3787 
Q 900 3625 900 3350 
Q 900 3125 1037 2962 
Q 1175 2800 1750 2575 
Q 2300 2350 2600 2037 
Q 2900 1725 2900 1325 
z
" id="SimHei-53" transform="scale(0.015625)"/>
      <path d="M 2875 125 
L 2275 125 
Q 2225 175 2200 262 
Q 2175 350 2175 475 
Q 2000 275 1750 175 
Q 1500 75 1225 75 
Q 825 75 550 275 
Q 275 475 275 850 
Q 275 1225 525 1450 
Q 775 1675 1300 1750 
Q 1650 1800 1912 1875 
Q 2175 1950 2175 2075 
Q 2175 2225 2062 2375 
Q 1950 2525 1575 2525 
Q 1275 2525 1137 2412 
Q 1000 2300 950 2100 
L 400 2100 
Q 450 2500 762 2737 
Q 1075 2975 1575 2975 
Q 2125 2975 2400 2725 
Q 2675 2475 2675 2025 
L 2675 650 
Q 2675 500 2725 375 
Q 2775 250 2875 125 
z
M 2175 1050 
L 2175 1550 
Q 2025 1500 1887 1462 
Q 1750 1425 1425 1375 
Q 1050 1325 937 1200 
Q 825 1075 825 900 
Q 825 750 937 637 
Q 1050 525 1275 525 
Q 1500 525 1762 650 
Q 2025 775 2175 1050 
z
" id="SimHei-61" transform="scale(0.015625)"/>
      <path d="M 3050 125 
L 2550 125 
L 2550 2150 
Q 2550 2300 2500 2400 
Q 2450 2500 2300 2500 
Q 2125 2500 1975 2312 
Q 1825 2125 1825 1825 
L 1825 125 
L 1325 125 
L 1325 2150 
Q 1325 2300 1275 2400 
Q 1225 2500 1075 2500 
Q 900 2500 750 2312 
Q 600 2125 600 1825 
L 600 125 
L 100 125 
L 100 2925 
L 600 2925 
L 600 2550 
Q 725 2750 900 2862 
Q 1075 2975 1275 2975 
Q 1475 2975 1612 2862 
Q 1750 2750 1800 2550 
Q 1925 2750 2087 2862 
Q 2250 2975 2450 2975 
Q 2750 2975 2900 2812 
Q 3050 2650 3050 2350 
L 3050 125 
z
" id="SimHei-6d" transform="scale(0.015625)"/>
      <path d="M 2825 1525 
Q 2825 800 2475 425 
Q 2125 50 1625 50 
Q 1350 50 1150 162 
Q 950 275 800 500 
L 800 -800 
L 300 -800 
L 300 2925 
L 800 2925 
L 800 2550 
Q 950 2775 1150 2875 
Q 1350 2975 1625 2975 
Q 2125 2975 2475 2612 
Q 2825 2250 2825 1525 
z
M 2275 1525 
Q 2275 2000 2087 2262 
Q 1900 2525 1525 2525 
Q 1225 2525 1012 2262 
Q 800 2000 800 1525 
Q 800 1050 1012 775 
Q 1225 500 1525 500 
Q 1900 500 2087 775 
Q 2275 1050 2275 1525 
z
" id="SimHei-70" transform="scale(0.015625)"/>
      <path d="M 1825 125 
L 1325 125 
L 1325 4400 
L 1825 4400 
L 1825 125 
z
" id="SimHei-6c" transform="scale(0.015625)"/>
      <path d="M 2850 1075 
Q 2800 625 2450 350 
Q 2100 75 1625 75 
Q 1025 75 637 462 
Q 250 850 250 1525 
Q 250 2200 637 2587 
Q 1025 2975 1625 2975 
Q 2150 2975 2487 2637 
Q 2825 2300 2825 1525 
L 800 1525 
Q 800 975 1037 750 
Q 1275 525 1625 525 
Q 1900 525 2075 662 
Q 2250 800 2300 1075 
L 2850 1075 
z
M 2250 1925 
Q 2200 2275 2025 2412 
Q 1850 2550 1575 2550 
Q 1325 2550 1125 2412 
Q 925 2275 825 1925 
L 2250 1925 
z
" id="SimHei-65" transform="scale(0.015625)"/>
      <path d="M 2750 900 
Q 2750 500 2437 287 
Q 2125 75 1650 75 
Q 1050 75 725 312 
Q 400 550 400 1000 
L 900 1000 
Q 900 700 1112 600 
Q 1325 500 1625 500 
Q 1925 500 2075 612 
Q 2225 725 2225 900 
Q 2225 1025 2100 1150 
Q 1975 1275 1475 1350 
Q 900 1425 687 1637 
Q 475 1850 475 2200 
Q 475 2500 762 2737 
Q 1050 2975 1600 2975 
Q 2100 2975 2387 2750 
Q 2675 2525 2675 2150 
L 2175 2150 
Q 2175 2375 2012 2462 
Q 1850 2550 1600 2550 
Q 1275 2550 1137 2437 
Q 1000 2325 1000 2175 
Q 1000 2000 1125 1900 
Q 1250 1800 1650 1750 
Q 2300 1650 2525 1437 
Q 2750 1225 2750 900 
z
" id="SimHei-73" transform="scale(0.015625)"/>
      <path id="SimHei-20" transform="scale(0.015625)"/>
      <path d="M 2850 1250 
Q 2850 725 2487 400 
Q 2125 75 1575 75 
Q 1025 75 625 462 
Q 225 850 225 1525 
Q 225 2200 625 2587 
Q 1025 2975 1575 2975 
Q 2125 2975 2450 2687 
Q 2775 2400 2775 2000 
L 2225 2000 
Q 2200 2300 2012 2412 
Q 1825 2525 1575 2525 
Q 1275 2525 1025 2287 
Q 775 2050 775 1525 
Q 775 1000 1025 762 
Q 1275 525 1575 525 
Q 1900 525 2100 700 
Q 2300 875 2300 1250 
L 2850 1250 
z
" id="SimHei-63" transform="scale(0.015625)"/>
      <path d="M 2750 200 
Q 2625 150 2462 112 
Q 2300 75 2025 75 
Q 1575 75 1300 325 
Q 1025 575 1025 1025 
L 1025 2525 
L 175 2525 
L 175 2925 
L 1025 2925 
L 1025 3900 
L 1525 3900 
L 1525 2925 
L 2550 2925 
L 2550 2525 
L 1525 2525 
L 1525 1000 
Q 1525 800 1625 662 
Q 1725 525 2000 525 
Q 2275 525 2450 575 
Q 2625 625 2750 700 
L 2750 200 
z
" id="SimHei-74" transform="scale(0.015625)"/>
      <path d="M 2500 2425 
Q 2025 2500 1700 2287 
Q 1375 2075 1150 1550 
L 1150 125 
L 650 125 
L 650 2925 
L 1150 2925 
L 1150 2200 
Q 1375 2600 1712 2787 
Q 2050 2975 2500 2975 
L 2500 2425 
z
" id="SimHei-72" transform="scale(0.015625)"/>
      <path d="M 2850 75 
L 2425 75 
L 2350 425 
Q 2250 275 2037 175 
Q 1825 75 1575 75 
Q 1050 75 637 562 
Q 225 1050 225 2125 
Q 225 3300 600 3875 
Q 975 4450 1625 4450 
Q 2200 4450 2525 4025 
Q 2850 3600 2850 2925 
L 2300 2925 
Q 2300 3450 2125 3712 
Q 1950 3975 1625 3975 
Q 1225 3975 1025 3562 
Q 825 3150 825 2175 
Q 825 1250 1075 900 
Q 1325 550 1650 550 
Q 1975 550 2162 787 
Q 2350 1025 2350 1525 
L 2350 1800 
L 1575 1800 
L 1575 2275 
L 2850 2275 
L 2850 75 
z
" id="SimHei-47" transform="scale(0.015625)"/>
      <path d="M 2800 125 
L 2300 125 
L 2300 1925 
Q 2300 2225 2150 2400 
Q 2000 2575 1750 2575 
Q 1425 2575 1137 2237 
Q 850 1900 850 1400 
L 850 125 
L 350 125 
L 350 4400 
L 850 4400 
L 850 2400 
Q 1050 2675 1287 2825 
Q 1525 2975 1900 2975 
Q 2350 2975 2575 2725 
Q 2800 2475 2800 2100 
L 2800 125 
z
" id="SimHei-68" transform="scale(0.015625)"/>
      <path d="M 2750 -525 
L 2350 -525 
Q 2050 -525 1900 -362 
Q 1750 -200 1750 150 
L 1750 1750 
Q 1750 1900 1675 1987 
Q 1600 2075 1425 2075 
L 1425 2425 
Q 1600 2425 1675 2500 
Q 1750 2575 1750 2750 
L 1750 4375 
Q 1750 4700 1900 4875 
Q 2050 5050 2350 5050 
L 2750 5050 
L 2750 4750 
L 2550 4750 
Q 2400 4750 2325 4675 
Q 2250 4600 2250 4450 
L 2250 2925 
Q 2250 2675 2200 2500 
Q 2150 2325 2025 2250 
Q 2150 2150 2200 1987 
Q 2250 1825 2250 1575 
L 2250 75 
Q 2250 -75 2325 -150 
Q 2400 -225 2550 -225 
L 2750 -225 
L 2750 -525 
z
" id="SimHei-7b" transform="scale(0.015625)"/>
      <path d="M 2975 -200 
L 2700 -475 
Q 2075 125 1762 775 
Q 1450 1425 1450 2250 
Q 1450 3075 1762 3725 
Q 2075 4375 2700 5000 
L 2975 4725 
Q 2400 4175 2112 3587 
Q 1825 3000 1825 2250 
Q 1825 1500 2112 912 
Q 2400 325 2975 -200 
z
" id="SimHei-28" transform="scale(0.015625)"/>
      <path d="M 2800 125 
L 2300 125 
L 2300 1925 
Q 2300 2225 2150 2400 
Q 2000 2575 1750 2575 
Q 1425 2575 1137 2237 
Q 850 1900 850 1400 
L 850 125 
L 350 125 
L 350 2925 
L 850 2925 
L 850 2400 
Q 1050 2675 1287 2825 
Q 1525 2975 1900 2975 
Q 2350 2975 2575 2725 
Q 2800 2475 2800 2100 
L 2800 125 
z
" id="SimHei-6e" transform="scale(0.015625)"/>
      <path d="M 3150 -850 
L 0 -850 
L 0 -550 
L 3150 -550 
L 3150 -850 
z
" id="SimHei-5f" transform="scale(0.015625)"/>
      <path d="M 1100 125 
L 775 -550 
L 525 -550 
L 775 125 
L 525 125 
L 525 675 
L 1100 675 
L 1100 125 
z
" id="SimHei-2c" transform="scale(0.015625)"/>
      <path d="M 2850 3825 
Q 2725 3900 2550 3950 
Q 2375 4000 2100 4000 
Q 1825 4000 1725 3862 
Q 1625 3725 1625 3525 
L 1625 2925 
L 2650 2925 
L 2650 2525 
L 1625 2525 
L 1625 125 
L 1125 125 
L 1125 2525 
L 275 2525 
L 275 2925 
L 1125 2925 
L 1125 3500 
Q 1125 3950 1400 4200 
Q 1675 4450 2125 4450 
Q 2400 4450 2562 4412 
Q 2725 4375 2850 4325 
L 2850 3825 
z
" id="SimHei-66" transform="scale(0.015625)"/>
      <path d="M 2800 125 
L 2300 125 
L 2300 650 
Q 2100 375 1862 225 
Q 1625 75 1250 75 
Q 800 75 575 325 
Q 350 575 350 950 
L 350 2925 
L 850 2925 
L 850 1125 
Q 850 825 1000 650 
Q 1150 475 1400 475 
Q 1725 475 2012 812 
Q 2300 1150 2300 1650 
L 2300 2925 
L 2800 2925 
L 2800 125 
z
" id="SimHei-75" transform="scale(0.015625)"/>
      <path d="M 1675 2250 
Q 1675 1425 1362 775 
Q 1050 125 425 -475 
L 150 -200 
Q 725 325 1012 912 
Q 1300 1500 1300 2250 
Q 1300 3000 1012 3587 
Q 725 4175 150 4725 
L 425 5000 
Q 1050 4375 1362 3725 
Q 1675 3075 1675 2250 
z
" id="SimHei-29" transform="scale(0.015625)"/>
      <path d="M 2975 2900 
L 125 2900 
L 125 3300 
L 2975 3300 
L 2975 2900 
z
M 2975 1375 
L 125 1375 
L 125 1775 
L 2975 1775 
L 2975 1375 
z
" id="SimHei-3d" transform="scale(0.015625)"/>
      <path d="M 1700 2075 
Q 1550 2075 1462 1987 
Q 1375 1900 1375 1750 
L 1375 150 
Q 1375 -200 1225 -362 
Q 1075 -525 775 -525 
L 375 -525 
L 375 -225 
L 575 -225 
Q 725 -225 800 -150 
Q 875 -75 875 75 
L 875 1575 
Q 875 1825 937 1987 
Q 1000 2150 1100 2250 
Q 1000 2325 937 2500 
Q 875 2675 875 2925 
L 875 4450 
Q 875 4600 800 4675 
Q 725 4750 575 4750 
L 375 4750 
L 375 5050 
L 775 5050 
Q 1075 5050 1225 4875 
Q 1375 4700 1375 4375 
L 1375 2750 
Q 1375 2575 1462 2500 
Q 1550 2425 1700 2425 
L 1700 2075 
z
" id="SimHei-7d" transform="scale(0.015625)"/>
     </defs>
     <use xlink:href="#SimHei-53"/>
     <use x="50" xlink:href="#SimHei-61"/>
     <use x="100" xlink:href="#SimHei-6d"/>
     <use x="150" xlink:href="#SimHei-70"/>
     <use x="200" xlink:href="#SimHei-6c"/>
     <use x="250" xlink:href="#SimHei-65"/>
     <use x="300" xlink:href="#SimHei-73"/>
     <use x="350" xlink:href="#SimHei-20"/>
     <use x="400" xlink:href="#SimHei-53"/>
     <use x="450" xlink:href="#SimHei-63"/>
     <use x="500" xlink:href="#SimHei-61"/>
     <use x="550" xlink:href="#SimHei-74"/>
     <use x="600" xlink:href="#SimHei-74"/>
     <use x="650" xlink:href="#SimHei-65"/>
     <use x="700" xlink:href="#SimHei-72"/>
     <use x="750" xlink:href="#SimHei-20"/>
     <use x="800" xlink:href="#SimHei-47"/>
     <use x="850" xlink:href="#SimHei-72"/>
     <use x="900" xlink:href="#SimHei-61"/>
     <use x="950" xlink:href="#SimHei-70"/>
     <use x="1000" xlink:href="#SimHei-68"/>
     <use x="1050" xlink:href="#SimHei-7b"/>
     <use x="1100" xlink:href="#SimHei-28"/>
     <use x="1150" xlink:href="#SimHei-6e"/>
     <use x="1200" xlink:href="#SimHei-5f"/>
     <use x="1250" xlink:href="#SimHei-73"/>
     <use x="1300" xlink:href="#SimHei-61"/>
     <use x="1350" xlink:href="#SimHei-6d"/>
     <use x="1400" xlink:href="#SimHei-70"/>
     <use x="1450" xlink:href="#SimHei-6c"/>
     <use x="1500" xlink:href="#SimHei-65"/>
     <use x="1550" xlink:href="#SimHei-73"/>
     <use x="1600" xlink:href="#SimHei-2c"/>
     <use x="1650" xlink:href="#SimHei-6e"/>
     <use x="1700" xlink:href="#SimHei-5f"/>
     <use x="1750" xlink:href="#SimHei-66"/>
     <use x="1800" xlink:href="#SimHei-65"/>
     <use x="1850" xlink:href="#SimHei-61"/>
     <use x="1900" xlink:href="#SimHei-74"/>
     <use x="1950" xlink:href="#SimHei-75"/>
     <use x="2000" xlink:href="#SimHei-72"/>
     <use x="2050" xlink:href="#SimHei-65"/>
     <use x="2100" xlink:href="#SimHei-73"/>
     <use x="2150" xlink:href="#SimHei-29"/>
     <use x="2200" xlink:href="#SimHei-3d"/>
     <use x="2250" xlink:href="#SimHei-28"/>
     <use x="2300" xlink:href="#SimHei-35"/>
     <use x="2350" xlink:href="#SimHei-30"/>
     <use x="2400" xlink:href="#SimHei-2c"/>
     <use x="2450" xlink:href="#SimHei-33"/>
     <use x="2500" xlink:href="#SimHei-29"/>
     <use x="2550" xlink:href="#SimHei-7d"/>
    </g>
   </g>
   <g id="legend_1">
    <g id="patch_6">
     <path d="M 299.2 21.25 
L 396.2 21.25 
Q 398.2 21.25 398.2 19.25 
L 398.2 7 
Q 398.2 5 396.2 5 
L 299.2 5 
Q 297.2 5 297.2 7 
L 297.2 19.25 
Q 297.2 21.25 299.2 21.25 
z
" style="fill:#ffffff;opacity:0.8;stroke:#cccccc;stroke-linejoin:miter;"/>
    </g>
    <g id="Path3DCollection_2">
     <defs>
      <path d="M 0 2.236068 
C 0.593012 2.236068 1.161816 2.000462 1.581139 1.581139 
C 2.000462 1.161816 2.236068 0.593012 2.236068 0 
C 2.236068 -0.593012 2.000462 -1.161816 1.581139 -1.581139 
C 1.161816 -2.000462 0.593012 -2.236068 0 -2.236068 
C -0.593012 -2.236068 -1.161816 -2.000462 -1.581139 -1.581139 
C -2.000462 -1.161816 -2.236068 -0.593012 -2.236068 0 
C -2.236068 0.593012 -2.000462 1.161816 -1.581139 1.581139 
C -1.161816 2.000462 -0.593012 2.236068 0 2.236068 
z
" id="me75ded7018" style="stroke:#ff6347;"/>
     </defs>
     <g>
      <use style="fill:#ff6347;stroke:#ff6347;" x="311.2" xlink:href="#me75ded7018" y="13.375"/>
     </g>
    </g>
    <g id="text_21">
     <!-- generate data -->
     <g transform="translate(329.2 16)scale(0.1 -0.1)">
      <defs>
       <path d="M 2975 2500 
Q 2800 2550 2637 2562 
Q 2475 2575 2300 2525 
Q 2375 2450 2425 2337 
Q 2475 2225 2475 2000 
Q 2475 1575 2187 1300 
Q 1900 1025 1475 1025 
Q 1375 1025 1212 1062 
Q 1050 1100 950 1150 
Q 875 1100 850 1050 
Q 825 1000 825 925 
Q 825 800 1000 737 
Q 1175 675 1625 675 
Q 2350 675 2612 475 
Q 2875 275 2875 -25 
Q 2875 -425 2487 -612 
Q 2100 -800 1575 -800 
Q 900 -800 575 -625 
Q 250 -450 250 -150 
Q 250 0 375 150 
Q 500 300 700 400 
Q 550 475 462 587 
Q 375 700 375 875 
Q 375 1025 487 1137 
Q 600 1250 750 1325 
Q 625 1450 550 1625 
Q 475 1800 475 2000 
Q 475 2425 762 2700 
Q 1050 2975 1475 2975 
Q 1700 2975 1862 2912 
Q 2025 2850 2150 2725 
Q 2350 2875 2550 2937 
Q 2750 3000 2975 2975 
L 2975 2500 
z
M 1975 2000 
Q 1975 2250 1850 2400 
Q 1725 2550 1475 2550 
Q 1225 2550 1100 2400 
Q 975 2250 975 2000 
Q 975 1750 1100 1600 
Q 1225 1450 1475 1450 
Q 1725 1450 1850 1600 
Q 1975 1750 1975 2000 
z
M 2400 -75 
Q 2400 25 2287 125 
Q 2175 225 1725 225 
Q 1625 225 1450 237 
Q 1275 250 1050 275 
Q 850 200 775 100 
Q 700 0 700 -100 
Q 700 -250 900 -350 
Q 1100 -450 1600 -450 
Q 2025 -450 2212 -337 
Q 2400 -225 2400 -75 
z
" id="SimHei-67" transform="scale(0.015625)"/>
       <path d="M 2750 125 
L 2250 125 
L 2250 500 
Q 2100 275 1900 175 
Q 1700 75 1425 75 
Q 925 75 575 437 
Q 225 800 225 1525 
Q 225 2250 575 2625 
Q 925 3000 1425 3000 
Q 1700 3000 1900 2887 
Q 2100 2775 2250 2550 
L 2250 4400 
L 2750 4400 
L 2750 125 
z
M 2250 1525 
Q 2250 2000 2037 2275 
Q 1825 2550 1525 2550 
Q 1150 2550 962 2275 
Q 775 2000 775 1525 
Q 775 1050 962 787 
Q 1150 525 1525 525 
Q 1825 525 2037 787 
Q 2250 1050 2250 1525 
z
" id="SimHei-64" transform="scale(0.015625)"/>
      </defs>
      <use xlink:href="#SimHei-67"/>
      <use x="50" xlink:href="#SimHei-65"/>
      <use x="100" xlink:href="#SimHei-6e"/>
      <use x="150" xlink:href="#SimHei-65"/>
      <use x="200" xlink:href="#SimHei-72"/>
      <use x="250" xlink:href="#SimHei-61"/>
      <use x="300" xlink:href="#SimHei-74"/>
      <use x="350" xlink:href="#SimHei-65"/>
      <use x="400" xlink:href="#SimHei-20"/>
      <use x="450" xlink:href="#SimHei-64"/>
      <use x="500" xlink:href="#SimHei-61"/>
      <use x="550" xlink:href="#SimHei-74"/>
      <use x="600" xlink:href="#SimHei-61"/>
     </g>
    </g>
   </g>
  </g>
 </g>
 <defs>
  <clipPath id="pc20ea37fff">
   <rect height="345.6" width="345.6" x="57.6" y="0"/>
  </clipPath>
 </defs>
</svg>
